<?xml version="1.0" encoding="UTF-8" standalone="no"?>
<!-- Generator: Adobe Illustrator 15.0.0, SVG Export Plug-In . SVG Version: 6.00 Build 0)  -->

<svg
   xmlns:dc="http://purl.org/dc/elements/1.1/"
   xmlns:cc="http://creativecommons.org/ns#"
   xmlns:rdf="http://www.w3.org/1999/02/22-rdf-syntax-ns#"
   xmlns:svg="http://www.w3.org/2000/svg"
   xmlns="http://www.w3.org/2000/svg"
   xmlns:sodipodi="http://sodipodi.sourceforge.net/DTD/sodipodi-0.dtd"
   xmlns:inkscape="http://www.inkscape.org/namespaces/inkscape"
   version="1.1"
   id="Layer_1"
   x="0px"
   y="0px"
   width="224.45056"
   height="223.6875"
   viewBox="0 0 224.45056 223.6875"
   enable-background="new 0 0 600 370"
   xml:space="preserve"
   inkscape:version="0.48.2 r9819"
   sodipodi:docname="Arachnid Labs Logo"><metadata
   id="metadata47"><rdf:RDF><cc:Work
       rdf:about=""><dc:format>image/svg+xml</dc:format><dc:type
         rdf:resource="http://purl.org/dc/dcmitype/StillImage" /><dc:title></dc:title></cc:Work></rdf:RDF></metadata><defs
   id="defs45">
	
	
	
	
	
	
	
</defs><sodipodi:namedview
   pagecolor="#ffffff"
   bordercolor="#666666"
   borderopacity="1"
   objecttolerance="10"
   gridtolerance="10"
   guidetolerance="10"
   inkscape:pageopacity="0"
   inkscape:pageshadow="2"
   inkscape:window-width="1600"
   inkscape:window-height="838"
   id="namedview43"
   showgrid="false"
   inkscape:zoom="2"
   inkscape:cx="-12.756355"
   inkscape:cy="69.94296"
   inkscape:window-x="-8"
   inkscape:window-y="-8"
   inkscape:window-maximized="1"
   inkscape:current-layer="Layer_1"
   fit-margin-top="0"
   fit-margin-left="0"
   fit-margin-right="0"
   fit-margin-bottom="0" />
<path
   d="m 98.422485,0 c -2.708,0 -4.90625,2.19825 -4.90625,4.90625 0,0.887 0.24425,1.7205 0.65625,2.4375 l -19.09375,19.34375 0,33.25 21.46875,25.15625 -1.46875,2.28125 -27.09375,-20.3125 -11.625,-40.625 7.78125,-14.78125 c 0.473,0.152 0.976,0.25 1.5,0.25 2.708,0 4.875,-2.19925 4.875,-4.90625 0,-2.708 -2.167,-4.90625 -4.875,-4.90625 -2.708,0 -4.90625,2.19825 -4.90625,4.90625 0,1.274 0.48525,2.40925 1.28125,3.28125 l -11.15625,14.75 10.0625,44.9375 29.3125,25 -0.21875,0.3125 -24.1875,-2.53125 -23.21875,27.0625 0.0937,1.84375 5.875,21.5 c -1.815,0.719 -3.125,2.4905 -3.125,4.5625 0,2.707 2.19825,4.90625 4.90625,4.90625 2.708,0 4.90625,-2.19925 4.90625,-4.90625 0,-2.625 -2.06625,-4.744 -4.65625,-4.875 l -2.5,-20.9375 19.65625,-21.9375 18.46875,3.34375 -0.34375,1.75 -23.75,17.5625 4.4688,40.5625 13.71875,14.375 c -0.465,0.749 -0.75,1.6155 -0.75,2.5625 0,2.707 2.19725,4.90625 4.90625,4.90625 2.707,0 4.90625,-2.19925 4.90625,-4.90625 0,-2.709 -2.19925,-4.875 -4.90625,-4.875 -0.869,0 -1.669,0.23 -2.375,0.625 l -10.3125,-14.96875 -1.9375,-35.125 12.71875,-3.5 14.53125,29.03125 15.968755,7.0625 15.9375,-7.0625 14.53125,-29.03125 -3.3125,-17.25 -0.34375,-1.71875 18.5,-3.34375 19.65625,21.9375 -2.5,20.9375 c -2.591,0.131 -4.65625,2.25 -4.65625,4.875 0,2.707 2.19925,4.90625 4.90625,4.90625 2.708,0 4.875,-2.19925 4.875,-4.90625 0,-2.071 -1.27975,-3.8435 -3.09375,-4.5625 l 5.875,-21.5 0.0937,-1.84375 -23.21875,-27.0625 -24.21875,2.53125 -0.1875,-0.3125 29.3125,-25 10.0625,-44.9375 -11.15625,-14.75 c 0.796,-0.872 1.28125,-2.00725 1.28125,-3.28125 0,-2.708 -2.19725,-4.90625 -4.90625,-4.90625 -2.706,0 -4.875,2.19825 -4.875,4.90625 0,2.708 2.169,4.90625 4.875,4.90625 0.524,0 1.025,-0.098 1.5,-0.25 l 7.78125,14.78125 -11.625,40.625 -27.125,20.3125 -1.4375,-2.28125 c -2.91175,-4.49298 -1.75556,-2.76375 0,0 l 21.4688,-25.15625 0,-33.25 -19.09375,-19.34375 c 0.412,-0.717 0.65625,-1.5515 0.65625,-2.4375 0,-2.708 -2.19725,-4.90625 -4.90625,-4.90625 -2.706,0 -4.875,2.19825 -4.875,4.90625 0,2.708 2.169,4.90625 4.875,4.90625 0.789,0 1.5265,-0.20025 2.1875,-0.53125 l 13.65625,19.03125 -1.625,30.90625 -11.53125,12.375 -5.5,-10.1875 -0.0312,-0.1875 -23.5625,0 -5.593755,10.40625 -11.5313,-12.40625 -1.625,-30.90625 13.65625,-19.03125 c 0.66,0.331 1.3985,0.53125 2.1875,0.53125 2.707005,0 4.875005,-2.19925 4.875005,-4.90625 0,-2.708 -2.168,-4.90625 -4.875005,-4.90625 z m 41.812505,105.03125 3.13542,17.25 12.92708,3.5 -1.9375,35.125 -10.3125,14.96875 c -0.707,-0.395 -1.508,-0.625 -2.375,-0.625 -2.709,0 -4.90625,2.166 -4.90625,4.875 0,2.707 2.19725,4.90625 4.90625,4.90625 2.708,0 4.875,-2.19925 4.875,-4.90625 0,-0.947 -0.25275,-1.8135 -0.71875,-2.5625 l 13.71875,-14.375 4.46875,-40.5625 z M 98.391235,2.09375 c 1.559,0 2.843755,1.2535 2.843755,2.8125 0,1.559 -1.285755,2.84375 -2.843755,2.84375 -1.56,0 -2.8125,-1.28575 -2.8125,-2.84375 0,-1.56 1.2535,-2.8125 2.8125,-2.8125 z m 29.343755,0 c 1.561,0 2.84375,1.2535 2.84375,2.8125 0,1.559 -1.28375,2.84375 -2.84375,2.84375 -1.558,0 -2.8125,-1.28575 -2.8125,-2.84375 0,-1.56 1.2545,-2.8125 2.8125,-2.8125 z M 65.641235,4.1875 c 1.558,0 2.8125,1.2535 2.8125,2.8125 0,1.559 -1.2545,2.8125 -2.8125,2.8125 -1.559,0 -2.84375,-1.2545 -2.84375,-2.8125 10e-4,-1.56 1.28475,-2.8125 2.84375,-2.8125 z m 94.875005,0 c 1.561,0 2.84375,1.2535 2.84375,2.8125 0,1.559 -1.28375,2.8125 -2.84375,2.8125 -1.558,0 -2.8125,-1.2545 -2.8125,-2.8125 0,-1.559 1.2545,-2.8125 2.8125,-2.8125 z m -53.59375,87.59375 1.40625,0 9.5,0 1.40625,0 0,2.4375 -1.40625,0 0.0312,8.125 11.1875,28.8125 -2.875,6.28125 -26.187505,0 -2.875,-6.28125 11.187505,-28.8125 0,-8.125 -1.375,0 z m -56.562505,53.125 c 1.558,0 2.84375,1.2535 2.84375,2.8125 0,1.558 -1.28475,2.8125 -2.84375,2.8125 -1.559,0 -2.8125,-1.2555 -2.8125,-2.8125 0,-1.56 1.2545,-2.8125 2.8125,-2.8125 z m 125.437505,0 c 1.56,0 2.8125,1.2535 2.8125,2.8125 0,1.558 -1.2535,2.8125 -2.8125,2.8125 -1.559,0 -2.84375,-1.2555 -2.84375,-2.8125 0,-1.56 1.28575,-2.8125 2.84375,-2.8125 z M 84.484985,177.3125 c 1.558,0 2.84375,1.2535 2.84375,2.8125 0,1.558 -1.28575,2.84375 -2.84375,2.84375 -1.56,0 -2.8125,-1.28675 -2.8125,-2.84375 0,-1.56 1.2525,-2.8125 2.8125,-2.8125 z m 57.187505,0 c 1.558,0 2.8125,1.2535 2.8125,2.8125 0,1.558 -1.2535,2.84375 -2.8125,2.84375 -1.559,0 -2.84375,-1.28675 -2.84375,-2.84375 0,-1.56 1.28575,-2.8125 2.84375,-2.8125 z"
   id="path5"
   inkscape:connector-curvature="0"
   sodipodi:nodetypes="ssccccccccsssscccccccccsssccccccccsssscccccccccccccssscccccccccsssscccccccccsssscccccccccccssscccccssssccccssssssssssssscsssssscccccccccccccccssssssssssssssssssss"
   inkscape:export-filename="C:\Users\nickjohnson\Downloads\arachnid labs.png"
   inkscape:export-xdpi="150"
   inkscape:export-ydpi="150" /><polygon
   id="polygon13"
   points="291.911,192.721 287.702,204.087 289.656,208.326 310.326,208.326 312.28,204.087 308.071,192.721 "
   inkscape:export-filename="C:\Users\nickjohnson\Downloads\arachnid labs.png"
   inkscape:export-xdpi="150"
   inkscape:export-ydpi="150"
   style="fill:#83969c;fill-opacity:1"
   transform="translate(-186.92126,-73.8125)" />
<g
   inkscape:groupmode="layer"
   id="layer3"
   inkscape:label="Logo"
   style="display:inline"
   transform="translate(-186.92126,-73.8125)" /><g
   inkscape:groupmode="layer"
   id="layer4"
   inkscape:label="Beaker"
   style="display:inline"
   transform="translate(-186.92126,-73.8125)" /><text
   xml:space="preserve"
   style="font-size:40px;font-style:normal;font-variant:normal;font-weight:bold;font-stretch:normal;text-align:center;line-height:125%;letter-spacing:0px;word-spacing:0px;text-anchor:middle;fill:#000000;fill-opacity:1;stroke:#000000;stroke-opacity:1;font-family:Prime;-inkscape-font-specification:Sans Bold"
   x="112.07874"
   y="223.1875"
   id="text3775"
   sodipodi:linespacing="125%"><tspan
     sodipodi:role="line"
     id="tspan3777"
     x="112.07874"
     y="223.1875"
     style="font-size:28px;font-style:normal;font-variant:normal;font-weight:normal;font-stretch:normal;stroke:#000000;stroke-opacity:1;font-family:Orbitron;-inkscape-font-specification:Orbitron">Arachnid Labs</tspan></text>

</svg>