999
DXF created by Inkscape
  0
SECTION
  2
HEADER
  9
$ACADVER
  1
AC1014
  9
$HANDSEED
  5
FFFF
  9
$MEASUREMENT
 70
     1
  0
ENDSEC
  0
SECTION
  2
TABLES
  0
TABLE
  2
VPORT
  5
8
330
0
100
AcDbSymbolTable
 70
     4
  0
VPORT
  5
2E
330
8
100
AcDbSymbolTableRecord
100
AcDbViewportTableRecord
  2
*ACTIVE
 70
     0
 10
0.0
 20
0.0
 11
1.0
 21
1.0
 12
210.0
 22
148.5
 13
0.0
 23
0.0
 14
10.0
 24
10.0
 15
10.0
 25
10.0
 16
0.0
 26
0.0
 36
1.0
 17
0.0
 27
0.0
 37
0.0
 40
341.0
 41
1.24
 42
50.0
 43
0.0
 44
0.0
 50
0.0
 51
0.0
 71
     0
 72
   100
 73
     1
 74
     3
 75
     0
 76
     0
 77
     0
 78
     0
  0
ENDTAB
  0
TABLE
  2
LTYPE
  5
5
330
0
100
AcDbSymbolTable
 70
     1
  0
LTYPE
  5
14
330
5
100
AcDbSymbolTableRecord
100
AcDbLinetypeTableRecord
  2
BYBLOCK
 70
     0
  3

 72
    65
 73
     0
 40
0.0
  0
LTYPE
  5
15
330
5
100
AcDbSymbolTableRecord
100
AcDbLinetypeTableRecord
  2
BYLAYER
 70
     0
  3

 72
    65
 73
     0
 40
0.0
  0
LTYPE
  5
16
330
5
100
AcDbSymbolTableRecord
100
AcDbLinetypeTableRecord
  2
CONTINUOUS
 70
     0
  3
Solid line
 72
    65
 73
     0
 40
0.0
  0
ENDTAB
  0
TABLE
  2
LAYER
  5
2
100
AcDbSymbolTable
 70
3
  0
LAYER
  5
50
100
AcDbSymbolTableRecord
100
AcDbLayerTableRecord
  2
0
 70
0
  6
CONTINUOUS
  0
LAYER
  5
51
100
AcDbSymbolTableRecord
100
AcDbLayerTableRecord
  2
Logo
 70
0
  6
CONTINUOUS
  0
LAYER
  5
52
100
AcDbSymbolTableRecord
100
AcDbLayerTableRecord
  2
Beaker
 70
0
  6
CONTINUOUS
  0
ENDTAB
  0
TABLE
  2
STYLE
  5
3
330
0
100
AcDbSymbolTable
 70
     1
  0
STYLE
  5
11
330
3
100
AcDbSymbolTableRecord
100
AcDbTextStyleTableRecord
  2
STANDARD
 70
     0
 40
0.0
 41
1.0
 50
0.0
 71
     0
 42
2.5
  3
txt
  4

  0
ENDTAB
  0
TABLE
  2
VIEW
  5
6
330
0
100
AcDbSymbolTable
 70
     0
  0
ENDTAB
  0
TABLE
  2
UCS
  5
7
330
0
100
AcDbSymbolTable
 70
     0
  0
ENDTAB
  0
TABLE
  2
APPID
  5
9
330
0
100
AcDbSymbolTable
 70
     2
  0
APPID
  5
12
330
9
100
AcDbSymbolTableRecord
100
AcDbRegAppTableRecord
  2
ACAD
 70
     0
  0
ENDTAB
  0
TABLE
  2
DIMSTYLE
  5
A
330
0
100
AcDbSymbolTable
 70
     1
  0
DIMSTYLE
105
27
330
A
100
AcDbSymbolTableRecord
100
AcDbDimStyleTableRecord
  2
ISO-25
 70
     0
  3

  4

  5

  6

  7

 40
1.0
 41
2.5
 42
0.625
 43
3.75
 44
1.25
 45
0.0
 46
0.0
 47
0.0
 48
0.0
140
2.5
141
2.5
142
0.0
143
0.03937007874016
144
1.0
145
0.0
146
1.0
147
0.625
 71
     0
 72
     0
 73
     0
 74
     0
 75
     0
 76
     0
 77
     1
 78
     8
170
     0
171
     3
172
     1
173
     0
174
     0
175
     0
176
     0
177
     0
178
     0
270
     2
271
     2
272
     2
273
     2
274
     3
340
11
275
     0
280
     0
281
     0
282
     0
283
     0
284
     8
285
     0
286
     0
287
     3
288
     0
  0
ENDTAB
  0
TABLE
  2
BLOCK_RECORD
  5
1
330
0
100
AcDbSymbolTable
 70
     1
  0
BLOCK_RECORD
  5
1F
330
1
100
AcDbSymbolTableRecord
100
AcDbBlockTableRecord
  2
*MODEL_SPACE
  0
BLOCK_RECORD
  5
1B
330
1
100
AcDbSymbolTableRecord
100
AcDbBlockTableRecord
  2
*PAPER_SPACE
  0
ENDTAB
  0
ENDSEC
  0
SECTION
  2
BLOCKS
  0
BLOCK
  5
20
330
1F
100
AcDbEntity
  8
0
100
AcDbBlockBegin
  2
*MODEL_SPACE
 70
     0
 10
0.0
 20
0.0
 30
0.0
  3
*MODEL_SPACE
  1

  0
ENDBLK
  5
21
330
1F
100
AcDbEntity
  8
0
100
AcDbBlockEnd
  0
BLOCK
  5
1C
330
1B
100
AcDbEntity
 67
     1
  8
0
100
AcDbBlockBegin
  2
*PAPER_SPACE
  1

  0
ENDBLK
  5
1D
330
1B
100
AcDbEntity
 67
     1
  8
0
100
AcDbBlockEnd
  0
ENDSEC
  0
SECTION
  2
ENTITIES
  0
LWPOLYLINE
  5
100
100
AcDbEntity
  8
0
 62
7
100
AcDbPolyline
 90
1608
 70
0
 10
8.766975
 20
20.034482
 30
0.0
 10
8.681309
 20
20.026128
 30
0.0
 10
8.598938
 20
20.001180
 30
0.0
 10
8.522983
 20
19.960512
 30
0.0
 10
8.456334
 20
19.905763
 30
0.0
 10
8.401634
 20
19.839210
 30
0.0
 10
8.360944
 20
19.763295
 30
0.0
 10
8.335913
 20
19.680770
 30
0.0
 10
8.327548
 20
19.595073
 30
0.0
 10
8.334254
 20
19.519282
 30
0.0
 10
8.354114
 20
19.445806
 30
0.0
 10
8.386327
 20
19.376760
 30
0.0
 10
8.325211
 20
19.314844
 30
0.0
 10
8.264102
 20
19.252935
 30
0.0
 10
8.203038
 20
19.191069
 30
0.0
 10
8.141992
 20
19.129226
 30
0.0
 10
8.080943
 20
19.067377
 30
0.0
 10
8.019928
 20
19.005565
 30
0.0
 10
7.958796
 20
18.943631
 30
0.0
 10
7.897687
 20
18.881723
 30
0.0
 10
7.836596
 20
18.819831
 30
0.0
 10
7.775535
 20
18.757971
 30
0.0
 10
7.714485
 20
18.696119
 30
0.0
 10
7.653420
 20
18.634256
 30
0.0
 10
7.592341
 20
18.572379
 30
0.0
 10
7.531205
 20
18.510442
 30
0.0
 10
7.470193
 20
18.448630
 30
0.0
 10
7.409088
 20
18.386725
 30
0.0
 10
7.347966
 20
18.324802
 30
0.0
 10
7.286898
 20
18.262936
 30
0.0
 10
7.225769
 20
18.201006
 30
0.0
 10
7.164748
 20
18.139185
 30
0.0
 10
7.103703
 20
18.077341
 30
0.0
 10
7.042603
 20
18.015442
 30
0.0
 10
6.981482
 20
17.953519
 30
0.0
 10
6.920470
 20
17.891710
 30
0.0
 10
6.859447
 20
17.829889
 30
0.0
 10
6.798351
 20
17.767992
 30
0.0
 10
6.737292
 20
17.706135
 30
0.0
 10
6.676203
 20
17.644243
 30
0.0
 10
6.676203
 20
17.556732
 30
0.0
 10
6.676203
 20
17.469085
 30
0.0
 10
6.676203
 20
17.381424
 30
0.0
 10
6.676203
 20
17.293881
 30
0.0
 10
6.676203
 20
17.206291
 30
0.0
 10
6.676203
 20
17.118734
 30
0.0
 10
6.676203
 20
17.031206
 30
0.0
 10
6.676203
 20
16.943562
 30
0.0
 10
6.676203
 20
16.855903
 30
0.0
 10
6.676203
 20
16.768338
 30
0.0
 10
6.676203
 20
16.680734
 30
0.0
 10
6.676203
 20
16.593219
 30
0.0
 10
6.676203
 20
16.505584
 30
0.0
 10
6.676203
 20
16.417937
 30
0.0
 10
6.676203
 20
16.330394
 30
0.0
 10
6.676203
 20
16.242781
 30
0.0
 10
6.676203
 20
16.155275
 30
0.0
 10
6.676203
 20
16.067662
 30
0.0
 10
6.676203
 20
15.980094
 30
0.0
 10
6.676203
 20
15.892532
 30
0.0
 10
6.676203
 20
15.804930
 30
0.0
 10
6.676203
 20
15.717388
 30
0.0
 10
6.676203
 20
15.629840
 30
0.0
 10
6.676203
 20
15.542162
 30
0.0
 10
6.676203
 20
15.454557
 30
0.0
 10
6.676203
 20
15.366893
 30
0.0
 10
6.676203
 20
15.279308
 30
0.0
 10
6.676203
 20
15.191715
 30
0.0
 10
6.676203
 20
15.104125
 30
0.0
 10
6.676203
 20
15.016605
 30
0.0
 10
6.676203
 20
14.929085
 30
0.0
 10
6.676203
 20
14.841452
 30
0.0
 10
6.676203
 20
14.753754
 30
0.0
 10
6.676203
 20
14.666220
 30
0.0
 10
6.732708
 20
14.600011
 30
0.0
 10
6.789299
 20
14.533700
 30
0.0
 10
6.845899
 20
14.467378
 30
0.0
 10
6.902423
 20
14.401146
 30
0.0
 10
6.958979
 20
14.334874
 30
0.0
 10
7.015513
 20
14.268631
 30
0.0
 10
7.072028
 20
14.202408
 30
0.0
 10
7.128617
 20
14.136100
 30
0.0
 10
7.185217
 20
14.069777
 30
0.0
 10
7.241754
 20
14.003531
 30
0.0
 10
7.298320
 20
13.937249
 30
0.0
 10
7.354826
 20
13.871037
 30
0.0
 10
7.411410
 20
13.804734
 30
0.0
 10
7.468001
 20
13.738423
 30
0.0
 10
7.524526
 20
13.672188
 30
0.0
 10
7.581094
 20
13.605906
 30
0.0
 10
7.637595
 20
13.539699
 30
0.0
 10
7.694164
 20
13.473414
 30
0.0
 10
7.750705
 20
13.407162
 30
0.0
 10
7.807243
 20
13.340913
 30
0.0
 10
7.863806
 20
13.274633
 30
0.0
 10
7.920329
 20
13.208401
 30
0.0
 10
7.976857
 20
13.142164
 30
0.0
 10
8.033468
 20
13.075830
 30
0.0
 10
8.090033
 20
13.009550
 30
0.0
 10
8.146636
 20
12.943225
 30
0.0
 10
8.203187
 20
12.876960
 30
0.0
 10
8.259743
 20
12.810691
 30
0.0
 10
8.316298
 20
12.744420
 30
0.0
 10
8.372808
 20
12.678205
 30
0.0
 10
8.429319
 20
12.611987
 30
0.0
 10
8.485900
 20
12.545687
 30
0.0
 10
8.542525
 20
12.479337
 30
0.0
 10
8.599043
 20
12.413110
 30
0.0
 10
8.555239
 20
12.345075
 30
0.0
 10
8.511331
 20
12.276879
 30
0.0
 10
8.467495
 20
12.208793
 30
0.0
 10
8.396184
 20
12.262254
 30
0.0
 10
8.324766
 20
12.315797
 30
0.0
 10
8.253336
 20
12.369349
 30
0.0
 10
8.182002
 20
12.422830
 30
0.0
 10
8.110629
 20
12.476339
 30
0.0
 10
8.039283
 20
12.529829
 30
0.0
 10
7.967960
 20
12.583299
 30
0.0
 10
7.896544
 20
12.636839
 30
0.0
 10
7.825115
 20
12.690394
 30
0.0
 10
7.753764
 20
12.743883
 30
0.0
 10
7.682378
 20
12.797404
 30
0.0
 10
7.611067
 20
12.850865
 30
0.0
 10
7.539657
 20
12.904403
 30
0.0
 10
7.468239
 20
12.957946
 30
0.0
 10
7.396904
 20
13.011427
 30
0.0
 10
7.325514
 20
13.064948
 30
0.0
 10
7.254209
 20
13.118406
 30
0.0
 10
7.182818
 20
13.171930
 30
0.0
 10
7.111463
 20
13.225425
 30
0.0
 10
7.040112
 20
13.278917
 30
0.0
 10
6.968730
 20
13.332435
 30
0.0
 10
6.897396
 20
13.385913
 30
0.0
 10
6.826058
 20
13.439397
 30
0.0
 10
6.754614
 20
13.492958
 30
0.0
 10
6.683229
 20
13.546478
 30
0.0
 10
6.611796
 20
13.600033
 30
0.0
 10
6.540427
 20
13.653536
 30
0.0
 10
6.469053
 20
13.707048
 30
0.0
 10
6.397680
 20
13.760558
 30
0.0
 10
6.326364
 20
13.814022
 30
0.0
 10
6.255047
 20
13.867489
 30
0.0
 10
6.183642
 20
13.921024
 30
0.0
 10
6.112180
 20
13.974601
 30
0.0
 10
6.040854
 20
14.028073
 30
0.0
 10
6.016650
 20
14.112658
 30
0.0
 10
5.992447
 20
14.197240
 30
0.0
 10
5.968255
 20
14.281777
 30
0.0
 10
5.944049
 20
14.366370
 30
0.0
 10
5.919859
 20
14.450907
 30
0.0
 10
5.895622
 20
14.535605
 30
0.0
 10
5.871433
 20
14.620142
 30
0.0
 10
5.847215
 20
14.704772
 30
0.0
 10
5.823012
 20
14.789354
 30
0.0
 10
5.798783
 20
14.874029
 30
0.0
 10
5.774543
 20
14.958738
 30
0.0
 10
5.750346
 20
15.043303
 30
0.0
 10
5.726111
 20
15.127992
 30
0.0
 10
5.701896
 20
15.212611
 30
0.0
 10
5.677670
 20
15.297275
 30
0.0
 10
5.653476
 20
15.381823
 30
0.0
 10
5.629278
 20
15.466391
 30
0.0
 10
5.605038
 20
15.551097
 30
0.0
 10
5.580832
 20
15.635685
 30
0.0
 10
5.556631
 20
15.720255
 30
0.0
 10
5.532414
 20
15.804888
 30
0.0
 10
5.508213
 20
15.889459
 30
0.0
 10
5.483979
 20
15.974154
 30
0.0
 10
5.459761
 20
16.058784
 30
0.0
 10
5.435532
 20
16.143453
 30
0.0
 10
5.411326
 20
16.228044
 30
0.0
 10
5.387109
 20
16.312676
 30
0.0
 10
5.362908
 20
16.397250
 30
0.0
 10
5.338668
 20
16.481962
 30
0.0
 10
5.314442
 20
16.566620
 30
0.0
 10
5.290250
 20
16.651168
 30
0.0
 10
5.266032
 20
16.735798
 30
0.0
 10
5.241812
 20
16.820439
 30
0.0
 10
5.217583
 20
16.905112
 30
0.0
 10
5.193357
 20
16.989770
 30
0.0
 10
5.169168
 20
17.074307
 30
0.0
 10
5.144945
 20
17.158959
 30
0.0
 10
5.120730
 20
17.243584
 30
0.0
 10
5.096538
 20
17.328129
 30
0.0
 10
5.072343
 20
17.412683
 30
0.0
 10
5.048117
 20
17.497347
 30
0.0
 10
5.023906
 20
17.581960
 30
0.0
 10
4.999677
 20
17.666635
 30
0.0
 10
5.040671
 20
17.744508
 30
0.0
 10
5.081665
 20
17.822382
 30
0.0
 10
5.122684
 20
17.900301
 30
0.0
 10
5.163713
 20
17.978239
 30
0.0
 10
5.204695
 20
18.056087
 30
0.0
 10
5.245671
 20
18.133927
 30
0.0
 10
5.286657
 20
18.211784
 30
0.0
 10
5.327618
 20
18.289592
 30
0.0
 10
5.368577
 20
18.367398
 30
0.0
 10
5.409562
 20
18.445252
 30
0.0
 10
5.450576
 20
18.523162
 30
0.0
 10
5.491602
 20
18.601095
 30
0.0
 10
5.532606
 20
18.678986
 30
0.0
 10
5.573615
 20
18.756887
 30
0.0
 10
5.614601
 20
18.834744
 30
0.0
 10
5.655610
 20
18.912646
 30
0.0
 10
5.696601
 20
18.990511
 30
0.0
 10
5.762850
 20
18.974086
 30
0.0
 10
5.830948
 20
18.968131
 30
0.0
 10
5.916501
 20
18.976484
 30
0.0
 10
5.998697
 20
19.001518
 30
0.0
 10
6.074371
 20
19.042350
 30
0.0
 10
6.140468
 20
19.097180
 30
0.0
 10
6.194619
 20
19.163843
 30
0.0
 10
6.234768
 20
19.239772
 30
0.0
 10
6.259363
 20
19.322097
 30
0.0
 10
6.267576
 20
19.407556
 30
0.0
 10
6.259363
 20
19.493053
 30
0.0
 10
6.234734
 20
19.575459
 30
0.0
 10
6.194525
 20
19.651450
 30
0.0
 10
6.140305
 20
19.718131
 30
0.0
 10
6.074130
 20
19.772949
 30
0.0
 10
5.998572
 20
19.813660
 30
0.0
 10
5.916440
 20
19.838637
 30
0.0
 10
5.830948
 20
19.846990
 30
0.0
 10
5.745282
 20
19.838637
 30
0.0
 10
5.662912
 20
19.813688
 30
0.0
 10
5.586956
 20
19.773017
 30
0.0
 10
5.520307
 20
19.718272
 30
0.0
 10
5.465607
 20
19.651718
 30
0.0
 10
5.424917
 20
19.575803
 30
0.0
 10
5.399887
 20
19.493279
 30
0.0
 10
5.391522
 20
19.407582
 30
0.0
 10
5.398888
 20
19.327338
 30
0.0
 10
5.421096
 20
19.249834
 30
0.0
 10
5.457419
 20
19.177867
 30
0.0
 10
5.506276
 20
19.113698
 30
0.0
 10
5.453699
 20
19.044184
 30
0.0
 10
5.401151
 20
18.974709
 30
0.0
 10
5.348604
 20
18.905235
 30
0.0
 10
5.295960
 20
18.835633
 30
0.0
 10
5.243411
 20
18.766156
 30
0.0
 10
5.190800
 20
18.696599
 30
0.0
 10
5.138196
 20
18.627048
 30
0.0
 10
5.085550
 20
18.557444
 30
0.0
 10
5.032936
 20
18.487882
 30
0.0
 10
4.980311
 20
18.418305
 30
0.0
 10
4.927728
 20
18.348783
 30
0.0
 10
4.875160
 20
18.279283
 30
0.0
 10
4.822623
 20
18.209819
 30
0.0
 10
4.770024
 20
18.140277
 30
0.0
 10
4.717405
 20
18.070709
 30
0.0
 10
4.664828
 20
18.001195
 30
0.0
 10
4.612291
 20
17.931735
 30
0.0
 10
4.559636
 20
17.862119
 30
0.0
 10
4.507071
 20
17.792619
 30
0.0
 10
4.526259
 20
17.706928
 30
0.0
 10
4.545419
 20
17.621366
 30
0.0
 10
4.564588
 20
17.535763
 30
0.0
 10
4.583765
 20
17.450125
 30
0.0
 10
4.602922
 20
17.364572
 30
0.0
 10
4.622113
 20
17.278864
 30
0.0
 10
4.641282
 20
17.193263
 30
0.0
 10
4.660476
 20
17.107541
 30
0.0
 10
4.679653
 20
17.021904
 30
0.0
 10
4.698827
 20
16.936272
 30
0.0
 10
4.717998
 20
16.850663
 30
0.0
 10
4.737178
 20
16.765002
 30
0.0
 10
4.756372
 20
16.679286
 30
0.0
 10
4.775566
 20
16.593575
 30
0.0
 10
4.794748
 20
16.507901
 30
0.0
 10
4.813920
 20
16.422286
 30
0.0
 10
4.833077
 20
16.336733
 30
0.0
 10
4.852268
 20
16.251033
 30
0.0
 10
4.871442
 20
16.165402
 30
0.0
 10
4.890600
 20
16.079849
 30
0.0
 10
4.909782
 20
15.994177
 30
0.0
 10
4.928939
 20
15.908625
 30
0.0
 10
4.948105
 20
15.823032
 30
0.0
 10
4.967268
 20
15.737457
 30
0.0
 10
4.986448
 20
15.651802
 30
0.0
 10
5.005622
 20
15.566179
 30
0.0
 10
5.024796
 20
15.480550
 30
0.0
 10
5.043970
 20
15.394924
 30
0.0
 10
5.063133
 20
15.309345
 30
0.0
 10
5.082296
 20
15.223770
 30
0.0
 10
5.101487
 20
15.138068
 30
0.0
 10
5.120650
 20
15.052489
 30
0.0
 10
5.139833
 20
14.966815
 30
0.0
 10
5.158999
 20
14.881228
 30
0.0
 10
5.178184
 20
14.795551
 30
0.0
 10
5.197378
 20
14.709832
 30
0.0
 10
5.216569
 20
14.624132
 30
0.0
 10
5.235760
 20
14.538427
 30
0.0
 10
5.254946
 20
14.452753
 30
0.0
 10
5.274100
 20
14.367214
 30
0.0
 10
5.293280
 20
14.281557
 30
0.0
 10
5.312454
 20
14.195928
 30
0.0
 10
5.331611
 20
14.110378
 30
0.0
 10
5.350771
 20
14.024814
 30
0.0
 10
5.369957
 20
13.939128
 30
0.0
 10
5.389131
 20
13.853499
 30
0.0
 10
5.408319
 20
13.767811
 30
0.0
 10
5.475688
 20
13.710353
 30
0.0
 10
5.543022
 20
13.652924
 30
0.0
 10
5.610282
 20
13.595559
 30
0.0
 10
5.677667
 20
13.538090
 30
0.0
 10
5.744945
 20
13.480709
 30
0.0
 10
5.812313
 20
13.423251
 30
0.0
 10
5.879610
 20
13.365856
 30
0.0
 10
5.946899
 20
13.308466
 30
0.0
 10
6.014181
 20
13.251085
 30
0.0
 10
6.081438
 20
13.193723
 30
0.0
 10
6.148737
 20
13.136325
 30
0.0
 10
6.216050
 20
13.078915
 30
0.0
 10
6.283381
 20
13.021488
 30
0.0
 10
6.350755
 20
12.964028
 30
0.0
 10
6.418059
 20
12.906624
 30
0.0
 10
6.485329
 20
12.849251
 30
0.0
 10
6.552591
 20
12.791886
 30
0.0
 10
6.619857
 20
12.734516
 30
0.0
 10
6.687246
 20
12.677042
 30
0.0
 10
6.754594
 20
12.619601
 30
0.0
 10
6.821960
 20
12.562146
 30
0.0
 10
6.889245
 20
12.504759
 30
0.0
 10
6.956537
 20
12.447369
 30
0.0
 10
7.023852
 20
12.389957
 30
0.0
 10
7.091231
 20
12.332491
 30
0.0
 10
7.158526
 20
12.275095
 30
0.0
 10
7.225866
 20
12.217663
 30
0.0
 10
7.293131
 20
12.160296
 30
0.0
 10
7.360442
 20
12.102886
 30
0.0
 10
7.427802
 20
12.045437
 30
0.0
 10
7.495167
 20
11.987982
 30
0.0
 10
7.562446
 20
11.930601
 30
0.0
 10
7.629820
 20
11.873140
 30
0.0
 10
7.697167
 20
11.815702
 30
0.0
 10
7.764511
 20
11.758265
 30
0.0
 10
7.831816
 20
11.700863
 30
0.0
 10
7.899087
 20
11.643488
 30
0.0
 10
7.966433
 20
11.586050
 30
0.0
 10
8.033682
 20
11.528694
 30
0.0
 10
8.014090
 20
11.500697
 30
0.0
 10
7.927494
 20
11.509757
 30
0.0
 10
7.840858
 20
11.518816
 30
0.0
 10
7.754115
 20
11.527903
 30
0.0
 10
7.667486
 20
11.536963
 30
0.0
 10
7.580849
 20
11.546022
 30
0.0
 10
7.494183
 20
11.555081
 30
0.0
 10
7.407443
 20
11.564169
 30
0.0
 10
7.320716
 20
11.573257
 30
0.0
 10
7.234157
 20
11.582316
 30
0.0
 10
7.147488
 20
11.591375
 30
0.0
 10
7.060792
 20
11.600463
 30
0.0
 10
6.974086
 20
11.609550
 30
0.0
 10
6.887371
 20
11.618638
 30
0.0
 10
6.800783
 20
11.627697
 30
0.0
 10
6.714072
 20
11.636785
 30
0.0
 10
6.627475
 20
11.645844
 30
0.0
 10
6.540899
 20
11.654903
 30
0.0
 10
6.454207
 20
11.663963
 30
0.0
 10
6.367638
 20
11.673022
 30
0.0
 10
6.280965
 20
11.682081
 30
0.0
 10
6.194401
 20
11.691141
 30
0.0
 10
6.107797
 20
11.700200
 30
0.0
 10
6.021083
 20
11.709288
 30
0.0
 10
5.934424
 20
11.718347
 30
0.0
 10
5.847746
 20
11.727406
 30
0.0
 10
5.789956
 20
11.660048
 30
0.0
 10
5.732212
 20
11.592744
 30
0.0
 10
5.674457
 20
11.525428
 30
0.0
 10
5.616670
 20
11.458076
 30
0.0
 10
5.558950
 20
11.390800
 30
0.0
 10
5.501204
 20
11.323496
 30
0.0
 10
5.443385
 20
11.256104
 30
0.0
 10
5.385588
 20
11.188740
 30
0.0
 10
5.327855
 20
11.121447
 30
0.0
 10
5.270117
 20
11.054151
 30
0.0
 10
5.212357
 20
10.986830
 30
0.0
 10
5.154638
 20
10.919557
 30
0.0
 10
5.096880
 20
10.852238
 30
0.0
 10
5.039114
 20
10.784908
 30
0.0
 10
4.981369
 20
10.717604
 30
0.0
 10
4.923570
 20
10.650237
 30
0.0
 10
4.865772
 20
10.582871
 30
0.0
 10
4.807946
 20
10.515471
 30
0.0
 10
4.750189
 20
10.448152
 30
0.0
 10
4.692441
 20
10.380845
 30
0.0
 10
4.634695
 20
10.313538
 30
0.0
 10
4.576921
 20
10.246200
 30
0.0
 10
4.519166
 20
10.178884
 30
0.0
 10
4.461410
 20
10.111568
 30
0.0
 10
4.403682
 20
10.044284
 30
0.0
 10
4.345890
 20
9.976923
 30
0.0
 10
4.288157
 20
9.909633
 30
0.0
 10
4.230391
 20
9.842306
 30
0.0
 10
4.172582
 20
9.774925
 30
0.0
 10
4.114783
 20
9.707559
 30
0.0
 10
4.056996
 20
9.640204
 30
0.0
 10
3.999203
 20
9.572846
 30
0.0
 10
3.941441
 20
9.505522
 30
0.0
 10
3.883705
 20
9.438226
 30
0.0
 10
3.825976
 20
9.370941
 30
0.0
 10
3.768168
 20
9.303563
 30
0.0
 10
3.772365
 20
9.220996
 30
0.0
 10
3.776561
 20
9.138429
 30
0.0
 10
3.799424
 20
9.054759
 30
0.0
 10
3.822293
 20
8.971069
 30
0.0
 10
3.845156
 20
8.887404
 30
0.0
 10
3.868024
 20
8.803711
 30
0.0
 10
3.890887
 20
8.720046
 30
0.0
 10
3.913769
 20
8.636308
 30
0.0
 10
3.936646
 20
8.552587
 30
0.0
 10
3.959520
 20
8.468877
 30
0.0
 10
3.982426
 20
8.385051
 30
0.0
 10
4.005291
 20
8.301372
 30
0.0
 10
4.028148
 20
8.217722
 30
0.0
 10
4.051048
 20
8.133919
 30
0.0
 10
4.073936
 20
8.050164
 30
0.0
 10
4.096836
 20
7.966361
 30
0.0
 10
4.119715
 20
7.882631
 30
0.0
 10
4.142609
 20
7.798850
 30
0.0
 10
4.165486
 20
7.715129
 30
0.0
 10
4.188343
 20
7.631484
 30
0.0
 10
4.211234
 20
7.547712
 30
0.0
 10
4.234126
 20
7.463937
 30
0.0
 10
4.256980
 20
7.380295
 30
0.0
 10
4.279879
 20
7.296495
 30
0.0
 10
4.302751
 20
7.212791
 30
0.0
 10
4.225006
 20
7.172681
 30
0.0
 10
4.156582
 20
7.118153
 30
0.0
 10
4.100077
 20
7.051368
 30
0.0
 10
4.057800
 20
6.974798
 30
0.0
 10
4.031666
 20
6.891325
 30
0.0
 10
4.022861
 20
6.804150
 30
0.0
 10
4.031254
 20
6.718343
 30
0.0
 10
4.056293
 20
6.635883
 30
0.0
 10
4.096985
 20
6.559999
 30
0.0
 10
4.151732
 20
6.493409
 30
0.0
 10
4.218271
 20
6.438754
 30
0.0
 10
4.294155
 20
6.398097
 30
0.0
 10
4.376638
 20
6.373092
 30
0.0
 10
4.462289
 20
6.364738
 30
0.0
 10
4.547954
 20
6.373092
 30
0.0
 10
4.630325
 20
6.398069
 30
0.0
 10
4.706281
 20
6.438751
 30
0.0
 10
4.772930
 20
6.493508
 30
0.0
 10
4.827630
 20
6.560070
 30
0.0
 10
4.868320
 20
6.635982
 30
0.0
 10
4.893350
 20
6.718492
 30
0.0
 10
4.901715
 20
6.804164
 30
0.0
 10
4.893881
 20
6.887021
 30
0.0
 10
4.870442
 20
6.966803
 30
0.0
 10
4.832219
 20
7.040553
 30
0.0
 10
4.780608
 20
7.105806
 30
0.0
 10
4.717643
 20
7.160136
 30
0.0
 10
4.645547
 20
7.201674
 30
0.0
 10
4.566920
 20
7.228880
 30
0.0
 10
4.484679
 20
7.240818
 30
0.0
 10
4.474494
 20
7.326111
 30
0.0
 10
4.464320
 20
7.411314
 30
0.0
 10
4.454137
 20
7.496599
 30
0.0
 10
4.443957
 20
7.581853
 30
0.0
 10
4.433778
 20
7.667115
 30
0.0
 10
4.423595
 20
7.752399
 30
0.0
 10
4.413418
 20
7.837645
 30
0.0
 10
4.403241
 20
7.922867
 30
0.0
 10
4.393064
 20
8.008096
 30
0.0
 10
4.382896
 20
8.093245
 30
0.0
 10
4.372710
 20
8.178547
 30
0.0
 10
4.362536
 20
8.263761
 30
0.0
 10
4.352362
 20
8.348969
 30
0.0
 10
4.342185
 20
8.434195
 30
0.0
 10
4.332011
 20
8.519395
 30
0.0
 10
4.321837
 20
8.604598
 30
0.0
 10
4.311669
 20
8.689761
 30
0.0
 10
4.301483
 20
8.775071
 30
0.0
 10
4.291295
 20
8.860393
 30
0.0
 10
4.281124
 20
8.945570
 30
0.0
 10
4.270950
 20
9.030776
 30
0.0
 10
4.260764
 20
9.116077
 30
0.0
 10
4.319465
 20
9.181590
 30
0.0
 10
4.378160
 20
9.247096
 30
0.0
 10
4.436901
 20
9.312657
 30
0.0
 10
4.495598
 20
9.378166
 30
0.0
 10
4.554273
 20
9.443650
 30
0.0
 10
4.612955
 20
9.509142
 30
0.0
 10
4.671662
 20
9.574663
 30
0.0
 10
4.730302
 20
9.640108
 30
0.0
 10
4.788940
 20
9.705552
 30
0.0
 10
4.847626
 20
9.771048
 30
0.0
 10
4.906355
 20
9.836594
 30
0.0
 10
4.965041
 20
9.902092
 30
0.0
 10
5.023698
 20
9.967556
 30
0.0
 10
5.082407
 20
10.033077
 30
0.0
 10
5.141118
 20
10.098603
 30
0.0
 10
5.199744
 20
10.164031
 30
0.0
 10
5.258454
 20
10.229557
 30
0.0
 10
5.317159
 20
10.295075
 30
0.0
 10
5.375811
 20
10.360534
 30
0.0
 10
5.434490
 20
10.426023
 30
0.0
 10
5.493187
 20
10.491530
 30
0.0
 10
5.551857
 20
10.557011
 30
0.0
 10
5.610518
 20
10.622478
 30
0.0
 10
5.669212
 20
10.687985
 30
0.0
 10
5.727847
 20
10.753426
 30
0.0
 10
5.786519
 20
10.818908
 30
0.0
 10
5.845184
 20
10.884380
 30
0.0
 10
5.903906
 20
10.949918
 30
0.0
 10
5.962579
 20
11.015399
 30
0.0
 10
6.021268
 20
11.080900
 30
0.0
 10
6.108308
 20
11.065152
 30
0.0
 10
6.195299
 20
11.049404
 30
0.0
 10
6.282288
 20
11.033656
 30
0.0
 10
6.369438
 20
11.017880
 30
0.0
 10
6.456431
 20
11.002132
 30
0.0
 10
6.543526
 20
10.986356
 30
0.0
 10
6.630610
 20
10.970579
 30
0.0
 10
6.717763
 20
10.954803
 30
0.0
 10
6.804865
 20
10.939027
 30
0.0
 10
6.891983
 20
10.923251
 30
0.0
 10
6.979033
 20
10.907475
 30
0.0
 10
7.066056
 20
10.891727
 30
0.0
 10
7.153030
 20
10.875979
 30
0.0
 10
7.240105
 20
10.860202
 30
0.0
 10
7.327213
 20
10.844426
 30
0.0
 10
7.414253
 20
10.828678
 30
0.0
 10
7.501226
 20
10.812930
 30
0.0
 10
7.588394
 20
10.797154
 30
0.0
 10
7.675415
 20
10.781406
 30
0.0
 10
7.660022
 20
10.703036
 30
0.0
 10
7.644627
 20
10.624665
 30
0.0
 10
7.573701
 20
10.572217
 30
0.0
 10
7.502781
 20
10.519775
 30
0.0
 10
7.431806
 20
10.467293
 30
0.0
 10
7.360885
 20
10.414847
 30
0.0
 10
7.289989
 20
10.362422
 30
0.0
 10
7.219086
 20
10.309990
 30
0.0
 10
7.148153
 20
10.257537
 30
0.0
 10
7.077300
 20
10.205142
 30
0.0
 10
7.006449
 20
10.152750
 30
0.0
 10
6.935541
 20
10.100316
 30
0.0
 10
6.864581
 20
10.047843
 30
0.0
 10
6.793672
 20
9.995409
 30
0.0
 10
6.722799
 20
9.943000
 30
0.0
 10
6.651863
 20
9.890543
 30
0.0
 10
6.580924
 20
9.838087
 30
0.0
 10
6.510089
 20
9.785706
 30
0.0
 10
6.439151
 20
9.733250
 30
0.0
 10
6.368220
 20
9.680799
 30
0.0
 10
6.297352
 20
9.628393
 30
0.0
 10
6.226452
 20
9.575964
 30
0.0
 10
6.155532
 20
9.523519
 30
0.0
 10
6.084642
 20
9.471099
 30
0.0
 10
6.013764
 20
9.418685
 30
0.0
 10
5.942845
 20
9.366245
 30
0.0
 10
5.871999
 20
9.313856
 30
0.0
 10
5.801107
 20
9.261433
 30
0.0
 10
5.730224
 20
9.209016
 30
0.0
 10
5.659272
 20
9.156548
 30
0.0
 10
5.588380
 20
9.104125
 30
0.0
 10
5.517468
 20
9.051688
 30
0.0
 10
5.527238
 20
8.963011
 30
0.0
 10
5.537006
 20
8.874340
 30
0.0
 10
5.546759
 20
8.785818
 30
0.0
 10
5.556513
 20
8.697282
 30
0.0
 10
5.566275
 20
8.608673
 30
0.0
 10
5.576043
 20
8.520004
 30
0.0
 10
5.585808
 20
8.431361
 30
0.0
 10
5.595564
 20
8.342808
 30
0.0
 10
5.605335
 20
8.254123
 30
0.0
 10
5.615100
 20
8.165488
 30
0.0
 10
5.624862
 20
8.076890
 30
0.0
 10
5.634618
 20
7.988332
 30
0.0
 10
5.644386
 20
7.899669
 30
0.0
 10
5.654151
 20
7.811031
 30
0.0
 10
5.663913
 20
7.722433
 30
0.0
 10
5.673680
 20
7.633779
 30
0.0
 10
5.683442
 20
7.545172
 30
0.0
 10
5.693207
 20
7.456535
 30
0.0
 10
5.702972
 20
7.367897
 30
0.0
 10
5.712740
 20
7.279226
 30
0.0
 10
5.722496
 20
7.190681
 30
0.0
 10
5.732253
 20
7.102120
 30
0.0
 10
5.742021
 20
7.013454
 30
0.0
 10
5.751785
 20
6.924817
 30
0.0
 10
5.761545
 20
6.836238
 30
0.0
 10
5.771301
 20
6.747680
 30
0.0
 10
5.781063
 20
6.659079
 30
0.0
 10
5.790822
 20
6.570489
 30
0.0
 10
5.800584
 20
6.481877
 30
0.0
 10
5.810347
 20
6.393277
 30
0.0
 10
5.820100
 20
6.304746
 30
0.0
 10
5.829859
 20
6.216157
 30
0.0
 10
5.839619
 20
6.127561
 30
0.0
 10
5.849383
 20
6.038927
 30
0.0
 10
5.859146
 20
5.950320
 30
0.0
 10
5.868905
 20
5.861734
 30
0.0
 10
5.878656
 20
5.773220
 30
0.0
 10
5.888423
 20
5.684549
 30
0.0
 10
5.898185
 20
5.595939
 30
0.0
 10
5.907950
 20
5.507313
 30
0.0
 10
5.917709
 20
5.418724
 30
0.0
 10
5.979167
 20
5.354326
 30
0.0
 10
6.040643
 20
5.289909
 30
0.0
 10
6.102073
 20
5.225543
 30
0.0
 10
6.163461
 20
5.161216
 30
0.0
 10
6.224953
 20
5.096784
 30
0.0
 10
6.286417
 20
5.032378
 30
0.0
 10
6.347874
 20
4.967984
 30
0.0
 10
6.409304
 20
4.903614
 30
0.0
 10
6.470781
 20
4.839194
 30
0.0
 10
6.532242
 20
4.774794
 30
0.0
 10
6.593672
 20
4.710428
 30
0.0
 10
6.655052
 20
4.646109
 30
0.0
 10
6.716530
 20
4.581692
 30
0.0
 10
6.777902
 20
4.517385
 30
0.0
 10
6.839304
 20
4.453044
 30
0.0
 10
6.900713
 20
4.388697
 30
0.0
 10
6.962174
 20
4.324297
 30
0.0
 10
7.023555
 20
4.259978
 30
0.0
 10
7.084966
 20
4.195632
 30
0.0
 10
7.146424
 20
4.131232
 30
0.0
 10
7.109918
 20
4.059321
 30
0.0
 10
7.087013
 20
3.982004
 30
0.0
 10
7.079252
 20
3.901723
 30
0.0
 10
7.087639
 20
3.815916
 30
0.0
 10
7.112670
 20
3.733456
 30
0.0
 10
7.153351
 20
3.657572
 30
0.0
 10
7.208087
 20
3.590982
 30
0.0
 10
7.274621
 20
3.536327
 30
0.0
 10
7.350507
 20
3.495670
 30
0.0
 10
7.433002
 20
3.470665
 30
0.0
 10
7.518678
 20
3.462311
 30
0.0
 10
7.604487
 20
3.470721
 30
0.0
 10
7.686946
 20
3.495755
 30
0.0
 10
7.762829
 20
3.536457
 30
0.0
 10
7.829419
 20
3.591213
 30
0.0
 10
7.884074
 20
3.657759
 30
0.0
 10
7.924733
 20
3.733643
 30
0.0
 10
7.949743
 20
3.816111
 30
0.0
 10
7.958103
 20
3.901737
 30
0.0
 10
7.949741
 20
3.987315
 30
0.0
 10
7.924716
 20
4.069524
 30
0.0
 10
7.883954
 20
4.145097
 30
0.0
 10
7.829124
 20
4.211222
 30
0.0
 10
7.762451
 20
4.265392
 30
0.0
 10
7.686506
 20
4.305552
 30
0.0
 10
7.604160
 20
4.330162
 30
0.0
 10
7.518677
 20
4.338374
 30
0.0
 10
7.444891
 20
4.332052
 30
0.0
 10
7.373349
 20
4.313144
 30
0.0
 10
7.305961
 20
4.282390
 30
0.0
 10
7.257360
 20
4.352934
 30
0.0
 10
7.208787
 20
4.423439
 30
0.0
 10
7.160215
 20
4.493944
 30
0.0
 10
7.111552
 20
4.564578
 30
0.0
 10
7.062977
 20
4.635086
 30
0.0
 10
7.014345
 20
4.705675
 30
0.0
 10
6.965719
 20
4.776256
 30
0.0
 10
6.917154
 20
4.846750
 30
0.0
 10
6.868513
 20
4.917353
 30
0.0
 10
6.819862
 20
4.987971
 30
0.0
 10
6.771248
 20
5.058535
 30
0.0
 10
6.722649
 20
5.129076
 30
0.0
 10
6.674076
 20
5.199581
 30
0.0
 10
6.625446
 20
5.270168
 30
0.0
 10
6.576798
 20
5.340782
 30
0.0
 10
6.528186
 20
5.411341
 30
0.0
 10
6.479613
 20
5.481848
 30
0.0
 10
6.430928
 20
5.552514
 30
0.0
 10
6.382326
 20
5.623061
 30
0.0
 10
6.377503
 20
5.710485
 30
0.0
 10
6.372686
 20
5.797838
 30
0.0
 10
6.367865
 20
5.885209
 30
0.0
 10
6.363042
 20
5.972630
 30
0.0
 10
6.358225
 20
6.059947
 30
0.0
 10
6.353407
 20
6.147306
 30
0.0
 10
6.348581
 20
6.234772
 30
0.0
 10
6.343758
 20
6.322207
 30
0.0
 10
6.338940
 20
6.409544
 30
0.0
 10
6.334123
 20
6.496889
 30
0.0
 10
6.329302
 20
6.584268
 30
0.0
 10
6.324485
 20
6.671584
 30
0.0
 10
6.319664
 20
6.758960
 30
0.0
 10
6.314844
 20
6.846348
 30
0.0
 10
6.310027
 20
6.933704
 30
0.0
 10
6.305203
 20
7.021139
 30
0.0
 10
6.300380
 20
7.108577
 30
0.0
 10
6.295554
 20
7.196055
 30
0.0
 10
6.290734
 20
7.283431
 30
0.0
 10
6.285914
 20
7.370790
 30
0.0
 10
6.281096
 20
7.458149
 30
0.0
 10
6.276276
 20
7.545548
 30
0.0
 10
6.271455
 20
7.632918
 30
0.0
 10
6.266635
 20
7.720291
 30
0.0
 10
6.261817
 20
7.807622
 30
0.0
 10
6.256994
 20
7.895049
 30
0.0
 10
6.252177
 20
7.982385
 30
0.0
 10
6.247356
 20
8.069772
 30
0.0
 10
6.242533
 20
8.157225
 30
0.0
 10
6.237710
 20
8.244663
 30
0.0
 10
6.232887
 20
8.332084
 30
0.0
 10
6.228064
 20
8.419511
 30
0.0
 10
6.223243
 20
8.506892
 30
0.0
 10
6.218426
 20
8.594234
 30
0.0
 10
6.213608
 20
8.681565
 30
0.0
 10
6.208785
 20
8.769018
 30
0.0
 10
6.290138
 20
8.791398
 30
0.0
 10
6.371520
 20
8.813806
 30
0.0
 10
6.452899
 20
8.836215
 30
0.0
 10
6.534296
 20
8.858623
 30
0.0
 10
6.615738
 20
8.881032
 30
0.0
 10
6.697041
 20
8.903412
 30
0.0
 10
6.778367
 20
8.925792
 30
0.0
 10
6.859675
 20
8.948172
 30
0.0
 10
6.941084
 20
8.970581
 30
0.0
 10
7.022416
 20
8.992961
 30
0.0
 10
7.103820
 20
9.015369
 30
0.0
 10
7.185273
 20
9.037778
 30
0.0
 10
7.266524
 20
9.060130
 30
0.0
 10
7.347935
 20
9.082538
 30
0.0
 10
7.387374
 20
9.003745
 30
0.0
 10
7.426788
 20
8.925002
 30
0.0
 10
7.466212
 20
8.846239
 30
0.0
 10
7.505668
 20
8.767412
 30
0.0
 10
7.545078
 20
8.688675
 30
0.0
 10
7.584521
 20
8.609872
 30
0.0
 10
7.623989
 20
8.531022
 30
0.0
 10
7.663459
 20
8.452167
 30
0.0
 10
7.702877
 20
8.373418
 30
0.0
 10
7.742325
 20
8.294605
 30
0.0
 10
7.781781
 20
8.215777
 30
0.0
 10
7.821242
 20
8.136941
 30
0.0
 10
7.860644
 20
8.058224
 30
0.0
 10
7.900063
 20
7.979470
 30
0.0
 10
7.939495
 20
7.900690
 30
0.0
 10
7.978921
 20
7.821922
 30
0.0
 10
8.018364
 20
7.743123
 30
0.0
 10
8.057814
 20
7.664307
 30
0.0
 10
8.097282
 20
7.585457
 30
0.0
 10
8.136728
 20
7.506649
 30
0.0
 10
8.176162
 20
7.427866
 30
0.0
 10
8.215561
 20
7.349152
 30
0.0
 10
8.255029
 20
7.270299
 30
0.0
 10
8.294475
 20
7.191494
 30
0.0
 10
8.333952
 20
7.112624
 30
0.0
 10
8.373396
 20
7.033819
 30
0.0
 10
8.412789
 20
6.955119
 30
0.0
 10
8.452195
 20
6.876390
 30
0.0
 10
8.491624
 20
6.797619
 30
0.0
 10
8.531112
 20
6.718730
 30
0.0
 10
8.570515
 20
6.640006
 30
0.0
 10
8.609983
 20
6.561156
 30
0.0
 10
8.649421
 20
6.482366
 30
0.0
 10
8.728866
 20
6.447229
 30
0.0
 10
8.808316
 20
6.412089
 30
0.0
 10
8.887813
 20
6.376933
 30
0.0
 10
8.967260
 20
6.341794
 30
0.0
 10
9.046720
 20
6.306651
 30
0.0
 10
9.126120
 20
6.271534
 30
0.0
 10
9.205540
 20
6.236412
 30
0.0
 10
9.285011
 20
6.201264
 30
0.0
 10
9.364482
 20
6.166116
 30
0.0
 10
9.443953
 20
6.130968
 30
0.0
 10
9.523408
 20
6.095828
 30
0.0
 10
9.602903
 20
6.060669
 30
0.0
 10
9.682341
 20
6.025535
 30
0.0
 10
9.761858
 20
5.990368
 30
0.0
 10
9.841334
 20
5.955220
 30
0.0
 10
9.920831
 20
5.920060
 30
0.0
 10
10.000188
 20
5.884963
 30
0.0
 10
10.079656
 20
5.849815
 30
0.0
 10
10.158946
 20
5.884952
 30
0.0
 10
10.238240
 20
5.920091
 30
0.0
 10
10.317581
 20
5.955251
 30
0.0
 10
10.396873
 20
5.990387
 30
0.0
 10
10.476178
 20
6.025530
 30
0.0
 10
10.555423
 20
6.060647
 30
0.0
 10
10.634686
 20
6.095769
 30
0.0
 10
10.714002
 20
6.130917
 30
0.0
 10
10.793318
 20
6.166065
 30
0.0
 10
10.872633
 20
6.201213
 30
0.0
 10
10.951932
 20
6.236355
 30
0.0
 10
11.031272
 20
6.271512
 30
0.0
 10
11.110554
 20
6.306646
 30
0.0
 10
11.189916
 20
6.341813
 30
0.0
 10
11.269236
 20
6.376964
 30
0.0
 10
11.348578
 20
6.412123
 30
0.0
 10
11.427779
 20
6.447220
 30
0.0
 10
11.507092
 20
6.482366
 30
0.0
 10
11.546530
 20
6.561159
 30
0.0
 10
11.585945
 20
6.639902
 30
0.0
 10
11.625369
 20
6.718665
 30
0.0
 10
11.664825
 20
6.797492
 30
0.0
 10
11.704235
 20
6.876229
 30
0.0
 10
11.743678
 20
6.955031
 30
0.0
 10
11.783146
 20
7.033881
 30
0.0
 10
11.822616
 20
7.112737
 30
0.0
 10
11.862033
 20
7.191486
 30
0.0
 10
11.901482
 20
7.270299
 30
0.0
 10
11.940938
 20
7.349126
 30
0.0
 10
11.980399
 20
7.427962
 30
0.0
 10
12.019800
 20
7.506680
 30
0.0
 10
12.059219
 20
7.585434
 30
0.0
 10
12.098651
 20
7.664213
 30
0.0
 10
12.138077
 20
7.742982
 30
0.0
 10
12.177521
 20
7.821781
 30
0.0
 10
12.216971
 20
7.900597
 30
0.0
 10
12.256439
 20
7.979447
 30
0.0
 10
12.295885
 20
8.058255
 30
0.0
 10
12.335318
 20
8.137037
 30
0.0
 10
12.374717
 20
8.215752
 30
0.0
 10
12.414186
 20
8.294605
 30
0.0
 10
12.453632
 20
8.373410
 30
0.0
 10
12.493109
 20
8.452280
 30
0.0
 10
12.532553
 20
8.531084
 30
0.0
 10
12.571946
 20
8.609785
 30
0.0
 10
12.611352
 20
8.688514
 30
0.0
 10
12.650781
 20
8.767285
 30
0.0
 10
12.690268
 20
8.846174
 30
0.0
 10
12.729671
 20
8.924897
 30
0.0
 10
12.769139
 20
9.003747
 30
0.0
 10
12.808577
 20
9.082538
 30
0.0
 10
12.792098
 20
9.168359
 30
0.0
 10
12.775616
 20
9.254183
 30
0.0
 10
12.759126
 20
9.340058
 30
0.0
 10
12.742644
 20
9.425878
 30
0.0
 10
12.726163
 20
9.511716
 30
0.0
 10
12.709692
 20
9.597487
 30
0.0
 10
12.693219
 20
9.683276
 30
0.0
 10
12.676734
 20
9.769126
 30
0.0
 10
12.660250
 20
9.854972
 30
0.0
 10
12.643765
 20
9.940821
 30
0.0
 10
12.627283
 20
10.026651
 30
0.0
 10
12.610793
 20
10.112522
 30
0.0
 10
12.594314
 20
10.198335
 30
0.0
 10
12.577818
 20
10.284232
 30
0.0
 10
12.561333
 20
10.370084
 30
0.0
 10
12.544843
 20
10.455959
 30
0.0
 10
12.528381
 20
10.541684
 30
0.0
 10
12.511897
 20
10.627527
 30
0.0
 10
12.496501
 20
10.704498
 30
0.0
 10
12.481106
 20
10.781468
 30
0.0
 10
12.568293
 20
10.797216
 30
0.0
 10
12.655431
 20
10.812964
 30
0.0
 10
12.742567
 20
10.828712
 30
0.0
 10
12.829865
 20
10.844488
 30
0.0
 10
12.917005
 20
10.860236
 30
0.0
 10
13.004247
 20
10.876012
 30
0.0
 10
13.091479
 20
10.891789
 30
0.0
 10
13.178780
 20
10.907565
 30
0.0
 10
13.266029
 20
10.923341
 30
0.0
 10
13.353294
 20
10.939117
 30
0.0
 10
13.440492
 20
10.954865
 30
0.0
 10
13.527662
 20
10.970613
 30
0.0
 10
13.614783
 20
10.986361
 30
0.0
 10
13.702006
 20
11.002138
 30
0.0
 10
13.789261
 20
11.017914
 30
0.0
 10
13.876448
 20
11.033662
 30
0.0
 10
13.963568
 20
11.049410
 30
0.0
 10
14.050884
 20
11.065186
 30
0.0
 10
14.138051
 20
11.080934
 30
0.0
 10
14.196752
 20
11.015422
 30
0.0
 10
14.255447
 20
10.949912
 30
0.0
 10
14.314188
 20
10.884355
 30
0.0
 10
14.372885
 20
10.818846
 30
0.0
 10
14.431561
 20
10.753361
 30
0.0
 10
14.490243
 20
10.687869
 30
0.0
 10
14.548949
 20
10.622348
 30
0.0
 10
14.607589
 20
10.556904
 30
0.0
 10
14.666227
 20
10.491459
 30
0.0
 10
14.724913
 20
10.425964
 30
0.0
 10
14.783642
 20
10.360418
 30
0.0
 10
14.842329
 20
10.294920
 30
0.0
 10
14.900986
 20
10.229455
 30
0.0
 10
14.959694
 20
10.163935
 30
0.0
 10
15.018405
 20
10.098408
 30
0.0
 10
15.077031
 20
10.032978
 30
0.0
 10
15.135742
 20
9.967454
 30
0.0
 10
15.194446
 20
9.901937
 30
0.0
 10
15.253098
 20
9.836478
 30
0.0
 10
15.311778
 20
9.770988
 30
0.0
 10
15.370474
 20
9.705482
 30
0.0
 10
15.429144
 20
9.640000
 30
0.0
 10
15.487805
 20
9.574531
 30
0.0
 10
15.546500
 20
9.509027
 30
0.0
 10
15.605134
 20
9.443585
 30
0.0
 10
15.663806
 20
9.378104
 30
0.0
 10
15.722472
 20
9.312631
 30
0.0
 10
15.781194
 20
9.247094
 30
0.0
 10
15.839866
 20
9.181612
 30
0.0
 10
15.898556
 20
9.116111
 30
0.0
 10
15.888370
 20
9.030815
 30
0.0
 10
15.878196
 20
8.945615
 30
0.0
 10
15.868014
 20
8.860328
 30
0.0
 10
15.857834
 20
8.775077
 30
0.0
 10
15.847654
 20
8.689815
 30
0.0
 10
15.837471
 20
8.604530
 30
0.0
 10
15.827292
 20
8.519285
 30
0.0
 10
15.817115
 20
8.434059
 30
0.0
 10
15.806938
 20
8.348834
 30
0.0
 10
15.796769
 20
8.263682
 30
0.0
 10
15.786584
 20
8.178383
 30
0.0
 10
15.776410
 20
8.093166
 30
0.0
 10
15.766236
 20
8.007960
 30
0.0
 10
15.756059
 20
7.922735
 30
0.0
 10
15.745885
 20
7.837532
 30
0.0
 10
15.735711
 20
7.752332
 30
0.0
 10
15.725542
 20
7.667168
 30
0.0
 10
15.715357
 20
7.581858
 30
0.0
 10
15.705169
 20
7.496537
 30
0.0
 10
15.694997
 20
7.411359
 30
0.0
 10
15.684823
 20
7.326151
 30
0.0
 10
15.674638
 20
7.240852
 30
0.0
 10
15.592330
 20
7.228914
 30
0.0
 10
15.513739
 20
7.201736
 30
0.0
 10
15.441684
 20
7.160232
 30
0.0
 10
15.378738
 20
7.105930
 30
0.0
 10
15.327111
 20
7.040669
 30
0.0
 10
15.288852
 20
6.966837
 30
0.0
 10
15.265422
 20
6.887024
 30
0.0
 10
15.257602
 20
6.804223
 30
0.0
 10
15.265998
 20
6.718416
 30
0.0
 10
15.291045
 20
6.635957
 30
0.0
 10
15.331748
 20
6.560073
 30
0.0
 10
15.386506
 20
6.493482
 30
0.0
 10
15.453051
 20
6.438827
 30
0.0
 10
15.528933
 20
6.398170
 30
0.0
 10
15.611403
 20
6.373165
 30
0.0
 10
15.697029
 20
6.364812
 30
0.0
 10
15.782582
 20
6.373165
 30
0.0
 10
15.864778
 20
6.398198
 30
0.0
 10
15.940452
 20
6.439030
 30
0.0
 10
16.006549
 20
6.493863
 30
0.0
 10
16.060701
 20
6.560527
 30
0.0
 10
16.100849
 20
6.636456
 30
0.0
 10
16.125444
 20
6.718780
 30
0.0
 10
16.133654
 20
6.804237
 30
0.0
 10
16.125108
 20
6.891023
 30
0.0
 10
16.099542
 20
6.974499
 30
0.0
 10
16.057963
 20
7.051153
 30
0.0
 10
16.002111
 20
7.118068
 30
0.0
 10
15.934099
 20
7.172740
 30
0.0
 10
15.856564
 20
7.212878
 30
0.0
 10
15.879427
 20
7.296548
 30
0.0
 10
15.902296
 20
7.380239
 30
0.0
 10
15.925159
 20
7.463901
 30
0.0
 10
15.948027
 20
7.547594
 30
0.0
 10
15.970890
 20
7.631258
 30
0.0
 10
15.993772
 20
7.714997
 30
0.0
 10
16.016649
 20
7.798718
 30
0.0
 10
16.039523
 20
7.882428
 30
0.0
 10
16.062429
 20
7.966253
 30
0.0
 10
16.085294
 20
8.049932
 30
0.0
 10
16.108151
 20
8.133583
 30
0.0
 10
16.131051
 20
8.217386
 30
0.0
 10
16.153939
 20
8.301141
 30
0.0
 10
16.176839
 20
8.384944
 30
0.0
 10
16.199718
 20
8.468674
 30
0.0
 10
16.222612
 20
8.552454
 30
0.0
 10
16.245489
 20
8.636176
 30
0.0
 10
16.268346
 20
8.719821
 30
0.0
 10
16.291237
 20
8.803593
 30
0.0
 10
16.314131
 20
8.887367
 30
0.0
 10
16.336986
 20
8.971010
 30
0.0
 10
16.359885
 20
9.054813
 30
0.0
 10
16.382759
 20
9.138517
 30
0.0
 10
16.386956
 20
9.221084
 30
0.0
 10
16.391153
 20
9.303651
 30
0.0
 10
16.333362
 20
9.371009
 30
0.0
 10
16.275618
 20
9.438310
 30
0.0
 10
16.217864
 20
9.505626
 30
0.0
 10
16.160076
 20
9.572981
 30
0.0
 10
16.102356
 20
9.640257
 30
0.0
 10
16.044610
 20
9.707562
 30
0.0
 10
15.986790
 20
9.774953
 30
0.0
 10
15.928994
 20
9.842317
 30
0.0
 10
15.871261
 20
9.909607
 30
0.0
 10
15.813523
 20
9.976903
 30
0.0
 10
15.755764
 20
10.044225
 30
0.0
 10
15.698044
 20
10.111501
 30
0.0
 10
15.640286
 20
10.178819
 30
0.0
 10
15.582521
 20
10.246146
 30
0.0
 10
15.524775
 20
10.313453
 30
0.0
 10
15.466977
 20
10.380820
 30
0.0
 10
15.409179
 20
10.448186
 30
0.0
 10
15.351352
 20
10.515586
 30
0.0
 10
15.293595
 20
10.582902
 30
0.0
 10
15.235847
 20
10.650212
 30
0.0
 10
15.178101
 20
10.717516
 30
0.0
 10
15.120327
 20
10.784855
 30
0.0
 10
15.062572
 20
10.852170
 30
0.0
 10
15.004816
 20
10.919489
 30
0.0
 10
14.947088
 20
10.986773
 30
0.0
 10
14.889296
 20
11.054131
 30
0.0
 10
14.831563
 20
11.121422
 30
0.0
 10
14.773797
 20
11.188751
 30
0.0
 10
14.715988
 20
11.256129
 30
0.0
 10
14.658189
 20
11.323498
 30
0.0
 10
14.600402
 20
11.390851
 30
0.0
 10
14.542610
 20
11.458211
 30
0.0
 10
14.484847
 20
11.525536
 30
0.0
 10
14.427111
 20
11.592829
 30
0.0
 10
14.369382
 20
11.660116
 30
0.0
 10
14.311574
 20
11.727494
 30
0.0
 10
14.224867
 20
11.718434
 30
0.0
 10
14.138119
 20
11.709375
 30
0.0
 10
14.051264
 20
11.700288
 30
0.0
 10
13.964522
 20
11.691228
 30
0.0
 10
13.877774
 20
11.682169
 30
0.0
 10
13.790996
 20
11.673110
 30
0.0
 10
13.704143
 20
11.664022
 30
0.0
 10
13.617305
 20
11.654934
 30
0.0
 10
13.530634
 20
11.645875
 30
0.0
 10
13.443852
 20
11.636816
 30
0.0
 10
13.357045
 20
11.627728
 30
0.0
 10
13.270227
 20
11.618641
 30
0.0
 10
13.183400
 20
11.609553
 30
0.0
 10
13.096699
 20
11.600494
 30
0.0
 10
13.009877
 20
11.591406
 30
0.0
 10
12.923168
 20
11.582347
 30
0.0
 10
12.836480
 20
11.573288
 30
0.0
 10
12.749676
 20
11.564200
 30
0.0
 10
12.662995
 20
11.555141
 30
0.0
 10
12.576210
 20
11.546081
 30
0.0
 10
12.489534
 20
11.537022
 30
0.0
 10
12.402819
 20
11.527963
 30
0.0
 10
12.315992
 20
11.518875
 30
0.0
 10
12.229221
 20
11.509816
 30
0.0
 10
12.142432
 20
11.500756
 30
0.0
 10
12.125639
 20
11.528753
 30
0.0
 10
12.193008
 20
11.586211
 30
0.0
 10
12.260342
 20
11.643640
 30
0.0
 10
12.327602
 20
11.701004
 30
0.0
 10
12.394986
 20
11.758473
 30
0.0
 10
12.462265
 20
11.815855
 30
0.0
 10
12.529633
 20
11.873312
 30
0.0
 10
12.596930
 20
11.930708
 30
0.0
 10
12.664220
 20
11.988098
 30
0.0
 10
12.731501
 20
12.045479
 30
0.0
 10
12.798758
 20
12.102844
 30
0.0
 10
12.866056
 20
12.160239
 30
0.0
 10
12.933370
 20
12.217649
 30
0.0
 10
13.000702
 20
12.275075
 30
0.0
 10
13.068075
 20
12.332536
 30
0.0
 10
13.135379
 20
12.389940
 30
0.0
 10
13.202649
 20
12.447313
 30
0.0
 10
13.269911
 20
12.504677
 30
0.0
 10
13.337177
 20
12.562048
 30
0.0
 10
13.404566
 20
12.619522
 30
0.0
 10
13.471914
 20
12.676963
 30
0.0
 10
13.539280
 20
12.734418
 30
0.0
 10
13.606566
 20
12.791805
 30
0.0
 10
13.673857
 20
12.849197
 30
0.0
 10
13.741172
 20
12.906607
 30
0.0
 10
13.808551
 20
12.964073
 30
0.0
 10
13.875846
 20
13.021469
 30
0.0
 10
13.943186
 20
13.078901
 30
0.0
 10
14.010451
 20
13.136271
 30
0.0
 10
14.077762
 20
13.193678
 30
0.0
 10
14.145122
 20
13.251127
 30
0.0
 10
14.212487
 20
13.308582
 30
0.0
 10
14.279767
 20
13.365963
 30
0.0
 10
14.347140
 20
13.423424
 30
0.0
 10
14.414487
 20
13.480864
 30
0.0
 10
14.481831
 20
13.538299
 30
0.0
 10
14.549136
 20
13.595703
 30
0.0
 10
14.616407
 20
13.653076
 30
0.0
 10
14.683754
 20
13.710514
 30
0.0
 10
14.751002
 20
13.767870
 30
0.0
 10
14.770190
 20
13.853561
 30
0.0
 10
14.789347
 20
13.939123
 30
0.0
 10
14.808516
 20
14.024726
 30
0.0
 10
14.827693
 20
14.110364
 30
0.0
 10
14.846850
 20
14.195917
 30
0.0
 10
14.866041
 20
14.281625
 30
0.0
 10
14.885210
 20
14.367226
 30
0.0
 10
14.904404
 20
14.452948
 30
0.0
 10
14.923581
 20
14.538585
 30
0.0
 10
14.942755
 20
14.624217
 30
0.0
 10
14.961926
 20
14.709826
 30
0.0
 10
14.981106
 20
14.795486
 30
0.0
 10
15.000300
 20
14.881203
 30
0.0
 10
15.019494
 20
14.966914
 30
0.0
 10
15.038676
 20
15.052588
 30
0.0
 10
15.057848
 20
15.138203
 30
0.0
 10
15.077005
 20
15.223756
 30
0.0
 10
15.096196
 20
15.309455
 30
0.0
 10
15.115370
 20
15.395087
 30
0.0
 10
15.134528
 20
15.480640
 30
0.0
 10
15.153710
 20
15.566312
 30
0.0
 10
15.172868
 20
15.651864
 30
0.0
 10
15.192033
 20
15.737457
 30
0.0
 10
15.211196
 20
15.823032
 30
0.0
 10
15.230376
 20
15.908687
 30
0.0
 10
15.249550
 20
15.994310
 30
0.0
 10
15.268724
 20
16.079939
 30
0.0
 10
15.287898
 20
16.165565
 30
0.0
 10
15.307061
 20
16.251144
 30
0.0
 10
15.326224
 20
16.336719
 30
0.0
 10
15.345415
 20
16.422421
 30
0.0
 10
15.364578
 20
16.508000
 30
0.0
 10
15.383764
 20
16.593674
 30
0.0
 10
15.402929
 20
16.679261
 30
0.0
 10
15.422115
 20
16.764938
 30
0.0
 10
15.441309
 20
16.850657
 30
0.0
 10
15.460500
 20
16.936356
 30
0.0
 10
15.479691
 20
17.022062
 30
0.0
 10
15.498874
 20
17.107736
 30
0.0
 10
15.518028
 20
17.193275
 30
0.0
 10
15.537208
 20
17.278932
 30
0.0
 10
15.556382
 20
17.364561
 30
0.0
 10
15.575539
 20
17.450111
 30
0.0
 10
15.594699
 20
17.535675
 30
0.0
 10
15.613885
 20
17.621361
 30
0.0
 10
15.633059
 20
17.706990
 30
0.0
 10
15.652247
 20
17.792678
 30
0.0
 10
15.599670
 20
17.862192
 30
0.0
 10
15.547122
 20
17.931667
 30
0.0
 10
15.494576
 20
18.001141
 30
0.0
 10
15.441931
 20
18.070743
 30
0.0
 10
15.389382
 20
18.140221
 30
0.0
 10
15.336772
 20
18.209777
 30
0.0
 10
15.284167
 20
18.279328
 30
0.0
 10
15.231522
 20
18.348932
 30
0.0
 10
15.178907
 20
18.418494
 30
0.0
 10
15.126283
 20
18.488071
 30
0.0
 10
15.073699
 20
18.557593
 30
0.0
 10
15.021132
 20
18.627093
 30
0.0
 10
14.968595
 20
18.696557
 30
0.0
 10
14.915996
 20
18.766099
 30
0.0
 10
14.863377
 20
18.835667
 30
0.0
 10
14.810800
 20
18.905181
 30
0.0
 10
14.758263
 20
18.974642
 30
0.0
 10
14.705608
 20
19.044257
 30
0.0
 10
14.653042
 20
19.113757
 30
0.0
 10
14.701873
 20
19.177887
 30
0.0
 10
14.738194
 20
19.249822
 30
0.0
 10
14.760428
 20
19.327377
 30
0.0
 10
14.767797
 20
19.407641
 30
0.0
 10
14.759440
 20
19.493307
 30
0.0
 10
14.734432
 20
19.575812
 30
0.0
 10
14.693762
 20
19.651732
 30
0.0
 10
14.639026
 20
19.718348
 30
0.0
 10
14.572485
 20
19.773020
 30
0.0
 10
14.496468
 20
19.813736
 30
0.0
 10
14.414007
 20
19.838713
 30
0.0
 10
14.328369
 20
19.847067
 30
0.0
 10
14.242866
 20
19.838713
 30
0.0
 10
14.160695
 20
19.813708
 30
0.0
 10
14.085025
 20
19.772887
 30
0.0
 10
14.018844
 20
19.717995
 30
0.0
 10
13.964702
 20
19.651346
 30
0.0
 10
13.924555
 20
19.575431
 30
0.0
 10
13.899956
 20
19.493115
 30
0.0
 10
13.891743
 20
19.407658
 30
0.0
 10
13.899965
 20
19.322159
 30
0.0
 10
13.924555
 20
19.239888
 30
0.0
 10
13.964774
 20
19.163863
 30
0.0
 10
14.019014
 20
19.097151
 30
0.0
 10
14.085209
 20
19.042304
 30
0.0
 10
14.160778
 20
19.001574
 30
0.0
 10
14.242906
 20
18.976597
 30
0.0
 10
14.328371
 20
18.968244
 30
0.0
 10
14.396403
 20
18.974198
 30
0.0
 10
14.462718
 20
18.990624
 30
0.0
 10
14.503712
 20
18.912753
 30
0.0
 10
14.544707
 20
18.834879
 30
0.0
 10
14.585726
 20
18.756961
 30
0.0
 10
14.626755
 20
18.679022
 30
0.0
 10
14.667737
 20
18.601174
 30
0.0
 10
14.708713
 20
18.523334
 30
0.0
 10
14.749698
 20
18.445478
 30
0.0
 10
14.790659
 20
18.367669
 30
0.0
 10
14.831619
 20
18.289863
 30
0.0
 10
14.872604
 20
18.212007
 30
0.0
 10
14.913618
 20
18.134096
 30
0.0
 10
14.954644
 20
18.056163
 30
0.0
 10
14.995647
 20
17.978273
 30
0.0
 10
15.036657
 20
17.900374
 30
0.0
 10
15.077643
 20
17.822517
 30
0.0
 10
15.118652
 20
17.744616
 30
0.0
 10
15.159643
 20
17.666748
 30
0.0
 10
15.135439
 20
17.582163
 30
0.0
 10
15.111236
 20
17.497581
 30
0.0
 10
15.087047
 20
17.413044
 30
0.0
 10
15.062841
 20
17.328451
 30
0.0
 10
15.038649
 20
17.243914
 30
0.0
 10
15.014411
 20
17.159216
 30
0.0
 10
14.990219
 20
17.074679
 30
0.0
 10
14.966002
 20
16.990052
 30
0.0
 10
14.941798
 20
16.905467
 30
0.0
 10
14.917570
 20
16.820795
 30
0.0
 10
14.893330
 20
16.736083
 30
0.0
 10
14.869132
 20
16.651521
 30
0.0
 10
14.844897
 20
16.566829
 30
0.0
 10
14.820683
 20
16.482213
 30
0.0
 10
14.796457
 20
16.397546
 30
0.0
 10
14.772262
 20
16.312998
 30
0.0
 10
14.748064
 20
16.228433
 30
0.0
 10
14.723824
 20
16.143724
 30
0.0
 10
14.699618
 20
16.059136
 30
0.0
 10
14.675417
 20
15.974566
 30
0.0
 10
14.651200
 20
15.889933
 30
0.0
 10
14.626999
 20
15.805365
 30
0.0
 10
14.602765
 20
15.720670
 30
0.0
 10
14.578547
 20
15.636037
 30
0.0
 10
14.554319
 20
15.551368
 30
0.0
 10
14.530112
 20
15.466780
 30
0.0
 10
14.505895
 20
15.382145
 30
0.0
 10
14.481694
 20
15.297571
 30
0.0
 10
14.457454
 20
15.212862
 30
0.0
 10
14.433228
 20
15.128201
 30
0.0
 10
14.409036
 20
15.043656
 30
0.0
 10
14.384819
 20
14.959026
 30
0.0
 10
14.360598
 20
14.874382
 30
0.0
 10
14.336370
 20
14.789709
 30
0.0
 10
14.312144
 20
14.705054
 30
0.0
 10
14.287952
 20
14.620517
 30
0.0
 10
14.263728
 20
14.535862
 30
0.0
 10
14.239514
 20
14.451237
 30
0.0
 10
14.215322
 20
14.366692
 30
0.0
 10
14.191127
 20
14.282141
 30
0.0
 10
14.166901
 20
14.197474
 30
0.0
 10
14.142689
 20
14.112861
 30
0.0
 10
14.118457
 20
14.028186
 30
0.0
 10
14.047065
 20
13.974725
 30
0.0
 10
13.975564
 20
13.921182
 30
0.0
 10
13.904052
 20
13.867630
 30
0.0
 10
13.832636
 20
13.814149
 30
0.0
 10
13.761180
 20
13.760640
 30
0.0
 10
13.689752
 20
13.707150
 30
0.0
 10
13.618347
 20
13.653680
 30
0.0
 10
13.546848
 20
13.600137
 30
0.0
 10
13.475336
 20
13.546585
 30
0.0
 10
13.403904
 20
13.493093
 30
0.0
 10
13.332435
 20
13.439575
 30
0.0
 10
13.261041
 20
13.386111
 30
0.0
 10
13.189549
 20
13.332576
 30
0.0
 10
13.118049
 20
13.279033
 30
0.0
 10
13.046632
 20
13.225552
 30
0.0
 10
12.975160
 20
13.172031
 30
0.0
 10
12.903773
 20
13.118573
 30
0.0
 10
12.832299
 20
13.065049
 30
0.0
 10
12.760862
 20
13.011554
 30
0.0
 10
12.689429
 20
12.958062
 30
0.0
 10
12.617964
 20
12.904544
 30
0.0
 10
12.546548
 20
12.851066
 30
0.0
 10
12.475127
 20
12.797582
 30
0.0
 10
12.403601
 20
12.744019
 30
0.0
 10
12.332133
 20
12.690501
 30
0.0
 10
12.260618
 20
12.636946
 30
0.0
 10
12.189168
 20
12.583443
 30
0.0
 10
12.117710
 20
12.529931
 30
0.0
 10
12.046255
 20
12.476421
 30
0.0
 10
11.974857
 20
12.422957
 30
0.0
 10
11.903458
 20
12.369487
 30
0.0
 10
11.831970
 20
12.315955
 30
0.0
 10
11.760425
 20
12.262378
 30
0.0
 10
11.689018
 20
12.208906
 30
0.0
 10
11.646146
 20
12.276941
 30
0.0
 10
11.603172
 20
12.345137
 30
0.0
 10
11.560268
 20
12.413223
 30
0.0
 10
11.514615
 20
12.483725
 30
0.0
 10
11.469036
 20
12.554264
 30
0.0
 10
11.423604
 20
12.624870
 30
0.0
 10
11.424309
 20
12.625152
 30
0.0
 10
11.469858
 20
12.554648
 30
0.0
 10
11.515132
 20
12.484033
 30
0.0
 10
11.560277
 20
12.413178
 30
0.0
 10
11.616783
 20
12.479390
 30
0.0
 10
11.673374
 20
12.545701
 30
0.0
 10
11.729974
 20
12.612023
 30
0.0
 10
11.786499
 20
12.678255
 30
0.0
 10
11.843054
 20
12.744527
 30
0.0
 10
11.899588
 20
12.810770
 30
0.0
 10
11.956103
 20
12.876991
 30
0.0
 10
12.012692
 20
12.943302
 30
0.0
 10
12.069293
 20
13.009624
 30
0.0
 10
12.125830
 20
13.075870
 30
0.0
 10
12.182396
 20
13.142152
 30
0.0
 10
12.238902
 20
13.208365
 30
0.0
 10
12.295486
 20
13.274667
 30
0.0
 10
12.352077
 20
13.340978
 30
0.0
 10
12.408602
 20
13.407210
 30
0.0
 10
12.465171
 20
13.473495
 30
0.0
 10
12.521672
 20
13.539702
 30
0.0
 10
12.578241
 20
13.605988
 30
0.0
 10
12.634782
 20
13.672239
 30
0.0
 10
12.691320
 20
13.738488
 30
0.0
 10
12.747883
 20
13.804765
 30
0.0
 10
12.804407
 20
13.871000
 30
0.0
 10
12.860935
 20
13.937237
 30
0.0
 10
12.917546
 20
14.003571
 30
0.0
 10
12.974111
 20
14.069851
 30
0.0
 10
13.030714
 20
14.136176
 30
0.0
 10
13.087265
 20
14.202442
 30
0.0
 10
13.143822
 20
14.268710
 30
0.0
 10
13.200377
 20
14.334979
 30
0.0
 10
13.256886
 20
14.401197
 30
0.0
 10
13.313397
 20
14.467412
 30
0.0
 10
13.369978
 20
14.533711
 30
0.0
 10
13.426604
 20
14.600064
 30
0.0
 10
13.483122
 20
14.666288
 30
0.0
 10
13.483122
 20
14.753802
 30
0.0
 10
13.483122
 20
14.841449
 30
0.0
 10
13.483122
 20
14.929107
 30
0.0
 10
13.483122
 20
15.016650
 30
0.0
 10
13.483122
 20
15.104243
 30
0.0
 10
13.483122
 20
15.191800
 30
0.0
 10
13.483122
 20
15.279328
 30
0.0
 10
13.483122
 20
15.366970
 30
0.0
 10
13.483122
 20
15.454631
 30
0.0
 10
13.483122
 20
15.542193
 30
0.0
 10
13.483122
 20
15.629800
 30
0.0
 10
13.483122
 20
15.717315
 30
0.0
 10
13.483122
 20
15.804950
 30
0.0
 10
13.483122
 20
15.892597
 30
0.0
 10
13.483122
 20
15.980140
 30
0.0
 10
13.483122
 20
16.067750
 30
0.0
 10
13.483122
 20
16.155259
 30
0.0
 10
13.483122
 20
16.242869
 30
0.0
 10
13.483122
 20
16.330439
 30
0.0
 10
13.483122
 20
16.418002
 30
0.0
 10
13.483122
 20
16.505604
 30
0.0
 10
13.483122
 20
16.593146
 30
0.0
 10
13.483122
 20
16.680694
 30
0.0
 10
13.483122
 20
16.768369
 30
0.0
 10
13.483122
 20
16.855977
 30
0.0
 10
13.483122
 20
16.943641
 30
0.0
 10
13.483122
 20
17.031225
 30
0.0
 10
13.483122
 20
17.118819
 30
0.0
 10
13.483122
 20
17.206409
 30
0.0
 10
13.483122
 20
17.293926
 30
0.0
 10
13.483122
 20
17.381449
 30
0.0
 10
13.483122
 20
17.469079
 30
0.0
 10
13.483122
 20
17.556780
 30
0.0
 10
13.483122
 20
17.644311
 30
0.0
 10
13.422006
 20
17.706228
 30
0.0
 10
13.360897
 20
17.768136
 30
0.0
 10
13.299833
 20
17.830002
 30
0.0
 10
13.238787
 20
17.891845
 30
0.0
 10
13.177737
 20
17.953694
 30
0.0
 10
13.116723
 20
18.015509
 30
0.0
 10
13.055591
 20
18.077440
 30
0.0
 10
12.994481
 20
18.139351
 30
0.0
 10
12.933391
 20
18.201240
 30
0.0
 10
12.872331
 20
18.263100
 30
0.0
 10
12.811280
 20
18.324952
 30
0.0
 10
12.750215
 20
18.386815
 30
0.0
 10
12.689136
 20
18.448692
 30
0.0
 10
12.628000
 20
18.510632
 30
0.0
 10
12.566988
 20
18.572441
 30
0.0
 10
12.505883
 20
18.634346
 30
0.0
 10
12.444760
 20
18.696269
 30
0.0
 10
12.383693
 20
18.758135
 30
0.0
 10
12.322564
 20
18.820066
 30
0.0
 10
12.261543
 20
18.881886
 30
0.0
 10
12.200497
 20
18.943730
 30
0.0
 10
12.139398
 20
19.005630
 30
0.0
 10
12.078276
 20
19.067552
 30
0.0
 10
12.017265
 20
19.129361
 30
0.0
 10
11.956242
 20
19.191182
 30
0.0
 10
11.895146
 20
19.253079
 30
0.0
 10
11.834087
 20
19.314937
 30
0.0
 10
11.772998
 20
19.376828
 30
0.0
 10
11.805182
 20
19.445817
 30
0.0
 10
11.825065
 20
19.519362
 30
0.0
 10
11.831776
 20
19.595141
 30
0.0
 10
11.823419
 20
19.680807
 30
0.0
 10
11.798412
 20
19.763314
 30
0.0
 10
11.757742
 20
19.839232
 30
0.0
 10
11.703005
 20
19.905851
 30
0.0
 10
11.636464
 20
19.960523
 30
0.0
 10
11.560448
 20
20.001239
 30
0.0
 10
11.477986
 20
20.026216
 30
0.0
 10
11.392349
 20
20.034569
 30
0.0
 10
11.306846
 20
20.026216
 30
0.0
 10
11.224675
 20
20.001211
 30
0.0
 10
11.149004
 20
19.960393
 30
0.0
 10
11.082823
 20
19.905498
 30
0.0
 10
11.028681
 20
19.838848
 30
0.0
 10
10.988534
 20
19.762933
 30
0.0
 10
10.963936
 20
19.680618
 30
0.0
 10
10.955723
 20
19.595161
 30
0.0
 10
10.963944
 20
19.509664
 30
0.0
 10
10.988534
 20
19.427394
 30
0.0
 10
11.028754
 20
19.351369
 30
0.0
 10
11.082994
 20
19.284654
 30
0.0
 10
11.149189
 20
19.229807
 30
0.0
 10
11.224758
 20
19.189077
 30
0.0
 10
11.306886
 20
19.164100
 30
0.0
 10
11.392351
 20
19.155746
 30
0.0
 10
11.459949
 20
19.161250
 30
0.0
 10
11.525686
 20
19.177421
 30
0.0
 10
11.588274
 20
19.203329
 30
0.0
 10
11.639272
 20
19.132257
 30
0.0
 10
11.690239
 20
19.061233
 30
0.0
 10
11.741221
 20
18.990184
 30
0.0
 10
11.792181
 20
18.919165
 30
0.0
 10
11.843141
 20
18.848147
 30
0.0
 10
11.894143
 20
18.777072
 30
0.0
 10
11.945104
 20
18.706054
 30
0.0
 10
11.996075
 20
18.635021
 30
0.0
 10
12.046994
 20
18.564062
 30
0.0
 10
12.097961
 20
18.493032
 30
0.0
 10
12.148870
 20
18.422087
 30
0.0
 10
12.199883
 20
18.350995
 30
0.0
 10
12.250890
 20
18.279912
 30
0.0
 10
12.301802
 20
18.208961
 30
0.0
 10
12.352796
 20
18.137895
 30
0.0
 10
12.403800
 20
18.066817
 30
0.0
 10
12.454796
 20
17.995751
 30
0.0
 10
12.505732
 20
17.924766
 30
0.0
 10
12.556670
 20
17.853779
 30
0.0
 10
12.607609
 20
17.782792
 30
0.0
 10
12.658558
 20
17.711790
 30
0.0
 10
12.709550
 20
17.640727
 30
0.0
 10
12.760486
 20
17.569742
 30
0.0
 10
12.811390
 20
17.498803
 30
0.0
 10
12.806691
 20
17.409448
 30
0.0
 10
12.801995
 20
17.320156
 30
0.0
 10
12.797299
 20
17.230864
 30
0.0
 10
12.792602
 20
17.141549
 30
0.0
 10
12.787906
 20
17.052234
 30
0.0
 10
12.783213
 20
16.962973
 30
0.0
 10
12.778520
 20
16.873703
 30
0.0
 10
12.773823
 20
16.784380
 30
0.0
 10
12.769133
 20
16.695175
 30
0.0
 10
12.764442
 20
16.605970
 30
0.0
 10
12.759749
 20
16.516726
 30
0.0
 10
12.755050
 20
16.427377
 30
0.0
 10
12.750359
 20
16.338147
 30
0.0
 10
12.745663
 20
16.248832
 30
0.0
 10
12.740970
 20
16.159568
 30
0.0
 10
12.736274
 20
16.070262
 30
0.0
 10
12.731575
 20
15.980916
 30
0.0
 10
12.726881
 20
15.891632
 30
0.0
 10
12.722185
 20
15.802289
 30
0.0
 10
12.717495
 20
15.713070
 30
0.0
 10
12.712804
 20
15.623834
 30
0.0
 10
12.708111
 20
15.534587
 30
0.0
 10
12.703412
 20
15.445218
 30
0.0
 10
12.698716
 20
15.355892
 30
0.0
 10
12.694025
 20
15.266662
 30
0.0
 10
12.689332
 20
15.177390
 30
0.0
 10
12.684636
 20
15.088069
 30
0.0
 10
12.679939
 20
14.998760
 30
0.0
 10
12.675246
 20
14.909468
 30
0.0
 10
12.670550
 20
14.820158
 30
0.0
 10
12.665845
 20
14.730697
 30
0.0
 10
12.605095
 20
14.665503
 30
0.0
 10
12.544344
 20
14.600307
 30
0.0
 10
12.483556
 20
14.535072
 30
0.0
 10
12.422755
 20
14.469822
 30
0.0
 10
12.362023
 20
14.404645
 30
0.0
 10
12.301299
 20
14.339477
 30
0.0
 10
12.240561
 20
14.274295
 30
0.0
 10
12.179860
 20
14.209153
 30
0.0
 10
12.119161
 20
14.144013
 30
0.0
 10
12.058425
 20
14.078831
 30
0.0
 10
11.997645
 20
14.013604
 30
0.0
 10
11.936847
 20
13.948357
 30
0.0
 10
11.876082
 20
13.883147
 30
0.0
 10
11.815310
 20
13.817928
 30
0.0
 10
11.754572
 20
13.752746
 30
0.0
 10
11.693800
 20
13.687527
 30
0.0
 10
11.633053
 20
13.622337
 30
0.0
 10
11.592007
 20
13.698364
 30
0.0
 10
11.550969
 20
13.774375
 30
0.0
 10
11.509926
 20
13.850400
 30
0.0
 10
11.468879
 20
13.926431
 30
0.0
 10
11.427829
 20
14.002467
 30
0.0
 10
11.386789
 20
14.078484
 30
0.0
 10
11.345735
 20
14.154529
 30
0.0
 10
11.304670
 20
14.230590
 30
0.0
 10
11.263589
 20
14.306683
 30
0.0
 10
11.222517
 20
14.382762
 30
0.0
 10
11.181442
 20
14.458843
 30
0.0
 10
11.140448
 20
14.534775
 30
0.0
 10
11.137654
 20
14.551567
 30
0.0
 10
11.049661
 20
14.551567
 30
0.0
 10
10.961723
 20
14.551567
 30
0.0
 10
10.873759
 20
14.551567
 30
0.0
 10
10.785832
 20
14.551567
 30
0.0
 10
10.697905
 20
14.551567
 30
0.0
 10
10.609907
 20
14.551567
 30
0.0
 10
10.521978
 20
14.551567
 30
0.0
 10
10.434032
 20
14.551567
 30
0.0
 10
10.346178
 20
14.551567
 30
0.0
 10
10.258238
 20
14.551567
 30
0.0
 10
10.170400
 20
14.551567
 30
0.0
 10
10.082382
 20
14.551567
 30
0.0
 10
9.994375
 20
14.551567
 30
0.0
 10
9.906532
 20
14.551567
 30
0.0
 10
9.818545
 20
14.551567
 30
0.0
 10
9.730545
 20
14.551567
 30
0.0
 10
9.642555
 20
14.551567
 30
0.0
 10
9.554670
 20
14.551567
 30
0.0
 10
9.466782
 20
14.551567
 30
0.0
 10
9.378891
 20
14.551567
 30
0.0
 10
9.290985
 20
14.551567
 30
0.0
 10
9.203002
 20
14.551567
 30
0.0
 10
9.115119
 20
14.551567
 30
0.0
 10
9.027288
 20
14.551567
 30
0.0
 10
8.985542
 20
14.473906
 30
0.0
 10
8.943805
 20
14.396263
 30
0.0
 10
8.902061
 20
14.318604
 30
0.0
 10
8.860315
 20
14.240942
 30
0.0
 10
8.818565
 20
14.163275
 30
0.0
 10
8.776826
 20
14.085624
 30
0.0
 10
8.735072
 20
14.007948
 30
0.0
 10
8.693307
 20
13.930252
 30
0.0
 10
8.651525
 20
13.852526
 30
0.0
 10
8.609753
 20
13.774816
 30
0.0
 10
8.567978
 20
13.697097
 30
0.0
 10
8.526285
 20
13.619537
 30
0.0
 10
8.465535
 20
13.684897
 30
0.0
 10
8.404784
 20
13.750257
 30
0.0
 10
8.343996
 20
13.815656
 30
0.0
 10
8.283195
 20
13.881072
 30
0.0
 10
8.222462
 20
13.946412
 30
0.0
 10
8.161738
 20
14.011744
 30
0.0
 10
8.101000
 20
14.077093
 30
0.0
 10
8.040298
 20
14.142399
 30
0.0
 10
7.979599
 20
14.207702
 30
0.0
 10
7.918862
 20
14.273048
 30
0.0
 10
7.858082
 20
14.338439
 30
0.0
 10
7.797284
 20
14.403852
 30
0.0
 10
7.736519
 20
14.469226
 30
0.0
 10
7.675747
 20
14.534612
 30
0.0
 10
7.615008
 20
14.599957
 30
0.0
 10
7.554236
 20
14.665342
 30
0.0
 10
7.493489
 20
14.730697
 30
0.0
 10
7.488790
 20
14.820051
 30
0.0
 10
7.484097
 20
14.909343
 30
0.0
 10
7.479401
 20
14.998638
 30
0.0
 10
7.474704
 20
15.087951
 30
0.0
 10
7.470008
 20
15.177268
 30
0.0
 10
7.465315
 20
15.266529
 30
0.0
 10
7.460621
 20
15.355796
 30
0.0
 10
7.455925
 20
15.445120
 30
0.0
 10
7.451235
 20
15.534324
 30
0.0
 10
7.446544
 20
15.623532
 30
0.0
 10
7.441851
 20
15.712776
 30
0.0
 10
7.437152
 20
15.802125
 30
0.0
 10
7.432461
 20
15.891355
 30
0.0
 10
7.427765
 20
15.980667
 30
0.0
 10
7.423072
 20
16.069931
 30
0.0
 10
7.418376
 20
16.159238
 30
0.0
 10
7.413677
 20
16.248587
 30
0.0
 10
7.408983
 20
16.337870
 30
0.0
 10
7.404287
 20
16.427211
 30
0.0
 10
7.399597
 20
16.516432
 30
0.0
 10
7.394906
 20
16.605668
 30
0.0
 10
7.390213
 20
16.694915
 30
0.0
 10
7.385514
 20
16.784281
 30
0.0
 10
7.380818
 20
16.873607
 30
0.0
 10
7.376127
 20
16.962837
 30
0.0
 10
7.371434
 20
17.052110
 30
0.0
 10
7.366737
 20
17.141433
 30
0.0
 10
7.362041
 20
17.230740
 30
0.0
 10
7.357345
 20
17.320035
 30
0.0
 10
7.352649
 20
17.409341
 30
0.0
 10
7.347944
 20
17.498803
 30
0.0
 10
7.398943
 20
17.569875
 30
0.0
 10
7.449909
 20
17.640902
 30
0.0
 10
7.500891
 20
17.711948
 30
0.0
 10
7.551852
 20
17.782967
 30
0.0
 10
7.602812
 20
17.853985
 30
0.0
 10
7.653814
 20
17.925060
 30
0.0
 10
7.704775
 20
17.996081
 30
0.0
 10
7.755746
 20
18.067114
 30
0.0
 10
7.806664
 20
18.138073
 30
0.0
 10
7.857632
 20
18.209100
 30
0.0
 10
7.908541
 20
18.280048
 30
0.0
 10
7.959554
 20
18.351139
 30
0.0
 10
8.010561
 20
18.422220
 30
0.0
 10
8.061473
 20
18.493170
 30
0.0
 10
8.112467
 20
18.564237
 30
0.0
 10
8.163470
 20
18.635315
 30
0.0
 10
8.214467
 20
18.706384
 30
0.0
 10
8.265403
 20
18.777368
 30
0.0
 10
8.316341
 20
18.848353
 30
0.0
 10
8.367280
 20
18.919343
 30
0.0
 10
8.418229
 20
18.990344
 30
0.0
 10
8.469221
 20
19.061405
 30
0.0
 10
8.520157
 20
19.132390
 30
0.0
 10
8.571061
 20
19.203329
 30
0.0
 10
8.633666
 20
19.177421
 30
0.0
 10
8.699489
 20
19.161250
 30
0.0
 10
8.766984
 20
19.155775
 30
0.0
 10
8.852512
 20
19.164128
 30
0.0
 10
8.934695
 20
19.189162
 30
0.0
 10
9.010368
 20
19.229993
 30
0.0
 10
9.076470
 20
19.284824
 30
0.0
 10
9.130632
 20
19.351487
 30
0.0
 10
9.170791
 20
19.427416
 30
0.0
 10
9.195398
 20
19.509741
 30
0.0
 10
9.203614
 20
19.595200
 30
0.0
 10
9.195395
 20
19.680697
 30
0.0
 10
9.170814
 20
19.762967
 30
0.0
 10
9.130605
 20
19.838992
 30
0.0
 10
9.076376
 20
19.905707
 30
0.0
 10
9.010186
 20
19.960554
 30
0.0
 10
8.934615
 20
20.001284
 30
0.0
 10
8.852475
 20
20.026261
 30
0.0
 10
8.766984
 20
20.034615
 30
0.0
 10
8.766984
 20
20.034615
 30
0.0
  0
LWPOLYLINE
  5
101
100
AcDbEntity
  8
0
 62
7
100
AcDbPolyline
 90
209
 70
0
 10
12.511905
 20
10.627533
 30
0.0
 10
12.527503
 20
10.541712
 30
0.0
 10
12.543104
 20
10.455888
 30
0.0
 10
12.558714
 20
10.370013
 30
0.0
 10
12.574313
 20
10.284192
 30
0.0
 10
12.589914
 20
10.198357
 30
0.0
 10
12.605504
 20
10.112584
 30
0.0
 10
12.621097
 20
10.026794
 30
0.0
 10
12.636701
 20
9.940945
 30
0.0
 10
12.652305
 20
9.855099
 30
0.0
 10
12.667909
 20
9.769253
 30
0.0
 10
12.683510
 20
9.683420
 30
0.0
 10
12.699120
 20
9.597549
 30
0.0
 10
12.714715
 20
9.511736
 30
0.0
 10
12.730328
 20
9.425839
 30
0.0
 10
12.745932
 20
9.339987
 30
0.0
 10
12.761542
 20
9.254112
 30
0.0
 10
12.777123
 20
9.168387
 30
0.0
 10
12.792727
 20
9.082544
 30
0.0
 10
12.875413
 20
9.060164
 30
0.0
 10
12.958127
 20
9.037755
 30
0.0
 10
13.040839
 20
9.015347
 30
0.0
 10
13.123570
 20
8.992938
 30
0.0
 10
13.206346
 20
8.970530
 30
0.0
 10
13.288981
 20
8.948150
 30
0.0
 10
13.371639
 20
8.925769
 30
0.0
 10
13.454279
 20
8.903389
 30
0.0
 10
13.537021
 20
8.880981
 30
0.0
 10
13.619685
 20
8.858601
 30
0.0
 10
13.702422
 20
8.836192
 30
0.0
 10
13.785209
 20
8.813784
 30
0.0
 10
13.867792
 20
8.791432
 30
0.0
 10
13.950536
 20
8.769023
 30
0.0
 10
13.945713
 20
8.681599
 30
0.0
 10
13.940895
 20
8.594243
 30
0.0
 10
13.936075
 20
8.506873
 30
0.0
 10
13.931252
 20
8.419454
 30
0.0
 10
13.926434
 20
8.332135
 30
0.0
 10
13.921617
 20
8.244778
 30
0.0
 10
13.916791
 20
8.157309
 30
0.0
 10
13.911967
 20
8.069877
 30
0.0
 10
13.907150
 20
7.982538
 30
0.0
 10
13.902332
 20
7.895193
 30
0.0
 10
13.897512
 20
7.807817
 30
0.0
 10
13.892695
 20
7.720497
 30
0.0
 10
13.887874
 20
7.633124
 30
0.0
 10
13.883054
 20
7.545737
 30
0.0
 10
13.878236
 20
7.458378
 30
0.0
 10
13.873413
 20
7.370942
 30
0.0
 10
13.868590
 20
7.283507
 30
0.0
 10
13.863764
 20
7.196027
 30
0.0
 10
13.858944
 20
7.108653
 30
0.0
 10
13.854126
 20
7.021292
 30
0.0
 10
13.849309
 20
6.933935
 30
0.0
 10
13.844488
 20
6.846534
 30
0.0
 10
13.839668
 20
6.759164
 30
0.0
 10
13.834847
 20
6.671793
 30
0.0
 10
13.830030
 20
6.584462
 30
0.0
 10
13.825207
 20
6.497036
 30
0.0
 10
13.820389
 20
6.409699
 30
0.0
 10
13.815569
 20
6.322312
 30
0.0
 10
13.810746
 20
6.234857
 30
0.0
 10
13.805922
 20
6.147419
 30
0.0
 10
13.801099
 20
6.060000
 30
0.0
 10
13.796276
 20
5.972573
 30
0.0
 10
13.791456
 20
5.885192
 30
0.0
 10
13.786638
 20
5.797847
 30
0.0
 10
13.781821
 20
5.710516
 30
0.0
 10
13.776998
 20
5.623067
 30
0.0
 10
13.728397
 20
5.552520
 30
0.0
 10
13.679823
 20
5.482015
 30
0.0
 10
13.631251
 20
5.411513
 30
0.0
 10
13.582588
 20
5.340878
 30
0.0
 10
13.534013
 20
5.270371
 30
0.0
 10
13.485382
 20
5.199781
 30
0.0
 10
13.436756
 20
5.129200
 30
0.0
 10
13.388190
 20
5.058707
 30
0.0
 10
13.339549
 20
4.988103
 30
0.0
 10
13.290899
 20
4.917486
 30
0.0
 10
13.242285
 20
4.846922
 30
0.0
 10
13.193685
 20
4.776380
 30
0.0
 10
13.145113
 20
4.705875
 30
0.0
 10
13.096483
 20
4.635289
 30
0.0
 10
13.047834
 20
4.564674
 30
0.0
 10
12.999223
 20
4.494113
 30
0.0
 10
12.950649
 20
4.423608
 30
0.0
 10
12.901964
 20
4.352942
 30
0.0
 10
12.853362
 20
4.282395
 30
0.0
 10
12.785985
 20
4.313115
 30
0.0
 10
12.714381
 20
4.332052
 30
0.0
 10
12.640647
 20
4.338374
 30
0.0
 10
12.555124
 20
4.330162
 30
0.0
 10
12.472841
 20
4.305608
 30
0.0
 10
12.396814
 20
4.265423
 30
0.0
 10
12.330106
 20
4.211213
 30
0.0
 10
12.275269
 20
4.145035
 30
0.0
 10
12.234550
 20
4.069462
 30
0.0
 10
12.209567
 20
3.987295
 30
0.0
 10
12.201219
 20
3.901754
 30
0.0
 10
12.209610
 20
3.815947
 30
0.0
 10
12.234637
 20
3.733487
 30
0.0
 10
12.275318
 20
3.657603
 30
0.0
 10
12.330055
 20
3.591013
 30
0.0
 10
12.396588
 20
3.536358
 30
0.0
 10
12.472474
 20
3.495701
 30
0.0
 10
12.554969
 20
3.470696
 30
0.0
 10
12.640645
 20
3.462342
 30
0.0
 10
12.726198
 20
3.470696
 30
0.0
 10
12.808394
 20
3.495729
 30
0.0
 10
12.884068
 20
3.536561
 30
0.0
 10
12.950165
 20
3.591391
 30
0.0
 10
13.004317
 20
3.658058
 30
0.0
 10
13.044465
 20
3.733984
 30
0.0
 10
13.069060
 20
3.816311
 30
0.0
 10
13.077270
 20
3.901768
 30
0.0
 10
13.070251
 20
3.981880
 30
0.0
 10
13.048692
 20
4.059361
 30
0.0
 10
13.012894
 20
4.131277
 30
0.0
 10
13.074352
 20
4.195677
 30
0.0
 10
13.135828
 20
4.260091
 30
0.0
 10
13.197258
 20
4.324461
 30
0.0
 10
13.258646
 20
4.388785
 30
0.0
 10
13.320138
 20
4.453219
 30
0.0
 10
13.381602
 20
4.517622
 30
0.0
 10
13.443059
 20
4.582019
 30
0.0
 10
13.504489
 20
4.646389
 30
0.0
 10
13.565966
 20
4.710806
 30
0.0
 10
13.627427
 20
4.775209
 30
0.0
 10
13.688856
 20
4.839575
 30
0.0
 10
13.750237
 20
4.903891
 30
0.0
 10
13.811715
 20
4.968311
 30
0.0
 10
13.873086
 20
5.032618
 30
0.0
 10
13.934489
 20
5.096956
 30
0.0
 10
13.995898
 20
5.161303
 30
0.0
 10
14.057359
 20
5.225706
 30
0.0
 10
14.118739
 20
5.290022
 30
0.0
 10
14.180151
 20
5.354371
 30
0.0
 10
14.241609
 20
5.418769
 30
0.0
 10
14.251379
 20
5.507446
 30
0.0
 10
14.261147
 20
5.596117
 30
0.0
 10
14.270901
 20
5.684639
 30
0.0
 10
14.280654
 20
5.773175
 30
0.0
 10
14.290416
 20
5.861784
 30
0.0
 10
14.300184
 20
5.950453
 30
0.0
 10
14.309949
 20
6.039096
 30
0.0
 10
14.319705
 20
6.127649
 30
0.0
 10
14.329476
 20
6.216334
 30
0.0
 10
14.339241
 20
6.304969
 30
0.0
 10
14.349003
 20
6.393567
 30
0.0
 10
14.358759
 20
6.482126
 30
0.0
 10
14.368527
 20
6.570789
 30
0.0
 10
14.378292
 20
6.659426
 30
0.0
 10
14.388054
 20
6.748024
 30
0.0
 10
14.397822
 20
6.836679
 30
0.0
 10
14.407584
 20
6.925285
 30
0.0
 10
14.417348
 20
7.013923
 30
0.0
 10
14.427113
 20
7.102560
 30
0.0
 10
14.436884
 20
7.191232
 30
0.0
 10
14.446637
 20
7.279776
 30
0.0
 10
14.456394
 20
7.368337
 30
0.0
 10
14.466162
 20
7.457003
 30
0.0
 10
14.475927
 20
7.545641
 30
0.0
 10
14.485686
 20
7.634219
 30
0.0
 10
14.495442
 20
7.722777
 30
0.0
 10
14.505204
 20
7.811378
 30
0.0
 10
14.514963
 20
7.899968
 30
0.0
 10
14.524726
 20
7.988580
 30
0.0
 10
14.534488
 20
8.077181
 30
0.0
 10
14.544241
 20
8.165711
 30
0.0
 10
14.554000
 20
8.254301
 30
0.0
 10
14.563760
 20
8.342896
 30
0.0
 10
14.573525
 20
8.431531
 30
0.0
 10
14.583287
 20
8.520137
 30
0.0
 10
14.593046
 20
8.608724
 30
0.0
 10
14.602797
 20
8.697237
 30
0.0
 10
14.612564
 20
8.785909
 30
0.0
 10
14.622326
 20
8.874518
 30
0.0
 10
14.632091
 20
8.963144
 30
0.0
 10
14.641851
 20
9.051734
 30
0.0
 10
14.570831
 20
9.104275
 30
0.0
 10
14.499818
 20
9.156811
 30
0.0
 10
14.428750
 20
9.209389
 30
0.0
 10
14.357736
 20
9.261927
 30
0.0
 10
14.286746
 20
9.314446
 30
0.0
 10
14.215750
 20
9.366970
 30
0.0
 10
14.144723
 20
9.419517
 30
0.0
 10
14.073777
 20
9.472002
 30
0.0
 10
14.002833
 20
9.524490
 30
0.0
 10
13.931831
 20
9.577017
 30
0.0
 10
13.860779
 20
9.629584
 30
0.0
 10
13.789776
 20
9.682111
 30
0.0
 10
13.718810
 20
9.734613
 30
0.0
 10
13.647781
 20
9.787162
 30
0.0
 10
13.576748
 20
9.839712
 30
0.0
 10
13.505820
 20
9.892189
 30
0.0
 10
13.434788
 20
9.944738
 30
0.0
 10
13.363764
 20
9.997283
 30
0.0
 10
13.292803
 20
10.049779
 30
0.0
 10
13.221810
 20
10.102303
 30
0.0
 10
13.150796
 20
10.154839
 30
0.0
 10
13.079813
 20
10.207355
 30
0.0
 10
13.008841
 20
10.259859
 30
0.0
 10
12.937830
 20
10.312395
 30
0.0
 10
12.866890
 20
10.364877
 30
0.0
 10
12.795905
 20
10.417393
 30
0.0
 10
12.724929
 20
10.469903
 30
0.0
 10
12.653883
 20
10.522464
 30
0.0
 10
12.582899
 20
10.574980
 30
0.0
 10
12.511892
 20
10.627510
 30
0.0
  0
LWPOLYLINE
  5
102
100
AcDbEntity
  8
0
 62
7
100
AcDbPolyline
 90
22
 70
0
 10
8.764173
 20
19.847067
 30
0.0
 10
8.842503
 20
19.834846
 30
0.0
 10
8.913283
 20
19.799227
 30
0.0
 10
8.969785
 20
19.743677
 30
0.0
 10
9.006325
 20
19.673373
 30
0.0
 10
9.018873
 20
19.595161
 30
0.0
 10
9.006308
 20
19.516647
 30
0.0
 10
8.969864
 20
19.445812
 30
0.0
 10
8.913562
 20
19.389503
 30
0.0
 10
8.842739
 20
19.353045
 30
0.0
 10
8.764172
 20
19.340458
 30
0.0
 10
8.685903
 20
19.353017
 30
0.0
 10
8.615637
 20
19.389553
 30
0.0
 10
8.560048
 20
19.446125
 30
0.0
 10
8.524450
 20
19.516946
 30
0.0
 10
8.512272
 20
19.595152
 30
0.0
 10
8.524428
 20
19.673054
 30
0.0
 10
8.560110
 20
19.743336
 30
0.0
 10
8.615846
 20
19.799109
 30
0.0
 10
8.686218
 20
19.834877
 30
0.0
 10
8.764172
 20
19.847041
 30
0.0
 10
8.764172
 20
19.847041
 30
0.0
  0
LWPOLYLINE
  5
103
100
AcDbEntity
  8
0
 62
7
100
AcDbPolyline
 90
22
 70
0
 10
11.392334
 20
19.847041
 30
0.0
 10
11.470731
 20
19.834821
 30
0.0
 10
11.541521
 20
19.799202
 30
0.0
 10
11.597996
 20
19.743652
 30
0.0
 10
11.634502
 20
19.673348
 30
0.0
 10
11.647033
 20
19.595135
 30
0.0
 10
11.634454
 20
19.516528
 30
0.0
 10
11.598032
 20
19.445727
 30
0.0
 10
11.541668
 20
19.389381
 30
0.0
 10
11.470889
 20
19.352994
 30
0.0
 10
11.392332
 20
19.340435
 30
0.0
 10
11.314131
 20
19.352994
 30
0.0
 10
11.243875
 20
19.389531
 30
0.0
 10
11.188259
 20
19.446102
 30
0.0
 10
11.152627
 20
19.516923
 30
0.0
 10
11.140432
 20
19.595130
 30
0.0
 10
11.152596
 20
19.673032
 30
0.0
 10
11.188296
 20
19.743313
 30
0.0
 10
11.244045
 20
19.799086
 30
0.0
 10
11.314412
 20
19.834855
 30
0.0
 10
11.392332
 20
19.847019
 30
0.0
 10
11.392332
 20
19.847019
 30
0.0
  0
LWPOLYLINE
  5
104
100
AcDbEntity
  8
0
 62
7
100
AcDbPolyline
 90
22
 70
0
 10
5.830929
 20
19.659493
 30
0.0
 10
5.908854
 20
19.647301
 30
0.0
 10
5.979215
 20
19.611518
 30
0.0
 10
6.034920
 20
19.555794
 30
0.0
 10
6.070660
 20
19.485469
 30
0.0
 10
6.082830
 20
19.407587
 30
0.0
 10
6.070666
 20
19.329719
 30
0.0
 10
6.034966
 20
19.259443
 30
0.0
 10
5.979217
 20
19.203656
 30
0.0
 10
5.908849
 20
19.167871
 30
0.0
 10
5.830930
 20
19.155679
 30
0.0
 10
5.752600
 20
19.167899
 30
0.0
 10
5.681820
 20
19.203532
 30
0.0
 10
5.625319
 20
19.259099
 30
0.0
 10
5.588778
 20
19.329398
 30
0.0
 10
5.576230
 20
19.407576
 30
0.0
 10
5.588820
 20
19.485845
 30
0.0
 10
5.625343
 20
19.556110
 30
0.0
 10
5.681889
 20
19.611699
 30
0.0
 10
5.752698
 20
19.647298
 30
0.0
 10
5.830930
 20
19.659462
 30
0.0
 10
5.830930
 20
19.659462
 30
0.0
  0
LWPOLYLINE
  5
105
100
AcDbEntity
  8
0
 62
7
100
AcDbPolyline
 90
22
 70
0
 10
14.328373
 20
19.659462
 30
0.0
 10
14.406770
 20
19.647242
 30
0.0
 10
14.477559
 20
19.611623
 30
0.0
 10
14.534035
 20
19.556070
 30
0.0
 10
14.570541
 20
19.485769
 30
0.0
 10
14.583072
 20
19.407556
 30
0.0
 10
14.570524
 20
19.329322
 30
0.0
 10
14.534023
 20
19.259059
 30
0.0
 10
14.477477
 20
19.203459
 30
0.0
 10
14.406646
 20
19.167842
 30
0.0
 10
14.328371
 20
19.155650
 30
0.0
 10
14.250538
 20
19.167814
 30
0.0
 10
14.180266
 20
19.203515
 30
0.0
 10
14.124467
 20
19.259263
 30
0.0
 10
14.088663
 20
19.329632
 30
0.0
 10
14.076471
 20
19.407551
 30
0.0
 10
14.088635
 20
19.485416
 30
0.0
 10
14.124335
 20
19.555695
 30
0.0
 10
14.180084
 20
19.611479
 30
0.0
 10
14.250452
 20
19.647267
 30
0.0
 10
14.328371
 20
19.659459
 30
0.0
 10
14.328371
 20
19.659459
 30
0.0
  0
LWPOLYLINE
  5
106
100
AcDbEntity
  8
0
 62
7
100
AcDbPolyline
 90
146
 70
0
 10
9.528268
 20
11.814159
 30
0.0
 10
9.591243
 20
11.814159
 30
0.0
 10
9.654218
 20
11.814159
 30
0.0
 10
9.739305
 20
11.814159
 30
0.0
 10
9.824346
 20
11.814159
 30
0.0
 10
9.909359
 20
11.814159
 30
0.0
 10
9.994414
 20
11.814159
 30
0.0
 10
10.079437
 20
11.814159
 30
0.0
 10
10.164643
 20
11.814159
 30
0.0
 10
10.249725
 20
11.814159
 30
0.0
 10
10.334816
 20
11.814159
 30
0.0
 10
10.420005
 20
11.814159
 30
0.0
 10
10.505082
 20
11.814159
 30
0.0
 10
10.568057
 20
11.814159
 30
0.0
 10
10.631032
 20
11.814159
 30
0.0
 10
10.631032
 20
11.741464
 30
0.0
 10
10.631032
 20
11.668597
 30
0.0
 10
10.631032
 20
11.595846
 30
0.0
 10
10.568057
 20
11.595846
 30
0.0
 10
10.505082
 20
11.595846
 30
0.0
 10
10.505393
 20
11.515012
 30
0.0
 10
10.505703
 20
11.434223
 30
0.0
 10
10.506013
 20
11.353276
 30
0.0
 10
10.506324
 20
11.272473
 30
0.0
 10
10.506634
 20
11.191599
 30
0.0
 10
10.506945
 20
11.110723
 30
0.0
 10
10.507255
 20
11.029903
 30
0.0
 10
10.507566
 20
10.948975
 30
0.0
 10
10.507876
 20
10.868133
 30
0.0
 10
10.540221
 20
10.784832
 30
0.0
 10
10.572543
 20
10.701588
 30
0.0
 10
10.604866
 20
10.618344
 30
0.0
 10
10.637196
 20
10.535082
 30
0.0
 10
10.669527
 20
10.451816
 30
0.0
 10
10.701837
 20
10.368602
 30
0.0
 10
10.734151
 20
10.285381
 30
0.0
 10
10.766484
 20
10.202108
 30
0.0
 10
10.798775
 20
10.118949
 30
0.0
 10
10.831066
 20
10.035786
 30
0.0
 10
10.863371
 20
9.952587
 30
0.0
 10
10.895713
 20
9.869289
 30
0.0
 10
10.928013
 20
9.786104
 30
0.0
 10
10.960343
 20
9.702843
 30
0.0
 10
10.992655
 20
9.619627
 30
0.0
 10
11.024982
 20
9.536368
 30
0.0
 10
11.057324
 20
9.453073
 30
0.0
 10
11.089643
 20
9.369840
 30
0.0
 10
11.121983
 20
9.286551
 30
0.0
 10
11.154280
 20
9.203374
 30
0.0
 10
11.186581
 20
9.120184
 30
0.0
 10
11.218887
 20
9.036982
 30
0.0
 10
11.251236
 20
8.953670
 30
0.0
 10
11.283571
 20
8.870395
 30
0.0
 10
11.315870
 20
8.787210
 30
0.0
 10
11.348185
 20
8.703985
 30
0.0
 10
11.380519
 20
8.620713
 30
0.0
 10
11.412847
 20
8.537457
 30
0.0
 10
11.445169
 20
8.454213
 30
0.0
 10
11.477497
 20
8.370954
 30
0.0
 10
11.509880
 20
8.287552
 30
0.0
 10
11.473124
 20
8.207249
 30
0.0
 10
11.436346
 20
8.126897
 30
0.0
 10
11.399545
 20
8.046495
 30
0.0
 10
11.362772
 20
7.966155
 30
0.0
 10
11.325966
 20
7.885741
 30
0.0
 10
11.289146
 20
7.805296
 30
0.0
 10
11.252382
 20
7.724976
 30
0.0
 10
11.165598
 20
7.724976
 30
0.0
 10
11.078646
 20
7.724976
 30
0.0
 10
10.991782
 20
7.724976
 30
0.0
 10
10.904922
 20
7.724976
 30
0.0
 10
10.818119
 20
7.724976
 30
0.0
 10
10.731223
 20
7.724976
 30
0.0
 10
10.644333
 20
7.724976
 30
0.0
 10
10.557427
 20
7.724976
 30
0.0
 10
10.470546
 20
7.724976
 30
0.0
 10
10.383633
 20
7.724976
 30
0.0
 10
10.296849
 20
7.724976
 30
0.0
 10
10.209987
 20
7.724976
 30
0.0
 10
10.123138
 20
7.724976
 30
0.0
 10
10.036238
 20
7.724976
 30
0.0
 10
9.949344
 20
7.724976
 30
0.0
 10
9.862553
 20
7.724976
 30
0.0
 10
9.775677
 20
7.724976
 30
0.0
 10
9.688758
 20
7.724976
 30
0.0
 10
9.601953
 20
7.724976
 30
0.0
 10
9.515089
 20
7.724976
 30
0.0
 10
9.428256
 20
7.724976
 30
0.0
 10
9.341354
 20
7.724976
 30
0.0
 10
9.254403
 20
7.724976
 30
0.0
 10
9.167487
 20
7.724976
 30
0.0
 10
9.080627
 20
7.724976
 30
0.0
 10
8.993741
 20
7.724976
 30
0.0
 10
8.906908
 20
7.724976
 30
0.0
 10
8.870152
 20
7.805279
 30
0.0
 10
8.833375
 20
7.885631
 30
0.0
 10
8.796573
 20
7.966036
 30
0.0
 10
8.759801
 20
8.046373
 30
0.0
 10
8.722995
 20
8.126787
 30
0.0
 10
8.686174
 20
8.207232
 30
0.0
 10
8.649410
 20
8.287552
 30
0.0
 10
8.681755
 20
8.370853
 30
0.0
 10
8.714077
 20
8.454097
 30
0.0
 10
8.746400
 20
8.537341
 30
0.0
 10
8.778730
 20
8.620605
 30
0.0
 10
8.811061
 20
8.703872
 30
0.0
 10
8.843372
 20
8.787085
 30
0.0
 10
8.875685
 20
8.870304
 30
0.0
 10
8.908018
 20
8.953577
 30
0.0
 10
8.940309
 20
9.036739
 30
0.0
 10
8.972600
 20
9.119902
 30
0.0
 10
9.004905
 20
9.203101
 30
0.0
 10
9.037247
 20
9.286396
 30
0.0
 10
9.069548
 20
9.369581
 30
0.0
 10
9.101877
 20
9.452845
 30
0.0
 10
9.134189
 20
9.536061
 30
0.0
 10
9.166517
 20
9.619316
 30
0.0
 10
9.198859
 20
9.702611
 30
0.0
 10
9.231178
 20
9.785847
 30
0.0
 10
9.263518
 20
9.869137
 30
0.0
 10
9.295814
 20
9.952313
 30
0.0
 10
9.328116
 20
10.035504
 30
0.0
 10
9.360422
 20
10.118706
 30
0.0
 10
9.392771
 20
10.202018
 30
0.0
 10
9.425105
 20
10.285293
 30
0.0
 10
9.457405
 20
10.368478
 30
0.0
 10
9.489720
 20
10.451703
 30
0.0
 10
9.522053
 20
10.534972
 30
0.0
 10
9.554381
 20
10.618231
 30
0.0
 10
9.586703
 20
10.701475
 30
0.0
 10
9.619031
 20
10.784733
 30
0.0
 10
9.651415
 20
10.868133
 30
0.0
 10
9.651415
 20
10.948967
 30
0.0
 10
9.651415
 20
11.029756
 30
0.0
 10
9.651415
 20
11.110706
 30
0.0
 10
9.651415
 20
11.191506
 30
0.0
 10
9.651415
 20
11.272379
 30
0.0
 10
9.651415
 20
11.353259
 30
0.0
 10
9.651415
 20
11.434079
 30
0.0
 10
9.651415
 20
11.515003
 30
0.0
 10
9.651415
 20
11.595846
 30
0.0
 10
9.589839
 20
11.595846
 30
0.0
 10
9.528263
 20
11.595846
 30
0.0
 10
9.528265
 20
11.668540
 30
0.0
 10
9.528266
 20
11.741410
 30
0.0
 10
9.528268
 20
11.814159
 30
0.0
  0
LWPOLYLINE
  5
107
100
AcDbEntity
  8
0
 62
7
100
AcDbPolyline
 90
22
 70
0
 10
4.462269
 20
7.056042
 30
0.0
 10
4.540566
 20
7.043821
 30
0.0
 10
4.611340
 20
7.008205
 30
0.0
 10
4.667855
 20
6.952652
 30
0.0
 10
4.704413
 20
6.882348
 30
0.0
 10
4.716969
 20
6.804136
 30
0.0
 10
4.704413
 20
6.725935
 30
0.0
 10
4.667895
 20
6.655681
 30
0.0
 10
4.611336
 20
6.600064
 30
0.0
 10
4.540510
 20
6.564433
 30
0.0
 10
4.462269
 20
6.552241
 30
0.0
 10
4.384402
 20
6.564405
 30
0.0
 10
4.314125
 20
6.600123
 30
0.0
 10
4.258339
 20
6.655887
 30
0.0
 10
4.222553
 20
6.726248
 30
0.0
 10
4.210369
 20
6.804133
 30
0.0
 10
4.222533
 20
6.882035
 30
0.0
 10
4.258233
 20
6.952316
 30
0.0
 10
4.313982
 20
7.008089
 30
0.0
 10
4.384350
 20
7.043858
 30
0.0
 10
4.462269
 20
7.056022
 30
0.0
 10
4.462269
 20
7.056022
 30
0.0
  0
LWPOLYLINE
  5
108
100
AcDbEntity
  8
0
 62
7
100
AcDbPolyline
 90
22
 70
0
 10
15.697029
 20
7.056022
 30
0.0
 10
15.774930
 20
7.043858
 30
0.0
 10
15.845212
 20
7.008177
 30
0.0
 10
15.900984
 20
6.952441
 30
0.0
 10
15.936754
 20
6.882068
 30
0.0
 10
15.948929
 20
6.804113
 30
0.0
 10
15.936743
 20
6.726189
 30
0.0
 10
15.900959
 20
6.655828
 30
0.0
 10
15.845235
 20
6.600123
 30
0.0
 10
15.774911
 20
6.564382
 30
0.0
 10
15.697028
 20
6.552218
 30
0.0
 10
15.618698
 20
6.564467
 30
0.0
 10
15.547918
 20
6.600117
 30
0.0
 10
15.491417
 20
6.655695
 30
0.0
 10
15.454876
 20
6.725991
 30
0.0
 10
15.442328
 20
6.804133
 30
0.0
 10
15.454893
 20
6.882404
 30
0.0
 10
15.491429
 20
6.952669
 30
0.0
 10
15.548001
 20
7.008258
 30
0.0
 10
15.618822
 20
7.043855
 30
0.0
 10
15.697029
 20
7.056047
 30
0.0
 10
15.697029
 20
7.056047
 30
0.0
  0
LWPOLYLINE
  5
109
100
AcDbEntity
  8
0
 62
7
100
AcDbPolyline
 90
22
 70
0
 10
7.518661
 20
4.153592
 30
0.0
 10
7.596957
 20
4.141372
 30
0.0
 10
7.667731
 20
4.105755
 30
0.0
 10
7.724246
 20
4.050203
 30
0.0
 10
7.760804
 20
3.979898
 30
0.0
 10
7.773360
 20
3.901686
 30
0.0
 10
7.760737
 20
3.823019
 30
0.0
 10
7.724268
 20
3.752261
 30
0.0
 10
7.667975
 20
3.695997
 30
0.0
 10
7.597183
 20
3.659565
 30
0.0
 10
7.518662
 20
3.646978
 30
0.0
 10
7.440392
 20
3.659537
 30
0.0
 10
7.370127
 20
3.696090
 30
0.0
 10
7.314605
 20
3.752582
 30
0.0
 10
7.279005
 20
3.823290
 30
0.0
 10
7.266762
 20
3.901664
 30
0.0
 10
7.278909
 20
3.979565
 30
0.0
 10
7.314664
 20
4.049971
 30
0.0
 10
7.370378
 20
4.105679
 30
0.0
 10
7.440722
 20
4.141406
 30
0.0
 10
7.518661
 20
4.153569
 30
0.0
 10
7.518661
 20
4.153569
 30
0.0
  0
LWPOLYLINE
  5
10a
100
AcDbEntity
  8
0
 62
7
100
AcDbPolyline
 90
22
 70
0
 10
12.640638
 20
4.153569
 30
0.0
 10
12.718563
 20
4.141377
 30
0.0
 10
12.788923
 20
4.105594
 30
0.0
 10
12.844628
 20
4.049870
 30
0.0
 10
12.880369
 20
3.979548
 30
0.0
 10
12.892538
 20
3.901664
 30
0.0
 10
12.880323
 20
3.823369
 30
0.0
 10
12.844706
 20
3.752594
 30
0.0
 10
12.789154
 20
3.696079
 30
0.0
 10
12.718851
 20
3.659520
 30
0.0
 10
12.640639
 20
3.646961
 30
0.0
 10
12.562123
 20
3.659520
 30
0.0
 10
12.491288
 20
3.695983
 30
0.0
 10
12.434979
 20
3.752295
 30
0.0
 10
12.398522
 20
3.823115
 30
0.0
 10
12.385938
 20
3.901647
 30
0.0
 10
12.398503
 20
3.979915
 30
0.0
 10
12.435038
 20
4.050183
 30
0.0
 10
12.491610
 20
4.105772
 30
0.0
 10
12.562432
 20
4.141369
 30
0.0
 10
12.640639
 20
4.153533
 30
0.0
 10
12.640639
 20
4.153533
 30
0.0
  0
LWPOLYLINE
  5
10b
100
AcDbEntity
  8
Beaker
 62
7
100
AcDbPolyline
 90
103
 70
0
 10
1.527589
 20
1.850405
 30
0.0
 10
1.591565
 20
1.844393
 30
0.0
 10
1.652979
 20
1.825343
 30
0.0
 10
1.709095
 20
1.795453
 30
0.0
 10
1.758307
 20
1.755126
 30
0.0
 10
1.798636
 20
1.705913
 30
0.0
 10
1.828526
 20
1.649798
 30
0.0
 10
1.847576
 20
1.588384
 30
0.0
 10
1.853604
 20
1.524407
 30
0.0
 10
1.853604
 20
1.437375
 30
0.0
 10
1.853604
 20
1.350341
 30
0.0
 10
1.853604
 20
1.263255
 30
0.0
 10
1.853604
 20
1.176150
 30
0.0
 10
1.853604
 20
1.089141
 30
0.0
 10
1.853604
 20
1.002149
 30
0.0
 10
1.853604
 20
0.915134
 30
0.0
 10
1.853604
 20
0.828170
 30
0.0
 10
1.853604
 20
0.741212
 30
0.0
 10
1.853604
 20
0.654200
 30
0.0
 10
1.853604
 20
0.567123
 30
0.0
 10
1.853604
 20
0.480024
 30
0.0
 10
1.853604
 20
0.392970
 30
0.0
 10
1.853604
 20
0.305907
 30
0.0
 10
1.853604
 20
0.218892
 30
0.0
 10
1.853604
 20
0.131827
 30
0.0
 10
1.853604
 20
0.044801
 30
0.0
 10
1.785958
 20
0.044801
 30
0.0
 10
1.718226
 20
0.044801
 30
0.0
 10
1.650432
 20
0.044801
 30
0.0
 10
1.582761
 20
0.044801
 30
0.0
 10
1.582761
 20
0.123879
 30
0.0
 10
1.582761
 20
0.202938
 30
0.0
 10
1.582761
 20
0.281881
 30
0.0
 10
1.582761
 20
0.360878
 30
0.0
 10
1.582761
 20
0.439835
 30
0.0
 10
1.582761
 20
0.518841
 30
0.0
 10
1.582761
 20
0.597730
 30
0.0
 10
1.582761
 20
0.676767
 30
0.0
 10
1.498483
 20
0.676767
 30
0.0
 10
1.414189
 20
0.676767
 30
0.0
 10
1.329849
 20
0.676767
 30
0.0
 10
1.245647
 20
0.676767
 30
0.0
 10
1.161380
 20
0.676767
 30
0.0
 10
1.077158
 20
0.676767
 30
0.0
 10
0.992852
 20
0.676767
 30
0.0
 10
0.908551
 20
0.676767
 30
0.0
 10
0.824379
 20
0.676767
 30
0.0
 10
0.740101
 20
0.676767
 30
0.0
 10
0.655862
 20
0.676767
 30
0.0
 10
0.571631
 20
0.676767
 30
0.0
 10
0.487361
 20
0.676767
 30
0.0
 10
0.403083
 20
0.676767
 30
0.0
 10
0.318825
 20
0.676767
 30
0.0
 10
0.318825
 20
0.597688
 30
0.0
 10
0.318825
 20
0.518629
 30
0.0
 10
0.318825
 20
0.439686
 30
0.0
 10
0.318825
 20
0.360689
 30
0.0
 10
0.318825
 20
0.281732
 30
0.0
 10
0.318825
 20
0.202726
 30
0.0
 10
0.318825
 20
0.123837
 30
0.0
 10
0.318825
 20
0.044801
 30
0.0
 10
0.251179
 20
0.044801
 30
0.0
 10
0.183447
 20
0.044801
 30
0.0
 10
0.115653
 20
0.044801
 30
0.0
 10
0.047982
 20
0.044801
 30
0.0
 10
0.047982
 20
0.131832
 30
0.0
 10
0.047982
 20
0.218867
 30
0.0
 10
0.047982
 20
0.305952
 30
0.0
 10
0.047982
 20
0.393057
 30
0.0
 10
0.047982
 20
0.480063
 30
0.0
 10
0.047982
 20
0.567058
 30
0.0
 10
0.047982
 20
0.654073
 30
0.0
 10
0.047982
 20
0.741034
 30
0.0
 10
0.047982
 20
0.827995
 30
0.0
 10
0.047982
 20
0.915007
 30
0.0
 10
0.047982
 20
1.002081
 30
0.0
 10
0.047982
 20
1.089184
 30
0.0
 10
0.047982
 20
1.176235
 30
0.0
 10
0.047982
 20
1.263301
 30
0.0
 10
0.047982
 20
1.350315
 30
0.0
 10
0.047982
 20
1.437381
 30
0.0
 10
0.047982
 20
1.524407
 30
0.0
 10
0.054009
 20
1.588384
 30
0.0
 10
0.073060
 20
1.649798
 30
0.0
 10
0.102948
 20
1.705913
 30
0.0
 10
0.143278
 20
1.755126
 30
0.0
 10
0.191353
 20
1.795112
 30
0.0
 10
0.246099
 20
1.825343
 30
0.0
 10
0.308791
 20
1.844280
 30
0.0
 10
0.373997
 20
1.850433
 30
0.0
 10
0.462721
 20
1.850433
 30
0.0
 10
0.551466
 20
1.850433
 30
0.0
 10
0.640175
 20
1.850433
 30
0.0
 10
0.728842
 20
1.850433
 30
0.0
 10
0.817511
 20
1.850433
 30
0.0
 10
0.906274
 20
1.850433
 30
0.0
 10
0.995039
 20
1.850433
 30
0.0
 10
1.083791
 20
1.850433
 30
0.0
 10
1.172481
 20
1.850433
 30
0.0
 10
1.261233
 20
1.850433
 30
0.0
 10
1.350028
 20
1.850433
 30
0.0
 10
1.438826
 20
1.850433
 30
0.0
 10
1.527589
 20
1.850433
 30
0.0
  0
LWPOLYLINE
  5
10c
100
AcDbEntity
  8
Beaker
 62
7
100
AcDbPolyline
 90
47
 70
0
 10
1.582761
 20
0.947621
 30
0.0
 10
1.582761
 20
1.029956
 30
0.0
 10
1.582761
 20
1.112337
 30
0.0
 10
1.582761
 20
1.194774
 30
0.0
 10
1.582761
 20
1.277144
 30
0.0
 10
1.582761
 20
1.359589
 30
0.0
 10
1.582761
 20
1.442069
 30
0.0
 10
1.582761
 20
1.524418
 30
0.0
 10
1.565206
 20
1.562036
 30
0.0
 10
1.527589
 20
1.579590
 30
0.0
 10
1.438865
 20
1.579590
 30
0.0
 10
1.350119
 20
1.579590
 30
0.0
 10
1.261411
 20
1.579590
 30
0.0
 10
1.172743
 20
1.579590
 30
0.0
 10
1.084075
 20
1.579590
 30
0.0
 10
0.995312
 20
1.579590
 30
0.0
 10
0.906547
 20
1.579590
 30
0.0
 10
0.817795
 20
1.579590
 30
0.0
 10
0.729104
 20
1.579590
 30
0.0
 10
0.640353
 20
1.579590
 30
0.0
 10
0.551558
 20
1.579590
 30
0.0
 10
0.462760
 20
1.579590
 30
0.0
 10
0.373997
 20
1.579590
 30
0.0
 10
0.333872
 20
1.562036
 30
0.0
 10
0.318825
 20
1.524418
 30
0.0
 10
0.318825
 20
1.442083
 30
0.0
 10
0.318825
 20
1.359702
 30
0.0
 10
0.318825
 20
1.277265
 30
0.0
 10
0.318825
 20
1.194896
 30
0.0
 10
0.318825
 20
1.112450
 30
0.0
 10
0.318825
 20
1.029973
 30
0.0
 10
0.318825
 20
0.947621
 30
0.0
 10
0.403102
 20
0.947621
 30
0.0
 10
0.487396
 20
0.947621
 30
0.0
 10
0.571736
 20
0.947621
 30
0.0
 10
0.655939
 20
0.947621
 30
0.0
 10
0.740206
 20
0.947621
 30
0.0
 10
0.824428
 20
0.947621
 30
0.0
 10
0.908734
 20
0.947621
 30
0.0
 10
0.993034
 20
0.947621
 30
0.0
 10
1.077207
 20
0.947621
 30
0.0
 10
1.161484
 20
0.947621
 30
0.0
 10
1.245724
 20
0.947621
 30
0.0
 10
1.329954
 20
0.947621
 30
0.0
 10
1.414224
 20
0.947621
 30
0.0
 10
1.498502
 20
0.947621
 30
0.0
 10
1.582761
 20
0.947621
 30
0.0
  0
LWPOLYLINE
  5
10d
100
AcDbEntity
  8
Beaker
 62
7
100
AcDbPolyline
 90
65
 70
0
 10
3.267851
 20
1.499312
 30
0.0
 10
3.267851
 20
1.431666
 30
0.0
 10
3.267851
 20
1.363933
 30
0.0
 10
3.267851
 20
1.296140
 30
0.0
 10
3.267851
 20
1.228469
 30
0.0
 10
3.186598
 20
1.228469
 30
0.0
 10
3.105388
 20
1.228469
 30
0.0
 10
3.024206
 20
1.228469
 30
0.0
 10
2.942982
 20
1.228469
 30
0.0
 10
2.861790
 20
1.228469
 30
0.0
 10
2.780423
 20
1.228469
 30
0.0
 10
2.699174
 20
1.228469
 30
0.0
 10
2.617917
 20
1.228469
 30
0.0
 10
2.536565
 20
1.228469
 30
0.0
 10
2.455321
 20
1.228469
 30
0.0
 10
2.415196
 20
1.210915
 30
0.0
 10
2.400149
 20
1.173297
 30
0.0
 10
2.400149
 20
1.086502
 30
0.0
 10
2.400149
 20
0.999685
 30
0.0
 10
2.400149
 20
0.912905
 30
0.0
 10
2.400149
 20
0.826167
 30
0.0
 10
2.400149
 20
0.739426
 30
0.0
 10
2.400149
 20
0.652591
 30
0.0
 10
2.400149
 20
0.565757
 30
0.0
 10
2.400149
 20
0.478932
 30
0.0
 10
2.400149
 20
0.392171
 30
0.0
 10
2.400149
 20
0.305348
 30
0.0
 10
2.400149
 20
0.218483
 30
0.0
 10
2.400149
 20
0.131618
 30
0.0
 10
2.400149
 20
0.044784
 30
0.0
 10
2.332503
 20
0.044784
 30
0.0
 10
2.264771
 20
0.044784
 30
0.0
 10
2.196978
 20
0.044784
 30
0.0
 10
2.129306
 20
0.044784
 30
0.0
 10
2.129306
 20
0.126210
 30
0.0
 10
2.129306
 20
0.207739
 30
0.0
 10
2.129306
 20
0.289340
 30
0.0
 10
2.129306
 20
0.370798
 30
0.0
 10
2.129306
 20
0.459938
 30
0.0
 10
2.129306
 20
0.549030
 30
0.0
 10
2.129306
 20
0.638297
 30
0.0
 10
2.129306
 20
0.727403
 30
0.0
 10
2.129306
 20
0.816588
 30
0.0
 10
2.129306
 20
0.905779
 30
0.0
 10
2.129306
 20
0.994904
 30
0.0
 10
2.129306
 20
1.084146
 30
0.0
 10
2.129306
 20
1.173297
 30
0.0
 10
2.135333
 20
1.237274
 30
0.0
 10
2.154384
 20
1.298688
 30
0.0
 10
2.184272
 20
1.354803
 30
0.0
 10
2.224603
 20
1.404017
 30
0.0
 10
2.272677
 20
1.444002
 30
0.0
 10
2.327423
 20
1.474233
 30
0.0
 10
2.390116
 20
1.493171
 30
0.0
 10
2.455321
 20
1.499323
 30
0.0
 10
2.536575
 20
1.499323
 30
0.0
 10
2.617784
 20
1.499323
 30
0.0
 10
2.698967
 20
1.499323
 30
0.0
 10
2.780190
 20
1.499323
 30
0.0
 10
2.861383
 20
1.499323
 30
0.0
 10
2.942749
 20
1.499323
 30
0.0
 10
3.023999
 20
1.499323
 30
0.0
 10
3.105256
 20
1.499323
 30
0.0
 10
3.186608
 20
1.499323
 30
0.0
 10
3.267851
 20
1.499323
 30
0.0
  0
LWPOLYLINE
  5
10e
100
AcDbEntity
  8
Beaker
 62
7
100
AcDbPolyline
 90
98
 70
0
 10
4.580885
 20
1.499312
 30
0.0
 10
4.644862
 20
1.493272
 30
0.0
 10
4.706276
 20
1.474222
 30
0.0
 10
4.762392
 20
1.444332
 30
0.0
 10
4.811604
 20
1.404005
 30
0.0
 10
4.851933
 20
1.354791
 30
0.0
 10
4.881822
 20
1.298677
 30
0.0
 10
4.900872
 20
1.237263
 30
0.0
 10
4.906900
 20
1.173286
 30
0.0
 10
4.906900
 20
1.086491
 30
0.0
 10
4.906900
 20
0.999674
 30
0.0
 10
4.906900
 20
0.912893
 30
0.0
 10
4.906900
 20
0.826155
 30
0.0
 10
4.906900
 20
0.739414
 30
0.0
 10
4.906900
 20
0.652580
 30
0.0
 10
4.906900
 20
0.565746
 30
0.0
 10
4.906900
 20
0.478920
 30
0.0
 10
4.906900
 20
0.392160
 30
0.0
 10
4.906900
 20
0.305337
 30
0.0
 10
4.906900
 20
0.218472
 30
0.0
 10
4.906900
 20
0.131606
 30
0.0
 10
4.906900
 20
0.044772
 30
0.0
 10
4.818176
 20
0.044772
 30
0.0
 10
4.729431
 20
0.044772
 30
0.0
 10
4.640723
 20
0.044772
 30
0.0
 10
4.552055
 20
0.044772
 30
0.0
 10
4.463387
 20
0.044772
 30
0.0
 10
4.374624
 20
0.044772
 30
0.0
 10
4.285859
 20
0.044772
 30
0.0
 10
4.197106
 20
0.044772
 30
0.0
 10
4.108416
 20
0.044772
 30
0.0
 10
4.019665
 20
0.044772
 30
0.0
 10
3.930869
 20
0.044772
 30
0.0
 10
3.842071
 20
0.044772
 30
0.0
 10
3.753308
 20
0.044772
 30
0.0
 10
3.688103
 20
0.050925
 30
0.0
 10
3.625410
 20
0.069862
 30
0.0
 10
3.570664
 20
0.100091
 30
0.0
 10
3.522590
 20
0.140079
 30
0.0
 10
3.482602
 20
0.188155
 30
0.0
 10
3.452371
 20
0.242901
 30
0.0
 10
3.433440
 20
0.305594
 30
0.0
 10
3.427293
 20
0.370798
 30
0.0
 10
3.427293
 20
0.460322
 30
0.0
 10
3.427293
 20
0.549679
 30
0.0
 10
3.427293
 20
0.639214
 30
0.0
 10
3.427293
 20
0.728639
 30
0.0
 10
3.427293
 20
0.818005
 30
0.0
 10
3.427293
 20
0.907469
 30
0.0
 10
3.513618
 20
0.907469
 30
0.0
 10
3.599972
 20
0.907469
 30
0.0
 10
3.686324
 20
0.907469
 30
0.0
 10
3.772696
 20
0.907469
 30
0.0
 10
3.859115
 20
0.907469
 30
0.0
 10
3.945386
 20
0.907469
 30
0.0
 10
4.031682
 20
0.907469
 30
0.0
 10
4.117959
 20
0.907469
 30
0.0
 10
4.204343
 20
0.907469
 30
0.0
 10
4.290645
 20
0.907469
 30
0.0
 10
4.377024
 20
0.907469
 30
0.0
 10
4.463454
 20
0.907469
 30
0.0
 10
4.549671
 20
0.907469
 30
0.0
 10
4.636057
 20
0.907469
 30
0.0
 10
4.636057
 20
0.996078
 30
0.0
 10
4.636057
 20
1.084772
 30
0.0
 10
4.636057
 20
1.173297
 30
0.0
 10
4.618503
 20
1.210915
 30
0.0
 10
4.580885
 20
1.228469
 30
0.0
 10
4.492161
 20
1.228469
 30
0.0
 10
4.403416
 20
1.228469
 30
0.0
 10
4.314708
 20
1.228469
 30
0.0
 10
4.226040
 20
1.228469
 30
0.0
 10
4.137372
 20
1.228469
 30
0.0
 10
4.048609
 20
1.228469
 30
0.0
 10
3.959844
 20
1.228469
 30
0.0
 10
3.871091
 20
1.228469
 30
0.0
 10
3.782401
 20
1.228469
 30
0.0
 10
3.693650
 20
1.228469
 30
0.0
 10
3.604854
 20
1.228469
 30
0.0
 10
3.516057
 20
1.228469
 30
0.0
 10
3.427293
 20
1.228469
 30
0.0
 10
3.427293
 20
1.296115
 30
0.0
 10
3.427293
 20
1.363848
 30
0.0
 10
3.427293
 20
1.431641
 30
0.0
 10
3.427293
 20
1.499312
 30
0.0
 10
3.516018
 20
1.499312
 30
0.0
 10
3.604763
 20
1.499312
 30
0.0
 10
3.693471
 20
1.499312
 30
0.0
 10
3.782139
 20
1.499312
 30
0.0
 10
3.870807
 20
1.499312
 30
0.0
 10
3.959570
 20
1.499312
 30
0.0
 10
4.048335
 20
1.499312
 30
0.0
 10
4.137088
 20
1.499312
 30
0.0
 10
4.225778
 20
1.499312
 30
0.0
 10
4.314529
 20
1.499312
 30
0.0
 10
4.403325
 20
1.499312
 30
0.0
 10
4.492122
 20
1.499312
 30
0.0
 10
4.580885
 20
1.499312
 30
0.0
  0
LWPOLYLINE
  5
10f
100
AcDbEntity
  8
Beaker
 62
7
100
AcDbPolyline
 90
31
 70
0
 10
4.636057
 20
0.636626
 30
0.0
 10
4.550753
 20
0.636626
 30
0.0
 10
4.465542
 20
0.636626
 30
0.0
 10
4.380280
 20
0.636626
 30
0.0
 10
4.295025
 20
0.636626
 30
0.0
 10
4.209814
 20
0.636626
 30
0.0
 10
4.124477
 20
0.636626
 30
0.0
 10
4.039251
 20
0.636626
 30
0.0
 10
3.953898
 20
0.636626
 30
0.0
 10
3.868655
 20
0.636626
 30
0.0
 10
3.783407
 20
0.636626
 30
0.0
 10
3.698137
 20
0.636626
 30
0.0
 10
3.698137
 20
0.548017
 30
0.0
 10
3.698137
 20
0.459323
 30
0.0
 10
3.698137
 20
0.370798
 30
0.0
 10
3.713185
 20
0.330672
 30
0.0
 10
3.753310
 20
0.315629
 30
0.0
 10
3.841585
 20
0.315629
 30
0.0
 10
3.929813
 20
0.315629
 30
0.0
 10
4.018011
 20
0.315629
 30
0.0
 10
4.106254
 20
0.315629
 30
0.0
 10
4.194555
 20
0.315629
 30
0.0
 10
4.282940
 20
0.315629
 30
0.0
 10
4.371194
 20
0.315629
 30
0.0
 10
4.459455
 20
0.315629
 30
0.0
 10
4.547816
 20
0.315629
 30
0.0
 10
4.636059
 20
0.315629
 30
0.0
 10
4.636059
 20
0.395803
 30
0.0
 10
4.636059
 20
0.476078
 30
0.0
 10
4.636059
 20
0.556424
 30
0.0
 10
4.636059
 20
0.636629
 30
0.0
  0
LWPOLYLINE
  5
110
100
AcDbEntity
  8
Beaker
 62
7
100
AcDbPolyline
 90
99
 70
0
 10
6.604021
 20
0.315627
 30
0.0
 10
6.604021
 20
0.247981
 30
0.0
 10
6.604021
 20
0.180247
 30
0.0
 10
6.604021
 20
0.112455
 30
0.0
 10
6.604021
 20
0.044784
 30
0.0
 10
6.515297
 20
0.044784
 30
0.0
 10
6.426551
 20
0.044784
 30
0.0
 10
6.337843
 20
0.044784
 30
0.0
 10
6.249175
 20
0.044784
 30
0.0
 10
6.160507
 20
0.044784
 30
0.0
 10
6.071744
 20
0.044784
 30
0.0
 10
5.982979
 20
0.044784
 30
0.0
 10
5.894227
 20
0.044784
 30
0.0
 10
5.805536
 20
0.044784
 30
0.0
 10
5.716785
 20
0.044784
 30
0.0
 10
5.627990
 20
0.044784
 30
0.0
 10
5.539192
 20
0.044784
 30
0.0
 10
5.450429
 20
0.044784
 30
0.0
 10
5.385223
 20
0.050936
 30
0.0
 10
5.322530
 20
0.069873
 30
0.0
 10
5.267785
 20
0.100102
 30
0.0
 10
5.219710
 20
0.140090
 30
0.0
 10
5.179723
 20
0.188167
 30
0.0
 10
5.149492
 20
0.242912
 30
0.0
 10
5.130560
 20
0.305605
 30
0.0
 10
5.124414
 20
0.370810
 30
0.0
 10
5.124414
 20
0.459949
 30
0.0
 10
5.124414
 20
0.549041
 30
0.0
 10
5.124414
 20
0.638308
 30
0.0
 10
5.124414
 20
0.727414
 30
0.0
 10
5.124414
 20
0.816599
 30
0.0
 10
5.124414
 20
0.905790
 30
0.0
 10
5.124414
 20
0.994916
 30
0.0
 10
5.124414
 20
1.084157
 30
0.0
 10
5.124414
 20
1.173308
 30
0.0
 10
5.130439
 20
1.237285
 30
0.0
 10
5.149492
 20
1.298700
 30
0.0
 10
5.179380
 20
1.354814
 30
0.0
 10
5.219710
 20
1.404028
 30
0.0
 10
5.267785
 20
1.444013
 30
0.0
 10
5.322530
 20
1.474245
 30
0.0
 10
5.385223
 20
1.493182
 30
0.0
 10
5.450429
 20
1.499334
 30
0.0
 10
5.538767
 20
1.499334
 30
0.0
 10
5.627127
 20
1.499334
 30
0.0
 10
5.715449
 20
1.499334
 30
0.0
 10
5.803732
 20
1.499334
 30
0.0
 10
5.892014
 20
1.499334
 30
0.0
 10
5.980391
 20
1.499334
 30
0.0
 10
6.068770
 20
1.499334
 30
0.0
 10
6.157137
 20
1.499334
 30
0.0
 10
6.245442
 20
1.499334
 30
0.0
 10
6.333807
 20
1.499334
 30
0.0
 10
6.422216
 20
1.499334
 30
0.0
 10
6.510628
 20
1.499334
 30
0.0
 10
6.599005
 20
1.499334
 30
0.0
 10
6.599005
 20
1.431688
 30
0.0
 10
6.599005
 20
1.363955
 30
0.0
 10
6.599005
 20
1.296163
 30
0.0
 10
6.599005
 20
1.228491
 30
0.0
 10
6.510667
 20
1.228491
 30
0.0
 10
6.422307
 20
1.228491
 30
0.0
 10
6.333985
 20
1.228491
 30
0.0
 10
6.245703
 20
1.228491
 30
0.0
 10
6.157420
 20
1.228491
 30
0.0
 10
6.069043
 20
1.228491
 30
0.0
 10
5.980664
 20
1.228491
 30
0.0
 10
5.892297
 20
1.228491
 30
0.0
 10
5.803992
 20
1.228491
 30
0.0
 10
5.715627
 20
1.228491
 30
0.0
 10
5.627218
 20
1.228491
 30
0.0
 10
5.538806
 20
1.228491
 30
0.0
 10
5.450429
 20
1.228491
 30
0.0
 10
5.410304
 20
1.210937
 30
0.0
 10
5.395256
 20
1.173320
 30
0.0
 10
5.395256
 20
1.084180
 30
0.0
 10
5.395256
 20
0.995085
 30
0.0
 10
5.395256
 20
0.905821
 30
0.0
 10
5.395256
 20
0.816712
 30
0.0
 10
5.395256
 20
0.727527
 30
0.0
 10
5.395256
 20
0.638339
 30
0.0
 10
5.395256
 20
0.549213
 30
0.0
 10
5.395256
 20
0.459969
 30
0.0
 10
5.395256
 20
0.370821
 30
0.0
 10
5.410304
 20
0.330694
 30
0.0
 10
5.450429
 20
0.315652
 30
0.0
 10
5.539153
 20
0.315652
 30
0.0
 10
5.627898
 20
0.315652
 30
0.0
 10
5.716606
 20
0.315652
 30
0.0
 10
5.805274
 20
0.315652
 30
0.0
 10
5.893942
 20
0.315652
 30
0.0
 10
5.982706
 20
0.315652
 30
0.0
 10
6.071471
 20
0.315652
 30
0.0
 10
6.160223
 20
0.315652
 30
0.0
 10
6.248913
 20
0.315652
 30
0.0
 10
6.337665
 20
0.315652
 30
0.0
 10
6.426460
 20
0.315652
 30
0.0
 10
6.515257
 20
0.315652
 30
0.0
 10
6.604021
 20
0.315652
 30
0.0
  0
LWPOLYLINE
  5
111
100
AcDbEntity
  8
Beaker
 62
7
100
AcDbPolyline
 90
112
 70
0
 10
7.990055
 20
1.499312
 30
0.0
 10
8.054032
 20
1.493272
 30
0.0
 10
8.115446
 20
1.474222
 30
0.0
 10
8.170640
 20
1.444538
 30
0.0
 10
8.218266
 20
1.404005
 30
0.0
 10
8.258596
 20
1.354791
 30
0.0
 10
8.288485
 20
1.298677
 30
0.0
 10
8.309386
 20
1.237508
 30
0.0
 10
8.316069
 20
1.173286
 30
0.0
 10
8.316069
 20
1.086491
 30
0.0
 10
8.316069
 20
0.999674
 30
0.0
 10
8.316069
 20
0.912893
 30
0.0
 10
8.316069
 20
0.826155
 30
0.0
 10
8.316069
 20
0.739414
 30
0.0
 10
8.316069
 20
0.652580
 30
0.0
 10
8.316069
 20
0.565746
 30
0.0
 10
8.316069
 20
0.478920
 30
0.0
 10
8.316069
 20
0.392160
 30
0.0
 10
8.316069
 20
0.305337
 30
0.0
 10
8.316069
 20
0.218472
 30
0.0
 10
8.316069
 20
0.131606
 30
0.0
 10
8.316069
 20
0.044772
 30
0.0
 10
8.248423
 20
0.044772
 30
0.0
 10
8.180691
 20
0.044772
 30
0.0
 10
8.112897
 20
0.044772
 30
0.0
 10
8.045226
 20
0.044772
 30
0.0
 10
8.045226
 20
0.131567
 30
0.0
 10
8.045226
 20
0.218384
 30
0.0
 10
8.045226
 20
0.305162
 30
0.0
 10
8.045226
 20
0.391903
 30
0.0
 10
8.045226
 20
0.478644
 30
0.0
 10
8.045226
 20
0.565478
 30
0.0
 10
8.045226
 20
0.652312
 30
0.0
 10
8.045226
 20
0.739135
 30
0.0
 10
8.045226
 20
0.825898
 30
0.0
 10
8.045226
 20
0.912719
 30
0.0
 10
8.045226
 20
0.999584
 30
0.0
 10
8.045226
 20
1.086452
 30
0.0
 10
8.045226
 20
1.173286
 30
0.0
 10
8.027672
 20
1.210903
 30
0.0
 10
7.990055
 20
1.228457
 30
0.0
 10
7.907296
 20
1.228457
 30
0.0
 10
7.824583
 20
1.228457
 30
0.0
 10
7.741897
 20
1.228457
 30
0.0
 10
7.659169
 20
1.228457
 30
0.0
 10
7.576473
 20
1.228457
 30
0.0
 10
7.493600
 20
1.228457
 30
0.0
 10
7.410846
 20
1.228457
 30
0.0
 10
7.328084
 20
1.228457
 30
0.0
 10
7.245226
 20
1.228457
 30
0.0
 10
7.162478
 20
1.228457
 30
0.0
 10
7.122353
 20
1.210903
 30
0.0
 10
7.107305
 20
1.173286
 30
0.0
 10
7.107305
 20
1.086491
 30
0.0
 10
7.107305
 20
0.999674
 30
0.0
 10
7.107305
 20
0.912893
 30
0.0
 10
7.107305
 20
0.826155
 30
0.0
 10
7.107305
 20
0.739414
 30
0.0
 10
7.107305
 20
0.652580
 30
0.0
 10
7.107305
 20
0.565746
 30
0.0
 10
7.107305
 20
0.478920
 30
0.0
 10
7.107305
 20
0.392160
 30
0.0
 10
7.107305
 20
0.305337
 30
0.0
 10
7.107305
 20
0.218472
 30
0.0
 10
7.107305
 20
0.131606
 30
0.0
 10
7.107305
 20
0.044772
 30
0.0
 10
7.039658
 20
0.044772
 30
0.0
 10
6.971927
 20
0.044772
 30
0.0
 10
6.904133
 20
0.044772
 30
0.0
 10
6.836461
 20
0.044772
 30
0.0
 10
6.836461
 20
0.132603
 30
0.0
 10
6.836461
 20
0.220337
 30
0.0
 10
6.836461
 20
0.308159
 30
0.0
 10
6.836461
 20
0.395944
 30
0.0
 10
6.836461
 20
0.483744
 30
0.0
 10
6.836461
 20
0.571563
 30
0.0
 10
6.836461
 20
0.659342
 30
0.0
 10
6.836461
 20
0.747099
 30
0.0
 10
6.836461
 20
0.834859
 30
0.0
 10
6.836461
 20
0.922543
 30
0.0
 10
6.836461
 20
1.010379
 30
0.0
 10
6.836461
 20
1.098130
 30
0.0
 10
6.836461
 20
1.185870
 30
0.0
 10
6.836461
 20
1.273630
 30
0.0
 10
6.836461
 20
1.361364
 30
0.0
 10
6.836461
 20
1.449099
 30
0.0
 10
6.836461
 20
1.536794
 30
0.0
 10
6.836461
 20
1.624641
 30
0.0
 10
6.836461
 20
1.712500
 30
0.0
 10
6.836461
 20
1.800206
 30
0.0
 10
6.836461
 20
1.887949
 30
0.0
 10
6.836461
 20
1.975785
 30
0.0
 10
6.904108
 20
1.975785
 30
0.0
 10
6.971840
 20
1.975785
 30
0.0
 10
7.039633
 20
1.975785
 30
0.0
 10
7.107305
 20
1.975785
 30
0.0
 10
7.107305
 20
1.896300
 30
0.0
 10
7.107305
 20
1.816964
 30
0.0
 10
7.107305
 20
1.737471
 30
0.0
 10
7.107305
 20
1.658076
 30
0.0
 10
7.107305
 20
1.578732
 30
0.0
 10
7.107305
 20
1.499300
 30
0.0
 10
7.195580
 20
1.499300
 30
0.0
 10
7.283808
 20
1.499300
 30
0.0
 10
7.372006
 20
1.499300
 30
0.0
 10
7.460249
 20
1.499300
 30
0.0
 10
7.548550
 20
1.499300
 30
0.0
 10
7.636934
 20
1.499300
 30
0.0
 10
7.725189
 20
1.499300
 30
0.0
 10
7.813450
 20
1.499300
 30
0.0
 10
7.901811
 20
1.499300
 30
0.0
 10
7.990053
 20
1.499300
 30
0.0
  0
LWPOLYLINE
  5
112
100
AcDbEntity
  8
Beaker
 62
7
100
AcDbPolyline
 90
100
 70
0
 10
9.660295
 20
1.499312
 30
0.0
 10
9.724272
 20
1.493272
 30
0.0
 10
9.785686
 20
1.474222
 30
0.0
 10
9.841802
 20
1.444332
 30
0.0
 10
9.891013
 20
1.404005
 30
0.0
 10
9.931343
 20
1.354791
 30
0.0
 10
9.961232
 20
1.298677
 30
0.0
 10
9.980282
 20
1.237263
 30
0.0
 10
9.986310
 20
1.173286
 30
0.0
 10
9.986310
 20
1.086491
 30
0.0
 10
9.986310
 20
0.999674
 30
0.0
 10
9.986310
 20
0.912893
 30
0.0
 10
9.986310
 20
0.826155
 30
0.0
 10
9.986310
 20
0.739414
 30
0.0
 10
9.986310
 20
0.652580
 30
0.0
 10
9.986310
 20
0.565746
 30
0.0
 10
9.986310
 20
0.478920
 30
0.0
 10
9.986310
 20
0.392160
 30
0.0
 10
9.986310
 20
0.305337
 30
0.0
 10
9.986310
 20
0.218472
 30
0.0
 10
9.986310
 20
0.131606
 30
0.0
 10
9.986310
 20
0.044772
 30
0.0
 10
9.918664
 20
0.044772
 30
0.0
 10
9.850932
 20
0.044772
 30
0.0
 10
9.783139
 20
0.044772
 30
0.0
 10
9.715467
 20
0.044772
 30
0.0
 10
9.715467
 20
0.131567
 30
0.0
 10
9.715467
 20
0.218384
 30
0.0
 10
9.715467
 20
0.305162
 30
0.0
 10
9.715467
 20
0.391903
 30
0.0
 10
9.715467
 20
0.478644
 30
0.0
 10
9.715467
 20
0.565478
 30
0.0
 10
9.715467
 20
0.652312
 30
0.0
 10
9.715467
 20
0.739135
 30
0.0
 10
9.715467
 20
0.825898
 30
0.0
 10
9.715467
 20
0.912719
 30
0.0
 10
9.715467
 20
0.999584
 30
0.0
 10
9.715467
 20
1.086452
 30
0.0
 10
9.715467
 20
1.173286
 30
0.0
 10
9.697913
 20
1.210903
 30
0.0
 10
9.660296
 20
1.228457
 30
0.0
 10
9.577537
 20
1.228457
 30
0.0
 10
9.494824
 20
1.228457
 30
0.0
 10
9.412138
 20
1.228457
 30
0.0
 10
9.329410
 20
1.228457
 30
0.0
 10
9.246715
 20
1.228457
 30
0.0
 10
9.163841
 20
1.228457
 30
0.0
 10
9.081087
 20
1.228457
 30
0.0
 10
8.998325
 20
1.228457
 30
0.0
 10
8.915467
 20
1.228457
 30
0.0
 10
8.832719
 20
1.228457
 30
0.0
 10
8.792594
 20
1.210903
 30
0.0
 10
8.777546
 20
1.173286
 30
0.0
 10
8.777546
 20
1.086491
 30
0.0
 10
8.777546
 20
0.999674
 30
0.0
 10
8.777546
 20
0.912893
 30
0.0
 10
8.777546
 20
0.826155
 30
0.0
 10
8.777546
 20
0.739414
 30
0.0
 10
8.777546
 20
0.652580
 30
0.0
 10
8.777546
 20
0.565746
 30
0.0
 10
8.777546
 20
0.478920
 30
0.0
 10
8.777546
 20
0.392160
 30
0.0
 10
8.777546
 20
0.305337
 30
0.0
 10
8.777546
 20
0.218472
 30
0.0
 10
8.777546
 20
0.131606
 30
0.0
 10
8.777546
 20
0.044772
 30
0.0
 10
8.709900
 20
0.044772
 30
0.0
 10
8.642168
 20
0.044772
 30
0.0
 10
8.574374
 20
0.044772
 30
0.0
 10
8.506703
 20
0.044772
 30
0.0
 10
8.506703
 20
0.130328
 30
0.0
 10
8.506703
 20
0.215886
 30
0.0
 10
8.506703
 20
0.301499
 30
0.0
 10
8.506703
 20
0.387128
 30
0.0
 10
8.506703
 20
0.472658
 30
0.0
 10
8.506703
 20
0.558180
 30
0.0
 10
8.506703
 20
0.643718
 30
0.0
 10
8.506703
 20
0.729206
 30
0.0
 10
8.506703
 20
0.814691
 30
0.0
 10
8.506703
 20
0.900357
 30
0.0
 10
8.506703
 20
0.985941
 30
0.0
 10
8.506703
 20
1.071550
 30
0.0
 10
8.506703
 20
1.157109
 30
0.0
 10
8.506703
 20
1.242681
 30
0.0
 10
8.506703
 20
1.328203
 30
0.0
 10
8.506703
 20
1.413770
 30
0.0
 10
8.506703
 20
1.499300
 30
0.0
 10
8.595427
 20
1.499300
 30
0.0
 10
8.684172
 20
1.499300
 30
0.0
 10
8.772880
 20
1.499300
 30
0.0
 10
8.861548
 20
1.499300
 30
0.0
 10
8.950216
 20
1.499300
 30
0.0
 10
9.038979
 20
1.499300
 30
0.0
 10
9.127744
 20
1.499300
 30
0.0
 10
9.216497
 20
1.499300
 30
0.0
 10
9.305187
 20
1.499300
 30
0.0
 10
9.393938
 20
1.499300
 30
0.0
 10
9.482734
 20
1.499300
 30
0.0
 10
9.571531
 20
1.499300
 30
0.0
 10
9.660295
 20
1.499300
 30
0.0
  0
LWPOLYLINE
  5
113
100
AcDbEntity
  8
Beaker
 62
7
100
AcDbPolyline
 90
43
 70
0
 10
10.245398
 20
1.499312
 30
0.0
 10
10.313045
 20
1.499312
 30
0.0
 10
10.380777
 20
1.499312
 30
0.0
 10
10.448570
 20
1.499312
 30
0.0
 10
10.516241
 20
1.499312
 30
0.0
 10
10.516241
 20
1.413756
 30
0.0
 10
10.516241
 20
1.328195
 30
0.0
 10
10.516241
 20
1.242585
 30
0.0
 10
10.516241
 20
1.156956
 30
0.0
 10
10.516241
 20
1.071426
 30
0.0
 10
10.516241
 20
0.985904
 30
0.0
 10
10.516241
 20
0.900366
 30
0.0
 10
10.516241
 20
0.814878
 30
0.0
 10
10.516241
 20
0.729393
 30
0.0
 10
10.516241
 20
0.643727
 30
0.0
 10
10.516241
 20
0.558143
 30
0.0
 10
10.516241
 20
0.472534
 30
0.0
 10
10.516241
 20
0.386972
 30
0.0
 10
10.516241
 20
0.301403
 30
0.0
 10
10.516241
 20
0.215881
 30
0.0
 10
10.516241
 20
0.130314
 30
0.0
 10
10.516241
 20
0.044784
 30
0.0
 10
10.448595
 20
0.044784
 30
0.0
 10
10.380863
 20
0.044784
 30
0.0
 10
10.313070
 20
0.044784
 30
0.0
 10
10.245398
 20
0.044784
 30
0.0
 10
10.245398
 20
0.130339
 30
0.0
 10
10.245398
 20
0.215898
 30
0.0
 10
10.245398
 20
0.301510
 30
0.0
 10
10.245398
 20
0.387139
 30
0.0
 10
10.245398
 20
0.472669
 30
0.0
 10
10.245398
 20
0.558191
 30
0.0
 10
10.245398
 20
0.643730
 30
0.0
 10
10.245398
 20
0.729218
 30
0.0
 10
10.245398
 20
0.814703
 30
0.0
 10
10.245398
 20
0.900368
 30
0.0
 10
10.245398
 20
0.985952
 30
0.0
 10
10.245398
 20
1.071562
 30
0.0
 10
10.245398
 20
1.157120
 30
0.0
 10
10.245398
 20
1.242693
 30
0.0
 10
10.245398
 20
1.328215
 30
0.0
 10
10.245398
 20
1.413781
 30
0.0
 10
10.245398
 20
1.499312
 30
0.0
  0
LWPOLYLINE
  5
114
100
AcDbEntity
  8
Beaker
 62
7
100
AcDbPolyline
 90
17
 70
0
 10
10.516241
 20
1.975796
 30
0.0
 10
10.516241
 20
1.908150
 30
0.0
 10
10.516241
 20
1.840417
 30
0.0
 10
10.516241
 20
1.772624
 30
0.0
 10
10.516241
 20
1.704953
 30
0.0
 10
10.448595
 20
1.704953
 30
0.0
 10
10.380863
 20
1.704953
 30
0.0
 10
10.313070
 20
1.704953
 30
0.0
 10
10.245398
 20
1.704953
 30
0.0
 10
10.245398
 20
1.772599
 30
0.0
 10
10.245398
 20
1.840329
 30
0.0
 10
10.245398
 20
1.908125
 30
0.0
 10
10.245398
 20
1.975796
 30
0.0
 10
10.313045
 20
1.975796
 30
0.0
 10
10.380777
 20
1.975796
 30
0.0
 10
10.448570
 20
1.975796
 30
0.0
 10
10.516241
 20
1.975796
 30
0.0
  0
LWPOLYLINE
  5
115
100
AcDbEntity
  8
Beaker
 62
7
100
AcDbPolyline
 90
81
 70
0
 10
12.176373
 20
1.975796
 30
0.0
 10
12.176373
 20
1.887966
 30
0.0
 10
12.176373
 20
1.800231
 30
0.0
 10
12.176373
 20
1.712409
 30
0.0
 10
12.176373
 20
1.624621
 30
0.0
 10
12.176373
 20
1.536825
 30
0.0
 10
12.176373
 20
1.449003
 30
0.0
 10
12.176373
 20
1.361223
 30
0.0
 10
12.176373
 20
1.273466
 30
0.0
 10
12.176373
 20
1.185706
 30
0.0
 10
12.176373
 20
1.098023
 30
0.0
 10
12.176373
 20
1.010190
 30
0.0
 10
12.176373
 20
0.922438
 30
0.0
 10
12.176373
 20
0.834698
 30
0.0
 10
12.176373
 20
0.746938
 30
0.0
 10
12.176373
 20
0.659204
 30
0.0
 10
12.176373
 20
0.571470
 30
0.0
 10
12.176373
 20
0.483775
 30
0.0
 10
12.176373
 20
0.395927
 30
0.0
 10
12.176373
 20
0.308069
 30
0.0
 10
12.176373
 20
0.220360
 30
0.0
 10
12.176373
 20
0.132620
 30
0.0
 10
12.176373
 20
0.044784
 30
0.0
 10
12.087648
 20
0.044784
 30
0.0
 10
11.998903
 20
0.044784
 30
0.0
 10
11.910195
 20
0.044784
 30
0.0
 10
11.821527
 20
0.044784
 30
0.0
 10
11.732859
 20
0.044784
 30
0.0
 10
11.644096
 20
0.044784
 30
0.0
 10
11.555331
 20
0.044784
 30
0.0
 10
11.466578
 20
0.044784
 30
0.0
 10
11.377888
 20
0.044784
 30
0.0
 10
11.289137
 20
0.044784
 30
0.0
 10
11.200341
 20
0.044784
 30
0.0
 10
11.111544
 20
0.044784
 30
0.0
 10
11.022780
 20
0.044784
 30
0.0
 10
10.957574
 20
0.050936
 30
0.0
 10
10.894882
 20
0.069873
 30
0.0
 10
10.840136
 20
0.100102
 30
0.0
 10
10.792062
 20
0.140090
 30
0.0
 10
10.752074
 20
0.188167
 30
0.0
 10
10.721843
 20
0.242912
 30
0.0
 10
10.702912
 20
0.305605
 30
0.0
 10
10.696765
 20
0.370810
 30
0.0
 10
10.696765
 20
0.459949
 30
0.0
 10
10.696765
 20
0.549041
 30
0.0
 10
10.696765
 20
0.638308
 30
0.0
 10
10.696765
 20
0.727414
 30
0.0
 10
10.696765
 20
0.816599
 30
0.0
 10
10.696765
 20
0.905790
 30
0.0
 10
10.696765
 20
0.994916
 30
0.0
 10
10.696765
 20
1.084157
 30
0.0
 10
10.696765
 20
1.173308
 30
0.0
 10
10.702790
 20
1.237285
 30
0.0
 10
10.721843
 20
1.298700
 30
0.0
 10
10.751731
 20
1.354814
 30
0.0
 10
10.792062
 20
1.404028
 30
0.0
 10
10.840136
 20
1.444013
 30
0.0
 10
10.894882
 20
1.474245
 30
0.0
 10
10.957574
 20
1.493182
 30
0.0
 10
11.022780
 20
1.499334
 30
0.0
 10
11.111056
 20
1.499334
 30
0.0
 10
11.199284
 20
1.499334
 30
0.0
 10
11.287482
 20
1.499334
 30
0.0
 10
11.375725
 20
1.499334
 30
0.0
 10
11.464025
 20
1.499334
 30
0.0
 10
11.552410
 20
1.499334
 30
0.0
 10
11.640665
 20
1.499334
 30
0.0
 10
11.728925
 20
1.499334
 30
0.0
 10
11.817287
 20
1.499334
 30
0.0
 10
11.905529
 20
1.499334
 30
0.0
 10
11.905529
 20
1.578819
 30
0.0
 10
11.905529
 20
1.658155
 30
0.0
 10
11.905529
 20
1.737648
 30
0.0
 10
11.905529
 20
1.817043
 30
0.0
 10
11.905529
 20
1.896387
 30
0.0
 10
11.905529
 20
1.975819
 30
0.0
 10
11.973176
 20
1.975819
 30
0.0
 10
12.040907
 20
1.975819
 30
0.0
 10
12.108701
 20
1.975819
 30
0.0
 10
12.176373
 20
1.975819
 30
0.0
  0
LWPOLYLINE
  5
116
100
AcDbEntity
  8
Beaker
 62
7
100
AcDbPolyline
 90
47
 70
0
 10
11.850357
 20
0.315649
 30
0.0
 10
11.887974
 20
0.330692
 30
0.0
 10
11.905529
 20
0.370818
 30
0.0
 10
11.905529
 20
0.459958
 30
0.0
 10
11.905529
 20
0.549050
 30
0.0
 10
11.905529
 20
0.638317
 30
0.0
 10
11.905529
 20
0.727423
 30
0.0
 10
11.905529
 20
0.816608
 30
0.0
 10
11.905529
 20
0.905798
 30
0.0
 10
11.905529
 20
0.994924
 30
0.0
 10
11.905529
 20
1.084166
 30
0.0
 10
11.905529
 20
1.173317
 30
0.0
 10
11.887974
 20
1.210934
 30
0.0
 10
11.850357
 20
1.228488
 30
0.0
 10
11.767599
 20
1.228488
 30
0.0
 10
11.684886
 20
1.228488
 30
0.0
 10
11.602200
 20
1.228488
 30
0.0
 10
11.519472
 20
1.228488
 30
0.0
 10
11.436776
 20
1.228488
 30
0.0
 10
11.353902
 20
1.228488
 30
0.0
 10
11.271148
 20
1.228488
 30
0.0
 10
11.188387
 20
1.228488
 30
0.0
 10
11.105529
 20
1.228488
 30
0.0
 10
11.022780
 20
1.228488
 30
0.0
 10
10.982655
 20
1.210934
 30
0.0
 10
10.967607
 20
1.173317
 30
0.0
 10
10.967607
 20
1.084177
 30
0.0
 10
10.967607
 20
0.995082
 30
0.0
 10
10.967607
 20
0.905818
 30
0.0
 10
10.967607
 20
0.816709
 30
0.0
 10
10.967607
 20
0.727524
 30
0.0
 10
10.967607
 20
0.638336
 30
0.0
 10
10.967607
 20
0.549211
 30
0.0
 10
10.967607
 20
0.459966
 30
0.0
 10
10.967607
 20
0.370818
 30
0.0
 10
10.982655
 20
0.330692
 30
0.0
 10
11.022780
 20
0.315649
 30
0.0
 10
11.105539
 20
0.315649
 30
0.0
 10
11.188252
 20
0.315649
 30
0.0
 10
11.270938
 20
0.315649
 30
0.0
 10
11.353666
 20
0.315649
 30
0.0
 10
11.436362
 20
0.315649
 30
0.0
 10
11.519235
 20
0.315649
 30
0.0
 10
11.601989
 20
0.315649
 30
0.0
 10
11.684751
 20
0.315649
 30
0.0
 10
11.767609
 20
0.315649
 30
0.0
 10
11.850357
 20
0.315649
 30
0.0
  0
LWPOLYLINE
  5
117
100
AcDbEntity
  8
Beaker
 62
7
100
AcDbPolyline
 90
87
 70
0
 10
13.182082
 20
1.852914
 30
0.0
 10
13.249728
 20
1.852914
 30
0.0
 10
13.317460
 20
1.852914
 30
0.0
 10
13.385254
 20
1.852914
 30
0.0
 10
13.452925
 20
1.852914
 30
0.0
 10
13.452925
 20
1.767522
 30
0.0
 10
13.452925
 20
1.682124
 30
0.0
 10
13.452925
 20
1.596678
 30
0.0
 10
13.452925
 20
1.511284
 30
0.0
 10
13.452925
 20
1.425875
 30
0.0
 10
13.452925
 20
1.340534
 30
0.0
 10
13.452925
 20
1.255170
 30
0.0
 10
13.452925
 20
1.169750
 30
0.0
 10
13.452925
 20
1.084329
 30
0.0
 10
13.452925
 20
0.998909
 30
0.0
 10
13.452925
 20
0.913509
 30
0.0
 10
13.452925
 20
0.828063
 30
0.0
 10
13.452925
 20
0.742680
 30
0.0
 10
13.452925
 20
0.657211
 30
0.0
 10
13.452925
 20
0.571786
 30
0.0
 10
13.452925
 20
0.486340
 30
0.0
 10
13.452925
 20
0.401041
 30
0.0
 10
13.452925
 20
0.315627
 30
0.0
 10
13.538178
 20
0.315627
 30
0.0
 10
13.623436
 20
0.315627
 30
0.0
 10
13.708743
 20
0.315627
 30
0.0
 10
13.793998
 20
0.315627
 30
0.0
 10
13.879266
 20
0.315627
 30
0.0
 10
13.964470
 20
0.315627
 30
0.0
 10
14.049694
 20
0.315627
 30
0.0
 10
14.134974
 20
0.315627
 30
0.0
 10
14.220255
 20
0.315627
 30
0.0
 10
14.305535
 20
0.315627
 30
0.0
 10
14.390797
 20
0.315627
 30
0.0
 10
14.476103
 20
0.315627
 30
0.0
 10
14.561347
 20
0.315627
 30
0.0
 10
14.646677
 20
0.315627
 30
0.0
 10
14.731962
 20
0.315627
 30
0.0
 10
14.817270
 20
0.315627
 30
0.0
 10
14.902428
 20
0.315627
 30
0.0
 10
14.987704
 20
0.315627
 30
0.0
 10
14.987704
 20
0.247981
 30
0.0
 10
14.987704
 20
0.180247
 30
0.0
 10
14.987704
 20
0.112455
 30
0.0
 10
14.987704
 20
0.044784
 30
0.0
 10
14.901678
 20
0.044784
 30
0.0
 10
14.815644
 20
0.044784
 30
0.0
 10
14.729584
 20
0.044784
 30
0.0
 10
14.643651
 20
0.044784
 30
0.0
 10
14.557718
 20
0.044784
 30
0.0
 10
14.471657
 20
0.044784
 30
0.0
 10
14.385726
 20
0.044784
 30
0.0
 10
14.299711
 20
0.044784
 30
0.0
 10
14.213725
 20
0.044784
 30
0.0
 10
14.127726
 20
0.044784
 30
0.0
 10
14.041803
 20
0.044784
 30
0.0
 10
13.955758
 20
0.044784
 30
0.0
 10
13.869763
 20
0.044784
 30
0.0
 10
13.783733
 20
0.044784
 30
0.0
 10
13.697795
 20
0.044784
 30
0.0
 10
13.611767
 20
0.044784
 30
0.0
 10
13.525794
 20
0.044784
 30
0.0
 10
13.439790
 20
0.044784
 30
0.0
 10
13.353927
 20
0.044784
 30
0.0
 10
13.267922
 20
0.044784
 30
0.0
 10
13.182082
 20
0.044784
 30
0.0
 10
13.182082
 20
0.130929
 30
0.0
 10
13.182082
 20
0.217083
 30
0.0
 10
13.182082
 20
0.303262
 30
0.0
 10
13.182082
 20
0.389315
 30
0.0
 10
13.182082
 20
0.475367
 30
0.0
 10
13.182082
 20
0.561547
 30
0.0
 10
13.182082
 20
0.647596
 30
0.0
 10
13.182082
 20
0.733733
 30
0.0
 10
13.182082
 20
0.819836
 30
0.0
 10
13.182082
 20
0.905956
 30
0.0
 10
13.182082
 20
0.991998
 30
0.0
 10
13.182082
 20
1.078163
 30
0.0
 10
13.182082
 20
1.164277
 30
0.0
 10
13.182082
 20
1.250426
 30
0.0
 10
13.182082
 20
1.336484
 30
0.0
 10
13.182082
 20
1.422632
 30
0.0
 10
13.182082
 20
1.508724
 30
0.0
 10
13.182082
 20
1.594847
 30
0.0
 10
13.182082
 20
1.680829
 30
0.0
 10
13.182082
 20
1.766954
 30
0.0
 10
13.182082
 20
1.852914
 30
0.0
  0
LWPOLYLINE
  5
118
100
AcDbEntity
  8
Beaker
 62
7
100
AcDbPolyline
 90
98
 70
0
 10
16.277462
 20
1.499312
 30
0.0
 10
16.341439
 20
1.493272
 30
0.0
 10
16.402853
 20
1.474222
 30
0.0
 10
16.458969
 20
1.444332
 30
0.0
 10
16.508181
 20
1.404005
 30
0.0
 10
16.548510
 20
1.354791
 30
0.0
 10
16.578399
 20
1.298677
 30
0.0
 10
16.597449
 20
1.237263
 30
0.0
 10
16.603478
 20
1.173286
 30
0.0
 10
16.603478
 20
1.086491
 30
0.0
 10
16.603478
 20
0.999674
 30
0.0
 10
16.603478
 20
0.912893
 30
0.0
 10
16.603478
 20
0.826155
 30
0.0
 10
16.603478
 20
0.739414
 30
0.0
 10
16.603478
 20
0.652580
 30
0.0
 10
16.603478
 20
0.565746
 30
0.0
 10
16.603478
 20
0.478920
 30
0.0
 10
16.603478
 20
0.392160
 30
0.0
 10
16.603478
 20
0.305337
 30
0.0
 10
16.603478
 20
0.218472
 30
0.0
 10
16.603478
 20
0.131606
 30
0.0
 10
16.603478
 20
0.044772
 30
0.0
 10
16.514753
 20
0.044772
 30
0.0
 10
16.426008
 20
0.044772
 30
0.0
 10
16.337300
 20
0.044772
 30
0.0
 10
16.248632
 20
0.044772
 30
0.0
 10
16.159964
 20
0.044772
 30
0.0
 10
16.071201
 20
0.044772
 30
0.0
 10
15.982436
 20
0.044772
 30
0.0
 10
15.893683
 20
0.044772
 30
0.0
 10
15.804993
 20
0.044772
 30
0.0
 10
15.716242
 20
0.044772
 30
0.0
 10
15.627447
 20
0.044772
 30
0.0
 10
15.538649
 20
0.044772
 30
0.0
 10
15.449886
 20
0.044772
 30
0.0
 10
15.384680
 20
0.050925
 30
0.0
 10
15.321987
 20
0.069862
 30
0.0
 10
15.267242
 20
0.100091
 30
0.0
 10
15.219167
 20
0.140079
 30
0.0
 10
15.179179
 20
0.188155
 30
0.0
 10
15.148948
 20
0.242901
 30
0.0
 10
15.130017
 20
0.305594
 30
0.0
 10
15.123870
 20
0.370798
 30
0.0
 10
15.123870
 20
0.460322
 30
0.0
 10
15.123870
 20
0.549679
 30
0.0
 10
15.123870
 20
0.639214
 30
0.0
 10
15.123870
 20
0.728639
 30
0.0
 10
15.123870
 20
0.818005
 30
0.0
 10
15.123870
 20
0.907469
 30
0.0
 10
15.210195
 20
0.907469
 30
0.0
 10
15.296549
 20
0.907469
 30
0.0
 10
15.382902
 20
0.907469
 30
0.0
 10
15.469274
 20
0.907469
 30
0.0
 10
15.555692
 20
0.907469
 30
0.0
 10
15.641963
 20
0.907469
 30
0.0
 10
15.728260
 20
0.907469
 30
0.0
 10
15.814536
 20
0.907469
 30
0.0
 10
15.900921
 20
0.907469
 30
0.0
 10
15.987222
 20
0.907469
 30
0.0
 10
16.073601
 20
0.907469
 30
0.0
 10
16.160031
 20
0.907469
 30
0.0
 10
16.246248
 20
0.907469
 30
0.0
 10
16.332634
 20
0.907469
 30
0.0
 10
16.332634
 20
0.996078
 30
0.0
 10
16.332634
 20
1.084772
 30
0.0
 10
16.332634
 20
1.173297
 30
0.0
 10
16.315080
 20
1.210915
 30
0.0
 10
16.277463
 20
1.228469
 30
0.0
 10
16.188739
 20
1.228469
 30
0.0
 10
16.099993
 20
1.228469
 30
0.0
 10
16.011285
 20
1.228469
 30
0.0
 10
15.922617
 20
1.228469
 30
0.0
 10
15.833949
 20
1.228469
 30
0.0
 10
15.745186
 20
1.228469
 30
0.0
 10
15.656421
 20
1.228469
 30
0.0
 10
15.567668
 20
1.228469
 30
0.0
 10
15.478978
 20
1.228469
 30
0.0
 10
15.390227
 20
1.228469
 30
0.0
 10
15.301432
 20
1.228469
 30
0.0
 10
15.212634
 20
1.228469
 30
0.0
 10
15.123871
 20
1.228469
 30
0.0
 10
15.123871
 20
1.296115
 30
0.0
 10
15.123871
 20
1.363848
 30
0.0
 10
15.123871
 20
1.431641
 30
0.0
 10
15.123871
 20
1.499312
 30
0.0
 10
15.212595
 20
1.499312
 30
0.0
 10
15.301340
 20
1.499312
 30
0.0
 10
15.390048
 20
1.499312
 30
0.0
 10
15.478716
 20
1.499312
 30
0.0
 10
15.567384
 20
1.499312
 30
0.0
 10
15.656147
 20
1.499312
 30
0.0
 10
15.744912
 20
1.499312
 30
0.0
 10
15.833665
 20
1.499312
 30
0.0
 10
15.922355
 20
1.499312
 30
0.0
 10
16.011106
 20
1.499312
 30
0.0
 10
16.099902
 20
1.499312
 30
0.0
 10
16.188700
 20
1.499312
 30
0.0
 10
16.277463
 20
1.499312
 30
0.0
  0
LWPOLYLINE
  5
119
100
AcDbEntity
  8
Beaker
 62
7
100
AcDbPolyline
 90
31
 70
0
 10
16.332635
 20
0.636626
 30
0.0
 10
16.247330
 20
0.636626
 30
0.0
 10
16.162119
 20
0.636626
 30
0.0
 10
16.076857
 20
0.636626
 30
0.0
 10
15.991602
 20
0.636626
 30
0.0
 10
15.906391
 20
0.636626
 30
0.0
 10
15.821054
 20
0.636626
 30
0.0
 10
15.735829
 20
0.636626
 30
0.0
 10
15.650475
 20
0.636626
 30
0.0
 10
15.565232
 20
0.636626
 30
0.0
 10
15.479984
 20
0.636626
 30
0.0
 10
15.394714
 20
0.636626
 30
0.0
 10
15.394714
 20
0.548017
 30
0.0
 10
15.394714
 20
0.459323
 30
0.0
 10
15.394714
 20
0.370798
 30
0.0
 10
15.409762
 20
0.330672
 30
0.0
 10
15.449887
 20
0.315629
 30
0.0
 10
15.538162
 20
0.315629
 30
0.0
 10
15.626390
 20
0.315629
 30
0.0
 10
15.714588
 20
0.315629
 30
0.0
 10
15.802831
 20
0.315629
 30
0.0
 10
15.891132
 20
0.315629
 30
0.0
 10
15.979517
 20
0.315629
 30
0.0
 10
16.067771
 20
0.315629
 30
0.0
 10
16.156032
 20
0.315629
 30
0.0
 10
16.244394
 20
0.315629
 30
0.0
 10
16.332636
 20
0.315629
 30
0.0
 10
16.332636
 20
0.395803
 30
0.0
 10
16.332636
 20
0.476078
 30
0.0
 10
16.332636
 20
0.556424
 30
0.0
 10
16.332636
 20
0.636629
 30
0.0
  0
LWPOLYLINE
  5
11a
100
AcDbEntity
  8
Beaker
 62
7
100
AcDbPolyline
 90
81
 70
0
 10
17.977208
 20
1.499312
 30
0.0
 10
18.041185
 20
1.493272
 30
0.0
 10
18.102599
 20
1.474222
 30
0.0
 10
18.158715
 20
1.444332
 30
0.0
 10
18.207927
 20
1.404005
 30
0.0
 10
18.248256
 20
1.354791
 30
0.0
 10
18.278146
 20
1.298677
 30
0.0
 10
18.297196
 20
1.237263
 30
0.0
 10
18.303224
 20
1.173286
 30
0.0
 10
18.303224
 20
1.084146
 30
0.0
 10
18.303224
 20
0.995051
 30
0.0
 10
18.303224
 20
0.905787
 30
0.0
 10
18.303224
 20
0.816678
 30
0.0
 10
18.303224
 20
0.727493
 30
0.0
 10
18.303224
 20
0.638305
 30
0.0
 10
18.303224
 20
0.549180
 30
0.0
 10
18.303224
 20
0.459935
 30
0.0
 10
18.303224
 20
0.370787
 30
0.0
 10
18.297074
 20
0.305582
 30
0.0
 10
18.278146
 20
0.242889
 30
0.0
 10
18.247913
 20
0.188144
 30
0.0
 10
18.207927
 20
0.140067
 30
0.0
 10
18.158715
 20
0.099738
 30
0.0
 10
18.102599
 20
0.069851
 30
0.0
 10
18.041185
 20
0.050801
 30
0.0
 10
17.977208
 20
0.044789
 30
0.0
 10
17.888484
 20
0.044789
 30
0.0
 10
17.799739
 20
0.044789
 30
0.0
 10
17.711031
 20
0.044789
 30
0.0
 10
17.622363
 20
0.044789
 30
0.0
 10
17.533695
 20
0.044789
 30
0.0
 10
17.444932
 20
0.044789
 30
0.0
 10
17.356167
 20
0.044789
 30
0.0
 10
17.267414
 20
0.044789
 30
0.0
 10
17.178724
 20
0.044789
 30
0.0
 10
17.089973
 20
0.044789
 30
0.0
 10
17.001177
 20
0.044789
 30
0.0
 10
16.912380
 20
0.044789
 30
0.0
 10
16.823616
 20
0.044789
 30
0.0
 10
16.823616
 20
0.132620
 30
0.0
 10
16.823616
 20
0.220354
 30
0.0
 10
16.823616
 20
0.308176
 30
0.0
 10
16.823616
 20
0.395961
 30
0.0
 10
16.823616
 20
0.483760
 30
0.0
 10
16.823616
 20
0.571580
 30
0.0
 10
16.823616
 20
0.659359
 30
0.0
 10
16.823616
 20
0.747116
 30
0.0
 10
16.823616
 20
0.834876
 30
0.0
 10
16.823616
 20
0.922560
 30
0.0
 10
16.823616
 20
1.010396
 30
0.0
 10
16.823616
 20
1.098147
 30
0.0
 10
16.823616
 20
1.185887
 30
0.0
 10
16.823616
 20
1.273647
 30
0.0
 10
16.823616
 20
1.361381
 30
0.0
 10
16.823616
 20
1.449116
 30
0.0
 10
16.823616
 20
1.536811
 30
0.0
 10
16.823616
 20
1.624658
 30
0.0
 10
16.823616
 20
1.712517
 30
0.0
 10
16.823616
 20
1.800223
 30
0.0
 10
16.823616
 20
1.887966
 30
0.0
 10
16.823616
 20
1.975802
 30
0.0
 10
16.891263
 20
1.975802
 30
0.0
 10
16.958995
 20
1.975802
 30
0.0
 10
17.026788
 20
1.975802
 30
0.0
 10
17.094460
 20
1.975802
 30
0.0
 10
17.094460
 20
1.896317
 30
0.0
 10
17.094460
 20
1.816981
 30
0.0
 10
17.094460
 20
1.737488
 30
0.0
 10
17.094460
 20
1.658093
 30
0.0
 10
17.094460
 20
1.578749
 30
0.0
 10
17.094460
 20
1.499317
 30
0.0
 10
17.182735
 20
1.499317
 30
0.0
 10
17.270963
 20
1.499317
 30
0.0
 10
17.359161
 20
1.499317
 30
0.0
 10
17.447404
 20
1.499317
 30
0.0
 10
17.535704
 20
1.499317
 30
0.0
 10
17.624089
 20
1.499317
 30
0.0
 10
17.712344
 20
1.499317
 30
0.0
 10
17.800605
 20
1.499317
 30
0.0
 10
17.888966
 20
1.499317
 30
0.0
 10
17.977208
 20
1.499317
 30
0.0
  0
LWPOLYLINE
  5
11b
100
AcDbEntity
  8
Beaker
 62
7
100
AcDbPolyline
 90
47
 70
0
 10
18.032380
 20
1.173303
 30
0.0
 10
18.014826
 20
1.210920
 30
0.0
 10
17.977209
 20
1.228474
 30
0.0
 10
17.894451
 20
1.228474
 30
0.0
 10
17.811737
 20
1.228474
 30
0.0
 10
17.729051
 20
1.228474
 30
0.0
 10
17.646324
 20
1.228474
 30
0.0
 10
17.563628
 20
1.228474
 30
0.0
 10
17.480754
 20
1.228474
 30
0.0
 10
17.398000
 20
1.228474
 30
0.0
 10
17.315239
 20
1.228474
 30
0.0
 10
17.232380
 20
1.228474
 30
0.0
 10
17.149632
 20
1.228474
 30
0.0
 10
17.109507
 20
1.210920
 30
0.0
 10
17.094459
 20
1.173303
 30
0.0
 10
17.094459
 20
1.084163
 30
0.0
 10
17.094459
 20
0.995068
 30
0.0
 10
17.094459
 20
0.905804
 30
0.0
 10
17.094459
 20
0.816695
 30
0.0
 10
17.094459
 20
0.727510
 30
0.0
 10
17.094459
 20
0.638322
 30
0.0
 10
17.094459
 20
0.549197
 30
0.0
 10
17.094459
 20
0.459952
 30
0.0
 10
17.094459
 20
0.370804
 30
0.0
 10
17.109507
 20
0.330678
 30
0.0
 10
17.149632
 20
0.315635
 30
0.0
 10
17.232390
 20
0.315635
 30
0.0
 10
17.315104
 20
0.315635
 30
0.0
 10
17.397790
 20
0.315635
 30
0.0
 10
17.480517
 20
0.315635
 30
0.0
 10
17.563213
 20
0.315635
 30
0.0
 10
17.646087
 20
0.315635
 30
0.0
 10
17.728841
 20
0.315635
 30
0.0
 10
17.811602
 20
0.315635
 30
0.0
 10
17.894461
 20
0.315635
 30
0.0
 10
17.977209
 20
0.315635
 30
0.0
 10
18.014826
 20
0.330678
 30
0.0
 10
18.032380
 20
0.370804
 30
0.0
 10
18.032380
 20
0.459944
 30
0.0
 10
18.032380
 20
0.549036
 30
0.0
 10
18.032380
 20
0.638303
 30
0.0
 10
18.032380
 20
0.727409
 30
0.0
 10
18.032380
 20
0.816594
 30
0.0
 10
18.032380
 20
0.905784
 30
0.0
 10
18.032380
 20
0.994910
 30
0.0
 10
18.032380
 20
1.084152
 30
0.0
 10
18.032380
 20
1.173303
 30
0.0
  0
LWPOLYLINE
  5
11c
100
AcDbEntity
  8
Beaker
 62
7
100
AcDbPolyline
 90
145
 70
0
 10
19.958417
 20
1.118125
 30
0.0
 10
19.890770
 20
1.118125
 30
0.0
 10
19.823039
 20
1.118125
 30
0.0
 10
19.755245
 20
1.118125
 30
0.0
 10
19.687574
 20
1.118125
 30
0.0
 10
19.687574
 20
1.173297
 30
0.0
 10
19.670019
 20
1.210915
 30
0.0
 10
19.632402
 20
1.228469
 30
0.0
 10
19.549644
 20
1.228469
 30
0.0
 10
19.466931
 20
1.228469
 30
0.0
 10
19.384245
 20
1.228469
 30
0.0
 10
19.301517
 20
1.228469
 30
0.0
 10
19.218821
 20
1.228469
 30
0.0
 10
19.135947
 20
1.228469
 30
0.0
 10
19.053193
 20
1.228469
 30
0.0
 10
18.970432
 20
1.228469
 30
0.0
 10
18.887573
 20
1.228469
 30
0.0
 10
18.804825
 20
1.228469
 30
0.0
 10
18.764700
 20
1.210915
 30
0.0
 10
18.749652
 20
1.173297
 30
0.0
 10
18.749652
 20
1.103151
 30
0.0
 10
18.749652
 20
1.032838
 30
0.0
 10
18.749652
 20
0.962641
 30
0.0
 10
18.764700
 20
0.922517
 30
0.0
 10
18.804825
 20
0.907475
 30
0.0
 10
18.887584
 20
0.907475
 30
0.0
 10
18.970297
 20
0.907475
 30
0.0
 10
19.052983
 20
0.907475
 30
0.0
 10
19.135711
 20
0.907475
 30
0.0
 10
19.218407
 20
0.907475
 30
0.0
 10
19.301280
 20
0.907475
 30
0.0
 10
19.384034
 20
0.907475
 30
0.0
 10
19.466796
 20
0.907475
 30
0.0
 10
19.549654
 20
0.907475
 30
0.0
 10
19.632402
 20
0.907475
 30
0.0
 10
19.696379
 20
0.901435
 30
0.0
 10
19.757793
 20
0.882385
 30
0.0
 10
19.813908
 20
0.852495
 30
0.0
 10
19.863121
 20
0.812166
 30
0.0
 10
19.903450
 20
0.762954
 30
0.0
 10
19.933339
 20
0.706837
 30
0.0
 10
19.952389
 20
0.645426
 30
0.0
 10
19.958418
 20
0.581449
 30
0.0
 10
19.958418
 20
0.511303
 30
0.0
 10
19.958418
 20
0.440990
 30
0.0
 10
19.958418
 20
0.370793
 30
0.0
 10
19.952271
 20
0.305588
 30
0.0
 10
19.933339
 20
0.242895
 30
0.0
 10
19.903107
 20
0.188150
 30
0.0
 10
19.863121
 20
0.140073
 30
0.0
 10
19.813908
 20
0.099744
 30
0.0
 10
19.757793
 20
0.069856
 30
0.0
 10
19.696379
 20
0.050806
 30
0.0
 10
19.632402
 20
0.044795
 30
0.0
 10
19.549644
 20
0.044795
 30
0.0
 10
19.466931
 20
0.044795
 30
0.0
 10
19.384245
 20
0.044795
 30
0.0
 10
19.301517
 20
0.044795
 30
0.0
 10
19.218821
 20
0.044795
 30
0.0
 10
19.135947
 20
0.044795
 30
0.0
 10
19.053193
 20
0.044795
 30
0.0
 10
18.970432
 20
0.044795
 30
0.0
 10
18.887573
 20
0.044795
 30
0.0
 10
18.804825
 20
0.044795
 30
0.0
 10
18.739619
 20
0.050947
 30
0.0
 10
18.676927
 20
0.069884
 30
0.0
 10
18.622181
 20
0.100113
 30
0.0
 10
18.574107
 20
0.140101
 30
0.0
 10
18.534119
 20
0.188178
 30
0.0
 10
18.503888
 20
0.242923
 30
0.0
 10
18.484957
 20
0.305616
 30
0.0
 10
18.478810
 20
0.370821
 30
0.0
 10
18.478810
 20
0.425992
 30
0.0
 10
18.546457
 20
0.425992
 30
0.0
 10
18.614188
 20
0.425992
 30
0.0
 10
18.681982
 20
0.425992
 30
0.0
 10
18.749653
 20
0.425992
 30
0.0
 10
18.749653
 20
0.370821
 30
0.0
 10
18.764702
 20
0.330694
 30
0.0
 10
18.804826
 20
0.315652
 30
0.0
 10
18.887585
 20
0.315652
 30
0.0
 10
18.970298
 20
0.315652
 30
0.0
 10
19.052984
 20
0.315652
 30
0.0
 10
19.135712
 20
0.315652
 30
0.0
 10
19.218408
 20
0.315652
 30
0.0
 10
19.301281
 20
0.315652
 30
0.0
 10
19.384035
 20
0.315652
 30
0.0
 10
19.466797
 20
0.315652
 30
0.0
 10
19.549655
 20
0.315652
 30
0.0
 10
19.632403
 20
0.315652
 30
0.0
 10
19.670020
 20
0.330694
 30
0.0
 10
19.687575
 20
0.370821
 30
0.0
 10
19.687575
 20
0.440967
 30
0.0
 10
19.687575
 20
0.511277
 30
0.0
 10
19.687575
 20
0.581477
 30
0.0
 10
19.670020
 20
0.619095
 30
0.0
 10
19.632403
 20
0.636649
 30
0.0
 10
19.549645
 20
0.636649
 30
0.0
 10
19.466932
 20
0.636649
 30
0.0
 10
19.384246
 20
0.636649
 30
0.0
 10
19.301518
 20
0.636649
 30
0.0
 10
19.218822
 20
0.636649
 30
0.0
 10
19.135949
 20
0.636649
 30
0.0
 10
19.053194
 20
0.636649
 30
0.0
 10
18.970433
 20
0.636649
 30
0.0
 10
18.887575
 20
0.636649
 30
0.0
 10
18.804826
 20
0.636649
 30
0.0
 10
18.739620
 20
0.642801
 30
0.0
 10
18.676928
 20
0.661738
 30
0.0
 10
18.622182
 20
0.691967
 30
0.0
 10
18.574108
 20
0.731955
 30
0.0
 10
18.534120
 20
0.780032
 30
0.0
 10
18.503890
 20
0.834777
 30
0.0
 10
18.484958
 20
0.897470
 30
0.0
 10
18.478811
 20
0.962675
 30
0.0
 10
18.478811
 20
1.032821
 30
0.0
 10
18.478811
 20
1.103134
 30
0.0
 10
18.478811
 20
1.173331
 30
0.0
 10
18.484837
 20
1.237308
 30
0.0
 10
18.503890
 20
1.298722
 30
0.0
 10
18.533777
 20
1.354837
 30
0.0
 10
18.574108
 20
1.404050
 30
0.0
 10
18.622182
 20
1.444036
 30
0.0
 10
18.676928
 20
1.474267
 30
0.0
 10
18.739620
 20
1.493204
 30
0.0
 10
18.804826
 20
1.499357
 30
0.0
 10
18.887585
 20
1.499357
 30
0.0
 10
18.970298
 20
1.499357
 30
0.0
 10
19.052984
 20
1.499357
 30
0.0
 10
19.135712
 20
1.499357
 30
0.0
 10
19.218408
 20
1.499357
 30
0.0
 10
19.301281
 20
1.499357
 30
0.0
 10
19.384035
 20
1.499357
 30
0.0
 10
19.466797
 20
1.499357
 30
0.0
 10
19.549655
 20
1.499357
 30
0.0
 10
19.632403
 20
1.499357
 30
0.0
 10
19.696380
 20
1.493317
 30
0.0
 10
19.757794
 20
1.474267
 30
0.0
 10
19.813910
 20
1.444377
 30
0.0
 10
19.863122
 20
1.404050
 30
0.0
 10
19.903451
 20
1.354837
 30
0.0
 10
19.933341
 20
1.298722
 30
0.0
 10
19.952391
 20
1.237308
 30
0.0
 10
19.958419
 20
1.173331
 30
0.0
 10
19.958419
 20
1.118159
 30
0.0
  0
ENDSEC
  0
SECTION
  2
OBJECTS
  0
DICTIONARY
  5
C
330
0
100
AcDbDictionary
  3
ACAD_GROUP
350
D
  3
ACAD_MLINESTYLE
350
17
  0
DICTIONARY
  5
D
330
C
100
AcDbDictionary
  0
DICTIONARY
  5
1A
330
C
100
AcDbDictionary
  0
DICTIONARY
  5
17
330
C
100
AcDbDictionary
  3
STANDARD
350
18
  0
DICTIONARY
  5
19
330
C
100
AcDbDictionary
  0
ENDSEC
  0
EOF
