<?xml version="1.0" encoding="UTF-8" standalone="no"?>
<!-- Generator: Adobe Illustrator 15.0.0, SVG Export Plug-In . SVG Version: 6.00 Build 0)  -->

<svg
   xmlns:dc="http://purl.org/dc/elements/1.1/"
   xmlns:cc="http://creativecommons.org/ns#"
   xmlns:rdf="http://www.w3.org/1999/02/22-rdf-syntax-ns#"
   xmlns:svg="http://www.w3.org/2000/svg"
   xmlns="http://www.w3.org/2000/svg"
   xmlns:sodipodi="http://sodipodi.sourceforge.net/DTD/sodipodi-0.dtd"
   xmlns:inkscape="http://www.inkscape.org/namespaces/inkscape"
   sodipodi:docname="Arachnid Labs Logo.hpgl"
   inkscape:version="0.48.2 r9819"
   xml:space="preserve"
   enable-background="new 0 0 600 370"
   viewBox="0 0 624.03314 185.03125"
   height="185.03125"
   width="624.03314"
   y="0px"
   x="0px"
   id="Layer_1"
   version="1.1"><metadata
   id="metadata47"><rdf:RDF><cc:Work
       rdf:about=""><dc:format>image/svg+xml</dc:format><dc:type
         rdf:resource="http://purl.org/dc/dcmitype/StillImage" /><dc:title></dc:title></cc:Work></rdf:RDF></metadata><defs
   id="defs45">
	
	
	
	
	
	
	
</defs><sodipodi:namedview
   pagecolor="#ffffff"
   bordercolor="#666666"
   borderopacity="1"
   objecttolerance="10"
   gridtolerance="10"
   guidetolerance="10"
   inkscape:pageopacity="0"
   inkscape:pageshadow="2"
   inkscape:window-width="1440"
   inkscape:window-height="852"
   id="namedview43"
   showgrid="false"
   inkscape:zoom="1.5303675"
   inkscape:cx="312.01657"
   inkscape:cy="92.515625"
   inkscape:window-x="0"
   inkscape:window-y="0"
   inkscape:window-maximized="1"
   inkscape:current-layer="Layer_1"
   fit-margin-top="0"
   fit-margin-left="0"
   fit-margin-right="0"
   fit-margin-bottom="0" />
<path
   d="m 55.812499,0 c -2.708,0 -4.90625,2.19825 -4.90625,4.90625 0,0.887 0.24425,1.7205 0.65625,2.4375 l -19.09375,19.34375 0,33.25 21.46875,25.15625 -1.46875,2.28125 -27.09375,-20.3125 -11.625,-40.625 7.78125,-14.78125 c 0.473,0.152 0.976,0.25 1.5,0.25 2.708,0 4.875,-2.19925 4.875,-4.90625 0,-2.708 -2.167,-4.90625 -4.875,-4.90625 -2.708,0 -4.90625,2.19825 -4.90625,4.90625 0,1.274 0.48525,2.40925 1.28125,3.28125 l -11.1562498,14.75 10.0624998,44.9375 29.3125,25 -0.21875,0.3125 L 23.218749,92.75 -7.6171875e-7,119.8125 0.09369924,121.65625 l 5.87499996,21.5 c -1.815,0.719 -3.125,2.4905 -3.125,4.5625 0,2.707 2.19825,4.90625 4.90625,4.90625 2.7079998,0 4.9062498,-2.19925 4.9062498,-4.90625 0,-2.625 -2.06625,-4.744 -4.6562498,-4.875 l -2.5,-20.9375 19.6562498,-21.9375 18.46875,3.34375 -0.34375,1.75 -23.75,17.5625 4.4688,40.5625 13.71875,14.375 c -0.465,0.749 -0.75,1.6155 -0.75,2.5625 0,2.707 2.19725,4.90625 4.90625,4.90625 2.707,0 4.90625,-2.19925 4.90625,-4.90625 0,-2.709 -2.19925,-4.875 -4.90625,-4.875 -0.869,0 -1.669,0.23 -2.375,0.625 l -10.3125,-14.96875 -1.9375,-35.125 12.71875,-3.5 14.53125,29.03125 15.968755,7.0625 15.9375,-7.0625 14.531246,-29.03125 -3.312496,-17.25 -0.34375,-1.71875 18.499996,-3.34375 19.65625,21.9375 -2.5,20.9375 c -2.591,0.131 -4.65625,2.25 -4.65625,4.875 0,2.707 2.19925,4.90625 4.90625,4.90625 2.708,0 4.875,-2.19925 4.875,-4.90625 0,-2.071 -1.27975,-3.8435 -3.09375,-4.5625 l 5.875,-21.5 0.0937,-1.84375 -23.21875,-27.0625 -24.218746,2.53125 -0.1875,-0.3125 29.312496,-25 10.0625,-44.9375 -11.15625,-14.75 c 0.796,-0.872 1.28125,-2.00725 1.28125,-3.28125 0,-2.708 -2.19725,-4.90625 -4.90625,-4.90625 -2.706,0 -4.875,2.19825 -4.875,4.90625 0,2.708 2.169,4.90625 4.875,4.90625 0.524,0 1.025,-0.098 1.5,-0.25 l 7.78125,14.78125 -11.625,40.625 -27.124996,20.3125 -1.4375,-2.28125 c -2.91175,-4.49298 -1.75556,-2.76375 0,0 l 21.468796,-25.15625 0,-33.25 L 89.375004,7.34375 c 0.412,-0.717 0.65625,-1.5515 0.65625,-2.4375 0,-2.708 -2.19725,-4.90625 -4.90625,-4.90625 -2.706,0 -4.875,2.19825 -4.875,4.90625 0,2.708 2.169,4.90625 4.875,4.90625 0.789,0 1.5265,-0.20025 2.1875,-0.53125 l 13.656246,19.03125 -1.624996,30.90625 -11.53125,12.375 -5.5,-10.1875 -0.0312,-0.1875 -23.5625,0 -5.593755,10.40625 -11.5313,-12.40625 -1.625,-30.90625 13.65625,-19.03125 c 0.66,0.331 1.3985,0.53125 2.1875,0.53125 2.707005,0 4.875005,-2.19925 4.875005,-4.90625 0,-2.708 -2.168,-4.90625 -4.875005,-4.90625 z m 41.812505,105.03125 3.135416,17.25 12.92708,3.5 -1.9375,35.125 -10.3125,14.96875 c -0.707,-0.395 -1.507996,-0.625 -2.374996,-0.625 -2.709,0 -4.90625,2.166 -4.90625,4.875 0,2.707 2.19725,4.90625 4.90625,4.90625 2.707996,0 4.874996,-2.19925 4.874996,-4.90625 0,-0.947 -0.25275,-1.8135 -0.71875,-2.5625 l 13.71875,-14.375 4.46875,-40.5625 z M 55.781249,2.09375 c 1.559,0 2.843755,1.2535 2.843755,2.8125 0,1.559 -1.285755,2.84375 -2.843755,2.84375 -1.56,0 -2.8125,-1.28575 -2.8125,-2.84375 0,-1.56 1.2535,-2.8125 2.8125,-2.8125 z m 29.343755,0 c 1.561,0 2.84375,1.2535 2.84375,2.8125 0,1.559 -1.28375,2.84375 -2.84375,2.84375 -1.558,0 -2.8125,-1.28575 -2.8125,-2.84375 0,-1.56 1.2545,-2.8125 2.8125,-2.8125 z M 23.031249,4.1875 c 1.558,0 2.8125,1.2535 2.8125,2.8125 0,1.559 -1.2545,2.8125 -2.8125,2.8125 -1.559,0 -2.84375,-1.2545 -2.84375,-2.8125 0.001,-1.56 1.28475,-2.8125 2.84375,-2.8125 z m 94.875001,0 c 1.561,0 2.84375,1.2535 2.84375,2.8125 0,1.559 -1.28375,2.8125 -2.84375,2.8125 -1.558,0 -2.8125,-1.2545 -2.8125,-2.8125 0,-1.559 1.2545,-2.8125 2.8125,-2.8125 z m -53.593746,87.59375 1.40625,0 9.5,0 1.40625,0 0,2.4375 -1.40625,0 0.0312,8.125 11.1875,28.8125 -2.875,6.28125 -26.187505,0 -2.875,-6.28125 11.187505,-28.8125 0,-8.125 -1.375,0 z m -56.5625048,53.125 c 1.558,0 2.8437498,1.2535 2.8437498,2.8125 0,1.558 -1.2847498,2.8125 -2.8437498,2.8125 -1.559,0 -2.8125,-1.2555 -2.8125,-2.8125 0,-1.56 1.2545,-2.8125 2.8125,-2.8125 z m 125.4375008,0 c 1.56,0 2.8125,1.2535 2.8125,2.8125 0,1.558 -1.2535,2.8125 -2.8125,2.8125 -1.559,0 -2.84375,-1.2555 -2.84375,-2.8125 0,-1.56 1.28575,-2.8125 2.84375,-2.8125 z M 41.874999,177.3125 c 1.558,0 2.84375,1.2535 2.84375,2.8125 0,1.558 -1.28575,2.84375 -2.84375,2.84375 -1.56,0 -2.8125,-1.28675 -2.8125,-2.84375 0,-1.56 1.2525,-2.8125 2.8125,-2.8125 z m 57.187505,0 c 1.557996,0 2.812496,1.2535 2.812496,2.8125 0,1.558 -1.2535,2.84375 -2.812496,2.84375 -1.559,0 -2.84375,-1.28675 -2.84375,-2.84375 0,-1.56 1.28575,-2.8125 2.84375,-2.8125 z"
   id="path5"
   inkscape:connector-curvature="0"
   sodipodi:nodetypes="ssccccccccsssscccccccccsssccccccccsssscccccccccccccssscccccccccsssscccccccccsssscccccccccccssscccccssssccccssssssssssssscsssssscccccccccccccccssssssssssssssssssss"
   inkscape:export-filename="C:\Users\nickjohnson\Downloads\arachnid labs.png"
   inkscape:export-xdpi="150"
   inkscape:export-ydpi="150" /><path
   style="fill:none;stroke:#000000;stroke-width:0.80451953;stroke-opacity:1"
   d="m 63.959481,120.55646 -3.386222,9.14417 1.572031,3.41036 16.629418,0 1.572031,-3.41036 -3.386222,-9.14417 z"
   id="polygon13"
   inkscape:connector-curvature="0" />
<g
   inkscape:groupmode="layer"
   id="layer3"
   inkscape:label="Logo"
   style="display:inline"
   transform="translate(-229.53125,-73.8125)" /><g
   inkscape:groupmode="layer"
   id="layer4"
   inkscape:label="Beaker"
   style="display:inline"
   transform="translate(-229.53125,-73.8125)" /><path
   inkscape:connector-curvature="0"
   id="path5594"
   style="font-size:36px;font-style:normal;font-variant:normal;font-weight:normal;font-stretch:normal;text-align:center;line-height:125%;letter-spacing:0px;word-spacing:0px;text-anchor:middle;fill:#000000;fill-opacity:1;stroke:#000000;stroke-opacity:1;font-family:Orbitron;-inkscape-font-specification:Orbitron"
   d="m 217.03693,87.546247 c 0.64798,2.1e-5 1.24798,0.12002 1.8,0.36 0.57598,0.24002 1.07998,0.57602 1.512,1.008 0.43198,0.432019 0.76798,0.936018 1.008,1.512 0.23998,0.552017 0.35998,1.152016 0.36,1.8 l 0,11.520003 c -2e-5,0.648 -0.12002,1.26 -0.36,1.836 -0.24002,0.552 -0.57602,1.044 -1.008,1.476 -0.43202,0.432 -0.93602,0.768 -1.512,1.008 -0.55202,0.24 -1.15202,0.36 -1.8,0.36 l -16.56,0 0,-27.720003 3.888,0 0,6.84 12.672,0 m 0.792,4.68 c -2e-5,-0.215984 -0.084,-0.395984 -0.252,-0.54 -0.14402,-0.167983 -0.32402,-0.251983 -0.54,-0.252 l -11.88,0 c -0.21601,1.7e-5 -0.40801,0.08402 -0.576,0.252 -0.14401,0.144016 -0.21601,0.324016 -0.216,0.54 l 0,11.520003 c -10e-6,0.216 0.072,0.408 0.216,0.576 0.16799,0.144 0.35999,0.216 0.576,0.216 l 11.88,0 c 0.21598,0 0.39598,-0.072 0.54,-0.216 0.16798,-0.168 0.25198,-0.36 0.252,-0.576 l 0,-11.520003" /><path
   inkscape:connector-curvature="0"
   id="path5596"
   style="font-size:36px;font-style:normal;font-variant:normal;font-weight:normal;font-stretch:normal;text-align:center;line-height:125%;letter-spacing:0px;word-spacing:0px;text-anchor:middle;fill:#000000;fill-opacity:1;stroke:#000000;stroke-opacity:1;font-family:Orbitron;-inkscape-font-specification:Orbitron"
   d="m 245.26149,100.43425 0,0.072 0,11.52 c -2e-5,0.64799 -0.12002,1.24799 -0.36,1.8 -0.24002,0.57599 -0.57602,1.07999 -1.008,1.512 -0.43202,0.43199 -0.93602,0.76799 -1.512,1.008 -0.55202,0.23999 -1.15202,0.35999 -1.8,0.36 l -12.888,0 0,-3.888 12.888,0 c 0.21598,-1e-5 0.39598,-0.084 0.54,-0.252 0.16798,-0.14401 0.25198,-0.32401 0.252,-0.54 l 0,-3.6 -12.672,0 c -0.648,0 -1.26,-0.12 -1.836,-0.36 -0.552,-0.24 -1.044,-0.576 -1.476,-1.008 -0.432,-0.432 -0.768,-0.924 -1.008,-1.476 -0.24,-0.576 -0.36,-1.188 -0.36,-1.836 l 0,-16.128003 3.888,0 0,16.128003 c 0,0.216 0.072,0.408 0.216,0.576 0.168,0.144 0.35999,0.216 0.576,0.216 l 11.88,0 c 0.21598,0 0.39598,-0.072 0.54,-0.216 0.16798,-0.168 0.25198,-0.36 0.252,-0.576 l 0,-16.128003 3.888,0 0,12.816003" /><path
   inkscape:connector-curvature="0"
   id="path5598"
   style="font-size:36px;font-style:normal;font-variant:normal;font-weight:normal;font-stretch:normal;text-align:center;line-height:125%;letter-spacing:0px;word-spacing:0px;text-anchor:middle;fill:#000000;fill-opacity:1;stroke:#000000;stroke-opacity:1;font-family:Orbitron;-inkscape-font-specification:Orbitron"
   d="m 280.85312,82.506247 c 0.64797,2.6e-5 1.24797,0.120025 1.8,0.36 0.57597,0.240025 1.07997,0.576025 1.512,1.008 0.43197,0.432024 0.76797,0.936023 1.008,1.512 0.23997,0.552022 0.35997,1.152022 0.36,1.8 l 0,21.240003 -3.888,0 0,-9.072003 -18.144,0 0,9.072003 -3.888,0 0,-21.240003 c -10e-6,-0.647978 0.11999,-1.247978 0.36,-1.8 0.23999,-0.575977 0.57599,-1.079976 1.008,-1.512 0.43199,-0.431975 0.92399,-0.767975 1.476,-1.008 0.57599,-0.239975 1.18799,-0.359974 1.836,-0.36 l 16.56,0 m 0.792,12.96 0,-8.28 c -3e-5,-0.215979 -0.084,-0.395979 -0.252,-0.54 -0.14403,-0.167978 -0.32403,-0.251978 -0.54,-0.252 l -16.56,0 c -0.21601,2.2e-5 -0.40801,0.08402 -0.576,0.252 -0.14401,0.144021 -0.21601,0.324021 -0.216,0.54 l 0,8.28 18.144,0" /><path
   inkscape:connector-curvature="0"
   id="path5600"
   style="font-size:36px;font-style:normal;font-variant:normal;font-weight:normal;font-stretch:normal;text-align:center;line-height:125%;letter-spacing:0px;word-spacing:0px;text-anchor:middle;fill:#000000;fill-opacity:1;stroke:#000000;stroke-opacity:1;font-family:Orbitron;-inkscape-font-specification:Orbitron"
   d="m 305.83487,87.546247 0,3.888 -11.664,0 c -0.21601,1.7e-5 -0.40801,0.08402 -0.576,0.252 -0.14401,0.144016 -0.21601,0.324016 -0.216,0.54 l 0,16.200003 -3.888,0 0,-4.68 0,-11.520003 c -10e-6,-0.647984 0.11999,-1.247983 0.36,-1.8 0.23999,-0.575982 0.57599,-1.079981 1.008,-1.512 0.43199,-0.43198 0.92399,-0.76798 1.476,-1.008 0.57599,-0.23998 1.18799,-0.359979 1.836,-0.36 l 11.664,0" /><path
   inkscape:connector-curvature="0"
   id="path5602"
   style="font-size:36px;font-style:normal;font-variant:normal;font-weight:normal;font-stretch:normal;text-align:center;line-height:125%;letter-spacing:0px;word-spacing:0px;text-anchor:middle;fill:#000000;fill-opacity:1;stroke:#000000;stroke-opacity:1;font-family:Orbitron;-inkscape-font-specification:Orbitron"
   d="m 324.68368,87.546247 c 0.64798,2.1e-5 1.24798,0.12002 1.8,0.36 0.57598,0.24002 1.07998,0.57602 1.512,1.008 0.43198,0.432019 0.76798,0.936018 1.008,1.512 0.23998,0.552017 0.35998,1.152016 0.36,1.8 l 0,16.200003 -16.56,0 c -0.64801,0 -1.26001,-0.12 -1.836,-0.36 -0.55201,-0.24 -1.04401,-0.576 -1.476,-1.008 -0.432,-0.432 -0.768,-0.924 -1.008,-1.476 -0.24,-0.576 -0.36,-1.188 -0.36,-1.836 l 0,-7.704003 17.352,0 0,-3.816 c -2e-5,-0.215984 -0.084,-0.395984 -0.252,-0.54 -0.14402,-0.167983 -0.32402,-0.251983 -0.54,-0.252 l -16.56,0 0,-3.888 16.56,0 m 0.792,12.384 -13.464,0 0,3.816003 c -1e-5,0.216 0.072,0.408 0.216,0.576 0.16799,0.144 0.35999,0.216 0.576,0.216 l 12.672,0 0,-4.608003" /><path
   inkscape:connector-curvature="0"
   id="path5604"
   style="font-size:36px;font-style:normal;font-variant:normal;font-weight:normal;font-stretch:normal;text-align:center;line-height:125%;letter-spacing:0px;word-spacing:0px;text-anchor:middle;fill:#000000;fill-opacity:1;stroke:#000000;stroke-opacity:1;font-family:Orbitron;-inkscape-font-specification:Orbitron"
   d="m 353.72612,104.53825 0,3.888 -16.56,0 c -0.64801,0 -1.26001,-0.12 -1.836,-0.36 -0.55201,-0.24 -1.04401,-0.576 -1.476,-1.008 -0.43201,-0.432 -0.76801,-0.924 -1.008,-1.476 -0.24001,-0.576 -0.36001,-1.188 -0.36,-1.836 l 0,-11.520003 c -1e-5,-0.647984 0.11999,-1.247983 0.36,-1.8 0.23999,-0.575982 0.57599,-1.079981 1.008,-1.512 0.43199,-0.43198 0.92399,-0.76798 1.476,-1.008 0.57599,-0.23998 1.18799,-0.359979 1.836,-0.36 l 16.488,0 0,3.888 -16.488,0 c -0.21601,1.7e-5 -0.40801,0.08402 -0.576,0.252 -0.14401,0.144016 -0.21601,0.324016 -0.216,0.54 l 0,11.520003 c -1e-5,0.216 0.072,0.408 0.216,0.576 0.16799,0.144 0.35999,0.216 0.576,0.216 l 16.56,0" /><path
   inkscape:connector-curvature="0"
   id="path5606"
   style="font-size:36px;font-style:normal;font-variant:normal;font-weight:normal;font-stretch:normal;text-align:center;line-height:125%;letter-spacing:0px;word-spacing:0px;text-anchor:middle;fill:#000000;fill-opacity:1;stroke:#000000;stroke-opacity:1;font-family:Orbitron;-inkscape-font-specification:Orbitron"
   d="m 373.62287,87.546247 c 0.64798,2.1e-5 1.24798,0.12002 1.8,0.36 0.57598,0.24002 1.06797,0.57602 1.476,1.008 0.43197,0.432019 0.76797,0.936018 1.008,1.512 0.26397,0.552017 0.39597,1.152016 0.396,1.8 l 0,16.200003 -3.888,0 0,-16.200003 c -2e-5,-0.215984 -0.084,-0.395984 -0.252,-0.54 -0.14402,-0.167983 -0.32402,-0.251983 -0.54,-0.252 l -11.88,0 c -0.21601,1.7e-5 -0.40801,0.08402 -0.576,0.252 -0.14401,0.144016 -0.21601,0.324016 -0.216,0.54 l 0,16.200003 -3.888,0 0,-27.720003 3.888,0 0,6.84 12.672,0" /><path
   inkscape:connector-curvature="0"
   id="path5608"
   style="font-size:36px;font-style:normal;font-variant:normal;font-weight:normal;font-stretch:normal;text-align:center;line-height:125%;letter-spacing:0px;word-spacing:0px;text-anchor:middle;fill:#000000;fill-opacity:1;stroke:#000000;stroke-opacity:1;font-family:Orbitron;-inkscape-font-specification:Orbitron"
   d="m 397.59943,87.546247 c 0.64798,2.1e-5 1.24798,0.12002 1.8,0.36 0.57598,0.24002 1.07998,0.57602 1.512,1.008 0.43198,0.432019 0.76798,0.936018 1.008,1.512 0.23998,0.552017 0.35998,1.152016 0.36,1.8 l 0,16.200003 -3.888,0 0,-16.200003 c -2e-5,-0.215984 -0.084,-0.395984 -0.252,-0.54 -0.14402,-0.167983 -0.32402,-0.251983 -0.54,-0.252 l -11.88,0 c -0.21601,1.7e-5 -0.40801,0.08402 -0.576,0.252 -0.14401,0.144016 -0.21601,0.324016 -0.216,0.54 l 0,16.200003 -3.888,0 0,-20.880003 16.56,0" /><path
   inkscape:connector-curvature="0"
   id="path5610"
   style="font-size:36px;font-style:normal;font-variant:normal;font-weight:normal;font-stretch:normal;text-align:center;line-height:125%;letter-spacing:0px;word-spacing:0px;text-anchor:middle;fill:#000000;fill-opacity:1;stroke:#000000;stroke-opacity:1;font-family:Orbitron;-inkscape-font-specification:Orbitron"
   d="m 405.99868,87.546247 3.888,0 0,20.880003 -3.888,0 0,-20.880003 m 3.888,-6.84 0,3.888 -3.888,0 0,-3.888 3.888,0" /><path
   inkscape:connector-curvature="0"
   id="path5612"
   style="font-size:36px;font-style:normal;font-variant:normal;font-weight:normal;font-stretch:normal;text-align:center;line-height:125%;letter-spacing:0px;word-spacing:0px;text-anchor:middle;fill:#000000;fill-opacity:1;stroke:#000000;stroke-opacity:1;font-family:Orbitron;-inkscape-font-specification:Orbitron"
   d="m 433.71812,80.706247 0,27.720003 -16.56,0 c -0.64801,0 -1.26001,-0.12 -1.836,-0.36 -0.55201,-0.24 -1.04401,-0.576 -1.476,-1.008 -0.43201,-0.432 -0.76801,-0.924 -1.008,-1.476 -0.24,-0.576 -0.36,-1.188 -0.36,-1.836 l 0,-11.520003 c 0,-0.647984 0.12,-1.247983 0.36,-1.8 0.23999,-0.575982 0.57599,-1.079981 1.008,-1.512 0.43199,-0.43198 0.92399,-0.76798 1.476,-1.008 0.57599,-0.23998 1.18799,-0.359979 1.836,-0.36 l 12.672,0 0,-6.84 3.888,0 m -4.68,23.832003 c 0.21598,0 0.39598,-0.072 0.54,-0.216 0.16798,-0.168 0.25198,-0.36 0.252,-0.576 l 0,-11.520003 c -2e-5,-0.215984 -0.084,-0.395984 -0.252,-0.54 -0.14402,-0.167983 -0.32402,-0.251983 -0.54,-0.252 l -11.88,0 c -0.21601,1.7e-5 -0.40801,0.08402 -0.576,0.252 -0.14401,0.144016 -0.21601,0.324016 -0.216,0.54 l 0,11.520003 c -1e-5,0.216 0.072,0.408 0.216,0.576 0.16799,0.144 0.35999,0.216 0.576,0.216 l 11.88,0" /><path
   inkscape:connector-curvature="0"
   id="path5614"
   style="font-size:36px;font-style:normal;font-variant:normal;font-weight:normal;font-stretch:normal;text-align:center;line-height:125%;letter-spacing:0px;word-spacing:0px;text-anchor:middle;fill:#000000;fill-opacity:1;stroke:#000000;stroke-opacity:1;font-family:Orbitron;-inkscape-font-specification:Orbitron"
   d="m 448.15524,82.470247 3.888,0 0,22.068003 22.032,0 0,3.888 -25.92,0 0,-25.956003" /><path
   inkscape:connector-curvature="0"
   id="path5616"
   style="font-size:36px;font-style:normal;font-variant:normal;font-weight:normal;font-stretch:normal;text-align:center;line-height:125%;letter-spacing:0px;word-spacing:0px;text-anchor:middle;fill:#000000;fill-opacity:1;stroke:#000000;stroke-opacity:1;font-family:Orbitron;-inkscape-font-specification:Orbitron"
   d="m 492.58993,87.546247 c 0.64798,2.1e-5 1.24798,0.12002 1.8,0.36 0.57598,0.24002 1.07998,0.57602 1.512,1.008 0.43198,0.432019 0.76798,0.936018 1.008,1.512 0.23998,0.552017 0.35998,1.152016 0.36,1.8 l 0,16.200003 -16.56,0 c -0.64801,0 -1.26001,-0.12 -1.836,-0.36 -0.55201,-0.24 -1.04401,-0.576 -1.476,-1.008 -0.432,-0.432 -0.768,-0.924 -1.008,-1.476 -0.24,-0.576 -0.36,-1.188 -0.36,-1.836 l 0,-7.704003 17.352,0 0,-3.816 c -2e-5,-0.215984 -0.084,-0.395984 -0.252,-0.54 -0.14402,-0.167983 -0.32402,-0.251983 -0.54,-0.252 l -16.56,0 0,-3.888 16.56,0 m 0.792,12.384 -13.464,0 0,3.816003 c -1e-5,0.216 0.072,0.408 0.216,0.576 0.16799,0.144 0.35999,0.216 0.576,0.216 l 12.672,0 0,-4.608003" /><path
   inkscape:connector-curvature="0"
   id="path5618"
   style="font-size:36px;font-style:normal;font-variant:normal;font-weight:normal;font-stretch:normal;text-align:center;line-height:125%;letter-spacing:0px;word-spacing:0px;text-anchor:middle;fill:#000000;fill-opacity:1;stroke:#000000;stroke-opacity:1;font-family:Orbitron;-inkscape-font-specification:Orbitron"
   d="m 516.99005,87.546247 c 0.64798,2.1e-5 1.24798,0.12002 1.8,0.36 0.57598,0.24002 1.07998,0.57602 1.512,1.008 0.43198,0.432019 0.76798,0.936018 1.008,1.512 0.23998,0.552017 0.35998,1.152016 0.36,1.8 l 0,11.520003 c -2e-5,0.648 -0.12002,1.26 -0.36,1.836 -0.24002,0.552 -0.57602,1.044 -1.008,1.476 -0.43202,0.432 -0.93602,0.768 -1.512,1.008 -0.55202,0.24 -1.15202,0.36 -1.8,0.36 l -16.56,0 0,-27.720003 3.888,0 0,6.84 12.672,0 m 0.792,4.68 c -2e-5,-0.215984 -0.084,-0.395984 -0.252,-0.54 -0.14402,-0.167983 -0.32402,-0.251983 -0.54,-0.252 l -11.88,0 c -0.216,1.7e-5 -0.408,0.08402 -0.576,0.252 -0.144,0.144016 -0.216,0.324016 -0.216,0.54 l 0,11.520003 c 0,0.216 0.072,0.408 0.216,0.576 0.168,0.144 0.36,0.216 0.576,0.216 l 11.88,0 c 0.21598,0 0.39598,-0.072 0.54,-0.216 0.16798,-0.168 0.25198,-0.36 0.252,-0.576 l 0,-11.520003" /><path
   inkscape:connector-curvature="0"
   id="path5620"
   style="font-size:36px;font-style:normal;font-variant:normal;font-weight:normal;font-stretch:normal;text-align:center;line-height:125%;letter-spacing:0px;word-spacing:0px;text-anchor:middle;fill:#000000;fill-opacity:1;stroke:#000000;stroke-opacity:1;font-family:Orbitron;-inkscape-font-specification:Orbitron"
   d="m 545.43062,93.018247 -3.888,0 0,-0.792 c -2e-5,-0.215984 -0.084,-0.395984 -0.252,-0.54 -0.14402,-0.167983 -0.32402,-0.251983 -0.54,-0.252 l -11.88,0 c -0.21601,1.7e-5 -0.40801,0.08402 -0.576,0.252 -0.14401,0.144016 -0.21601,0.324016 -0.216,0.54 l 0,3.024 c -10e-6,0.216013 0.072,0.408012 0.216,0.576 0.16799,0.144012 0.35999,0.216012 0.576,0.216 l 11.88,0 c 0.64798,1.2e-5 1.24798,0.120012 1.8,0.36 0.57598,0.240011 1.07997,0.576011 1.512,1.008 0.43197,0.43201 0.76797,0.93601 1.008,1.512 0.23997,0.552009 0.35997,1.152003 0.36,1.800003 l 0,3.024 c -3e-5,0.648 -0.12003,1.26 -0.36,1.836 -0.24003,0.552 -0.57603,1.044 -1.008,1.476 -0.43203,0.432 -0.93602,0.768 -1.512,1.008 -0.55202,0.24 -1.15202,0.36 -1.8,0.36 l -11.88,0 c -0.64801,0 -1.26001,-0.12 -1.836,-0.36 -0.55201,-0.24 -1.04401,-0.576 -1.476,-1.008 -0.43201,-0.432 -0.76801,-0.924 -1.008,-1.476 -0.24001,-0.576 -0.36001,-1.188 -0.36,-1.836 l 0,-0.792 3.888,0 0,0.792 c -10e-6,0.216 0.072,0.408 0.216,0.576 0.16799,0.144 0.35999,0.216 0.576,0.216 l 11.88,0 c 0.21598,0 0.39598,-0.072 0.54,-0.216 0.16798,-0.168 0.25198,-0.36 0.252,-0.576 l 0,-3.024 c -2e-5,-0.216 -0.084,-0.396 -0.252,-0.54 -0.14402,-0.16799 -0.32402,-0.251995 -0.54,-0.252003 l -11.88,0 c -0.64801,8e-6 -1.26001,-0.119992 -1.836,-0.36 -0.55201,-0.239991 -1.04401,-0.575991 -1.476,-1.008 -0.43201,-0.43199 -0.76801,-0.92399 -1.008,-1.476 -0.24001,-0.575988 -0.36001,-1.187988 -0.36,-1.836 l 0,-3.024 c -10e-6,-0.647984 0.11999,-1.247983 0.36,-1.8 0.23999,-0.575982 0.57599,-1.079981 1.008,-1.512 0.43199,-0.43198 0.92399,-0.76798 1.476,-1.008 0.57599,-0.23998 1.18799,-0.359979 1.836,-0.36 l 11.88,0 c 0.64798,2.1e-5 1.24798,0.12002 1.8,0.36 0.57598,0.24002 1.07997,0.57602 1.512,1.008 0.43197,0.432019 0.76797,0.936018 1.008,1.512 0.23997,0.552017 0.35997,1.152016 0.36,1.8 l 0,0.792" />

<path
   inkscape:connector-curvature="0"
   id="path5573"
   style="font-size:72px;font-style:normal;font-variant:normal;font-weight:bold;font-stretch:normal;text-align:center;line-height:125%;letter-spacing:0px;word-spacing:0px;text-anchor:middle;fill:#000000;fill-opacity:1;stroke:none;font-family:Orbitron;-inkscape-font-specification:Sans Bold"
   d="m 220.87812,39.221435 c -5e-5,1.392027 -0.26405,2.688025 -0.792,3.888 -0.52805,1.200023 -1.24805,2.256022 -2.15999,3.168 -0.91206,0.91202 -1.99206,1.632019 -3.24001,2.16 -1.20004,0.528018 -2.49604,0.792018 -3.888,0.792 l -2.808,0 12.888,15.336 0,2.448 -10.36799,0 -14.97601,-17.784 -16.776,0 -0.216,0 0,17.784 -9.504,0 0,-51.768 41.76,0 c 1.39196,5.2e-5 2.68796,0.264052 3.888,0.792 1.24795,0.528051 2.32795,1.24805 3.24001,2.16 0.91194,0.912048 1.63194,1.992047 2.15999,3.24 0.52795,1.200045 0.79195,2.472043 0.792,3.816 l 0,13.968 m -10.08,0.504 c 0.33596,2.8e-5 0.50396,-0.167972 0.504,-0.504 l 0,-13.968 c -4e-5,-0.335958 -0.16804,-0.503957 -0.504,-0.504 l -31.752,0 c -0.33601,4.3e-5 -0.50401,0.168042 -0.504,0.504 l 0,13.968 c -1e-5,0.336028 0.16799,0.504028 0.504,0.504 l 31.752,0" /><path
   inkscape:connector-curvature="0"
   id="path5575"
   style="font-size:72px;font-style:normal;font-variant:normal;font-weight:bold;font-stretch:normal;text-align:center;line-height:125%;letter-spacing:0px;word-spacing:0px;text-anchor:middle;fill:#000000;fill-opacity:1;stroke:none;font-family:Orbitron;-inkscape-font-specification:Sans Bold"
   d="m 260.7065,25.253435 c 1.34396,4.2e-5 2.61596,0.264042 3.816,0.792 1.24796,0.528041 2.30396,1.24804 3.168,2.16 0.91196,0.864038 1.63196,1.920037 2.16,3.168 0.52795,1.200035 0.79195,2.472034 0.792,3.816 l 0,15.696 -32.976,0 0,6.192 c -1e-5,0.33601 0.16799,0.50401 0.504,0.504 l 32.472,0 0,9.432 -32.472,0 c -1.39201,0 -2.68801,-0.263999 -3.888,-0.792 -1.20001,-0.527998 -2.25601,-1.223998 -3.168,-2.088 -0.86401,-0.911996 -1.56,-1.967995 -2.088,-3.168 -0.528,-1.199992 -0.792,-2.495991 -0.792,-3.888 l 0,-21.888 c 0,-1.343966 0.264,-2.615965 0.792,-3.816 0.528,-1.247963 1.22399,-2.303962 2.088,-3.168 0.91199,-0.91196 1.96799,-1.631959 3.168,-2.16 1.19999,-0.527958 2.49599,-0.791958 3.888,-0.792 l 22.536,0 m 0.504,16.128 0,-6.192 c -4e-5,-0.335967 -0.16804,-0.503967 -0.504,-0.504 l -22.536,0 c -0.33601,3.3e-5 -0.50401,0.168033 -0.504,0.504 l 0,6.192 23.544,0" /><path
   inkscape:connector-curvature="0"
   id="path5577"
   style="font-size:72px;font-style:normal;font-variant:normal;font-weight:bold;font-stretch:normal;text-align:center;line-height:125%;letter-spacing:0px;word-spacing:0px;text-anchor:middle;fill:#000000;fill-opacity:1;stroke:none;font-family:Orbitron;-inkscape-font-specification:Sans Bold"
   d="m 287.80437,57.581435 0,9.432 -9.432,0 0,-9.432 9.432,0 m 0,-23.4 -9.432,0 0,-9.504 9.432,0 0,9.504" /><path
   inkscape:connector-curvature="0"
   id="path5579"
   style="font-size:72px;font-style:normal;font-variant:normal;font-weight:bold;font-stretch:normal;text-align:center;line-height:125%;letter-spacing:0px;word-spacing:0px;text-anchor:middle;fill:#000000;fill-opacity:1;stroke:none;font-family:Orbitron;-inkscape-font-specification:Sans Bold"
   d="m 303.20112,11.573435 0,45.504 c -10e-6,0.33601 0.14399,0.50401 0.432,0.504 l 8.424,0 0,9.432 -8.424,0 c -1.39201,0 -2.68801,-0.263999 -3.88799,-0.792 -1.20001,-0.527998 -2.25601,-1.223998 -3.168,-2.088 -0.86401,-0.911996 -1.56001,-1.967995 -2.08801,-3.168 -0.528,-1.199992 -0.792,-2.495991 -0.79199,-3.888 l 0,-45.504 9.50399,0" /><path
   inkscape:connector-curvature="0"
   id="path5581"
   style="font-size:72px;font-style:normal;font-variant:normal;font-weight:bold;font-stretch:normal;text-align:center;line-height:125%;letter-spacing:0px;word-spacing:0px;text-anchor:middle;fill:#000000;fill-opacity:1;stroke:none;font-family:Orbitron;-inkscape-font-specification:Sans Bold"
   d="m 350.84712,25.253435 c 1.34397,4.2e-5 2.61597,0.264042 3.816,0.792 1.24796,0.528041 2.30396,1.24804 3.168,2.16 0.91196,0.864038 1.63196,1.920037 2.16,3.168 0.52796,1.200035 0.79196,2.472034 0.792,3.816 l 0,21.888 c -4e-5,1.392009 -0.26404,2.688008 -0.792,3.888 -0.52804,1.200005 -1.24804,2.256004 -2.16,3.168 -0.86404,0.864002 -1.92004,1.560002 -3.168,2.088 -1.20003,0.528001 -2.47203,0.792 -3.816,0.792 l -22.536,0 c -1.39201,0 -2.68801,-0.263999 -3.88799,-0.792 -1.20001,-0.527998 -2.25601,-1.223998 -3.168,-2.088 -0.86401,-0.911996 -1.56001,-1.967995 -2.08801,-3.168 -0.528,-1.199992 -0.792,-2.495991 -0.79199,-3.888 l 0,-21.888 c -1e-5,-1.343966 0.26399,-2.615965 0.79199,-3.816 0.528,-1.247963 1.224,-2.303962 2.08801,-3.168 0.91199,-0.91196 1.96799,-1.631959 3.168,-2.16 1.19998,-0.527958 2.49598,-0.791958 3.88799,-0.792 l 22.536,0 m -22.536,9.432 c -0.33601,3.3e-5 -0.50401,0.168033 -0.504,0.504 l 0,21.888 c -10e-6,0.33601 0.16799,0.50401 0.504,0.504 l 22.536,0 c 0.33597,1e-5 0.50397,-0.16799 0.50401,-0.504 l 0,-21.888 c -4e-5,-0.335967 -0.16804,-0.503967 -0.50401,-0.504 l -22.536,0" /><path
   inkscape:connector-curvature="0"
   id="path5583"
   style="font-size:72px;font-style:normal;font-variant:normal;font-weight:bold;font-stretch:normal;text-align:center;line-height:125%;letter-spacing:0px;word-spacing:0px;text-anchor:middle;fill:#000000;fill-opacity:1;stroke:none;font-family:Orbitron;-inkscape-font-specification:Sans Bold"
   d="m 399.01287,25.253435 c 1.34397,4.2e-5 2.61597,0.264042 3.816,0.792 1.24796,0.528041 2.30396,1.24804 3.168,2.16 0.91196,0.864038 1.63196,1.920037 2.16001,3.168 0.52795,1.200035 0.79195,2.472034 0.79199,3.816 l 0,31.824 -32.472,0 c -1.39201,0 -2.68801,-0.263999 -3.88799,-0.792 -1.20001,-0.527998 -2.25601,-1.223998 -3.168,-2.088 -0.86401,-0.911996 -1.56001,-1.967995 -2.08801,-3.168 -0.528,-1.199992 -0.792,-2.495991 -0.79199,-3.888 l 0,-15.696 32.976,0 0,-6.192 c -4e-5,-0.335967 -0.16804,-0.503967 -0.50401,-0.504 l -32.47199,0 0,-9.432 32.47199,0 m 0.50401,25.632 -23.54401,0 0,6.192 c -10e-6,0.33601 0.16799,0.50401 0.504,0.504 l 23.04001,0 0,-6.696" /><path
   inkscape:connector-curvature="0"
   id="path5585"
   style="font-size:72px;font-style:normal;font-variant:normal;font-weight:bold;font-stretch:normal;text-align:center;line-height:125%;letter-spacing:0px;word-spacing:0px;text-anchor:middle;fill:#000000;fill-opacity:1;stroke:none;font-family:Orbitron;-inkscape-font-specification:Sans Bold"
   d="m 456.85475,11.573435 0,55.44 -32.544,0 c -1.39201,0 -2.68801,-0.263999 -3.888,-0.792 -1.20001,-0.527998 -2.25601,-1.223998 -3.168,-2.088 -0.864,-0.911996 -1.56,-1.967995 -2.088,-3.168 -0.528,-1.199992 -0.792,-2.495991 -0.792,-3.888 l 0,-21.888 c 0,-1.343966 0.264,-2.615965 0.792,-3.816 0.528,-1.247963 1.224,-2.303962 2.088,-3.168 0.91199,-0.91196 1.96799,-1.631959 3.168,-2.16 1.19999,-0.527958 2.49599,-0.791958 3.888,-0.792 l 23.112,0 0,-13.68 9.432,0 m -9.936,46.008 c 0.33597,1e-5 0.50397,-0.16799 0.504,-0.504 l 0,-21.888 c -3e-5,-0.335967 -0.16803,-0.503967 -0.504,-0.504 l -22.608,0 c -0.28801,3.3e-5 -0.43201,0.168033 -0.432,0.504 l 0,21.888 c -1e-5,0.33601 0.14399,0.50401 0.432,0.504 l 22.608,0" /><path
   inkscape:connector-curvature="0"
   id="path5587"
   style="font-size:72px;font-style:normal;font-variant:normal;font-weight:bold;font-stretch:normal;text-align:center;line-height:125%;letter-spacing:0px;word-spacing:0px;text-anchor:middle;fill:#000000;fill-opacity:1;stroke:none;font-family:Orbitron;-inkscape-font-specification:Sans Bold"
   d="m 528.82325,15.245435 c 1.39195,5.2e-5 2.68795,0.264052 3.888,0.792 1.24795,0.528051 2.32795,1.24805 3.24,2.16 0.91195,0.912048 1.63195,1.992047 2.16,3.24 0.52794,1.200045 0.79194,2.472043 0.792,3.816 l 0,13.968 c -6e-5,1.392027 -0.26406,2.688025 -0.792,3.888 -0.52805,1.200023 -1.24805,2.256022 -2.16,3.168 -0.91205,0.91202 -1.99205,1.632019 -3.24,2.16 -1.20005,0.528018 -2.49605,0.792018 -3.888,0.792 l -32.04,0.072 -0.216,-0.072 0,17.784 -9.504,0 0,-51.768 41.76,0 m 0.504,10.008 c -5e-5,-0.335958 -0.16805,-0.503957 -0.504,-0.504 l -31.752,0 c -0.33601,4.3e-5 -0.50401,0.168042 -0.504,0.504 l 0,13.968 c -10e-6,0.336028 0.16799,0.504028 0.504,0.504 l 31.752,0 c 0.33595,2.8e-5 0.50395,-0.167972 0.504,-0.504 l 0,-13.968" /><path
   inkscape:connector-curvature="0"
   id="path5589"
   style="font-size:72px;font-style:normal;font-variant:normal;font-weight:bold;font-stretch:normal;text-align:center;line-height:125%;letter-spacing:0px;word-spacing:0px;text-anchor:middle;fill:#000000;fill-opacity:1;stroke:none;font-family:Orbitron;-inkscape-font-specification:Sans Bold"
   d="m 576.84838,25.253435 0,9.432 -23.18401,0 c -0.33601,3.3e-5 -0.50401,0.168033 -0.50399,0.504 l 0,31.824 -9.432,0 0,-31.824 c -10e-6,-1.343966 0.26399,-2.615965 0.79199,-3.816 0.528,-1.247963 1.224,-2.303962 2.08801,-3.168 0.91199,-0.91196 1.96799,-1.631959 3.168,-2.16 1.19998,-0.527958 2.49598,-0.791958 3.88799,-0.792 l 23.18401,0" /><path
   inkscape:connector-curvature="0"
   id="path5591"
   style="font-size:72px;font-style:normal;font-variant:normal;font-weight:bold;font-stretch:normal;text-align:center;line-height:125%;letter-spacing:0px;word-spacing:0px;text-anchor:middle;fill:#000000;fill-opacity:1;stroke:none;font-family:Orbitron;-inkscape-font-specification:Sans Bold"
   d="m 614.09712,25.253435 c 1.34397,4.2e-5 2.61597,0.264042 3.81601,0.792 1.24795,0.528041 2.30395,1.24804 3.168,2.16 0.91195,0.864038 1.63195,1.920037 2.15999,3.168 0.52796,1.200035 0.79196,2.472034 0.79201,3.816 l 0,21.888 c -5e-5,1.392009 -0.26405,2.688008 -0.79201,3.888 -0.52804,1.200005 -1.24804,2.256004 -2.15999,3.168 -0.86405,0.864002 -1.92005,1.560002 -3.168,2.088 -1.20004,0.528001 -2.47204,0.792 -3.81601,0.792 l -22.536,0 c -1.39201,0 -2.68801,-0.263999 -3.88799,-0.792 -1.20001,-0.527998 -2.25601,-1.223998 -3.168,-2.088 -0.86401,-0.911996 -1.56001,-1.967995 -2.088,-3.168 -0.52801,-1.199992 -0.79201,-2.495991 -0.792,-3.888 l 0,-21.888 c -10e-6,-1.343966 0.26399,-2.615965 0.792,-3.816 0.52799,-1.247963 1.22399,-2.303962 2.088,-3.168 0.91199,-0.91196 1.96799,-1.631959 3.168,-2.16 1.19998,-0.527958 2.49598,-0.791958 3.88799,-0.792 l 22.536,0 m -22.536,9.432 c -0.33601,3.3e-5 -0.50401,0.168033 -0.50399,0.504 l 0,21.888 c -2e-5,0.33601 0.16798,0.50401 0.50399,0.504 l 22.536,0 c 0.33597,1e-5 0.50397,-0.16799 0.50401,-0.504 l 0,-21.888 c -4e-5,-0.335967 -0.16804,-0.503967 -0.50401,-0.504 l -22.536,0" /></svg>