<?xml version="1.0" encoding="UTF-8" standalone="no"?>
<!-- Generator: Adobe Illustrator 13.0.0, SVG Export Plug-In . SVG Version: 6.00 Build 14948)  -->

<svg
   xmlns:dc="http://purl.org/dc/elements/1.1/"
   xmlns:cc="http://creativecommons.org/ns#"
   xmlns:rdf="http://www.w3.org/1999/02/22-rdf-syntax-ns#"
   xmlns:svg="http://www.w3.org/2000/svg"
   xmlns="http://www.w3.org/2000/svg"
   xmlns:sodipodi="http://sodipodi.sourceforge.net/DTD/sodipodi-0.dtd"
   xmlns:inkscape="http://www.inkscape.org/namespaces/inkscape"
   version="1.1"
   id="Layer_1"
   x="0px"
   y="0px"
   width="1280px"
   height="1280px"
   viewBox="0 0 1280 1280"
   enable-background="new 0 0 1280 1280"
   xml:space="preserve"
   inkscape:version="0.48.2 r9819"
   sodipodi:docname="spider_noborder (1).svg"><metadata
   id="metadata15"><rdf:RDF><cc:Work
       rdf:about=""><dc:format>image/svg+xml</dc:format><dc:type
         rdf:resource="http://purl.org/dc/dcmitype/StillImage" /><dc:title></dc:title></cc:Work></rdf:RDF></metadata><defs
   id="defs13" /><sodipodi:namedview
   pagecolor="#ffffff"
   bordercolor="#666666"
   borderopacity="1"
   objecttolerance="10"
   gridtolerance="10"
   guidetolerance="10"
   inkscape:pageopacity="0"
   inkscape:pageshadow="2"
   inkscape:window-width="839"
   inkscape:window-height="641"
   id="namedview11"
   showgrid="false"
   inkscape:zoom="0.184375"
   inkscape:cx="640"
   inkscape:cy="640"
   inkscape:window-x="0"
   inkscape:window-y="0"
   inkscape:window-maximized="0"
   inkscape:current-layer="Layer_1" />
<rect
   x="513.558"
   y="623.035"
   fill="#FFFFFF"
   width="253.624"
   height="314.493"
   id="rect3" />
<g
   id="g5">
	
		<path
   id="path5_30_"
   nodetypes="ssccccccccsssscccccccccsssccccccccsssscccccccccccccssscccccccccsssscccccccccsssscccccccccccssscccccssssccccssssssssssssscsssssscccccccccccccccssssssssssssssssssss"
   export-xdpi="150"
   export-ydpi="150"
   connector-curvature="0"
   export-filename="C:\Users\nickjohnson\Downloads\arachnid labs.png"
   fill="#2D3042"
   d="   M543.784,27.771c-17.793,0-32.222,14.436-32.222,32.225c0,5.823,1.611,11.3,4.32,16.007l-125.396,127.03v218.354l140.979,165.208   l-9.647,14.982L343.903,468.184l-76.339-266.799l51.085-97.065c3.118,0.997,6.406,1.641,9.854,1.641   c17.789,0,32.015-14.442,32.015-32.218c0-17.781-14.226-32.216-32.015-32.216c-17.789,0-32.217,14.435-32.217,32.216   c0,8.366,3.187,15.823,8.416,21.548l-73.271,96.862l66.086,295.113l192.493,164.186l-1.435,2.051l-158.84-16.63L177.254,814.596   l0.623,12.112l38.577,141.195c-11.922,4.723-20.526,16.349-20.526,29.957c0,17.782,14.446,32.226,32.231,32.226   c17.775,0,32.221-14.443,32.221-32.226c0-17.23-13.592-31.151-30.581-32.007l-16.431-137.503l129.086-144.071l121.293,21.96   l-2.264,11.488L305.529,833.065l29.334,266.38l90.09,94.399c-3.046,4.925-4.911,10.604-4.911,16.841   c0,17.766,14.428,32.217,32.213,32.217c17.779,0,32.218-14.451,32.218-32.217c0-17.79-14.439-32.022-32.218-32.022   c-5.708,0-10.962,1.522-15.597,4.107l-67.724-98.31l-12.719-230.664l83.509-22.984l95.438,190.646l104.876,46.392l104.658-46.392   l95.443-190.646l-21.766-113.288l-2.258-11.285l121.494-21.96L1066.7,828.351l-16.429,137.503   c-17.008,0.855-30.566,14.776-30.566,32.007c0,17.782,14.43,32.226,32.217,32.226c17.775,0,32.015-14.443,32.015-32.226   c0-13.595-8.401-25.234-20.324-29.957l38.577-141.195l0.624-12.112L950.332,636.873l-159.044,16.63l-1.238-2.051l192.499-164.186   l66.086-295.113l-73.271-96.862c5.229-5.726,8.417-13.182,8.417-21.548c0-17.781-14.428-32.216-32.217-32.216   c-17.769,0-32.017,14.435-32.017,32.216c0,17.779,14.248,32.218,32.017,32.218c3.433,0,6.72-0.644,9.85-1.641l51.107,97.065   l-76.356,266.799L758.042,601.577l-9.445-14.982c-19.114-29.508-11.531-18.155,0,0l140.994-165.208V203.033L764.198,76.003   c2.694-4.707,4.311-10.195,4.311-16.007c0-17.789-14.429-32.225-32.219-32.225c-17.773,0-32.014,14.436-32.014,32.225   c0,17.782,14.24,32.217,32.014,32.217c5.165,0,10.019-1.311,14.356-3.487l89.678,124.983l-10.656,202.962l-75.74,81.269   l-36.108-66.905l-0.202-1.234H562.873l-36.738,68.35l-75.733-81.479l-10.676-202.962l89.688-124.983   c4.331,2.176,9.18,3.487,14.37,3.487c17.774,0,32.014-14.442,32.014-32.217C575.798,42.207,561.558,27.771,543.784,27.771   L543.784,27.771z M818.376,717.524l20.585,113.288l84.891,22.984l-12.72,230.664l-67.723,98.31   c-4.65-2.585-9.896-4.107-15.587-4.107c-17.803,0-32.232,14.232-32.232,32.022c0,17.766,14.43,32.217,32.232,32.217   c17.78,0,31.999-14.451,31.999-32.217c0-6.236-1.65-11.916-4.7-16.841l90.068-94.399l29.363-266.38L818.376,717.524z    M543.581,41.526c10.241,0,18.668,8.232,18.668,18.47c0,10.235-8.445,18.672-18.668,18.672c-10.246,0-18.47-8.444-18.47-18.672   C525.111,49.747,533.335,41.526,543.581,41.526z M736.29,41.526c10.242,0,18.667,8.232,18.667,18.47   c0,10.235-8.425,18.672-18.667,18.672c-10.241,0-18.471-8.444-18.471-18.672C717.819,49.747,726.049,41.526,736.29,41.526z    M328.504,55.27c10.227,0,18.466,8.232,18.466,18.473c0,10.238-8.239,18.47-18.466,18.47c-10.242,0-18.673-8.239-18.673-18.47   C309.831,63.498,318.262,55.27,328.504,55.27z M951.563,55.27c10.255,0,18.686,8.232,18.686,18.473   c0,10.238-8.444,18.47-18.686,18.47c-10.229,0-18.472-8.239-18.472-18.47C933.092,63.501,941.335,55.27,951.563,55.27z    M599.595,630.505h9.242h62.389h9.226v16.015h-9.226l0.21,53.367l73.473,189.211l-18.89,41.25H554.04l-18.875-41.25l73.474-189.211   v-53.367h-9.043V630.505z M228.158,979.398c10.216,0,18.673,8.229,18.673,18.462c0,10.242-8.446,18.479-18.673,18.479   c-10.256,0-18.485-8.258-18.485-18.479C209.673,987.619,217.916,979.398,228.158,979.398z M1051.922,979.398   c10.243,0,18.47,8.229,18.47,18.462c0,10.242-8.242,18.479-18.47,18.479c-10.24,0-18.686-8.258-18.686-18.479   C1033.236,987.619,1041.682,979.398,1051.922,979.398z M452.256,1192.215c10.231,0,18.673,8.229,18.673,18.471   c0,10.227-8.442,18.672-18.673,18.672c-10.256,0-18.466-8.466-18.466-18.672C433.79,1200.429,442,1192.215,452.256,1192.215z    M827.822,1192.215c10.211,0,18.454,8.229,18.454,18.471c0,10.227-8.229,18.672-18.454,18.672c-10.25,0-18.681-8.466-18.681-18.672   C809.142,1200.429,817.579,1192.215,827.822,1192.215z" />
	
		<polygon
   id="polygon13_28_"
   export-xdpi="150"
   export-ydpi="150"
   export-filename="C:\Users\nickjohnson\Downloads\arachnid labs.png"
   fill="#BFCFCD"
   points="   586.905,808.664 559.284,883.305 572.101,911.146 707.854,911.146 720.682,883.305 693.027,808.664  ">
	</polygon>
	<path
   d="M794.265,653.184l-2.934,0.313l0.623,1.057L794.265,653.184z M774.521,625.464l15.572,25.953l192.456-164.151   l66.086-295.113l-73.271-96.862c3.043-3.342,5.288-7.319,6.737-11.671l-12.197-6.542c-0.942,5.078-3.971,9.409-8.172,12.122   l65.768,108.885L958.43,474.359L774.521,625.464z M758.187,527.738l-8.634,57.73l140.038-164.082V203.033L764.198,76.003   c2.694-4.707,4.311-10.195,4.311-16.007c0-4.209-0.863-8.2-2.34-11.879l-12.386,5.664c0.709,1.942,1.174,4.017,1.174,6.215   c0,4.589-1.762,8.765-4.541,12.038L862.69,206.563l-6.056,212.057L758.187,527.738z M943.885,664.592l-140.01,14.674l12.546,26.923   l121.191-21.909L1066.7,828.351l-16.429,137.503c-8.72,0.435-16.5,4.339-22.049,10.337l9.329,10.023   c3.434-4.143,8.577-6.815,14.37-6.815c1.29,0,2.551,0.131,3.753,0.385l28.77-157.654L943.885,664.592z M835.773,816.914   l-108.79,186.967l-86.943,26.466l-86.957-26.466L444.307,816.914l7.007-44.125l-122.386,68.723l23.015,249.612l87.076,106.683   c3.361-3.455,8.04-5.592,13.237-5.592c1.278,0,2.535,0.116,3.737,0.362l5.158-12.539c-2.84-0.804-5.795-1.375-8.895-1.375   c-5.689,0-10.948,1.522-15.583,4.107l-67.737-98.31l-12.719-230.664l83.875-22.709l95.291,190.371l104.659,46.392l104.658-46.392   l95.277-190.371l83.876,22.709l-12.72,230.664l-67.723,98.31c-4.65-2.585-9.896-4.107-15.587-4.107   c-3.115,0-6.069,0.571-8.911,1.375l5.158,12.539c1.202-0.246,2.478-0.362,3.753-0.362c5.2,0,9.879,2.137,13.225,5.592   l87.077-106.683l23.033-249.612l-122.394-68.723L835.773,816.914z M297.532,487.266l192.464,164.151l15.555-25.953L321.638,474.359   l-69.056-276.274L318.35,89.2c-4.216-2.713-7.225-7.044-8.17-12.122l-12.198,6.542c1.435,4.353,3.68,8.329,6.722,11.671   l-73.271,96.862L297.532,487.266z M213.368,828.351l129.086-144.071l121.191,21.909l12.556-26.923l-140.02-14.674l-140.56,157.537   l28.77,157.654c1.217-0.254,2.463-0.385,3.766-0.385c5.78,0,10.923,2.673,14.356,6.815l9.329-10.023   c-5.544-5.998-13.327-9.902-22.044-10.337L213.368,828.351z M521.88,527.738L423.429,418.62l-6.052-212.057L529.675,72.034   c-2.801-3.273-4.549-7.449-4.549-12.038c0-2.198,0.445-4.273,1.158-6.215l-12.389-5.664c-1.463,3.679-2.333,7.67-2.333,11.879   c0,5.812,1.611,11.3,4.32,16.007l-125.396,127.03v218.354l140.024,164.082L521.88,527.738z M488.732,653.496l-2.926-0.313   l2.306,1.369L488.732,653.496z"
   id="path9" />
</g>
</svg>