<?xml version="1.0" encoding="UTF-8" standalone="no"?>
<!-- Generator: Adobe Illustrator 15.0.0, SVG Export Plug-In . SVG Version: 6.00 Build 0)  -->

<svg
   xmlns:dc="http://purl.org/dc/elements/1.1/"
   xmlns:cc="http://creativecommons.org/ns#"
   xmlns:rdf="http://www.w3.org/1999/02/22-rdf-syntax-ns#"
   xmlns:svg="http://www.w3.org/2000/svg"
   xmlns="http://www.w3.org/2000/svg"
   xmlns:sodipodi="http://sodipodi.sourceforge.net/DTD/sodipodi-0.dtd"
   xmlns:inkscape="http://www.inkscape.org/namespaces/inkscape"
   version="1.1"
   id="Layer_1"
   x="0px"
   y="0px"
   width="92.125"
   height="92.125"
   viewBox="0 0 92.124999 92.125"
   enable-background="new 0 0 600 370"
   xml:space="preserve"
   inkscape:version="0.48.2 r9819"
   sodipodi:docname="Arachnid Labs Round Sticker.svg"
   inkscape:export-filename="C:\Users\nickjohnson\Google Drive\projects\arachnidlabs.github.com\resources\Arachnid Labs Round Sticker.png"
   inkscape:export-xdpi="599.83716"
   inkscape:export-ydpi="599.83716"><metadata
   id="metadata47"><rdf:RDF><cc:Work
       rdf:about=""><dc:format>image/svg+xml</dc:format><dc:type
         rdf:resource="http://purl.org/dc/dcmitype/StillImage" /><dc:title /></cc:Work></rdf:RDF></metadata><defs
   id="defs45">
	
	
	
	
	
	
	
</defs><sodipodi:namedview
   pagecolor="#ffffff"
   bordercolor="#666666"
   borderopacity="1"
   objecttolerance="10"
   gridtolerance="10"
   guidetolerance="10"
   inkscape:pageopacity="0"
   inkscape:pageshadow="2"
   inkscape:window-width="1920"
   inkscape:window-height="1087"
   id="namedview43"
   showgrid="false"
   inkscape:zoom="6.6049729"
   inkscape:cx="45.911099"
   inkscape:cy="53.52028"
   inkscape:window-x="0"
   inkscape:window-y="0"
   inkscape:window-maximized="1"
   inkscape:current-layer="Layer_1"
   fit-margin-top="0"
   fit-margin-left="0"
   fit-margin-right="0"
   fit-margin-bottom="0" />

<path
   style="fill:#ffffff;fill-opacity:1;fill-rule:evenodd;stroke:none;stroke-opacity:1"
   d="M 46.0625 0 C 20.622613 0 0 20.62261 0 46.0625 C 0 71.50239 20.622613 92.125 46.0625 92.125 C 71.50239 92.125 92.125 71.50239 92.125 46.0625 C 92.125 20.62261 71.50239 -4.7369516e-15 46.0625 0 z M 40.4375 11.4375 C 41.03459 11.4375 41.53125 11.90291 41.53125 12.5 C 41.53125 13.09709 41.034207 13.59375 40.4375 13.59375 C 39.840028 13.59375 39.375 13.09671 39.375 12.5 C 39.375 11.90253 39.840411 11.4375 40.4375 11.4375 z M 51.6875 11.4375 C 52.28536 11.4375 52.75 11.90291 52.75 12.5 C 52.75 13.09709 52.28497 13.59375 51.6875 13.59375 C 51.09079 13.59375 50.59375 13.09671 50.59375 12.5 C 50.59375 11.90253 51.09079 11.4375 51.6875 11.4375 z M 27.90625 12.21875 C 28.502956 12.21875 28.96875 12.71541 28.96875 13.3125 C 28.96875 13.90959 28.502956 14.375 27.90625 14.375 C 27.309159 14.375 26.8125 13.9092 26.8125 13.3125 C 26.812883 12.71502 27.309159 12.21875 27.90625 12.21875 z M 64.21875 12.21875 C 64.81661 12.21875 65.3125 12.71541 65.3125 13.3125 C 65.3125 13.90959 64.81623 14.375 64.21875 14.375 C 63.62205 14.375 63.15625 13.9092 63.15625 13.3125 C 63.15625 12.71541 63.62205 12.21875 64.21875 12.21875 z M 42.96875 56.1875 L 49.15625 56.1875 L 50.75 60.53125 L 50 62.15625 L 42.09375 62.15625 L 41.34375 60.53125 L 42.96875 56.1875 z M 22.03125 66.125 C 22.627957 66.125 23.125 66.62166 23.125 67.21875 C 23.125 67.81546 22.628341 68.28125 22.03125 68.28125 C 21.43416 68.28125 20.96875 67.81507 20.96875 67.21875 C 20.96875 66.62128 21.434543 66.125 22.03125 66.125 z M 70.09375 66.125 C 70.69123 66.125 71.15625 66.62166 71.15625 67.21875 C 71.15625 67.81546 70.69084 68.28125 70.09375 68.28125 C 69.49666 68.28125 69 67.81507 69 67.21875 C 69 66.62128 69.49705 66.125 70.09375 66.125 z M 35.125 78.53125 C 35.721707 78.53125 36.1875 79.02791 36.1875 79.625 C 36.1875 80.22171 35.721707 80.71875 35.125 80.71875 C 34.527528 80.71875 34.03125 80.22132 34.03125 79.625 C 34.03125 79.02753 34.527528 78.53125 35.125 78.53125 z M 57 78.53125 C 57.59671 78.53125 58.09375 79.02791 58.09375 79.625 C 58.09375 80.22171 57.59709 80.71875 57 80.71875 C 56.40291 80.71875 55.9375 80.22132 55.9375 79.625 C 55.9375 79.02753 56.40329 78.53125 57 78.53125 z "
   id="path2999" /><g
   inkscape:groupmode="layer"
   id="layer3"
   inkscape:label="Logo"
   style="display:inline"
   transform="translate(-186.92126,-205.375)" /><g
   inkscape:groupmode="layer"
   id="layer4"
   inkscape:label="Beaker"
   style="display:inline"
   transform="translate(-186.92126,-205.375)" />

<path
   id="path5"
   d="m 57.013789,78.53932 c 0.59671,0 1.07718,0.48009 1.07718,1.07718 0,0.59671 -0.48009,1.08914 -1.07718,1.08914 -0.59709,0 -1.08914,-0.49282 -1.08914,-1.08914 0,-0.59747 0.49243,-1.07718 1.08914,-1.07718 z m -21.902562,0 c 0.596707,0 1.089143,0.48009 1.089143,1.07718 0,0.59671 -0.492436,1.08914 -1.089143,1.08914 -0.597472,0 -1.077175,-0.49282 -1.077175,-1.08914 0,-0.59747 0.479703,-1.07718 1.077175,-1.07718 z M 70.083509,66.12787 c 0.59748,0 1.07718,0.48009 1.07718,1.07718 0,0.59671 -0.48009,1.07717 -1.07718,1.07717 -0.59709,0 -1.08914,-0.48085 -1.08914,-1.07717 0,-0.59747 0.49244,-1.07718 1.08914,-1.07718 z m -48.042005,0 c 0.596707,0 1.089145,0.48009 1.089145,1.07718 0,0.59671 -0.492054,1.07717 -1.089145,1.07717 -0.59709,0 -1.077175,-0.48085 -1.077175,-1.07717 0,-0.59747 0.480468,-1.07718 1.077175,-1.07718 z M 64.230859,12.23322 c 0.59786,0 1.08915,0.48009 1.08915,1.07718 0,0.59709 -0.49167,1.07717 -1.08915,1.07717 -0.5967,0 -1.07717,-0.48047 -1.07717,-1.07717 0,-0.59709 0.48047,-1.07718 1.07717,-1.07718 z m -36.336703,0 c 0.596706,0 1.077174,0.48009 1.077174,1.07718 0,0.59709 -0.480468,1.07717 -1.077174,1.07717 -0.597091,0 -1.089144,-0.48047 -1.089144,-1.07717 3.83e-4,-0.59748 0.492053,-1.07718 1.089144,-1.07718 z m 23.781633,-0.80189 c 0.59786,0 1.08914,0.48008 1.08914,1.07717 0,0.59709 -0.49167,1.08914 -1.08914,1.08914 -0.59671,0 -1.07717,-0.49243 -1.07717,-1.08914 0,-0.59747 0.48046,-1.07717 1.07717,-1.07717 z m -11.238531,0 c 0.59709,0 1.089146,0.48008 1.089146,1.07717 0,0.59709 -0.492439,1.08914 -1.089146,1.08914 -0.597472,0 -1.077174,-0.49243 -1.077174,-1.08914 0,-0.59747 0.480085,-1.07717 1.077174,-1.07717 z m 3.267441,34.34991 0.53858,0 3.63846,0 0.53859,0 0,0.93355 -0.53859,0 0.01195,3.11184 4.28476,11.03506 -1.10111,2.40569 -10.0297,0 -1.101112,-2.40569 4.284772,-11.03506 0,-3.11184 -0.52662,0 z m 12.75854,5.07469 1.20085,6.60667 4.95101,1.34048 -0.74205,13.45272 -3.94964,5.73297 c -0.27078,-0.15129 -0.57756,-0.23938 -0.90962,-0.23938 -1.03753,0 -1.87907,0.82957 -1.87907,1.86711 0,1.03677 0.84154,1.87907 1.87907,1.87907 1.03715,0 1.8671,-0.8423 1.8671,-1.87907 0,-0.3627 -0.0968,-0.69456 -0.27527,-0.98143 l 5.25422,-5.50556 1.71151,-15.53525 z M 40.449228,10.62943 c -1.037153,0 -1.879073,0.84192 -1.879073,1.87907 0,0.33972 0.09355,0.65894 0.251341,0.93355 l -7.31282,7.40857 0,12.7346 8.222434,9.63473 -0.562524,0.87371 -10.376785,-7.77959 -4.452323,-15.5592 2.980184,-5.66115 c 0.181157,0.05822 0.373803,0.09575 0.574494,0.09575 1.037151,0 1.867102,-0.8423 1.867102,-1.87907 0,-1.03715 -0.829951,-1.87907 -1.867102,-1.87907 -1.037153,0 -1.879073,0.84192 -1.879073,1.87907 0,0.48793 0.185849,0.92273 0.490713,1.2567 l -4.272794,5.64919 3.853893,17.21086 11.226556,9.57489 -0.08378,0.11968 -9.263704,-0.96946 -8.892678,10.36482 0.03589,0.70615 2.250098,8.2344 c -0.695135,0.27538 -1.196861,0.95385 -1.196861,1.74742 0,1.03677 0.84192,1.87907 1.879072,1.87907 1.037152,0 1.879072,-0.8423 1.879072,-1.87907 0,-1.00536 -0.791364,-1.81693 -1.783322,-1.8671 l -0.95749,-8.01897 7.528256,-8.40197 7.07345,1.28064 -0.131655,0.67025 -9.096145,6.72636 1.711532,15.53525 5.254219,5.50556 c -0.178093,0.28687 -0.287246,0.61873 -0.287246,0.98143 0,1.03677 0.841536,1.87907 1.879071,1.87907 1.03677,0 1.879072,-0.8423 1.879072,-1.87907 0,-1.03754 -0.842302,-1.86711 -1.879072,-1.86711 -0.332823,0 -0.63922,0.08809 -0.909614,0.23938 L 30.251974,72.2558 29.50992,58.80308 l 4.871226,-1.34048 5.565402,11.11884 6.115964,2.70491 6.10399,-2.70491 5.56541,-11.11884 -1.26867,-6.60667 -0.13166,-0.65828 7.08542,-1.28064 7.52825,8.40197 -0.95748,8.01897 c -0.99235,0.05017 -1.78333,0.86174 -1.78333,1.8671 0,1.03677 0.8423,1.87907 1.87907,1.87907 1.03716,0 1.86711,-0.8423 1.86711,-1.87907 0,-0.79318 -0.49014,-1.47204 -1.1849,-1.74742 l 2.2501,-8.2344 0.03589,-0.70615 -8.89268,-10.36482 -9.27567,0.96946 -0.07181,-0.11968 11.22655,-9.57489 3.8539,-17.21086 -4.2728,-5.64919 c 0.30487,-0.33397 0.49072,-0.76877 0.49072,-1.2567 0,-1.03715 -0.84154,-1.87907 -1.87908,-1.87907 -1.03638,0 -1.8671,0.84192 -1.8671,1.87907 0,1.03715 0.83072,1.87907 1.8671,1.87907 0.20069,0 0.39257,-0.03753 0.5745,-0.09575 l 2.98018,5.66115 -4.45232,15.5592 -10.38876,7.77959 -0.55055,-0.87371 c -1.11519,-1.72079 -0.67237,-1.0585 0,0 l 8.22245,-9.63473 0,-12.7346 -7.31282,-7.40857 c 0.1578,-0.27461 0.25134,-0.59422 0.25134,-0.93355 0,-1.03715 -0.84153,-1.87907 -1.87907,-1.87907 -1.03638,0 -1.8671,0.84192 -1.8671,1.87907 0,1.03715 0.83072,1.87907 1.8671,1.87907 0.30218,0 0.58464,-0.07669 0.8378,-0.20346 l 5.23029,7.28888 -0.62237,11.83695 -4.41642,4.73957 -2.10647,-3.90176 -0.01195,-0.07181 -9.024339,0 -2.142383,3.98554 -4.416437,-4.75154 -0.622367,-11.83695 5.230281,-7.28888 c 0.252778,0.12677 0.53562,0.20346 0.837804,0.20346 1.03677,0 1.867111,-0.8423 1.867111,-1.87907 0,-1.03715 -0.830341,-1.87907 -1.867111,-1.87907 z" /><g
   style="font-size:5px;font-style:normal;font-variant:normal;font-weight:normal;font-stretch:normal;text-align:center;line-height:125%;letter-spacing:0px;word-spacing:0px;text-anchor:middle;fill:#000000;fill-opacity:1;stroke:none;font-family:Orbitron;-inkscape-font-specification:Orbitron"
   id="text3820"><path
     d="M 21.688815,77.360097 22.124427,77.735578 19.405394,79.220421 19.072183,78.933206 19.740626,76.664308 17.636824,77.695981 17.632483,77.685591 17.63301,77.692693 17.303498,77.408666 18.333364,74.467824 18.76886,74.843206 18.106756,76.813782 19.995949,75.90091 20.461727,76.302393 19.875326,78.338222 z"
     style=""
     id="path3860" /><path
     d="M 25.769516,80.153459 26.248302,80.472062 23.73424,82.282419 23.368004,82.038712 23.750118,79.704465 21.790385,80.988902 21.78479,80.979131 21.786193,80.986113 21.424022,80.74511 22.081501,77.699311 22.560161,78.017829 22.147366,80.055267 23.908867,78.915311 24.420809,79.255977 24.091221,81.348784 z"
     style=""
     id="path3862" /><path
     d="M 30.164629,82.416507 30.679362,82.673012 28.410292,84.78233 28.016561,84.586124 28.105039,82.222464 26.320497,83.740931 26.313729,83.731932 26.31599,83.738685 25.926629,83.544656 26.199727,80.440692 26.714323,80.697129 26.558444,82.77011 28.164287,81.419684 28.714665,81.693952 28.648239,83.81151 z"
     style=""
     id="path3864" /><path
     d="M 30.483745,85.056946 30.279965,85.557029 29.779882,85.35325 29.983662,84.853167 z"
     style=""
     id="path3866" /><path
     d="M 33.881403,83.783762 C 34.051553,83.842646 34.175762,83.952638 34.254033,84.113738 34.332296,84.274841 34.342004,84.44042 34.283159,84.610476 L 33.547324,86.736817 31.373831,85.984665 C 31.203677,85.925782 31.079467,85.81579 31.001201,85.654688 30.922934,85.493587 30.913242,85.327959 30.972125,85.157806 L 31.322029,84.146691 33.599488,84.934821 33.772843,84.433878 C 33.782653,84.405521 33.780857,84.377584 33.767453,84.350069 33.754043,84.322556 33.73316,84.303893 33.704805,84.294077 L 31.531312,83.541926 31.70791,83.03161 z M 33.213607,86.049902 33.42289,85.445137 31.655746,84.833605 31.482441,85.334404 C 31.472627,85.362763 31.474415,85.390724 31.487806,85.418285 31.501195,85.445847 31.52207,85.464535 31.55043,85.474349 z"
     style=""
     id="path3868" /><path
     d="M 35.42547,84.240021 36.990315,84.659238 36.850576,85.180853 35.285731,84.761636 C 35.256743,84.753873 35.228988,84.757627 35.202466,84.772898 35.175942,84.788173 35.158797,84.810303 35.151033,84.839288 L 34.568781,87.012709 34.047166,86.87297 34.215374,86.245086 34.629418,84.699549 C 34.675984,84.525729 34.77682,84.394037 34.931928,84.304474 35.087034,84.214915 35.251548,84.193431 35.42547,84.240021 z"
     style=""
     id="path3870" /><path
     d="M 39.327782,85.120883 C 39.504577,85.15497 39.643167,85.246178 39.743554,85.394509 39.843933,85.542844 39.877092,85.705359 39.84303,85.882055 L 39.417088,88.091433 37.158716,87.656044 C 36.981918,87.621959 36.843327,87.530751 36.742944,87.382418 36.642561,87.234086 36.609412,87.07152 36.643497,86.894722 L 36.84604,85.844121 39.212438,86.300336 39.312786,85.77983 C 39.318464,85.750366 39.312712,85.722969 39.295532,85.69764 39.278345,85.672314 39.25502,85.65681 39.225557,85.651127 L 36.967185,85.215739 37.069411,84.685494 z M 38.989068,87.458963 39.110213,86.83058 37.27406,86.476591 37.173741,86.996947 C 37.168059,87.026414 37.173806,87.053835 37.190981,87.079212 37.208154,87.10459 37.231474,87.120119 37.260941,87.1258 z"
     style=""
     id="path3872" /><path
     d="M 40.629331,87.701612 42.915713,87.951132 42.857128,88.487954 40.570746,88.238434 C 40.391856,88.218911 40.246305,88.139326 40.134095,87.999681 40.021883,87.860035 39.975545,87.700717 39.995079,87.521725 L 40.168665,85.931133 C 40.188188,85.752245 40.267794,85.606723 40.407486,85.494565 40.547176,85.382413 40.706466,85.336097 40.885357,85.355617 L 43.161879,85.604061 43.103295,86.140882 40.826772,85.892438 C 40.796939,85.889185 40.770081,85.897126 40.746197,85.916262 40.722311,85.935403 40.708741,85.959888 40.705487,85.989718 L 40.5319,87.58031 C 40.528644,87.610143 40.53661,87.637004 40.5558,87.660893 40.574988,87.684784 40.599499,87.698357 40.629331,87.701612 z"
     style=""
     id="path3874" /><path
     d="M 45.782882,85.690872 C 45.959398,85.696039 46.109967,85.763795 46.234589,85.89414 46.359205,86.02449 46.418883,86.179602 46.413624,86.359474 L 46.347828,88.608573 45.80805,88.592782 45.873847,86.343683 C 45.874722,86.313689 45.864647,86.287571 45.843624,86.265328 45.822595,86.243089 45.797084,86.23153 45.767091,86.23065 L 44.117711,86.182398 C 44.087714,86.181523 44.061571,86.191571 44.039281,86.212542 44.01699,86.233519 44.005406,86.259003 44.004529,86.288997 L 43.938733,88.538096 43.398955,88.522305 43.511536,84.674007 44.051313,84.689797 44.023533,85.639403 z"
     style=""
     id="path3876" /><path
     d="M 48.892578,85.591009 C 49.072305,85.582083 49.228584,85.637721 49.361414,85.757923 49.494238,85.87813 49.565116,86.028098 49.574049,86.207825 L 49.6857,88.455115 49.146357,88.481911 49.034705,86.234621 C 49.033214,86.204652 49.021113,86.179408 48.998402,86.158891 48.975686,86.138379 48.949343,86.128866 48.919374,86.130353 L 47.271321,86.212232 C 47.241348,86.213724 47.216078,86.225801 47.195511,86.248464 47.174942,86.271131 47.165402,86.29745 47.166892,86.327419 L 47.278543,88.574708 46.7392,88.601504 46.595301,85.705144 z"
     style=""
     id="path3878" /><path
     d="M 50.198631,88.383919 49.902603,85.499136 50.43979,85.444011 50.735819,88.328795 z M 49.805624,84.554086 50.342812,84.498961 50.397937,85.036149 49.860749,85.091274 z"
     style=""
     id="path3880" /><path
     d="M 52.880355,84.143105 53.414007,84.060496 54.002963,87.865125 51.730077,88.216968 C 51.552142,88.244512 51.390909,88.205393 51.246378,88.09961 51.101846,87.993827 51.015809,87.851968 50.988264,87.674034 L 50.743494,86.09283 C 50.715966,85.914999 50.755093,85.753816 50.860876,85.609282 50.966659,85.464753 51.108517,85.378715 51.286452,85.351168 L 53.025685,85.081935 z M 51.647468,87.683315 53.27798,87.430912 C 53.307634,87.426322 53.331511,87.411664 53.349611,87.386936 53.367706,87.362209 53.37446,87.335018 53.369871,87.305361 L 53.125101,85.724158 C 53.120508,85.694505 53.105853,85.670653 53.081136,85.652603 53.056415,85.634558 53.029227,85.62783 52.999574,85.632418 L 51.369061,85.884821 C 51.339405,85.889414 51.315524,85.904047 51.297419,85.928722 51.279313,85.953401 51.272556,85.980567 51.277147,86.010221 L 51.521917,87.591424 C 51.526507,87.621081 51.541166,87.644957 51.565894,87.663055 51.59062,87.681153 51.617811,87.687907 51.647468,87.683315 z"
     style=""
     id="path3882" /><path
     d="M 54.044438,85.544328 53.709742,83.979845 54.237802,83.866875 54.907226,86.995991 C 54.913503,87.025336 54.929502,87.048337 54.955224,87.064991 54.980944,87.081647 55.008477,87.086836 55.037823,87.080557 L 55.565882,86.967587 55.678852,87.495647 55.150792,87.608617 C 54.974722,87.646284 54.811517,87.616442 54.661177,87.519091 54.510837,87.421741 54.416833,87.285031 54.379166,87.108961 z"
     style=""
     id="path3884" /><path
     d="M 57.443287,84.032908 C 57.616828,83.984931 57.781508,84.005101 57.937328,84.093417 58.093143,84.18174 58.195028,84.312623 58.242983,84.486065 L 58.842572,86.654767 56.625778,87.267652 C 56.452234,87.315632 56.287554,87.295462 56.131737,87.207142 55.97592,87.118823 55.874021,86.987891 55.826041,86.814348 L 55.540925,85.783089 57.863757,85.140887 57.7225,84.629964 C 57.714502,84.601043 57.697181,84.579051 57.670539,84.563987 57.643893,84.548929 57.616109,84.545397 57.587187,84.55339 L 55.370393,85.166276 55.226493,84.645793 z M 58.17819,86.278184 58.007657,85.66137 56.205308,86.159672 56.346524,86.670448 C 56.35452,86.699373 56.371847,86.72139 56.398506,86.736499 56.425163,86.75161 56.452954,86.755167 56.481878,86.747169 z"
     style=""
     id="path3886" /><path
     d="M 60.509758,82.977389 C 60.678781,82.915639 60.844527,82.922502 61.006994,82.997978 61.169458,83.07346 61.281568,83.195712 61.343323,83.364733 L 61.892397,84.867609 C 61.954182,85.03673 61.947303,85.202508 61.871762,85.364942 61.796215,85.527379 61.673931,85.639473 61.504909,85.701225 L 59.344472,86.490539 58.023312,82.874379 58.530529,82.689067 58.856538,83.581391 z M 61.38518,85.05292 60.836106,83.550044 C 60.825806,83.521861 60.806772,83.501333 60.779004,83.488461 60.751233,83.475596 60.723255,83.474311 60.69507,83.484606 L 59.145184,84.050854 C 59.116998,84.061155 59.096437,84.080174 59.083504,84.107911 59.07057,84.135652 59.069252,84.163615 59.07955,84.1918 L 59.628624,85.694675 C 59.638921,85.722863 59.657964,85.743414 59.685752,85.75633 59.713538,85.769247 59.741525,85.770556 59.769713,85.760257 L 61.319598,85.194008 C 61.347782,85.183712 61.368334,85.164669 61.381252,85.136881 61.394166,85.109095 61.395475,85.081108 61.38518,85.05292 z"
     style=""
     id="path3888" /><path
     d="M 64.181987,82.065877 64.227875,82.165866 63.737084,82.391106 63.691196,82.291117 C 63.678677,82.263847 63.658064,82.244905 63.629357,82.234293 63.600646,82.223688 63.572655,82.224642 63.545382,82.237155 L 62.045827,82.92535 C 62.018553,82.937869 61.999578,82.95847 61.988902,82.987151 61.978226,83.015838 61.979146,83.043817 61.991663,83.071088 L 62.166878,83.452877 C 62.179394,83.480152 62.200018,83.499117 62.228748,83.50977 62.257479,83.520427 62.285481,83.519496 62.312755,83.506977 L 63.81231,82.818783 C 63.975952,82.743684 64.141738,82.737273 64.309671,82.79955 64.477599,82.861832 64.599115,82.974794 64.674218,83.138435 L 64.84937,83.520084 C 64.924468,83.683729 64.930879,83.849516 64.868602,84.017445 64.80632,84.185377 64.693359,84.306892 64.529718,84.381993 L 63.030162,85.070187 C 62.866518,85.145289 62.700732,85.1517 62.532802,85.08942 62.364871,85.02714 62.243355,84.914179 62.168254,84.750535 L 62.122366,84.650546 62.613157,84.425306 62.659045,84.525295 C 62.671562,84.55257 62.692185,84.571534 62.720916,84.582189 62.749646,84.592844 62.777648,84.591914 62.804922,84.579396 L 64.304478,83.891201 C 64.331749,83.878686 64.350714,83.858062 64.361371,83.82933 64.372024,83.800602 64.371093,83.7726 64.358578,83.745324 L 64.183427,83.363675 C 64.170908,83.336403 64.150285,83.317438 64.121556,83.306781 64.092824,83.296128 64.064822,83.297059 64.03755,83.309574 L 62.537995,83.997769 C 62.374351,84.072871 62.208554,84.079259 62.040602,84.016932 61.872651,83.954607 61.751145,83.841669 61.676086,83.678117 L 61.500871,83.296328 C 61.425813,83.13278 61.419424,82.967039 61.481702,82.799106 61.543983,82.631179 61.656944,82.509663 61.820587,82.434559 L 63.320142,81.746364 C 63.483784,81.671267 63.649571,81.664856 63.817503,81.727132 63.985432,81.789415 64.106926,81.90233 64.181987,82.065877 z"
     style=""
     id="path3890" /><path
     d="M 65.789336,83.12878 66.040338,83.606909 65.562209,83.85791 65.311207,83.379781 z"
     style=""
     id="path3892" /><path
     d="M 66.791878,82.584872 68.768094,81.408277 69.044347,81.872275 67.068131,83.048869 C 66.913509,83.140927 66.749371,83.164954 66.575717,83.120948 66.402062,83.076943 66.26918,82.977586 66.17707,82.822876 L 65.358535,81.44806 C 65.266478,81.29344 65.242486,81.129311 65.286561,80.955672 65.330637,80.782038 65.429985,80.649191 65.584606,80.557129 L 67.5523,79.385609 67.828554,79.849606 65.86086,81.021127 C 65.835075,81.036481 65.818403,81.058986 65.810844,81.088642 65.803285,81.118302 65.807181,81.146024 65.822533,81.171807 L 66.641067,82.546623 C 66.656418,82.572408 66.678945,82.589067 66.708647,82.5966 66.738349,82.604134 66.766092,82.600224 66.791878,82.584872 z"
     style=""
     id="path3894" /><path
     d="M 68.335119,78.844358 69.679452,77.887777 C 69.826155,77.783391 69.987816,77.746078 70.164433,77.775838 70.341049,77.805605 70.481523,77.893797 70.585855,78.040415 L 71.513508,79.344093 C 71.617895,79.4908 71.655208,79.65246 71.625447,79.829075 71.595681,80.005694 71.507447,80.146197 71.360745,80.250585 L 70.016413,81.207166 C 69.869791,81.311497 69.708151,81.348796 69.531493,81.319061 69.354835,81.289328 69.214311,81.201109 69.109921,81.054404 L 68.182268,79.750726 C 68.077938,79.604106 68.040676,79.442473 68.070479,79.265824 68.100286,79.08918 68.188499,78.948692 68.335119,78.844358 z M 69.992532,78.327765 68.6482,79.284346 C 68.62375,79.301747 68.608963,79.325534 68.603841,79.355706 68.59872,79.385884 68.604859,79.413196 68.622256,79.437645 L 69.549909,80.741323 C 69.567307,80.765775 69.591115,80.780546 69.621331,80.785637 69.651547,80.79073 69.678881,80.784577 69.703332,80.767178 L 71.047665,79.810597 C 71.072114,79.7932 71.086885,79.769393 71.091979,79.739175 71.097069,79.70896 71.090916,79.681627 71.07352,79.657174 L 70.145867,78.353496 C 70.128467,78.329048 70.104675,78.314298 70.074489,78.309244 70.044301,78.304196 70.016982,78.31037 69.992532,78.327765 z"
     style=""
     id="path3896" /><path
     d="M 73.214572,74.955781 C 73.35031,74.837644 73.507519,74.784766 73.686199,74.797145 73.864875,74.809535 74.013286,74.883597 74.13143,75.019331 L 75.60864,76.716571 75.205106,77.067792 73.727895,75.370552 C 73.708192,75.34792 73.683073,75.335562 73.652539,75.333477 73.622002,75.331401 73.594188,75.34128 73.569098,75.363114 L 72.705401,76.114843 C 72.682764,76.134548 72.67037,76.159664 72.668218,76.190191 72.666066,76.220726 72.67484,76.247309 72.694542,76.269941 L 74.171753,77.967181 73.76442,78.321708 72.287209,76.624468 C 72.267508,76.601835 72.242389,76.589477 72.211854,76.587393 72.181318,76.585316 72.154732,76.594127 72.132096,76.613825 L 71.2646,77.368859 C 71.241965,77.388563 71.229571,77.413679 71.227418,77.444208 71.225266,77.474741 71.234041,77.501324 71.253741,77.523958 L 72.730952,79.221198 72.323619,79.575724 70.419754,77.388281 z"
     style=""
     id="path3898" /></g><path
   sodipodi:type="arc"
   style="fill:none;stroke:none;stroke-opacity:1"
   id="path3855"
   sodipodi:cx="1.6316071"
   sodipodi:cy="37.349621"
   sodipodi:rx="30.068186"
   sodipodi:ry="30.068186"
   d="M 31.699793,37.349621 A 30.068186,30.068186 0 1 1 -28.436579,37.349621 30.068186,30.068186 0 1 1 31.699793,37.349621 z"
   transform="matrix(0,-1.4141088,-1.4141088,0,98.87942,48.369277)" /></svg>