999
dxflib 2.2.0.0
  0
SECTION
  2
HEADER
  9
$ACADVER
  1
AC1015
  9
$HANDSEED
  5
FFFF
  9
$DIMASZ
 40
2.5
  9
$PLIMMIN
 10
0.0
 20
0.0
  9
$DIMEXE
 40
1.25
  9
$DIMGAP
 40
0.625
  9
$PLIMMAX
 10
210.0
 20
297.0
  9
$INSUNITS
 70
4
  9
$DIMSTYLE
  2
Standard
  9
$MEASUREMENT
 70
1
  9
$CLAYER
  8
Logo
  9
$DIMEXO
 40
0.625
  9
$DIMTXT
 40
2.5
  9
$CLAYER
  8
Logo
  0
ENDSEC
  0
SECTION
  2
TABLES
  0
TABLE
  2
VPORT
  5
8
100
AcDbSymbolTable
 70
1
  0
VPORT
  5
30
100
AcDbSymbolTableRecord
100
AcDbViewportTableRecord
  2
*Active
 70
0
 10
0.0
 20
0.0
 11
1.0
 21
1.0
 12
286.3055555555554861
 22
148.5
 13
0.0
 23
0.0
 14
10.0
 24
10.0
 15
10.0
 25
10.0
 16
0.0
 26
0.0
 36
1.0
 17
0.0
 27
0.0
 37
0.0
 40
297.0
 41
1.92798353909465
 42
50.0
 43
0.0
 44
0.0
 50
0.0
 51
0.0
 71
0
 72
100
 73
1
 74
3
 75
1
 76
1
 77
0
 78
0
281
0
 65
1
110
0.0
120
0.0
130
0.0
111
1.0
121
0.0
131
0.0
112
0.0
122
1.0
132
0.0
 79
0
146
0.0
  0
ENDTAB
  0
TABLE
  2
LTYPE
  5
5
100
AcDbSymbolTable
 70
21
  0
LTYPE
  5
14
100
AcDbSymbolTableRecord
100
AcDbLinetypeTableRecord
  2
ByBlock
 70
0
  3

 72
65
 73
0
 40
0.0
  0
LTYPE
  5
15
100
AcDbSymbolTableRecord
100
AcDbLinetypeTableRecord
  2
ByLayer
 70
0
  3

 72
65
 73
0
 40
0.0
  0
LTYPE
  5
16
100
AcDbSymbolTableRecord
100
AcDbLinetypeTableRecord
  2
CONTINUOUS
 70
0
  3
Solid line
 72
65
 73
0
 40
0.0
  0
LTYPE
  5
31
100
AcDbSymbolTableRecord
100
AcDbLinetypeTableRecord
  2
DOT
 70
0
  3
Dot . . . . . . . . . . . . . . . . . . . . . .
 72
65
 73
2
 40
6.3499999999999996
 49
0.0
 74
0
 49
-6.3499999999999996
 74
0
  0
LTYPE
  5
32
100
AcDbSymbolTableRecord
100
AcDbLinetypeTableRecord
  2
DOT2
 70
0
  3
Dot (.5x) .....................................
 72
65
 73
2
 40
3.1749999999999998
 49
0.0
 74
0
 49
-3.1749999999999998
 74
0
  0
LTYPE
  5
33
100
AcDbSymbolTableRecord
100
AcDbLinetypeTableRecord
  2
DOTX2
 70
0
  3
Dot (2x) .  .  .  .  .  .  .  .  .  .  .  .  .
 72
65
 73
2
 40
12.6999999999999993
 49
0.0
 74
0
 49
-12.6999999999999993
 74
0
  0
LTYPE
  5
34
100
AcDbSymbolTableRecord
100
AcDbLinetypeTableRecord
  2
DASHED
 70
0
  3
Dashed __ __ __ __ __ __ __ __ __ __ __ __ __ _
 72
65
 73
2
 40
19.0500000000000007
 49
12.6999999999999993
 74
0
 49
-6.3499999999999996
 74
0
  0
LTYPE
  5
35
100
AcDbSymbolTableRecord
100
AcDbLinetypeTableRecord
  2
DASHED2
 70
0
  3
Dashed (.5x) _ _ _ _ _ _ _ _ _ _ _ _ _ _ _ _ _
 72
65
 73
2
 40
9.5250000000000004
 49
6.3499999999999996
 74
0
 49
-3.1749999999999998
 74
0
  0
LTYPE
  5
36
100
AcDbSymbolTableRecord
100
AcDbLinetypeTableRecord
  2
DASHEDX2
 70
0
  3
Dashed (2x) ____  ____  ____  ____  ____  ___
 72
65
 73
2
 40
38.1000000000000014
 49
25.3999999999999986
 74
0
 49
-12.6999999999999993
 74
0
  0
LTYPE
  5
37
100
AcDbSymbolTableRecord
100
AcDbLinetypeTableRecord
  2
DASHDOT
 70
0
  3
Dash dot __ . __ . __ . __ . __ . __ . __ . __
 72
65
 73
4
 40
25.3999999999999986
 49
12.6999999999999993
 74
0
 49
-6.3499999999999996
 74
0
 49
0.0
 74
0
 49
-6.3499999999999996
 74
0
  0
LTYPE
  5
38
100
AcDbSymbolTableRecord
100
AcDbLinetypeTableRecord
  2
DASHDOT2
 70
0
  3
Dash dot (.5x) _._._._._._._._._._._._._._._.
 72
65
 73
4
 40
12.6999999999999993
 49
6.3499999999999996
 74
0
 49
-3.1749999999999998
 74
0
 49
0.0
 74
0
 49
-3.1749999999999998
 74
0
  0
LTYPE
  5
39
100
AcDbSymbolTableRecord
100
AcDbLinetypeTableRecord
  2
DASHDOTX2
 70
0
  3
Dash dot (2x) ____  .  ____  .  ____  .  ___
 72
65
 73
4
 40
50.7999999999999972
 49
25.3999999999999986
 74
0
 49
-12.6999999999999993
 74
0
 49
0.0
 74
0
 49
-12.6999999999999993
 74
0
  0
LTYPE
  5
3A
100
AcDbSymbolTableRecord
100
AcDbLinetypeTableRecord
  2
DIVIDE
 70
0
  3
Divide ____ . . ____ . . ____ . . ____ . . ____
 72
65
 73
6
 40
31.75
 49
12.6999999999999993
 74
0
 49
-6.3499999999999996
 74
0
 49
0.0
 74
0
 49
-6.3499999999999996
 74
0
 49
0.0
 74
0
 49
-6.3499999999999996
 74
0
  0
LTYPE
  5
3B
100
AcDbSymbolTableRecord
100
AcDbLinetypeTableRecord
  2
DIVIDE2
 70
0
  3
Divide (.5x) __..__..__..__..__..__..__..__.._
 72
65
 73
6
 40
15.875
 49
6.3499999999999996
 74
0
 49
-3.1749999999999998
 74
0
 49
0.0
 74
0
 49
-3.1749999999999998
 74
0
 49
0.0
 74
0
 49
-3.1749999999999998
 74
0
  0
LTYPE
  5
3C
100
AcDbSymbolTableRecord
100
AcDbLinetypeTableRecord
  2
DIVIDEX2
 70
0
  3
Divide (2x) ________  .  .  ________  .  .  _
 72
65
 73
6
 40
63.5
 49
25.3999999999999986
 74
0
 49
-12.6999999999999993
 74
0
 49
0.0
 74
0
 49
-12.6999999999999993
 74
0
 49
0.0
 74
0
 49
-12.6999999999999993
 74
0
  0
LTYPE
  5
3D
100
AcDbSymbolTableRecord
100
AcDbLinetypeTableRecord
  2
CENTER
 70
0
  3
Center ____ _ ____ _ ____ _ ____ _ ____ _ ____
 72
65
 73
4
 40
50.7999999999999972
 49
31.75
 74
0
 49
-6.3499999999999996
 74
0
 49
6.3499999999999996
 74
0
 49
-6.3499999999999996
 74
0
  0
LTYPE
  5
3E
100
AcDbSymbolTableRecord
100
AcDbLinetypeTableRecord
  2
CENTER2
 70
0
  3
Center (.5x) ___ _ ___ _ ___ _ ___ _ ___ _ ___
 72
65
 73
4
 40
28.5749999999999993
 49
19.0500000000000007
 74
0
 49
-3.1749999999999998
 74
0
 49
3.1749999999999998
 74
0
 49
-3.1749999999999998
 74
0
  0
LTYPE
  5
3F
100
AcDbSymbolTableRecord
100
AcDbLinetypeTableRecord
  2
CENTERX2
 70
0
  3
Center (2x) ________  __  ________  __  _____
 72
65
 73
4
 40
101.5999999999999943
 49
63.5
 74
0
 49
-12.6999999999999993
 74
0
 49
12.6999999999999993
 74
0
 49
-12.6999999999999993
 74
0
  0
LTYPE
  5
40
100
AcDbSymbolTableRecord
100
AcDbLinetypeTableRecord
  2
BORDER
 70
0
  3
Border __ __ . __ __ . __ __ . __ __ . __ __ .
 72
65
 73
6
 40
44.4500000000000028
 49
12.6999999999999993
 74
0
 49
-6.3499999999999996
 74
0
 49
12.6999999999999993
 74
0
 49
-6.3499999999999996
 74
0
 49
0.0
 74
0
 49
-6.3499999999999996
 74
0
  0
LTYPE
  5
41
100
AcDbSymbolTableRecord
100
AcDbLinetypeTableRecord
  2
BORDER2
 70
0
  3
Border (.5x) __.__.__.__.__.__.__.__.__.__.__.
 72
65
 73
6
 40
22.2250000000000014
 49
6.3499999999999996
 74
0
 49
-3.1749999999999998
 74
0
 49
6.3499999999999996
 74
0
 49
-3.1749999999999998
 74
0
 49
0.0
 74
0
 49
-3.1749999999999998
 74
0
  0
LTYPE
  5
42
100
AcDbSymbolTableRecord
100
AcDbLinetypeTableRecord
  2
BORDERX2
 70
0
  3
Border (2x) ____  ____  .  ____  ____  .  ___
 72
65
 73
6
 40
88.9000000000000057
 49
25.3999999999999986
 74
0
 49
-12.6999999999999993
 74
0
 49
25.3999999999999986
 74
0
 49
-12.6999999999999993
 74
0
 49
0.0
 74
0
 49
-12.6999999999999993
 74
0
  0
ENDTAB
  0
TABLE
  2
LAYER
  5
2
100
AcDbSymbolTable
 70
3
  0
LAYER
  5
10
100
AcDbSymbolTableRecord
100
AcDbLayerTableRecord
  2
0
 70
0
 62
7
420
16777215
  6
CONTINUOUS
390
F
  0
LAYER
  5
43
100
AcDbSymbolTableRecord
100
AcDbLayerTableRecord
  2
Logo
 70
0
 62
7
420
16777215
  6
CONTINUOUS
390
F
  0
LAYER
  5
44
100
AcDbSymbolTableRecord
100
AcDbLayerTableRecord
  2
Beaker
 70
0
 62
7
420
16777215
  6
CONTINUOUS
390
F
  0
ENDTAB
  0
TABLE
  2
STYLE
  5
3
100
AcDbSymbolTable
 70
1
  0
STYLE
  5
11
100
AcDbSymbolTableRecord
100
AcDbTextStyleTableRecord
  2
Standard
 70
0
 40
0.0
 41
0.75
 50
0.0
 71
0
 42
2.5
  3
txt
  4

  0
ENDTAB
  0
TABLE
  2
VIEW
  5
6
100
AcDbSymbolTable
 70
0
  0
ENDTAB
  0
TABLE
  2
UCS
  5
7
100
AcDbSymbolTable
 70
0
  0
ENDTAB
  0
TABLE
  2
APPID
  5
9
100
AcDbSymbolTable
 70
1
  0
APPID
  5
12
100
AcDbSymbolTableRecord
100
AcDbRegAppTableRecord
  2
ACAD
 70
0
  0
ENDTAB
  0
TABLE
  2
DIMSTYLE
  5
A
100
AcDbSymbolTable
 70
1
100
AcDbDimStyleTable
 71
0
  0
DIMSTYLE
105
27
100
AcDbSymbolTableRecord
100
AcDbDimStyleTableRecord
  2
Standard
 41
2.5
 42
0.625
 43
3.75
 44
1.25
 70
0
 73
0
 74
0
 77
1
 78
8
140
2.5
141
2.5
143
0.03937007874016
147
0.625
171
3
172
1
271
2
272
2
274
3
278
44
283
0
284
8
340
11
  0
ENDTAB
  0
TABLE
  2
BLOCK_RECORD
  5
1
100
AcDbSymbolTable
 70
1
  0
BLOCK_RECORD
  5
1F
100
AcDbSymbolTableRecord
100
AcDbBlockTableRecord
  2
*Model_Space
340
22
  0
BLOCK_RECORD
  5
1B
100
AcDbSymbolTableRecord
100
AcDbBlockTableRecord
  2
*Paper_Space
340
1E
  0
BLOCK_RECORD
  5
23
100
AcDbSymbolTableRecord
100
AcDbBlockTableRecord
  2
*Paper_Space0
340
26
  0
ENDTAB
  0
ENDSEC
  0
SECTION
  2
BLOCKS
  0
BLOCK
  5
20
100
AcDbEntity
  8
0
100
AcDbBlockBegin
  2
*Model_Space
 70
0
 10
0.0
 20
0.0
 30
0.0
  3
*Model_Space
  1

  0
ENDBLK
  5
21
100
AcDbEntity
  8
0
100
AcDbBlockEnd
  0
BLOCK
  5
1C
100
AcDbEntity
 67
1
  8
0
100
AcDbBlockBegin
  2
*Paper_Space
 70
0
 10
0.0
 20
0.0
 30
0.0
  3
*Paper_Space
  1

  0
ENDBLK
  5
1D
100
AcDbEntity
 67
1
  8
0
100
AcDbBlockEnd
  0
BLOCK
  5
24
100
AcDbEntity
  8
0
100
AcDbBlockBegin
  2
*Paper_Space0
 70
0
 10
0.0
 20
0.0
 30
0.0
  3
*Paper_Space0
  1

  0
ENDBLK
  5
25
100
AcDbEntity
  8
0
100
AcDbBlockEnd
  0
ENDSEC
  0
SECTION
  2
ENTITIES
  0
SPLINE
  5
45
  8
0
 62
7
420
16777215
370
-1
  6
ByLayer
100
AcDbEntity
100
AcDbSpline
 70
8
 71
3
 72
8
 73
4
 74
0
 40
0.0
 40
0.0
 40
0.0
 40
0.0
 40
1.0
 40
1.0
 40
1.0
 40
1.0
 10
27.7770119999999991
 20
63.1295829999999967
 30
0.0
 10
27.0127549999999985
 20
63.1295829999999967
 30
0.0
 10
26.39236
 20
62.5091880000000018
 30
0.0
 10
26.39236
 20
61.7449310000000011
 30
0.0
  0
SPLINE
  5
46
  8
0
 62
7
420
16777215
370
-1
  6
ByLayer
100
AcDbEntity
100
AcDbSpline
 70
8
 71
3
 72
8
 73
4
 74
0
 40
0.0
 40
0.0
 40
0.0
 40
0.0
 40
1.0
 40
1.0
 40
1.0
 40
1.0
 10
26.39236
 20
61.7449310000000011
 30
0.0
 10
26.39236
 20
61.4945990000000009
 30
0.0
 10
26.4612920000000003
 20
61.2593669999999975
 30
0.0
 10
26.5775679999999994
 20
61.0570140000000023
 30
0.0
  0
SPLINE
  5
47
  8
0
 62
7
420
16777215
370
-1
  6
ByLayer
100
AcDbEntity
100
AcDbSpline
 70
8
 71
3
 72
8
 73
4
 74
0
 40
0.0
 40
0.0
 40
0.0
 40
0.0
 40
1.0
 40
1.0
 40
1.0
 40
1.0
 10
18.1020819999999993
 20
59.839931
 30
0.0
 10
18.2355729999999987
 20
59.797032999999999
 30
0.0
 10
18.3775310000000012
 20
59.7693749999999966
 30
0.0
 10
18.5254149999999989
 20
59.7693749999999966
 30
0.0
  0
SPLINE
  5
48
  8
0
 62
7
420
16777215
370
-1
  6
ByLayer
100
AcDbEntity
100
AcDbSpline
 70
8
 71
3
 72
8
 73
4
 74
0
 40
0.0
 40
0.0
 40
0.0
 40
0.0
 40
1.0
 40
1.0
 40
1.0
 40
1.0
 10
18.5254149999999989
 20
59.7693749999999966
 30
0.0
 10
19.2896730000000005
 20
59.7693749999999966
 30
0.0
 10
19.901249
 20
60.3900519999999972
 30
0.0
 10
19.901249
 20
61.1540279999999967
 30
0.0
  0
SPLINE
  5
49
  8
0
 62
7
420
16777215
370
-1
  6
ByLayer
100
AcDbEntity
100
AcDbSpline
 70
8
 71
3
 72
8
 73
4
 74
0
 40
0.0
 40
0.0
 40
0.0
 40
0.0
 40
1.0
 40
1.0
 40
1.0
 40
1.0
 10
19.901249
 20
61.1540279999999967
 30
0.0
 10
19.901249
 20
61.9182860000000019
 30
0.0
 10
19.2896730000000005
 20
62.5386809999999969
 30
0.0
 10
18.5254149999999989
 20
62.5386809999999969
 30
0.0
  0
SPLINE
  5
4A
  8
0
 62
7
420
16777215
370
-1
  6
ByLayer
100
AcDbEntity
100
AcDbSpline
 70
8
 71
3
 72
8
 73
4
 74
0
 40
0.0
 40
0.0
 40
0.0
 40
0.0
 40
1.0
 40
1.0
 40
1.0
 40
1.0
 10
18.5254149999999989
 20
62.5386809999999969
 30
0.0
 10
17.7611570000000007
 20
62.5386809999999969
 30
0.0
 10
17.1407619999999987
 20
61.9182860000000019
 30
0.0
 10
17.1407619999999987
 20
61.1540279999999967
 30
0.0
  0
SPLINE
  5
4B
  8
0
 62
7
420
16777215
370
-1
  6
ByLayer
100
AcDbEntity
100
AcDbSpline
 70
8
 71
3
 72
8
 73
4
 74
0
 40
0.0
 40
0.0
 40
0.0
 40
0.0
 40
1.0
 40
1.0
 40
1.0
 40
1.0
 10
17.1407619999999987
 20
61.1540279999999967
 30
0.0
 10
17.1407619999999987
 20
60.7944770000000005
 30
0.0
 10
17.277711
 20
60.4740839999999977
 30
0.0
 10
17.5023599999999995
 20
60.2279860000000014
 30
0.0
  0
LWPOLYLINE
  5
4C
  8
0
 62
7
420
16777215
370
-1
  6
ByLayer
100
AcDbEntity
100
AcDbPolyline
 90
8
 70
0
 10
26.5775679999999994
 20
61.0570140000000023
 10
21.1888870000000011
 20
55.5977779999999981
 10
21.1888870000000011
 20
46.2138890000000018
 10
27.2478459999999991
 20
39.1142359999999982
 10
26.8333319999999986
 20
38.4704169999999976
 10
19.1868739999999995
 20
44.2030559999999966
 10
15.9060400000000008
 20
55.668332999999997
 10
18.1020819999999993
 20
59.839931
  0
SPLINE
  5
4D
  8
0
 62
7
420
16777215
370
-1
  6
ByLayer
100
AcDbEntity
100
AcDbSpline
 70
8
 71
3
 72
8
 73
4
 74
0
 40
0.0
 40
0.0
 40
0.0
 40
0.0
 40
1.0
 40
1.0
 40
1.0
 40
1.0
 10
13.7099840000000004
 20
22.7277079999999998
 30
0.0
 10
13.1977510000000002
 20
22.5247910000000005
 30
0.0
 10
12.8280399999999997
 20
22.0248339999999985
 30
0.0
 10
12.8280399999999997
 20
21.4400690000000012
 30
0.0
  0
SPLINE
  5
4E
  8
0
 62
7
420
16777215
370
-1
  6
ByLayer
100
AcDbEntity
100
AcDbSpline
 70
8
 71
3
 72
8
 73
4
 74
0
 40
0.0
 40
0.0
 40
0.0
 40
0.0
 40
1.0
 40
1.0
 40
1.0
 40
1.0
 10
12.8280399999999997
 20
21.4400690000000012
 30
0.0
 10
12.8280399999999997
 20
20.6760939999999991
 30
0.0
 10
13.4484349999999999
 20
20.0554169999999985
 30
0.0
 10
14.2126929999999998
 20
20.0554169999999985
 30
0.0
  0
SPLINE
  5
4F
  8
0
 62
7
420
16777215
370
-1
  6
ByLayer
100
AcDbEntity
100
AcDbSpline
 70
8
 71
3
 72
8
 73
4
 74
0
 40
0.0
 40
0.0
 40
0.0
 40
0.0
 40
1.0
 40
1.0
 40
1.0
 40
1.0
 10
14.2126929999999998
 20
20.0554169999999985
 30
0.0
 10
14.9769509999999997
 20
20.0554169999999985
 30
0.0
 10
15.5973459999999999
 20
20.6760939999999991
 30
0.0
 10
15.5973459999999999
 20
21.4400690000000012
 30
0.0
  0
SPLINE
  5
50
  8
0
 62
7
420
16777215
370
-1
  6
ByLayer
100
AcDbEntity
100
AcDbSpline
 70
8
 71
3
 72
8
 73
4
 74
0
 40
0.0
 40
0.0
 40
0.0
 40
0.0
 40
1.0
 40
1.0
 40
1.0
 40
1.0
 10
15.5973459999999999
 20
21.4400690000000012
 30
0.0
 10
15.5973459999999999
 20
22.1809030000000007
 30
0.0
 10
15.0142039999999994
 20
22.7789320000000011
 30
0.0
 10
14.2832480000000004
 20
22.8159029999999987
 30
0.0
  0
LWPOLYLINE
  5
51
  8
0
 62
7
420
16777215
370
-1
  6
ByLayer
100
AcDbEntity
100
AcDbPolyline
 90
9
 70
0
 10
17.5023599999999995
 20
60.2279860000000014
 10
14.3538180000000004
 20
56.0652079999999984
 10
17.1936789999999995
 20
43.3828469999999982
 10
25.4663180000000011
 20
36.3272919999999999
 10
25.4045820000000013
 20
36.239097000000001
 10
18.5783319999999996
 20
36.9534719999999979
 10
12.0254849999999998
 20
29.3158330000000014
 10
12.0519289999999994
 20
28.7954860000000004
 10
13.7099840000000004
 20
22.7277079999999998
  0
SPLINE
  5
52
  8
0
 62
7
420
16777215
370
-1
  6
ByLayer
100
AcDbEntity
100
AcDbSpline
 70
8
 71
3
 72
8
 73
4
 74
0
 40
0.0
 40
0.0
 40
0.0
 40
0.0
 40
1.0
 40
1.0
 40
1.0
 40
1.0
 10
22.6705539999999992
 20
13.0175000000000001
 30
0.0
 10
22.539321000000001
 20
12.8061159999999994
 30
0.0
 10
22.4588870000000007
 20
12.5615699999999997
 30
0.0
 10
22.4588870000000007
 20
12.2943060000000006
 30
0.0
  0
SPLINE
  5
53
  8
0
 62
7
420
16777215
370
-1
  6
ByLayer
100
AcDbEntity
100
AcDbSpline
 70
8
 71
3
 72
8
 73
4
 74
0
 40
0.0
 40
0.0
 40
0.0
 40
0.0
 40
1.0
 40
1.0
 40
1.0
 40
1.0
 10
22.4588870000000007
 20
12.2943060000000006
 30
0.0
 10
22.4588870000000007
 20
11.5303299999999993
 30
0.0
 10
23.0790000000000006
 20
10.9096530000000005
 30
0.0
 10
23.8435400000000008
 20
10.9096530000000005
 30
0.0
  0
SPLINE
  5
54
  8
0
 62
7
420
16777215
370
-1
  6
ByLayer
100
AcDbEntity
100
AcDbSpline
 70
8
 71
3
 72
8
 73
4
 74
0
 40
0.0
 40
0.0
 40
0.0
 40
0.0
 40
1.0
 40
1.0
 40
1.0
 40
1.0
 10
23.8435400000000008
 20
10.9096530000000005
 30
0.0
 10
24.6075160000000004
 20
10.9096530000000005
 30
0.0
 10
25.228193000000001
 20
11.5303299999999993
 30
0.0
 10
25.228193000000001
 20
12.2943060000000006
 30
0.0
  0
SPLINE
  5
55
  8
0
 62
7
420
16777215
370
-1
  6
ByLayer
100
AcDbEntity
100
AcDbSpline
 70
8
 71
3
 72
8
 73
4
 74
0
 40
0.0
 40
0.0
 40
0.0
 40
0.0
 40
1.0
 40
1.0
 40
1.0
 40
1.0
 10
25.228193000000001
 20
12.2943060000000006
 30
0.0
 10
25.228193000000001
 20
13.0588460000000008
 30
0.0
 10
24.6075160000000004
 20
13.6701390000000007
 30
0.0
 10
23.8435400000000008
 20
13.6701390000000007
 30
0.0
  0
SPLINE
  5
56
  8
0
 62
7
420
16777215
370
-1
  6
ByLayer
100
AcDbEntity
100
AcDbSpline
 70
8
 71
3
 72
8
 73
4
 74
0
 40
0.0
 40
0.0
 40
0.0
 40
0.0
 40
1.0
 40
1.0
 40
1.0
 40
1.0
 10
23.8435400000000008
 20
13.6701390000000007
 30
0.0
 10
23.5982890000000012
 20
13.6701390000000007
 30
0.0
 10
23.3725109999999994
 20
13.6052280000000003
 30
0.0
 10
23.1732620000000011
 20
13.4937500000000004
 30
0.0
  0
LWPOLYLINE
  5
57
  8
0
 62
7
420
16777215
370
-1
  6
ByLayer
100
AcDbEntity
100
AcDbPolyline
 90
8
 70
0
 10
14.2832480000000004
 20
22.8159029999999987
 10
13.577693
 20
28.7249310000000015
 10
19.1251229999999985
 20
34.9161810000000017
 10
24.337415
 20
33.9724999999999966
 10
24.2404009999999985
 20
33.4786110000000008
 10
17.537623
 20
28.5220829999999985
 10
18.7988180000000007
 20
17.0744439999999997
 10
22.6705539999999992
 20
13.0175000000000001
  0
SPLINE
  5
58
  8
0
 62
7
420
16777215
370
-1
  6
ByLayer
100
AcDbEntity
100
AcDbSpline
 70
8
 71
3
 72
8
 73
4
 74
0
 40
0.0
 40
0.0
 40
0.0
 40
0.0
 40
1.0
 40
1.0
 40
1.0
 40
1.0
 10
49.5434029999999979
 20
22.8159029999999987
 30
0.0
 10
48.8121650000000002
 20
22.7789320000000011
 30
0.0
 10
48.2293060000000011
 20
22.1809030000000007
 30
0.0
 10
48.2293060000000011
 20
21.4400690000000012
 30
0.0
  0
SPLINE
  5
59
  8
0
 62
7
420
16777215
370
-1
  6
ByLayer
100
AcDbEntity
100
AcDbSpline
 70
8
 71
3
 72
8
 73
4
 74
0
 40
0.0
 40
0.0
 40
0.0
 40
0.0
 40
1.0
 40
1.0
 40
1.0
 40
1.0
 10
48.2293060000000011
 20
21.4400690000000012
 30
0.0
 10
48.2293060000000011
 20
20.6760939999999991
 30
0.0
 10
48.8499830000000017
 20
20.0554169999999985
 30
0.0
 10
49.6139579999999967
 20
20.0554169999999985
 30
0.0
  0
SPLINE
  5
5A
  8
0
 62
7
420
16777215
370
-1
  6
ByLayer
100
AcDbEntity
100
AcDbSpline
 70
8
 71
3
 72
8
 73
4
 74
0
 40
0.0
 40
0.0
 40
0.0
 40
0.0
 40
1.0
 40
1.0
 40
1.0
 40
1.0
 10
49.6139579999999967
 20
20.0554169999999985
 30
0.0
 10
50.3782160000000019
 20
20.0554169999999985
 30
0.0
 10
50.9897920000000013
 20
20.6760939999999991
 30
0.0
 10
50.9897920000000013
 20
21.4400690000000012
 30
0.0
  0
SPLINE
  5
5B
  8
0
 62
7
420
16777215
370
-1
  6
ByLayer
100
AcDbEntity
100
AcDbSpline
 70
8
 71
3
 72
8
 73
4
 74
0
 40
0.0
 40
0.0
 40
0.0
 40
0.0
 40
1.0
 40
1.0
 40
1.0
 40
1.0
 10
50.9897920000000013
 20
21.4400690000000012
 30
0.0
 10
50.9897920000000013
 20
22.0245519999999999
 30
0.0
 10
50.628618000000003
 20
22.5247910000000005
 30
0.0
 10
50.1166669999999996
 20
22.7277079999999998
 30
0.0
  0
LWPOLYLINE
  5
5C
  8
0
 62
7
420
16777215
370
-1
  6
ByLayer
100
AcDbEntity
100
AcDbPolyline
 90
13
 70
0
 10
23.1732620000000011
 20
13.4937500000000004
 10
20.2628459999999997
 20
17.7182640000000013
 10
19.7160399999999996
 20
27.6313190000000013
 10
23.3055540000000008
 20
28.619097
 10
27.4065960000000004
 20
20.4258330000000008
 10
31.9133330000000015
 20
18.4326390000000018
 10
36.4112500000000026
 20
20.4258330000000008
 10
40.5122920000000022
 20
28.619097
 10
39.5774309999999971
 20
33.4874310000000008
 10
39.4804170000000028
 20
33.9724999999999966
 10
44.7015280000000033
 20
34.9161810000000017
 10
50.2489580000000018
 20
28.7249310000000015
 10
49.5434029999999979
 20
22.8159029999999987
  0
SPLINE
  5
5D
  8
0
 62
7
420
16777215
370
-1
  6
ByLayer
100
AcDbEntity
100
AcDbSpline
 70
8
 71
3
 72
8
 73
4
 74
0
 40
0.0
 40
0.0
 40
0.0
 40
0.0
 40
1.0
 40
1.0
 40
1.0
 40
1.0
 10
46.3242910000000023
 20
60.2279860000000014
 30
0.0
 10
46.5489400000000018
 20
60.4740839999999977
 30
0.0
 10
46.6858890000000031
 20
60.7944770000000005
 30
0.0
 10
46.6858890000000031
 20
61.1540279999999967
 30
0.0
  0
SPLINE
  5
5E
  8
0
 62
7
420
16777215
370
-1
  6
ByLayer
100
AcDbEntity
100
AcDbSpline
 70
8
 71
3
 72
8
 73
4
 74
0
 40
0.0
 40
0.0
 40
0.0
 40
0.0
 40
1.0
 40
1.0
 40
1.0
 40
1.0
 10
46.6858890000000031
 20
61.1540279999999967
 30
0.0
 10
46.6858890000000031
 20
61.9182860000000019
 30
0.0
 10
46.0657759999999996
 20
62.5386809999999969
 30
0.0
 10
45.3012360000000029
 20
62.5386809999999969
 30
0.0
  0
SPLINE
  5
5F
  8
0
 62
7
420
16777215
370
-1
  6
ByLayer
100
AcDbEntity
100
AcDbSpline
 70
8
 71
3
 72
8
 73
4
 74
0
 40
0.0
 40
0.0
 40
0.0
 40
0.0
 40
1.0
 40
1.0
 40
1.0
 40
1.0
 10
45.3012360000000029
 20
62.5386809999999969
 30
0.0
 10
44.5375429999999994
 20
62.5386809999999969
 30
0.0
 10
43.9254030000000029
 20
61.9182860000000019
 30
0.0
 10
43.9254030000000029
 20
61.1540279999999967
 30
0.0
  0
SPLINE
  5
60
  8
0
 62
7
420
16777215
370
-1
  6
ByLayer
100
AcDbEntity
100
AcDbSpline
 70
8
 71
3
 72
8
 73
4
 74
0
 40
0.0
 40
0.0
 40
0.0
 40
0.0
 40
1.0
 40
1.0
 40
1.0
 40
1.0
 10
43.9254030000000029
 20
61.1540279999999967
 30
0.0
 10
43.9254030000000029
 20
60.3897699999999986
 30
0.0
 10
44.5375429999999994
 20
59.7693749999999966
 30
0.0
 10
45.3012360000000029
 20
59.7693749999999966
 30
0.0
  0
SPLINE
  5
61
  8
0
 62
7
420
16777215
370
-1
  6
ByLayer
100
AcDbEntity
100
AcDbSpline
 70
8
 71
3
 72
8
 73
4
 74
0
 40
0.0
 40
0.0
 40
0.0
 40
0.0
 40
1.0
 40
1.0
 40
1.0
 40
1.0
 10
45.3012360000000029
 20
59.7693749999999966
 30
0.0
 10
45.4491200000000006
 20
59.7693749999999966
 30
0.0
 10
45.5905139999999989
 20
59.797032999999999
 30
0.0
 10
45.7245690000000025
 20
59.839931
 30
0.0
  0
LWPOLYLINE
  5
62
  8
0
 62
7
420
16777215
370
-1
  6
ByLayer
100
AcDbEntity
100
AcDbPolyline
 90
9
 70
0
 10
50.1166669999999996
 20
22.7277079999999998
 10
51.774721999999997
 20
28.7954860000000004
 10
51.801166000000002
 20
29.3158330000000014
 10
45.2483190000000022
 20
36.9534719999999979
 10
38.4132499999999979
 20
36.239097000000001
 10
38.3603329999999971
 20
36.3272919999999999
 10
46.6329720000000023
 20
43.3828469999999982
 10
49.4728330000000014
 20
56.0652079999999984
 10
46.3242910000000023
 20
60.2279860000000014
  0
SPLINE
  5
63
  8
0
 62
7
420
16777215
370
-1
  6
ByLayer
100
AcDbEntity
100
AcDbSpline
 70
8
 71
3
 72
8
 73
4
 74
0
 40
0.0
 40
0.0
 40
0.0
 40
0.0
 40
1.0
 40
1.0
 40
1.0
 40
1.0
 10
36.5788050000000027
 20
39.1142359999999982
 30
0.0
 10
35.757044999999998
 20
40.3822550000000007
 30
0.0
 10
36.0833470000000034
 20
39.8942279999999982
 30
0.0
 10
36.5788050000000027
 20
39.1142359999999982
 30
0.0
  0
SPLINE
  5
64
  8
0
 62
7
420
16777215
370
-1
  6
ByLayer
100
AcDbEntity
100
AcDbSpline
 70
8
 71
3
 72
8
 73
4
 74
0
 40
0.0
 40
0.0
 40
0.0
 40
0.0
 40
1.0
 40
1.0
 40
1.0
 40
1.0
 10
37.249096999999999
 20
61.0570140000000023
 30
0.0
 10
37.3653729999999982
 20
61.2593669999999975
 30
0.0
 10
37.4343059999999994
 20
61.4948819999999969
 30
0.0
 10
37.4343059999999994
 20
61.7449310000000011
 30
0.0
  0
SPLINE
  5
65
  8
0
 62
7
420
16777215
370
-1
  6
ByLayer
100
AcDbEntity
100
AcDbSpline
 70
8
 71
3
 72
8
 73
4
 74
0
 40
0.0
 40
0.0
 40
0.0
 40
0.0
 40
1.0
 40
1.0
 40
1.0
 40
1.0
 10
37.4343059999999994
 20
61.7449310000000011
 30
0.0
 10
37.4343059999999994
 20
62.5091880000000018
 30
0.0
 10
36.8141930000000031
 20
63.1295829999999967
 30
0.0
 10
36.0496529999999993
 20
63.1295829999999967
 30
0.0
  0
SPLINE
  5
66
  8
0
 62
7
420
16777215
370
-1
  6
ByLayer
100
AcDbEntity
100
AcDbSpline
 70
8
 71
3
 72
8
 73
4
 74
0
 40
0.0
 40
0.0
 40
0.0
 40
0.0
 40
1.0
 40
1.0
 40
1.0
 40
1.0
 10
36.0496529999999993
 20
63.1295829999999967
 30
0.0
 10
35.2859589999999983
 20
63.1295829999999967
 30
0.0
 10
34.6738190000000017
 20
62.5091880000000018
 30
0.0
 10
34.6738190000000017
 20
61.7449310000000011
 30
0.0
  0
SPLINE
  5
67
  8
0
 62
7
420
16777215
370
-1
  6
ByLayer
100
AcDbEntity
100
AcDbSpline
 70
8
 71
3
 72
8
 73
4
 74
0
 40
0.0
 40
0.0
 40
0.0
 40
0.0
 40
1.0
 40
1.0
 40
1.0
 40
1.0
 10
34.6738190000000017
 20
61.7449310000000011
 30
0.0
 10
34.6738190000000017
 20
60.980673000000003
 30
0.0
 10
35.2859589999999983
 20
60.360278000000001
 30
0.0
 10
36.0496529999999993
 20
60.360278000000001
 30
0.0
  0
SPLINE
  5
68
  8
0
 62
7
420
16777215
370
-1
  6
ByLayer
100
AcDbEntity
100
AcDbSpline
 70
8
 71
3
 72
8
 73
4
 74
0
 40
0.0
 40
0.0
 40
0.0
 40
0.0
 40
1.0
 40
1.0
 40
1.0
 40
1.0
 10
36.0496529999999993
 20
60.360278000000001
 30
0.0
 10
36.2723259999999996
 20
60.360278000000001
 30
0.0
 10
36.4804650000000024
 20
60.4167929999999984
 30
0.0
 10
36.6670140000000018
 20
60.5102079999999987
 30
0.0
  0
LWPOLYLINE
  5
69
  8
0
 62
7
420
16777215
370
-1
  6
ByLayer
100
AcDbEntity
100
AcDbPolyline
 90
8
 70
0
 10
45.7245690000000025
 20
59.839931
 10
47.920611000000001
 20
55.668332999999997
 10
44.6397779999999997
 20
44.2030559999999966
 10
36.984499999999997
 20
38.4704169999999976
 10
36.5788050000000027
 20
39.1142359999999982
 10
42.6377779999999973
 20
46.2138890000000018
 10
42.6377779999999973
 20
55.5977779999999981
 10
37.249096999999999
 20
61.0570140000000023
  0
SPLINE
  5
6A
  8
0
 62
7
420
16777215
370
-1
  6
ByLayer
100
AcDbEntity
100
AcDbSpline
 70
8
 71
3
 72
8
 73
4
 74
0
 40
0.0
 40
0.0
 40
0.0
 40
0.0
 40
1.0
 40
1.0
 40
1.0
 40
1.0
 10
27.1596510000000002
 20
60.5102079999999987
 30
0.0
 10
27.3459180000000011
 20
60.4167929999999984
 30
0.0
 10
27.5543389999999988
 20
60.360278000000001
 30
0.0
 10
27.7770119999999991
 20
60.360278000000001
 30
0.0
  0
SPLINE
  5
6B
  8
0
 62
7
420
16777215
370
-1
  6
ByLayer
100
AcDbEntity
100
AcDbSpline
 70
8
 71
3
 72
8
 73
4
 74
0
 40
0.0
 40
0.0
 40
0.0
 40
0.0
 40
1.0
 40
1.0
 40
1.0
 40
1.0
 10
27.7770119999999991
 20
60.360278000000001
 30
0.0
 10
28.5409889999999997
 20
60.360278000000001
 30
0.0
 10
29.1528470000000013
 20
60.9809550000000016
 30
0.0
 10
29.1528470000000013
 20
61.7449310000000011
 30
0.0
  0
SPLINE
  5
6C
  8
0
 62
7
420
16777215
370
-1
  6
ByLayer
100
AcDbEntity
100
AcDbSpline
 70
8
 71
3
 72
8
 73
4
 74
0
 40
0.0
 40
0.0
 40
0.0
 40
0.0
 40
1.0
 40
1.0
 40
1.0
 40
1.0
 10
29.1528470000000013
 20
61.7449310000000011
 30
0.0
 10
29.1528470000000013
 20
62.5091880000000018
 30
0.0
 10
28.5409889999999997
 20
63.1295829999999967
 30
0.0
 10
27.7770119999999991
 20
63.1295829999999967
 30
0.0
  0
LWPOLYLINE
  5
6D
  8
0
 62
7
420
16777215
370
-1
  6
ByLayer
100
AcDbEntity
100
AcDbPolyline
 90
11
 70
0
 10
36.6670140000000018
 20
60.5102079999999987
 10
40.5211109999999977
 20
55.1391670000000005
 10
40.0625
 20
46.4167360000000002
 10
36.8081249999999969
 20
42.9242360000000005
 10
35.2559030000000035
 20
45.7993749999999977
 10
35.2470969999999966
 20
45.8522919999999985
 10
28.5972359999999988
 20
45.8522919999999985
 10
27.0185540000000017
 20
42.9154169999999979
 10
23.7641649999999984
 20
46.4167360000000002
 10
23.3055540000000008
 20
55.1391670000000005
 10
27.1596510000000002
 20
60.5102079999999987
  0
LWPOLYLINE
  5
6E
  8
0
 62
7
420
16777215
370
-1
  6
ByLayer
100
AcDbEntity
100
AcDbPolyline
 90
2
 70
0
 10
27.7770119999999991
 20
63.1295829999999967
 10
27.7770119999999991
 20
63.1295829999999967
  0
SPLINE
  5
6F
  8
0
 62
7
420
16777215
370
-1
  6
ByLayer
100
AcDbEntity
100
AcDbSpline
 70
8
 71
3
 72
8
 73
4
 74
0
 40
0.0
 40
0.0
 40
0.0
 40
0.0
 40
1.0
 40
1.0
 40
1.0
 40
1.0
 10
40.6534029999999973
 20
13.4937500000000004
 30
0.0
 10
40.4538719999999969
 20
13.6052280000000003
 30
0.0
 10
40.2278120000000001
 20
13.6701390000000007
 30
0.0
 10
39.9831250000000011
 20
13.6701390000000007
 30
0.0
  0
SPLINE
  5
70
  8
0
 62
7
420
16777215
370
-1
  6
ByLayer
100
AcDbEntity
100
AcDbSpline
 70
8
 71
3
 72
8
 73
4
 74
0
 40
0.0
 40
0.0
 40
0.0
 40
0.0
 40
1.0
 40
1.0
 40
1.0
 40
1.0
 10
39.9831250000000011
 20
13.6701390000000007
 30
0.0
 10
39.2185849999999974
 20
13.6701390000000007
 30
0.0
 10
38.598472000000001
 20
13.0588460000000008
 30
0.0
 10
38.598472000000001
 20
12.2943060000000006
 30
0.0
  0
SPLINE
  5
71
  8
0
 62
7
420
16777215
370
-1
  6
ByLayer
100
AcDbEntity
100
AcDbSpline
 70
8
 71
3
 72
8
 73
4
 74
0
 40
0.0
 40
0.0
 40
0.0
 40
0.0
 40
1.0
 40
1.0
 40
1.0
 40
1.0
 10
38.598472000000001
 20
12.2943060000000006
 30
0.0
 10
38.598472000000001
 20
11.5303299999999993
 30
0.0
 10
39.2185849999999974
 20
10.9096530000000005
 30
0.0
 10
39.9831250000000011
 20
10.9096530000000005
 30
0.0
  0
SPLINE
  5
72
  8
0
 62
7
420
16777215
370
-1
  6
ByLayer
100
AcDbEntity
100
AcDbSpline
 70
8
 71
3
 72
8
 73
4
 74
0
 40
0.0
 40
0.0
 40
0.0
 40
0.0
 40
1.0
 40
1.0
 40
1.0
 40
1.0
 10
39.9831250000000011
 20
10.9096530000000005
 30
0.0
 10
40.7473829999999992
 20
10.9096530000000005
 30
0.0
 10
41.3589580000000012
 20
11.5303299999999993
 30
0.0
 10
41.3589580000000012
 20
12.2943060000000006
 30
0.0
  0
SPLINE
  5
73
  8
0
 62
7
420
16777215
370
-1
  6
ByLayer
100
AcDbEntity
100
AcDbSpline
 70
8
 71
3
 72
8
 73
4
 74
0
 40
0.0
 40
0.0
 40
0.0
 40
0.0
 40
1.0
 40
1.0
 40
1.0
 40
1.0
 10
41.3589580000000012
 20
12.2943060000000006
 30
0.0
 10
41.3589580000000012
 20
12.5615699999999997
 30
0.0
 10
41.2876270000000005
 20
12.8061159999999994
 30
0.0
 10
41.1561110000000028
 20
13.0175000000000001
 30
0.0
  0
LWPOLYLINE
  5
74
  8
0
 62
7
420
16777215
370
-1
  6
ByLayer
100
AcDbEntity
100
AcDbPolyline
 90
5
 70
0
 10
39.5774309999999971
 20
33.4874310000000008
 10
40.4623160000000013
 20
28.619097
 10
44.1106249999999989
 20
27.6313190000000013
 10
43.5638190000000023
 20
17.7182640000000013
 10
40.6534029999999973
 20
13.4937500000000004
  0
SPLINE
  5
75
  8
0
 62
7
420
16777215
370
-1
  6
ByLayer
100
AcDbEntity
100
AcDbSpline
 70
8
 71
3
 72
8
 73
4
 74
0
 40
0.0
 40
0.0
 40
0.0
 40
0.0
 40
1.0
 40
1.0
 40
1.0
 40
1.0
 10
27.7681930000000001
 20
62.5386809999999969
 30
0.0
 10
28.2081769999999992
 20
62.5386809999999969
 30
0.0
 10
28.5707640000000005
 20
62.1849149999999966
 30
0.0
 10
28.5707640000000005
 20
61.7449310000000011
 30
0.0
  0
SPLINE
  5
76
  8
0
 62
7
420
16777215
370
-1
  6
ByLayer
100
AcDbEntity
100
AcDbSpline
 70
8
 71
3
 72
8
 73
4
 74
0
 40
0.0
 40
0.0
 40
0.0
 40
0.0
 40
1.0
 40
1.0
 40
1.0
 40
1.0
 10
28.5707640000000005
 20
61.7449310000000011
 30
0.0
 10
28.5707640000000005
 20
61.304946000000001
 30
0.0
 10
28.2078950000000006
 20
60.9423609999999982
 30
0.0
 10
27.7681930000000001
 20
60.9423609999999982
 30
0.0
  0
SPLINE
  5
77
  8
0
 62
7
420
16777215
370
-1
  6
ByLayer
100
AcDbEntity
100
AcDbSpline
 70
8
 71
3
 72
8
 73
4
 74
0
 40
0.0
 40
0.0
 40
0.0
 40
0.0
 40
1.0
 40
1.0
 40
1.0
 40
1.0
 10
27.7681930000000001
 20
60.9423609999999982
 30
0.0
 10
27.3279260000000015
 20
60.9423609999999982
 30
0.0
 10
26.9744430000000008
 20
61.3052279999999996
 30
0.0
 10
26.9744430000000008
 20
61.7449310000000011
 30
0.0
  0
SPLINE
  5
78
  8
0
 62
7
420
16777215
370
-1
  6
ByLayer
100
AcDbEntity
100
AcDbSpline
 70
8
 71
3
 72
8
 73
4
 74
0
 40
0.0
 40
0.0
 40
0.0
 40
0.0
 40
1.0
 40
1.0
 40
1.0
 40
1.0
 10
26.9744430000000008
 20
61.7449310000000011
 30
0.0
 10
26.9744430000000008
 20
62.1851970000000023
 30
0.0
 10
27.3282090000000011
 20
62.5386809999999969
 30
0.0
 10
27.7681930000000001
 20
62.5386809999999969
 30
0.0
  0
LWPOLYLINE
  5
79
  8
0
 62
7
420
16777215
370
-1
  6
ByLayer
100
AcDbEntity
100
AcDbPolyline
 90
4
 70
0
 10
41.1561110000000028
 20
13.0175000000000001
 10
45.0278470000000013
 20
17.0744439999999997
 10
46.2890280000000018
 20
28.5220829999999985
 10
39.5774309999999971
 20
33.4874310000000008
  0
SPLINE
  5
7A
  8
0
 62
7
420
16777215
370
-1
  6
ByLayer
100
AcDbEntity
100
AcDbSpline
 70
8
 71
3
 72
8
 73
4
 74
0
 40
0.0
 40
0.0
 40
0.0
 40
0.0
 40
1.0
 40
1.0
 40
1.0
 40
1.0
 10
36.0496529999999993
 20
62.5386809999999969
 30
0.0
 10
36.4902019999999965
 20
62.5386809999999969
 30
0.0
 10
36.8522219999999976
 20
62.1849149999999966
 30
0.0
 10
36.8522219999999976
 20
61.7449310000000011
 30
0.0
  0
SPLINE
  5
7B
  8
0
 62
7
420
16777215
370
-1
  6
ByLayer
100
AcDbEntity
100
AcDbSpline
 70
8
 71
3
 72
8
 73
4
 74
0
 40
0.0
 40
0.0
 40
0.0
 40
0.0
 40
1.0
 40
1.0
 40
1.0
 40
1.0
 10
36.8522219999999976
 20
61.7449310000000011
 30
0.0
 10
36.8522219999999976
 20
61.304946000000001
 30
0.0
 10
36.4899190000000004
 20
60.9423609999999982
 30
0.0
 10
36.0496529999999993
 20
60.9423609999999982
 30
0.0
  0
SPLINE
  5
7C
  8
0
 62
7
420
16777215
370
-1
  6
ByLayer
100
AcDbEntity
100
AcDbSpline
 70
8
 71
3
 72
8
 73
4
 74
0
 40
0.0
 40
0.0
 40
0.0
 40
0.0
 40
1.0
 40
1.0
 40
1.0
 40
1.0
 10
36.0496529999999993
 20
60.9423609999999982
 30
0.0
 10
35.6099510000000024
 20
60.9423609999999982
 30
0.0
 10
35.2559030000000035
 20
61.3052279999999996
 30
0.0
 10
35.2559030000000035
 20
61.7449310000000011
 30
0.0
  0
SPLINE
  5
7D
  8
0
 62
7
420
16777215
370
-1
  6
ByLayer
100
AcDbEntity
100
AcDbSpline
 70
8
 71
3
 72
8
 73
4
 74
0
 40
0.0
 40
0.0
 40
0.0
 40
0.0
 40
1.0
 40
1.0
 40
1.0
 40
1.0
 10
35.2559030000000035
 20
61.7449310000000011
 30
0.0
 10
35.2559030000000035
 20
62.1851970000000023
 30
0.0
 10
35.6099510000000024
 20
62.5386809999999969
 30
0.0
 10
36.0496529999999993
 20
62.5386809999999969
 30
0.0
  0
LWPOLYLINE
  5
7E
  8
0
 62
7
420
16777215
370
-1
  6
ByLayer
100
AcDbEntity
100
AcDbPolyline
 90
2
 70
0
 10
27.7681930000000001
 20
62.5386809999999969
 10
27.7681930000000001
 20
62.5386809999999969
  0
SPLINE
  5
7F
  8
0
 62
7
420
16777215
370
-1
  6
ByLayer
100
AcDbEntity
100
AcDbSpline
 70
8
 71
3
 72
8
 73
4
 74
0
 40
0.0
 40
0.0
 40
0.0
 40
0.0
 40
1.0
 40
1.0
 40
1.0
 40
1.0
 10
18.5254149999999989
 20
61.9477779999999996
 30
0.0
 10
18.9651169999999993
 20
61.9477779999999996
 30
0.0
 10
19.3191650000000017
 20
61.5940119999999993
 30
0.0
 10
19.3191650000000017
 20
61.1540279999999967
 30
0.0
  0
SPLINE
  5
80
  8
0
 62
7
420
16777215
370
-1
  6
ByLayer
100
AcDbEntity
100
AcDbSpline
 70
8
 71
3
 72
8
 73
4
 74
0
 40
0.0
 40
0.0
 40
0.0
 40
0.0
 40
1.0
 40
1.0
 40
1.0
 40
1.0
 10
19.3191650000000017
 20
61.1540279999999967
 30
0.0
 10
19.3191650000000017
 20
60.7140429999999967
 30
0.0
 10
18.9651169999999993
 20
60.360278000000001
 30
0.0
 10
18.5254149999999989
 20
60.360278000000001
 30
0.0
  0
SPLINE
  5
81
  8
0
 62
7
420
16777215
370
-1
  6
ByLayer
100
AcDbEntity
100
AcDbSpline
 70
8
 71
3
 72
8
 73
4
 74
0
 40
0.0
 40
0.0
 40
0.0
 40
0.0
 40
1.0
 40
1.0
 40
1.0
 40
1.0
 10
18.5254149999999989
 20
60.360278000000001
 30
0.0
 10
18.0854309999999998
 20
60.360278000000001
 30
0.0
 10
17.7228460000000005
 20
60.7143259999999998
 30
0.0
 10
17.7228460000000005
 20
61.1540279999999967
 30
0.0
  0
SPLINE
  5
82
  8
0
 62
7
420
16777215
370
-1
  6
ByLayer
100
AcDbEntity
100
AcDbSpline
 70
8
 71
3
 72
8
 73
4
 74
0
 40
0.0
 40
0.0
 40
0.0
 40
0.0
 40
1.0
 40
1.0
 40
1.0
 40
1.0
 10
17.7228460000000005
 20
61.1540279999999967
 30
0.0
 10
17.7231279999999991
 20
61.5942939999999979
 30
0.0
 10
18.0854309999999998
 20
61.9477779999999996
 30
0.0
 10
18.5254149999999989
 20
61.9477779999999996
 30
0.0
  0
LWPOLYLINE
  5
83
  8
0
 62
7
420
16777215
370
-1
  6
ByLayer
100
AcDbEntity
100
AcDbPolyline
 90
2
 70
0
 10
36.0496529999999993
 20
62.5386809999999969
 10
36.0496529999999993
 20
62.5386809999999969
  0
SPLINE
  5
84
  8
0
 62
7
420
16777215
370
-1
  6
ByLayer
100
AcDbEntity
100
AcDbSpline
 70
8
 71
3
 72
8
 73
4
 74
0
 40
0.0
 40
0.0
 40
0.0
 40
0.0
 40
1.0
 40
1.0
 40
1.0
 40
1.0
 10
45.3012500000000031
 20
61.9477779999999996
 30
0.0
 10
45.7417990000000003
 20
61.9477779999999996
 30
0.0
 10
46.1038190000000014
 20
61.5940119999999993
 30
0.0
 10
46.1038190000000014
 20
61.1540279999999967
 30
0.0
  0
SPLINE
  5
85
  8
0
 62
7
420
16777215
370
-1
  6
ByLayer
100
AcDbEntity
100
AcDbSpline
 70
8
 71
3
 72
8
 73
4
 74
0
 40
0.0
 40
0.0
 40
0.0
 40
0.0
 40
1.0
 40
1.0
 40
1.0
 40
1.0
 10
46.1038190000000014
 20
61.1540279999999967
 30
0.0
 10
46.1038190000000014
 20
60.7140429999999967
 30
0.0
 10
45.7415170000000018
 20
60.360278000000001
 30
0.0
 10
45.3012500000000031
 20
60.360278000000001
 30
0.0
  0
SPLINE
  5
86
  8
0
 62
7
420
16777215
370
-1
  6
ByLayer
100
AcDbEntity
100
AcDbSpline
 70
8
 71
3
 72
8
 73
4
 74
0
 40
0.0
 40
0.0
 40
0.0
 40
0.0
 40
1.0
 40
1.0
 40
1.0
 40
1.0
 10
45.3012500000000031
 20
60.360278000000001
 30
0.0
 10
44.8615479999999991
 20
60.360278000000001
 30
0.0
 10
44.5075000000000003
 20
60.7143259999999998
 30
0.0
 10
44.5075000000000003
 20
61.1540279999999967
 30
0.0
  0
SPLINE
  5
87
  8
0
 62
7
420
16777215
370
-1
  6
ByLayer
100
AcDbEntity
100
AcDbSpline
 70
8
 71
3
 72
8
 73
4
 74
0
 40
0.0
 40
0.0
 40
0.0
 40
0.0
 40
1.0
 40
1.0
 40
1.0
 40
1.0
 10
44.5075000000000003
 20
61.1540279999999967
 30
0.0
 10
44.5075000000000003
 20
61.5940119999999993
 30
0.0
 10
44.8615479999999991
 20
61.9477779999999996
 30
0.0
 10
45.3012500000000031
 20
61.9477779999999996
 30
0.0
  0
LWPOLYLINE
  5
88
  8
0
 62
7
420
16777215
370
-1
  6
ByLayer
100
AcDbEntity
100
AcDbPolyline
 90
2
 70
0
 10
18.5254149999999989
 20
61.9477779999999996
 10
18.5254149999999989
 20
61.9477779999999996
  0
LWPOLYLINE
  5
89
  8
0
 62
7
420
16777215
370
-1
  6
ByLayer
100
AcDbEntity
100
AcDbPolyline
 90
2
 70
0
 10
45.3012500000000031
 20
61.9477779999999996
 10
45.3012500000000031
 20
61.9477779999999996
  0
SPLINE
  5
8A
  8
0
 62
7
420
16777215
370
-1
  6
ByLayer
100
AcDbEntity
100
AcDbSpline
 70
8
 71
3
 72
8
 73
4
 74
0
 40
0.0
 40
0.0
 40
0.0
 40
0.0
 40
1.0
 40
1.0
 40
1.0
 40
1.0
 10
14.212707
 20
22.2338190000000004
 30
0.0
 10
14.6524090000000005
 20
22.2338190000000004
 30
0.0
 10
15.0152760000000001
 20
21.8800540000000012
 30
0.0
 10
15.0152760000000001
 20
21.4400690000000012
 30
0.0
  0
SPLINE
  5
8B
  8
0
 62
7
420
16777215
370
-1
  6
ByLayer
100
AcDbEntity
100
AcDbSpline
 70
8
 71
3
 72
8
 73
4
 74
0
 40
0.0
 40
0.0
 40
0.0
 40
0.0
 40
1.0
 40
1.0
 40
1.0
 40
1.0
 10
15.0152760000000001
 20
21.4400690000000012
 30
0.0
 10
15.0152760000000001
 20
21.0003670000000007
 30
0.0
 10
14.6526910000000008
 20
20.6463189999999983
 30
0.0
 10
14.212707
 20
20.6463189999999983
 30
0.0
  0
SPLINE
  5
8C
  8
0
 62
7
420
16777215
370
-1
  6
ByLayer
100
AcDbEntity
100
AcDbSpline
 70
8
 71
3
 72
8
 73
4
 74
0
 40
0.0
 40
0.0
 40
0.0
 40
0.0
 40
1.0
 40
1.0
 40
1.0
 40
1.0
 10
14.212707
 20
20.6463189999999983
 30
0.0
 10
13.7727219999999999
 20
20.6463189999999983
 30
0.0
 10
13.4189570000000007
 20
21.0006489999999992
 30
0.0
 10
13.4189570000000007
 20
21.4400690000000012
 30
0.0
  0
SPLINE
  5
8D
  8
0
 62
7
420
16777215
370
-1
  6
ByLayer
100
AcDbEntity
100
AcDbSpline
 70
8
 71
3
 72
8
 73
4
 74
0
 40
0.0
 40
0.0
 40
0.0
 40
0.0
 40
1.0
 40
1.0
 40
1.0
 40
1.0
 10
13.4189570000000007
 20
21.4400690000000012
 30
0.0
 10
13.4189570000000007
 20
21.8803359999999998
 30
0.0
 10
13.7730049999999995
 20
22.2338190000000004
 30
0.0
 10
14.212707
 20
22.2338190000000004
 30
0.0
  0
LWPOLYLINE
  5
8E
  8
0
 62
7
420
16777215
370
-1
  6
ByLayer
100
AcDbEntity
100
AcDbPolyline
 90
15
 70
0
 10
30.1759030000000017
 20
37.2268749999999997
 10
30.5727779999999996
 20
37.2268749999999997
 10
33.2538890000000009
 20
37.2268749999999997
 10
33.6507640000000023
 20
37.2268749999999997
 10
33.6507640000000023
 20
36.5389580000000009
 10
33.2538890000000009
 20
36.5389580000000009
 10
33.2626940000000033
 20
34.2459029999999984
 10
36.4200549999999978
 20
26.114374999999999
 10
35.6086659999999995
 20
24.3416670000000011
 10
28.2179709999999986
 20
24.3416670000000011
 10
27.4065820000000002
 20
26.114374999999999
 10
30.5639439999999993
 20
34.2459029999999984
 10
30.5639439999999993
 20
36.5389580000000009
 10
30.1758890000000015
 20
36.5389580000000009
 10
30.1759030000000017
 20
37.2268749999999997
  0
SPLINE
  5
8F
  8
0
 62
7
420
16777215
370
-1
  6
ByLayer
100
AcDbEntity
100
AcDbSpline
 70
8
 71
3
 72
8
 73
4
 74
0
 40
0.0
 40
0.0
 40
0.0
 40
0.0
 40
1.0
 40
1.0
 40
1.0
 40
1.0
 10
49.6139579999999967
 20
22.2338190000000004
 30
0.0
 10
50.0542250000000024
 20
22.2338190000000004
 30
0.0
 10
50.4077079999999995
 20
21.8800540000000012
 30
0.0
 10
50.4077079999999995
 20
21.4400690000000012
 30
0.0
  0
SPLINE
  5
90
  8
0
 62
7
420
16777215
370
-1
  6
ByLayer
100
AcDbEntity
100
AcDbSpline
 70
8
 71
3
 72
8
 73
4
 74
0
 40
0.0
 40
0.0
 40
0.0
 40
0.0
 40
1.0
 40
1.0
 40
1.0
 40
1.0
 10
50.4077079999999995
 20
21.4400690000000012
 30
0.0
 10
50.4077079999999995
 20
21.0003670000000007
 30
0.0
 10
50.0539429999999967
 20
20.6463189999999983
 30
0.0
 10
49.6139579999999967
 20
20.6463189999999983
 30
0.0
  0
SPLINE
  5
91
  8
0
 62
7
420
16777215
370
-1
  6
ByLayer
100
AcDbEntity
100
AcDbSpline
 70
8
 71
3
 72
8
 73
4
 74
0
 40
0.0
 40
0.0
 40
0.0
 40
0.0
 40
1.0
 40
1.0
 40
1.0
 40
1.0
 10
49.6139579999999967
 20
20.6463189999999983
 30
0.0
 10
49.1739740000000012
 20
20.6463189999999983
 30
0.0
 10
48.8113889999999984
 20
21.0006489999999992
 30
0.0
 10
48.8113889999999984
 20
21.4400690000000012
 30
0.0
  0
SPLINE
  5
92
  8
0
 62
7
420
16777215
370
-1
  6
ByLayer
100
AcDbEntity
100
AcDbSpline
 70
8
 71
3
 72
8
 73
4
 74
0
 40
0.0
 40
0.0
 40
0.0
 40
0.0
 40
1.0
 40
1.0
 40
1.0
 40
1.0
 10
48.8113889999999984
 20
21.4400690000000012
 30
0.0
 10
48.8113889999999984
 20
21.8803359999999998
 30
0.0
 10
49.1742559999999997
 20
22.2338190000000004
 30
0.0
 10
49.6139579999999967
 20
22.2338190000000004
 30
0.0
  0
LWPOLYLINE
  5
93
  8
0
 62
7
420
16777215
370
-1
  6
ByLayer
100
AcDbEntity
100
AcDbPolyline
 90
2
 70
0
 10
14.212707
 20
22.2338190000000004
 10
14.212707
 20
22.2338190000000004
  0
SPLINE
  5
94
  8
0
 62
7
420
16777215
370
-1
  6
ByLayer
100
AcDbEntity
100
AcDbSpline
 70
8
 71
3
 72
8
 73
4
 74
0
 40
0.0
 40
0.0
 40
0.0
 40
0.0
 40
1.0
 40
1.0
 40
1.0
 40
1.0
 10
23.8435400000000008
 20
13.0880559999999999
 30
0.0
 10
24.2832420000000013
 20
13.0880559999999999
 30
0.0
 10
24.6461100000000002
 20
12.7342899999999997
 30
0.0
 10
24.6461100000000002
 20
12.2943060000000006
 30
0.0
  0
SPLINE
  5
95
  8
0
 62
7
420
16777215
370
-1
  6
ByLayer
100
AcDbEntity
100
AcDbSpline
 70
8
 71
3
 72
8
 73
4
 74
0
 40
0.0
 40
0.0
 40
0.0
 40
0.0
 40
1.0
 40
1.0
 40
1.0
 40
1.0
 10
24.6461100000000002
 20
12.2943060000000006
 30
0.0
 10
24.6461100000000002
 20
11.8546029999999991
 30
0.0
 10
24.2832420000000013
 20
11.4917359999999995
 30
0.0
 10
23.8435400000000008
 20
11.4917359999999995
 30
0.0
  0
SPLINE
  5
96
  8
0
 62
7
420
16777215
370
-1
  6
ByLayer
100
AcDbEntity
100
AcDbSpline
 70
8
 71
3
 72
8
 73
4
 74
0
 40
0.0
 40
0.0
 40
0.0
 40
0.0
 40
1.0
 40
1.0
 40
1.0
 40
1.0
 10
23.8435400000000008
 20
11.4917359999999995
 30
0.0
 10
23.4032739999999997
 20
11.4917359999999995
 30
0.0
 10
23.0497900000000016
 20
11.8548860000000005
 30
0.0
 10
23.0497900000000016
 20
12.2943060000000006
 30
0.0
  0
SPLINE
  5
97
  8
0
 62
7
420
16777215
370
-1
  6
ByLayer
100
AcDbEntity
100
AcDbSpline
 70
8
 71
3
 72
8
 73
4
 74
0
 40
0.0
 40
0.0
 40
0.0
 40
0.0
 40
1.0
 40
1.0
 40
1.0
 40
1.0
 10
23.0497900000000016
 20
12.2943060000000006
 30
0.0
 10
23.0497900000000016
 20
12.734572
 30
0.0
 10
23.4032739999999997
 20
13.0880559999999999
 30
0.0
 10
23.8435400000000008
 20
13.0880559999999999
 30
0.0
  0
LWPOLYLINE
  5
98
  8
0
 62
7
420
16777215
370
-1
  6
ByLayer
100
AcDbEntity
100
AcDbPolyline
 90
2
 70
0
 10
49.6139579999999967
 20
22.2338190000000004
 10
49.6139579999999967
 20
22.2338190000000004
  0
SPLINE
  5
99
  8
0
 62
7
420
16777215
370
-1
  6
ByLayer
100
AcDbEntity
100
AcDbSpline
 70
8
 71
3
 72
8
 73
4
 74
0
 40
0.0
 40
0.0
 40
0.0
 40
0.0
 40
1.0
 40
1.0
 40
1.0
 40
1.0
 10
39.9831250000000011
 20
13.0880559999999999
 30
0.0
 10
40.4228269999999981
 20
13.0880559999999999
 30
0.0
 10
40.7768749999999969
 20
12.7342899999999997
 30
0.0
 10
40.7768749999999969
 20
12.2943060000000006
 30
0.0
  0
SPLINE
  5
9A
  8
0
 62
7
420
16777215
370
-1
  6
ByLayer
100
AcDbEntity
100
AcDbSpline
 70
8
 71
3
 72
8
 73
4
 74
0
 40
0.0
 40
0.0
 40
0.0
 40
0.0
 40
1.0
 40
1.0
 40
1.0
 40
1.0
 10
40.7768749999999969
 20
12.2943060000000006
 30
0.0
 10
40.7768749999999969
 20
11.8546029999999991
 30
0.0
 10
40.4231089999999966
 20
11.4917359999999995
 30
0.0
 10
39.9831250000000011
 20
11.4917359999999995
 30
0.0
  0
SPLINE
  5
9B
  8
0
 62
7
420
16777215
370
-1
  6
ByLayer
100
AcDbEntity
100
AcDbSpline
 70
8
 71
3
 72
8
 73
4
 74
0
 40
0.0
 40
0.0
 40
0.0
 40
0.0
 40
1.0
 40
1.0
 40
1.0
 40
1.0
 10
39.9831250000000011
 20
11.4917359999999995
 30
0.0
 10
39.5431409999999985
 20
11.4917359999999995
 30
0.0
 10
39.1805560000000028
 20
11.8548860000000005
 30
0.0
 10
39.1805560000000028
 20
12.2943060000000006
 30
0.0
  0
SPLINE
  5
9C
  8
0
 62
7
420
16777215
370
-1
  6
ByLayer
100
AcDbEntity
100
AcDbSpline
 70
8
 71
3
 72
8
 73
4
 74
0
 40
0.0
 40
0.0
 40
0.0
 40
0.0
 40
1.0
 40
1.0
 40
1.0
 40
1.0
 10
39.1805560000000028
 20
12.2943060000000006
 30
0.0
 10
39.1805560000000028
 20
12.734572
 30
0.0
 10
39.5434229999999971
 20
13.0880559999999999
 30
0.0
 10
39.9831250000000011
 20
13.0880559999999999
 30
0.0
  0
LWPOLYLINE
  5
9D
  8
0
 62
7
420
16777215
370
-1
  6
ByLayer
100
AcDbEntity
100
AcDbPolyline
 90
2
 70
0
 10
23.8435400000000008
 20
13.0880559999999999
 10
23.8435400000000008
 20
13.0880559999999999
  0
SPLINE
  5
9E
  8
Beaker
 62
7
420
16777215
370
-1
  6
ByLayer
100
AcDbEntity
100
AcDbSpline
 70
8
 71
3
 72
8
 73
4
 74
0
 40
0.0
 40
0.0
 40
0.0
 40
0.0
 40
1.0
 40
1.0
 40
1.0
 40
1.0
 10
4.9653720000000003
 20
5.830711
 30
0.0
 10
5.1076059999999996
 20
5.830705
 30
0.0
 10
5.2393099999999997
 20
5.8043800000000001
 30
0.0
 10
5.3604830000000003
 20
5.7516889999999998
 30
0.0
  0
SPLINE
  5
9F
  8
Beaker
 62
7
420
16777215
370
-1
  6
ByLayer
100
AcDbEntity
100
AcDbSpline
 70
8
 71
3
 72
8
 73
4
 74
0
 40
0.0
 40
0.0
 40
0.0
 40
0.0
 40
1.0
 40
1.0
 40
1.0
 40
1.0
 10
5.3604830000000003
 20
5.7516889999999998
 30
0.0
 10
5.4869130000000004
 20
5.699001
 30
0.0
 10
5.5975440000000001
 20
5.625248
 30
0.0
 10
5.6923760000000003
 20
5.5304270000000004
 30
0.0
  0
SPLINE
  5
A0
  8
Beaker
 62
7
420
16777215
370
-1
  6
ByLayer
100
AcDbEntity
100
AcDbSpline
 70
8
 71
3
 72
8
 73
4
 74
0
 40
0.0
 40
0.0
 40
0.0
 40
0.0
 40
1.0
 40
1.0
 40
1.0
 40
1.0
 10
5.6923760000000003
 20
5.5304270000000004
 30
0.0
 10
5.7871969999999999
 20
5.435594
 30
0.0
 10
5.860951
 20
5.3249630000000003
 30
0.0
 10
5.9136379999999997
 20
5.1985330000000003
 30
0.0
  0
SPLINE
  5
A1
  8
Beaker
 62
7
420
16777215
370
-1
  6
ByLayer
100
AcDbEntity
100
AcDbSpline
 70
8
 71
3
 72
8
 73
4
 74
0
 40
0.0
 40
0.0
 40
0.0
 40
0.0
 40
1.0
 40
1.0
 40
1.0
 40
1.0
 10
5.9136379999999997
 20
5.1985330000000003
 30
0.0
 10
5.9663139999999997
 20
5.0773609999999998
 30
0.0
 10
5.9926539999999999
 20
4.9456569999999997
 30
0.0
 10
5.992661
 20
4.8034220000000003
 30
0.0
  0
LWPOLYLINE
  5
A2
  8
0
 62
7
420
16777215
370
-1
  6
ByLayer
100
AcDbEntity
100
AcDbPolyline
 90
2
 70
0
 10
39.9831250000000011
 20
13.0880559999999999
 10
39.9831250000000011
 20
13.0880559999999999
  0
SPLINE
  5
A3
  8
Beaker
 62
7
420
16777215
370
-1
  6
ByLayer
100
AcDbEntity
100
AcDbSpline
 70
8
 71
3
 72
8
 73
4
 74
0
 40
0.0
 40
0.0
 40
0.0
 40
0.0
 40
1.0
 40
1.0
 40
1.0
 40
1.0
 10
0.303061
 20
4.8034220000000003
 30
0.0
 10
0.30306
 20
4.9456569999999997
 30
0.0
 10
0.329401
 20
5.0773609999999998
 30
0.0
 10
0.382083
 20
5.1985330000000003
 30
0.0
  0
SPLINE
  5
A4
  8
Beaker
 62
7
420
16777215
370
-1
  6
ByLayer
100
AcDbEntity
100
AcDbSpline
 70
8
 71
3
 72
8
 73
4
 74
0
 40
0.0
 40
0.0
 40
0.0
 40
0.0
 40
1.0
 40
1.0
 40
1.0
 40
1.0
 10
0.382083
 20
5.1985330000000003
 30
0.0
 10
0.434764
 20
5.3249630000000003
 30
0.0
 10
0.508518
 20
5.435594
 30
0.0
 10
0.603345
 20
5.5304270000000004
 30
0.0
  0
SPLINE
  5
A5
  8
Beaker
 62
7
420
16777215
370
-1
  6
ByLayer
100
AcDbEntity
100
AcDbSpline
 70
8
 71
3
 72
8
 73
4
 74
0
 40
0.0
 40
0.0
 40
0.0
 40
0.0
 40
1.0
 40
1.0
 40
1.0
 40
1.0
 10
0.603345
 20
5.5304270000000004
 30
0.0
 10
0.698171
 20
5.625248
 30
0.0
 10
0.806168
 20
5.699001
 30
0.0
 10
0.927336
 20
5.7516889999999998
 30
0.0
  0
SPLINE
  5
A6
  8
Beaker
 62
7
420
16777215
370
-1
  6
ByLayer
100
AcDbEntity
100
AcDbSpline
 70
8
 71
3
 72
8
 73
4
 74
0
 40
0.0
 40
0.0
 40
0.0
 40
0.0
 40
1.0
 40
1.0
 40
1.0
 40
1.0
 10
0.927336
 20
5.7516889999999998
 30
0.0
 10
1.0537700000000001
 20
5.8043659999999999
 30
0.0
 10
1.1881079999999999
 20
5.830705
 30
0.0
 10
1.330349
 20
5.830711
 30
0.0
  0
LWPOLYLINE
  5
A7
  8
Beaker
 62
7
420
16777215
370
-1
  6
ByLayer
100
AcDbEntity
100
AcDbPolyline
 90
8
 70
0
 10
5.992661
 20
4.8034220000000003
 10
5.992661
 20
0.141111
 10
5.139221
 20
0.141111
 10
5.139221
 20
2.1324709999999998
 10
1.156501
 20
2.1324709999999998
 10
1.156501
 20
0.141111
 10
0.303061
 20
0.141111
 10
0.303061
 20
4.8034220000000003
  0
LWPOLYLINE
  5
A8
  8
Beaker
 62
7
420
16777215
370
-1
  6
ByLayer
100
AcDbEntity
100
AcDbPolyline
 90
2
 70
0
 10
1.330349
 20
5.830711
 10
4.9653720000000003
 20
5.830711
  0
SPLINE
  5
A9
  8
Beaker
 62
7
420
16777215
370
-1
  6
ByLayer
100
AcDbEntity
100
AcDbSpline
 70
8
 71
3
 72
8
 73
4
 74
0
 40
0.0
 40
0.0
 40
0.0
 40
0.0
 40
1.0
 40
1.0
 40
1.0
 40
1.0
 10
5.139221
 20
4.8034220000000003
 30
0.0
 10
5.1392150000000001
 20
4.8508300000000002
 30
0.0
 10
5.1207770000000004
 20
4.8903410000000003
 30
0.0
 10
5.0839049999999997
 20
4.9219559999999998
 30
0.0
  0
SPLINE
  5
AA
  8
Beaker
 62
7
420
16777215
370
-1
  6
ByLayer
100
AcDbEntity
100
AcDbSpline
 70
8
 71
3
 72
8
 73
4
 74
0
 40
0.0
 40
0.0
 40
0.0
 40
0.0
 40
1.0
 40
1.0
 40
1.0
 40
1.0
 10
5.0839049999999997
 20
4.9219559999999998
 30
0.0
 10
5.0522910000000003
 20
4.9588279999999996
 30
0.0
 10
5.0127800000000002
 20
4.9772650000000001
 30
0.0
 10
4.9653720000000003
 20
4.977271
 30
0.0
  0
LWPOLYLINE
  5
AB
  8
Beaker
 62
7
420
16777215
370
-1
  6
ByLayer
100
AcDbEntity
100
AcDbPolyline
 90
2
 70
0
 10
5.139221
 20
2.9859110000000002
 10
5.139221
 20
4.8034220000000003
  0
SPLINE
  5
AC
  8
Beaker
 62
7
420
16777215
370
-1
  6
ByLayer
100
AcDbEntity
100
AcDbSpline
 70
8
 71
3
 72
8
 73
4
 74
0
 40
0.0
 40
0.0
 40
0.0
 40
0.0
 40
1.0
 40
1.0
 40
1.0
 40
1.0
 10
1.330349
 20
4.977271
 30
0.0
 10
1.2829349999999999
 20
4.9772650000000001
 30
0.0
 10
1.2407900000000001
 20
4.9588419999999998
 30
0.0
 10
1.2039139999999999
 20
4.9219559999999998
 30
0.0
  0
SPLINE
  5
AD
  8
Beaker
 62
7
420
16777215
370
-1
  6
ByLayer
100
AcDbEntity
100
AcDbSpline
 70
8
 71
3
 72
8
 73
4
 74
0
 40
0.0
 40
0.0
 40
0.0
 40
0.0
 40
1.0
 40
1.0
 40
1.0
 40
1.0
 10
1.2039139999999999
 20
4.9219559999999998
 30
0.0
 10
1.172304
 20
4.8903410000000003
 30
0.0
 10
1.1564989999999999
 20
4.8508300000000002
 30
0.0
 10
1.156501
 20
4.8034220000000003
 30
0.0
  0
LWPOLYLINE
  5
AE
  8
Beaker
 62
7
420
16777215
370
-1
  6
ByLayer
100
AcDbEntity
100
AcDbPolyline
 90
2
 70
0
 10
4.9653720000000003
 20
4.977271
 10
1.330349
 20
4.977271
  0
LWPOLYLINE
  5
AF
  8
Beaker
 62
7
420
16777215
370
-1
  6
ByLayer
100
AcDbEntity
100
AcDbPolyline
 90
3
 70
0
 10
1.156501
 20
4.8034220000000003
 10
1.156501
 20
2.9859110000000002
 10
5.139221
 20
2.9859110000000002
  0
SPLINE
  5
B0
  8
Beaker
 62
7
420
16777215
370
-1
  6
ByLayer
100
AcDbEntity
100
AcDbSpline
 70
8
 71
3
 72
8
 73
4
 74
0
 40
0.0
 40
0.0
 40
0.0
 40
0.0
 40
1.0
 40
1.0
 40
1.0
 40
1.0
 10
7.8887
 20
3.8709600000000002
 30
0.0
 10
7.8412850000000001
 20
3.8709570000000002
 30
0.0
 10
7.7991400000000004
 20
3.8525309999999999
 30
0.0
 10
7.7622650000000002
 20
3.8156439999999998
 30
0.0
  0
SPLINE
  5
B1
  8
Beaker
 62
7
420
16777215
370
-1
  6
ByLayer
100
AcDbEntity
100
AcDbSpline
 70
8
 71
3
 72
8
 73
4
 74
0
 40
0.0
 40
0.0
 40
0.0
 40
0.0
 40
1.0
 40
1.0
 40
1.0
 40
1.0
 10
7.7622650000000002
 20
3.8156439999999998
 30
0.0
 10
7.7306540000000004
 20
3.784033
 30
0.0
 10
7.7148500000000002
 20
3.7445219999999999
 30
0.0
 10
7.7148510000000003
 20
3.697111
 30
0.0
  0
LWPOLYLINE
  5
B2
  8
Beaker
 62
7
420
16777215
370
-1
  6
ByLayer
100
AcDbEntity
100
AcDbPolyline
 90
3
 70
0
 10
10.4490200000000009
 20
4.7244000000000002
 10
10.4490200000000009
 20
3.8709600000000002
 10
7.8887
 20
3.8709600000000002
  0
SPLINE
  5
B3
  8
Beaker
 62
7
420
16777215
370
-1
  6
ByLayer
100
AcDbEntity
100
AcDbSpline
 70
8
 71
3
 72
8
 73
4
 74
0
 40
0.0
 40
0.0
 40
0.0
 40
0.0
 40
1.0
 40
1.0
 40
1.0
 40
1.0
 10
6.8614110000000004
 20
3.697111
 30
0.0
 10
6.8614110000000004
 20
3.8393480000000002
 30
0.0
 10
6.8877509999999997
 20
3.97105
 30
0.0
 10
6.9404329999999996
 20
4.0922219999999996
 30
0.0
  0
SPLINE
  5
B4
  8
Beaker
 62
7
420
16777215
370
-1
  6
ByLayer
100
AcDbEntity
100
AcDbSpline
 70
8
 71
3
 72
8
 73
4
 74
0
 40
0.0
 40
0.0
 40
0.0
 40
0.0
 40
1.0
 40
1.0
 40
1.0
 40
1.0
 10
6.9404329999999996
 20
4.0922219999999996
 30
0.0
 10
6.9931140000000003
 20
4.218655
 30
0.0
 10
7.0668680000000004
 20
4.3292859999999997
 30
0.0
 10
7.1616960000000001
 20
4.4241159999999997
 30
0.0
  0
SPLINE
  5
B5
  8
Beaker
 62
7
420
16777215
370
-1
  6
ByLayer
100
AcDbEntity
100
AcDbSpline
 70
8
 71
3
 72
8
 73
4
 74
0
 40
0.0
 40
0.0
 40
0.0
 40
0.0
 40
1.0
 40
1.0
 40
1.0
 40
1.0
 10
7.1616960000000001
 20
4.4241159999999997
 30
0.0
 10
7.2565210000000002
 20
4.5189370000000002
 30
0.0
 10
7.3645180000000003
 20
4.5926929999999997
 30
0.0
 10
7.4856870000000004
 20
4.645378
 30
0.0
  0
SPLINE
  5
B6
  8
Beaker
 62
7
420
16777215
370
-1
  6
ByLayer
100
AcDbEntity
100
AcDbSpline
 70
8
 71
3
 72
8
 73
4
 74
0
 40
0.0
 40
0.0
 40
0.0
 40
0.0
 40
1.0
 40
1.0
 40
1.0
 40
1.0
 10
7.4856870000000004
 20
4.645378
 30
0.0
 10
7.6121210000000001
 20
4.6980550000000001
 30
0.0
 10
7.7464589999999998
 20
4.7243940000000002
 30
0.0
 10
7.8887
 20
4.7244000000000002
 30
0.0
  0
LWPOLYLINE
  5
B7
  8
Beaker
 62
7
420
16777215
370
-1
  6
ByLayer
100
AcDbEntity
100
AcDbPolyline
 90
5
 70
0
 10
7.7148510000000003
 20
3.697111
 10
7.7148510000000003
 20
0.141111
 10
6.8614110000000004
 20
0.141111
 10
6.8614110000000004
 20
1.1684000000000001
 10
6.8614110000000004
 20
3.697111
  0
SPLINE
  5
B8
  8
Beaker
 62
7
420
16777215
370
-1
  6
ByLayer
100
AcDbEntity
100
AcDbSpline
 70
8
 71
3
 72
8
 73
4
 74
0
 40
0.0
 40
0.0
 40
0.0
 40
0.0
 40
1.0
 40
1.0
 40
1.0
 40
1.0
 10
14.5864510000000003
 20
4.7244000000000002
 30
0.0
 10
14.7286859999999997
 20
4.7243940000000002
 30
0.0
 10
14.8603900000000007
 20
4.6980399999999998
 30
0.0
 10
14.9815620000000003
 20
4.645378
 30
0.0
  0
SPLINE
  5
B9
  8
Beaker
 62
7
420
16777215
370
-1
  6
ByLayer
100
AcDbEntity
100
AcDbSpline
 70
8
 71
3
 72
8
 73
4
 74
0
 40
0.0
 40
0.0
 40
0.0
 40
0.0
 40
1.0
 40
1.0
 40
1.0
 40
1.0
 10
14.9815620000000003
 20
4.645378
 30
0.0
 10
15.1079930000000004
 20
4.5926929999999997
 30
0.0
 10
15.2186240000000002
 20
4.5189370000000002
 30
0.0
 10
15.3134549999999994
 20
4.4241159999999997
 30
0.0
  0
SPLINE
  5
BA
  8
Beaker
 62
7
420
16777215
370
-1
  6
ByLayer
100
AcDbEntity
100
AcDbSpline
 70
8
 71
3
 72
8
 73
4
 74
0
 40
0.0
 40
0.0
 40
0.0
 40
0.0
 40
1.0
 40
1.0
 40
1.0
 40
1.0
 10
15.3134549999999994
 20
4.4241159999999997
 30
0.0
 10
15.408277
 20
4.3292859999999997
 30
0.0
 10
15.4820309999999992
 20
4.218655
 30
0.0
 10
15.5347170000000006
 20
4.0922219999999996
 30
0.0
  0
SPLINE
  5
BB
  8
Beaker
 62
7
420
16777215
370
-1
  6
ByLayer
100
AcDbEntity
100
AcDbSpline
 70
8
 71
3
 72
8
 73
4
 74
0
 40
0.0
 40
0.0
 40
0.0
 40
0.0
 40
1.0
 40
1.0
 40
1.0
 40
1.0
 10
15.5347170000000006
 20
4.0922219999999996
 30
0.0
 10
15.5873939999999997
 20
3.97105
 30
0.0
 10
15.6137339999999991
 20
3.8393480000000002
 30
0.0
 10
15.61374
 20
3.697111
 30
0.0
  0
LWPOLYLINE
  5
BC
  8
Beaker
 62
7
420
16777215
370
-1
  6
ByLayer
100
AcDbEntity
100
AcDbPolyline
 90
2
 70
0
 10
7.8887
 20
4.7244000000000002
 10
10.4490200000000009
 20
4.7244000000000002
  0
SPLINE
  5
BD
  8
Beaker
 62
7
420
16777215
370
-1
  6
ByLayer
100
AcDbEntity
100
AcDbSpline
 70
8
 71
3
 72
8
 73
4
 74
0
 40
0.0
 40
0.0
 40
0.0
 40
0.0
 40
1.0
 40
1.0
 40
1.0
 40
1.0
 10
11.9787169999999996
 20
0.141111
 30
0.0
 10
11.8364759999999993
 20
0.141111
 30
0.0
 10
11.7021379999999997
 20
0.167442
 30
0.0
 10
11.575704
 20
0.220133
 30
0.0
  0
SPLINE
  5
BE
  8
Beaker
 62
7
420
16777215
370
-1
  6
ByLayer
100
AcDbEntity
100
AcDbSpline
 70
8
 71
3
 72
8
 73
4
 74
0
 40
0.0
 40
0.0
 40
0.0
 40
0.0
 40
1.0
 40
1.0
 40
1.0
 40
1.0
 10
11.575704
 20
0.220133
 30
0.0
 10
11.4545359999999992
 20
0.272816
 30
0.0
 10
11.3465389999999999
 20
0.346569
 30
0.0
 10
11.2517130000000005
 20
0.441396
 30
0.0
  0
SPLINE
  5
BF
  8
Beaker
 62
7
420
16777215
370
-1
  6
ByLayer
100
AcDbEntity
100
AcDbSpline
 70
8
 71
3
 72
8
 73
4
 74
0
 40
0.0
 40
0.0
 40
0.0
 40
0.0
 40
1.0
 40
1.0
 40
1.0
 40
1.0
 10
11.2517130000000005
 20
0.441396
 30
0.0
 10
11.1568860000000001
 20
0.536222
 30
0.0
 10
11.0831320000000009
 20
0.644217
 30
0.0
 10
11.0304509999999993
 20
0.765387
 30
0.0
  0
SPLINE
  5
C0
  8
Beaker
 62
7
420
16777215
370
-1
  6
ByLayer
100
AcDbEntity
100
AcDbSpline
 70
8
 71
3
 72
8
 73
4
 74
0
 40
0.0
 40
0.0
 40
0.0
 40
0.0
 40
1.0
 40
1.0
 40
1.0
 40
1.0
 10
11.0304509999999993
 20
0.765387
 30
0.0
 10
10.9777690000000003
 20
0.891822
 30
0.0
 10
10.9514279999999999
 20
1.02616
 30
0.0
 10
10.9514279999999999
 20
1.1684000000000001
 30
0.0
  0
LWPOLYLINE
  5
C1
  8
Beaker
 62
7
420
16777215
370
-1
  6
ByLayer
100
AcDbEntity
100
AcDbPolyline
 90
3
 70
0
 10
15.61374
 20
3.697111
 10
15.61374
 20
0.141111
 10
11.9787169999999996
 20
0.141111
  0
SPLINE
  5
C2
  8
Beaker
 62
7
420
16777215
370
-1
  6
ByLayer
100
AcDbEntity
100
AcDbSpline
 70
8
 71
3
 72
8
 73
4
 74
0
 40
0.0
 40
0.0
 40
0.0
 40
0.0
 40
1.0
 40
1.0
 40
1.0
 40
1.0
 10
14.7603000000000009
 20
3.697111
 30
0.0
 10
14.7602949999999993
 20
3.7445219999999999
 30
0.0
 10
14.7418560000000003
 20
3.784033
 30
0.0
 10
14.7049839999999996
 20
3.8156439999999998
 30
0.0
  0
SPLINE
  5
C3
  8
Beaker
 62
7
420
16777215
370
-1
  6
ByLayer
100
AcDbEntity
100
AcDbSpline
 70
8
 71
3
 72
8
 73
4
 74
0
 40
0.0
 40
0.0
 40
0.0
 40
0.0
 40
1.0
 40
1.0
 40
1.0
 40
1.0
 10
14.7049839999999996
 20
3.8156439999999998
 30
0.0
 10
14.6733709999999995
 20
3.8525170000000002
 30
0.0
 10
14.6338600000000003
 20
3.8709570000000002
 30
0.0
 10
14.5864510000000003
 20
3.8709600000000002
 30
0.0
  0
LWPOLYLINE
  5
C4
  8
Beaker
 62
7
420
16777215
370
-1
  6
ByLayer
100
AcDbEntity
100
AcDbPolyline
 90
4
 70
0
 10
10.9514279999999999
 20
1.1684000000000001
 10
10.9514279999999999
 20
2.8594759999999999
 10
14.7603000000000009
 20
2.8594759999999999
 10
14.7603000000000009
 20
3.697111
  0
LWPOLYLINE
  5
C5
  8
Beaker
 62
7
420
16777215
370
-1
  6
ByLayer
100
AcDbEntity
100
AcDbPolyline
 90
4
 70
0
 10
14.5864510000000003
 20
3.8709600000000002
 10
10.9514279999999999
 20
3.8709600000000002
 10
10.9514279999999999
 20
4.7244000000000002
 10
14.5864510000000003
 20
4.7244000000000002
  0
SPLINE
  5
C6
  8
Beaker
 62
7
420
16777215
370
-1
  6
ByLayer
100
AcDbEntity
100
AcDbSpline
 70
8
 71
3
 72
8
 73
4
 74
0
 40
0.0
 40
0.0
 40
0.0
 40
0.0
 40
1.0
 40
1.0
 40
1.0
 40
1.0
 10
11.8048680000000008
 20
1.1684000000000001
 30
0.0
 10
11.8048669999999998
 20
1.120987
 30
0.0
 10
11.8206729999999993
 20
1.07884
 30
0.0
 10
11.8522820000000007
 20
1.0419639999999999
 30
0.0
  0
SPLINE
  5
C7
  8
Beaker
 62
7
420
16777215
370
-1
  6
ByLayer
100
AcDbEntity
100
AcDbSpline
 70
8
 71
3
 72
8
 73
4
 74
0
 40
0.0
 40
0.0
 40
0.0
 40
0.0
 40
1.0
 40
1.0
 40
1.0
 40
1.0
 10
11.8522820000000007
 20
1.0419639999999999
 30
0.0
 10
11.8891570000000009
 20
1.010356
 30
0.0
 10
11.9313029999999998
 20
0.994551
 30
0.0
 10
11.9787169999999996
 20
0.994551
 30
0.0
  0
LWPOLYLINE
  5
C8
  8
Beaker
 62
7
420
16777215
370
-1
  6
ByLayer
100
AcDbEntity
100
AcDbPolyline
 90
3
 70
0
 10
14.7603000000000009
 20
2.0060359999999999
 10
11.8048680000000008
 20
2.0060359999999999
 10
11.8048680000000008
 20
1.1684000000000001
  0
LWPOLYLINE
  5
C9
  8
Beaker
 62
7
420
16777215
370
-1
  6
ByLayer
100
AcDbEntity
100
AcDbPolyline
 90
3
 70
0
 10
11.9787169999999996
 20
0.994551
 10
14.7603000000000009
 20
0.994551
 10
14.7603000000000009
 20
2.0060359999999999
  0
SPLINE
  5
CA
  8
Beaker
 62
7
420
16777215
370
-1
  6
ByLayer
100
AcDbEntity
100
AcDbSpline
 70
8
 71
3
 72
8
 73
4
 74
0
 40
0.0
 40
0.0
 40
0.0
 40
0.0
 40
1.0
 40
1.0
 40
1.0
 40
1.0
 10
17.3264229999999984
 20
0.141111
 30
0.0
 10
17.1841809999999988
 20
0.141111
 30
0.0
 10
17.0498440000000002
 20
0.167442
 30
0.0
 10
16.9234100000000005
 20
0.220133
 30
0.0
  0
SPLINE
  5
CB
  8
Beaker
 62
7
420
16777215
370
-1
  6
ByLayer
100
AcDbEntity
100
AcDbSpline
 70
8
 71
3
 72
8
 73
4
 74
0
 40
0.0
 40
0.0
 40
0.0
 40
0.0
 40
1.0
 40
1.0
 40
1.0
 40
1.0
 10
16.9234100000000005
 20
0.220133
 30
0.0
 10
16.8022409999999986
 20
0.272816
 30
0.0
 10
16.6942440000000012
 20
0.346569
 30
0.0
 10
16.599418
 20
0.441396
 30
0.0
  0
SPLINE
  5
CC
  8
Beaker
 62
7
420
16777215
370
-1
  6
ByLayer
100
AcDbEntity
100
AcDbSpline
 70
8
 71
3
 72
8
 73
4
 74
0
 40
0.0
 40
0.0
 40
0.0
 40
0.0
 40
1.0
 40
1.0
 40
1.0
 40
1.0
 10
16.599418
 20
0.441396
 30
0.0
 10
16.5045910000000013
 20
0.536222
 30
0.0
 10
16.4308370000000004
 20
0.644217
 30
0.0
 10
16.3781560000000006
 20
0.765387
 30
0.0
  0
SPLINE
  5
CD
  8
Beaker
 62
7
420
16777215
370
-1
  6
ByLayer
100
AcDbEntity
100
AcDbSpline
 70
8
 71
3
 72
8
 73
4
 74
0
 40
0.0
 40
0.0
 40
0.0
 40
0.0
 40
1.0
 40
1.0
 40
1.0
 40
1.0
 10
16.3781560000000006
 20
0.765387
 30
0.0
 10
16.3254739999999998
 20
0.891822
 30
0.0
 10
16.2991330000000012
 20
1.02616
 30
0.0
 10
16.2991339999999987
 20
1.1684000000000001
 30
0.0
  0
LWPOLYLINE
  5
CE
  8
Beaker
 62
7
420
16777215
370
-1
  6
ByLayer
100
AcDbEntity
100
AcDbPolyline
 90
3
 70
0
 10
20.9614450000000012
 20
0.994551
 10
20.9614450000000012
 20
0.141111
 10
17.3264229999999984
 20
0.141111
  0
SPLINE
  5
CF
  8
Beaker
 62
7
420
16777215
370
-1
  6
ByLayer
100
AcDbEntity
100
AcDbSpline
 70
8
 71
3
 72
8
 73
4
 74
0
 40
0.0
 40
0.0
 40
0.0
 40
0.0
 40
1.0
 40
1.0
 40
1.0
 40
1.0
 10
16.2991339999999987
 20
3.697111
 30
0.0
 10
16.2991330000000012
 20
3.8393480000000002
 30
0.0
 10
16.3254739999999998
 20
3.97105
 30
0.0
 10
16.3781560000000006
 20
4.0922219999999996
 30
0.0
  0
SPLINE
  5
D0
  8
Beaker
 62
7
420
16777215
370
-1
  6
ByLayer
100
AcDbEntity
100
AcDbSpline
 70
8
 71
3
 72
8
 73
4
 74
0
 40
0.0
 40
0.0
 40
0.0
 40
0.0
 40
1.0
 40
1.0
 40
1.0
 40
1.0
 10
16.3781560000000006
 20
4.0922219999999996
 30
0.0
 10
16.4308370000000004
 20
4.218655
 30
0.0
 10
16.5045910000000013
 20
4.3292859999999997
 30
0.0
 10
16.599418
 20
4.4241159999999997
 30
0.0
  0
SPLINE
  5
D1
  8
Beaker
 62
7
420
16777215
370
-1
  6
ByLayer
100
AcDbEntity
100
AcDbSpline
 70
8
 71
3
 72
8
 73
4
 74
0
 40
0.0
 40
0.0
 40
0.0
 40
0.0
 40
1.0
 40
1.0
 40
1.0
 40
1.0
 10
16.599418
 20
4.4241159999999997
 30
0.0
 10
16.6942440000000012
 20
4.5189370000000002
 30
0.0
 10
16.8022409999999986
 20
4.5926929999999997
 30
0.0
 10
16.9234100000000005
 20
4.645378
 30
0.0
  0
SPLINE
  5
D2
  8
Beaker
 62
7
420
16777215
370
-1
  6
ByLayer
100
AcDbEntity
100
AcDbSpline
 70
8
 71
3
 72
8
 73
4
 74
0
 40
0.0
 40
0.0
 40
0.0
 40
0.0
 40
1.0
 40
1.0
 40
1.0
 40
1.0
 10
16.9234100000000005
 20
4.645378
 30
0.0
 10
17.0498440000000002
 20
4.6980550000000001
 30
0.0
 10
17.1841809999999988
 20
4.7243940000000002
 30
0.0
 10
17.3264229999999984
 20
4.7244000000000002
 30
0.0
  0
LWPOLYLINE
  5
D3
  8
Beaker
 62
7
420
16777215
370
-1
  6
ByLayer
100
AcDbEntity
100
AcDbPolyline
 90
2
 70
0
 10
16.2991339999999987
 20
1.1684000000000001
 10
16.2991339999999987
 20
3.697111
  0
SPLINE
  5
D4
  8
Beaker
 62
7
420
16777215
370
-1
  6
ByLayer
100
AcDbEntity
100
AcDbSpline
 70
8
 71
3
 72
8
 73
4
 74
0
 40
0.0
 40
0.0
 40
0.0
 40
0.0
 40
1.0
 40
1.0
 40
1.0
 40
1.0
 10
17.3264229999999984
 20
3.8709600000000002
 30
0.0
 10
17.279008000000001
 20
3.8709570000000002
 30
0.0
 10
17.2368629999999996
 20
3.8525309999999999
 30
0.0
 10
17.1999870000000001
 20
3.8156439999999998
 30
0.0
  0
SPLINE
  5
D5
  8
Beaker
 62
7
420
16777215
370
-1
  6
ByLayer
100
AcDbEntity
100
AcDbSpline
 70
8
 71
3
 72
8
 73
4
 74
0
 40
0.0
 40
0.0
 40
0.0
 40
0.0
 40
1.0
 40
1.0
 40
1.0
 40
1.0
 10
17.1999870000000001
 20
3.8156439999999998
 30
0.0
 10
17.1683769999999996
 20
3.784033
 30
0.0
 10
17.1525730000000003
 20
3.7445219999999999
 30
0.0
 10
17.1525740000000013
 20
3.697111
 30
0.0
  0
LWPOLYLINE
  5
D6
  8
Beaker
 62
7
420
16777215
370
-1
  6
ByLayer
100
AcDbEntity
100
AcDbPolyline
 90
4
 70
0
 10
17.3264229999999984
 20
4.7244000000000002
 10
20.9456409999999984
 20
4.7244000000000002
 10
20.9456409999999984
 20
3.8709600000000002
 10
17.3264229999999984
 20
3.8709600000000002
  0
SPLINE
  5
D7
  8
Beaker
 62
7
420
16777215
370
-1
  6
ByLayer
100
AcDbEntity
100
AcDbSpline
 70
8
 71
3
 72
8
 73
4
 74
0
 40
0.0
 40
0.0
 40
0.0
 40
0.0
 40
1.0
 40
1.0
 40
1.0
 40
1.0
 10
17.1525740000000013
 20
1.1684000000000001
 30
0.0
 10
17.1525730000000003
 20
1.120987
 30
0.0
 10
17.1683780000000006
 20
1.07884
 30
0.0
 10
17.1999870000000001
 20
1.0419639999999999
 30
0.0
  0
SPLINE
  5
D8
  8
Beaker
 62
7
420
16777215
370
-1
  6
ByLayer
100
AcDbEntity
100
AcDbSpline
 70
8
 71
3
 72
8
 73
4
 74
0
 40
0.0
 40
0.0
 40
0.0
 40
0.0
 40
1.0
 40
1.0
 40
1.0
 40
1.0
 10
17.1999870000000001
 20
1.0419639999999999
 30
0.0
 10
17.2368629999999996
 20
1.010356
 30
0.0
 10
17.279008000000001
 20
0.994551
 30
0.0
 10
17.3264229999999984
 20
0.994551
 30
0.0
  0
LWPOLYLINE
  5
D9
  8
Beaker
 62
7
420
16777215
370
-1
  6
ByLayer
100
AcDbEntity
100
AcDbPolyline
 90
2
 70
0
 10
17.1525740000000013
 20
3.697111
 10
17.1525740000000013
 20
1.1684000000000001
  0
SPLINE
  5
DA
  8
Beaker
 62
7
420
16777215
370
-1
  6
ByLayer
100
AcDbEntity
100
AcDbSpline
 70
8
 71
3
 72
8
 73
4
 74
0
 40
0.0
 40
0.0
 40
0.0
 40
0.0
 40
1.0
 40
1.0
 40
1.0
 40
1.0
 10
25.3289049999999989
 20
4.7244000000000002
 30
0.0
 10
25.4711399999999983
 20
4.7243940000000002
 30
0.0
 10
25.602844000000001
 20
4.6980399999999998
 30
0.0
 10
25.7240159999999989
 20
4.645378
 30
0.0
  0
SPLINE
  5
DB
  8
Beaker
 62
7
420
16777215
370
-1
  6
ByLayer
100
AcDbEntity
100
AcDbSpline
 70
8
 71
3
 72
8
 73
4
 74
0
 40
0.0
 40
0.0
 40
0.0
 40
0.0
 40
1.0
 40
1.0
 40
1.0
 40
1.0
 10
25.7240159999999989
 20
4.645378
 30
0.0
 10
25.8504460000000016
 20
4.5926929999999997
 30
0.0
 10
25.9584440000000001
 20
4.5189370000000002
 30
0.0
 10
26.0480069999999984
 20
4.4241159999999997
 30
0.0
  0
SPLINE
  5
DC
  8
Beaker
 62
7
420
16777215
370
-1
  6
ByLayer
100
AcDbEntity
100
AcDbSpline
 70
8
 71
3
 72
8
 73
4
 74
0
 40
0.0
 40
0.0
 40
0.0
 40
0.0
 40
1.0
 40
1.0
 40
1.0
 40
1.0
 10
26.0480069999999984
 20
4.4241159999999997
 30
0.0
 10
26.1428280000000015
 20
4.3292859999999997
 30
0.0
 10
26.216583
 20
4.218655
 30
0.0
 10
26.2692690000000013
 20
4.0922219999999996
 30
0.0
  0
SPLINE
  5
DD
  8
Beaker
 62
7
420
16777215
370
-1
  6
ByLayer
100
AcDbEntity
100
AcDbSpline
 70
8
 71
3
 72
8
 73
4
 74
0
 40
0.0
 40
0.0
 40
0.0
 40
0.0
 40
1.0
 40
1.0
 40
1.0
 40
1.0
 10
26.2692690000000013
 20
4.0922219999999996
 30
0.0
 10
26.3272130000000004
 20
3.97105
 30
0.0
 10
26.3561879999999995
 20
3.8393480000000002
 30
0.0
 10
26.3561930000000011
 20
3.697111
 30
0.0
  0
LWPOLYLINE
  5
DE
  8
Beaker
 62
7
420
16777215
370
-1
  6
ByLayer
100
AcDbEntity
100
AcDbPolyline
 90
2
 70
0
 10
17.3264229999999984
 20
0.994551
 10
20.9614450000000012
 20
0.994551
  0
SPLINE
  5
DF
  8
Beaker
 62
7
420
16777215
370
-1
  6
ByLayer
100
AcDbEntity
100
AcDbSpline
 70
8
 71
3
 72
8
 73
4
 74
0
 40
0.0
 40
0.0
 40
0.0
 40
0.0
 40
1.0
 40
1.0
 40
1.0
 40
1.0
 10
25.5027529999999985
 20
3.697111
 30
0.0
 10
25.5027490000000014
 20
3.7445219999999999
 30
0.0
 10
25.4843100000000007
 20
3.784033
 30
0.0
 10
25.4474379999999982
 20
3.8156439999999998
 30
0.0
  0
SPLINE
  5
E0
  8
Beaker
 62
7
420
16777215
370
-1
  6
ByLayer
100
AcDbEntity
100
AcDbSpline
 70
8
 71
3
 72
8
 73
4
 74
0
 40
0.0
 40
0.0
 40
0.0
 40
0.0
 40
1.0
 40
1.0
 40
1.0
 40
1.0
 10
25.4474379999999982
 20
3.8156439999999998
 30
0.0
 10
25.4158250000000017
 20
3.8525170000000002
 30
0.0
 10
25.3763140000000007
 20
3.8709570000000002
 30
0.0
 10
25.3289049999999989
 20
3.8709600000000002
 30
0.0
  0
LWPOLYLINE
  5
E1
  8
Beaker
 62
7
420
16777215
370
-1
  6
ByLayer
100
AcDbEntity
100
AcDbPolyline
 90
4
 70
0
 10
26.3561930000000011
 20
3.697111
 10
26.3561930000000011
 20
0.141111
 10
25.5027529999999985
 20
0.141111
 10
25.5027529999999985
 20
3.697111
  0
SPLINE
  5
E2
  8
Beaker
 62
7
420
16777215
370
-1
  6
ByLayer
100
AcDbEntity
100
AcDbSpline
 70
8
 71
3
 72
8
 73
4
 74
0
 40
0.0
 40
0.0
 40
0.0
 40
0.0
 40
1.0
 40
1.0
 40
1.0
 40
1.0
 10
22.7211709999999982
 20
3.8709600000000002
 30
0.0
 10
22.6737560000000009
 20
3.8709570000000002
 30
0.0
 10
22.6316109999999995
 20
3.8525309999999999
 30
0.0
 10
22.594736000000001
 20
3.8156439999999998
 30
0.0
  0
SPLINE
  5
E3
  8
Beaker
 62
7
420
16777215
370
-1
  6
ByLayer
100
AcDbEntity
100
AcDbSpline
 70
8
 71
3
 72
8
 73
4
 74
0
 40
0.0
 40
0.0
 40
0.0
 40
0.0
 40
1.0
 40
1.0
 40
1.0
 40
1.0
 10
22.594736000000001
 20
3.8156439999999998
 30
0.0
 10
22.5631249999999994
 20
3.784033
 30
0.0
 10
22.5473210000000002
 20
3.7445219999999999
 30
0.0
 10
22.5473220000000012
 20
3.697111
 30
0.0
  0
LWPOLYLINE
  5
E4
  8
Beaker
 62
7
420
16777215
370
-1
  6
ByLayer
100
AcDbEntity
100
AcDbPolyline
 90
2
 70
0
 10
25.3289049999999989
 20
3.8709600000000002
 10
22.7211709999999982
 20
3.8709600000000002
  0
SPLINE
  5
E5
  8
Beaker
 62
7
420
16777215
370
-1
  6
ByLayer
100
AcDbEntity
100
AcDbSpline
 70
8
 71
3
 72
8
 73
4
 74
0
 40
0.0
 40
0.0
 40
0.0
 40
0.0
 40
1.0
 40
1.0
 40
1.0
 40
1.0
 10
30.5919069999999991
 20
4.7244000000000002
 30
0.0
 10
30.7341440000000006
 20
4.7243940000000002
 30
0.0
 10
30.8658490000000008
 20
4.6980399999999998
 30
0.0
 10
30.9870179999999991
 20
4.645378
 30
0.0
  0
SPLINE
  5
E6
  8
Beaker
 62
7
420
16777215
370
-1
  6
ByLayer
100
AcDbEntity
100
AcDbSpline
 70
8
 71
3
 72
8
 73
4
 74
0
 40
0.0
 40
0.0
 40
0.0
 40
0.0
 40
1.0
 40
1.0
 40
1.0
 40
1.0
 10
30.9870179999999991
 20
4.645378
 30
0.0
 10
31.1134510000000013
 20
4.5926929999999997
 30
0.0
 10
31.2240819999999992
 20
4.5189370000000002
 30
0.0
 10
31.3189109999999999
 20
4.4241159999999997
 30
0.0
  0
SPLINE
  5
E7
  8
Beaker
 62
7
420
16777215
370
-1
  6
ByLayer
100
AcDbEntity
100
AcDbSpline
 70
8
 71
3
 72
8
 73
4
 74
0
 40
0.0
 40
0.0
 40
0.0
 40
0.0
 40
1.0
 40
1.0
 40
1.0
 40
1.0
 10
31.3189109999999999
 20
4.4241159999999997
 30
0.0
 10
31.4137349999999991
 20
4.3292859999999997
 30
0.0
 10
31.487487999999999
 20
4.218655
 30
0.0
 10
31.5401729999999993
 20
4.0922219999999996
 30
0.0
  0
SPLINE
  5
E8
  8
Beaker
 62
7
420
16777215
370
-1
  6
ByLayer
100
AcDbEntity
100
AcDbSpline
 70
8
 71
3
 72
8
 73
4
 74
0
 40
0.0
 40
0.0
 40
0.0
 40
0.0
 40
1.0
 40
1.0
 40
1.0
 40
1.0
 10
31.5401729999999993
 20
4.0922219999999996
 30
0.0
 10
31.5928499999999985
 20
3.97105
 30
0.0
 10
31.6191929999999992
 20
3.8393480000000002
 30
0.0
 10
31.6191959999999987
 20
3.697111
 30
0.0
  0
LWPOLYLINE
  5
E9
  8
Beaker
 62
7
420
16777215
370
-1
  6
ByLayer
100
AcDbEntity
100
AcDbPolyline
 90
7
 70
0
 10
22.5473220000000012
 20
3.697111
 10
22.5473220000000012
 20
0.141111
 10
21.6938819999999986
 20
0.141111
 10
21.6938819999999986
 20
6.225822
 10
22.5473220000000012
 20
6.225822
 10
22.5473220000000012
 20
4.7244000000000002
 10
25.3289049999999989
 20
4.7244000000000002
  0
SPLINE
  5
EA
  8
Beaker
 62
7
420
16777215
370
-1
  6
ByLayer
100
AcDbEntity
100
AcDbSpline
 70
8
 71
3
 72
8
 73
4
 74
0
 40
0.0
 40
0.0
 40
0.0
 40
0.0
 40
1.0
 40
1.0
 40
1.0
 40
1.0
 10
30.7657559999999997
 20
3.697111
 30
0.0
 10
30.7657530000000001
 20
3.7445219999999999
 30
0.0
 10
30.7473269999999985
 20
3.784033
 30
0.0
 10
30.7104399999999984
 20
3.8156439999999998
 30
0.0
  0
SPLINE
  5
EB
  8
Beaker
 62
7
420
16777215
370
-1
  6
ByLayer
100
AcDbEntity
100
AcDbSpline
 70
8
 71
3
 72
8
 73
4
 74
0
 40
0.0
 40
0.0
 40
0.0
 40
0.0
 40
1.0
 40
1.0
 40
1.0
 40
1.0
 10
30.7104399999999984
 20
3.8156439999999998
 30
0.0
 10
30.6788279999999993
 20
3.8525170000000002
 30
0.0
 10
30.6393169999999984
 20
3.8709570000000002
 30
0.0
 10
30.5919069999999991
 20
3.8709600000000002
 30
0.0
  0
LWPOLYLINE
  5
EC
  8
Beaker
 62
7
420
16777215
370
-1
  6
ByLayer
100
AcDbEntity
100
AcDbPolyline
 90
4
 70
0
 10
31.6191959999999987
 20
3.697111
 10
31.6191959999999987
 20
0.141111
 10
30.7657559999999997
 20
0.141111
 10
30.7657559999999997
 20
3.697111
  0
SPLINE
  5
ED
  8
Beaker
 62
7
420
16777215
370
-1
  6
ByLayer
100
AcDbEntity
100
AcDbSpline
 70
8
 71
3
 72
8
 73
4
 74
0
 40
0.0
 40
0.0
 40
0.0
 40
0.0
 40
1.0
 40
1.0
 40
1.0
 40
1.0
 10
27.9841750000000005
 20
3.8709600000000002
 30
0.0
 10
27.9367599999999996
 20
3.8709570000000002
 30
0.0
 10
27.8946150000000017
 20
3.8525309999999999
 30
0.0
 10
27.8577389999999987
 20
3.8156439999999998
 30
0.0
  0
SPLINE
  5
EE
  8
Beaker
 62
7
420
16777215
370
-1
  6
ByLayer
100
AcDbEntity
100
AcDbSpline
 70
8
 71
3
 72
8
 73
4
 74
0
 40
0.0
 40
0.0
 40
0.0
 40
0.0
 40
1.0
 40
1.0
 40
1.0
 40
1.0
 10
27.8577389999999987
 20
3.8156439999999998
 30
0.0
 10
27.8261290000000017
 20
3.784033
 30
0.0
 10
27.8103249999999989
 20
3.7445219999999999
 30
0.0
 10
27.8103259999999999
 20
3.697111
 30
0.0
  0
LWPOLYLINE
  5
EF
  8
Beaker
 62
7
420
16777215
370
-1
  6
ByLayer
100
AcDbEntity
100
AcDbPolyline
 90
2
 70
0
 10
30.5919069999999991
 20
3.8709600000000002
 10
27.9841750000000005
 20
3.8709600000000002
  0
LWPOLYLINE
  5
F0
  8
Beaker
 62
7
420
16777215
370
-1
  6
ByLayer
100
AcDbEntity
100
AcDbPolyline
 90
5
 70
0
 10
27.8103259999999999
 20
3.697111
 10
27.8103259999999999
 20
0.141111
 10
26.9568860000000008
 20
0.141111
 10
26.9568860000000008
 20
4.7244000000000002
 10
30.5919069999999991
 20
4.7244000000000002
  0
LWPOLYLINE
  5
F1
  8
Beaker
 62
7
420
16777215
370
-1
  6
ByLayer
100
AcDbEntity
100
AcDbPolyline
 90
5
 70
0
 10
32.4355940000000018
 20
4.7244000000000002
 10
33.2890340000000009
 20
4.7244000000000002
 10
33.2890340000000009
 20
0.141111
 10
32.4355940000000018
 20
0.141111
 10
32.4355940000000018
 20
4.7244000000000002
  0
LWPOLYLINE
  5
F2
  8
Beaker
 62
7
420
16777215
370
-1
  6
ByLayer
100
AcDbEntity
100
AcDbPolyline
 90
5
 70
0
 10
33.2890340000000009
 20
6.225822
 10
33.2890340000000009
 20
5.372382
 10
32.4355940000000018
 20
5.372382
 10
32.4355940000000018
 20
6.225822
 10
33.2890340000000009
 20
6.225822
  0
SPLINE
  5
F3
  8
Beaker
 62
7
420
16777215
370
-1
  6
ByLayer
100
AcDbEntity
100
AcDbSpline
 70
8
 71
3
 72
8
 73
4
 74
0
 40
0.0
 40
0.0
 40
0.0
 40
0.0
 40
1.0
 40
1.0
 40
1.0
 40
1.0
 10
34.8851620000000011
 20
0.141111
 30
0.0
 10
34.7429190000000006
 20
0.141111
 30
0.0
 10
34.6085810000000009
 20
0.167442
 30
0.0
 10
34.4821480000000022
 20
0.220133
 30
0.0
  0
SPLINE
  5
F4
  8
Beaker
 62
7
420
16777215
370
-1
  6
ByLayer
100
AcDbEntity
100
AcDbSpline
 70
8
 71
3
 72
8
 73
4
 74
0
 40
0.0
 40
0.0
 40
0.0
 40
0.0
 40
1.0
 40
1.0
 40
1.0
 40
1.0
 10
34.4821480000000022
 20
0.220133
 30
0.0
 10
34.3609790000000004
 20
0.272816
 30
0.0
 10
34.2529809999999983
 20
0.346569
 30
0.0
 10
34.1581570000000028
 20
0.441396
 30
0.0
  0
SPLINE
  5
F5
  8
Beaker
 62
7
420
16777215
370
-1
  6
ByLayer
100
AcDbEntity
100
AcDbSpline
 70
8
 71
3
 72
8
 73
4
 74
0
 40
0.0
 40
0.0
 40
0.0
 40
0.0
 40
1.0
 40
1.0
 40
1.0
 40
1.0
 10
34.1581570000000028
 20
0.441396
 30
0.0
 10
34.0633300000000006
 20
0.536222
 30
0.0
 10
33.9895739999999975
 20
0.644217
 30
0.0
 10
33.9368949999999998
 20
0.765387
 30
0.0
  0
SPLINE
  5
F6
  8
Beaker
 62
7
420
16777215
370
-1
  6
ByLayer
100
AcDbEntity
100
AcDbSpline
 70
8
 71
3
 72
8
 73
4
 74
0
 40
0.0
 40
0.0
 40
0.0
 40
0.0
 40
1.0
 40
1.0
 40
1.0
 40
1.0
 10
33.9368949999999998
 20
0.765387
 30
0.0
 10
33.884211999999998
 20
0.891822
 30
0.0
 10
33.8578729999999979
 20
1.02616
 30
0.0
 10
33.8578729999999979
 20
1.1684000000000001
 30
0.0
  0
LWPOLYLINE
  5
F7
  8
Beaker
 62
7
420
16777215
370
-1
  6
ByLayer
100
AcDbEntity
100
AcDbPolyline
 90
3
 70
0
 10
38.5201840000000004
 20
6.225822
 10
38.5201840000000004
 20
0.141111
 10
34.8851620000000011
 20
0.141111
  0
SPLINE
  5
F8
  8
Beaker
 62
7
420
16777215
370
-1
  6
ByLayer
100
AcDbEntity
100
AcDbSpline
 70
8
 71
3
 72
8
 73
4
 74
0
 40
0.0
 40
0.0
 40
0.0
 40
0.0
 40
1.0
 40
1.0
 40
1.0
 40
1.0
 10
33.8578729999999979
 20
3.697111
 30
0.0
 10
33.8578729999999979
 20
3.8393480000000002
 30
0.0
 10
33.8842039999999969
 20
3.97105
 30
0.0
 10
33.9368949999999998
 20
4.0922219999999996
 30
0.0
  0
SPLINE
  5
F9
  8
Beaker
 62
7
420
16777215
370
-1
  6
ByLayer
100
AcDbEntity
100
AcDbSpline
 70
8
 71
3
 72
8
 73
4
 74
0
 40
0.0
 40
0.0
 40
0.0
 40
0.0
 40
1.0
 40
1.0
 40
1.0
 40
1.0
 10
33.9368949999999998
 20
4.0922219999999996
 30
0.0
 10
33.9895739999999975
 20
4.218655
 30
0.0
 10
34.0633300000000006
 20
4.3292859999999997
 30
0.0
 10
34.1581570000000028
 20
4.4241159999999997
 30
0.0
  0
SPLINE
  5
FA
  8
Beaker
 62
7
420
16777215
370
-1
  6
ByLayer
100
AcDbEntity
100
AcDbSpline
 70
8
 71
3
 72
8
 73
4
 74
0
 40
0.0
 40
0.0
 40
0.0
 40
0.0
 40
1.0
 40
1.0
 40
1.0
 40
1.0
 10
34.1581570000000028
 20
4.4241159999999997
 30
0.0
 10
34.2529809999999983
 20
4.5189370000000002
 30
0.0
 10
34.3609790000000004
 20
4.5926929999999997
 30
0.0
 10
34.4821480000000022
 20
4.645378
 30
0.0
  0
SPLINE
  5
FB
  8
Beaker
 62
7
420
16777215
370
-1
  6
ByLayer
100
AcDbEntity
100
AcDbSpline
 70
8
 71
3
 72
8
 73
4
 74
0
 40
0.0
 40
0.0
 40
0.0
 40
0.0
 40
1.0
 40
1.0
 40
1.0
 40
1.0
 10
34.4821480000000022
 20
4.645378
 30
0.0
 10
34.6085810000000009
 20
4.6980550000000001
 30
0.0
 10
34.7429190000000006
 20
4.7243940000000002
 30
0.0
 10
34.8851620000000011
 20
4.7244000000000002
 30
0.0
  0
LWPOLYLINE
  5
FC
  8
Beaker
 62
7
420
16777215
370
-1
  6
ByLayer
100
AcDbEntity
100
AcDbPolyline
 90
2
 70
0
 10
33.8578729999999979
 20
1.1684000000000001
 10
33.8578729999999979
 20
3.697111
  0
SPLINE
  5
FD
  8
Beaker
 62
7
420
16777215
370
-1
  6
ByLayer
100
AcDbEntity
100
AcDbSpline
 70
8
 71
3
 72
8
 73
4
 74
0
 40
0.0
 40
0.0
 40
0.0
 40
0.0
 40
1.0
 40
1.0
 40
1.0
 40
1.0
 10
37.4928949999999972
 20
0.994551
 30
0.0
 10
37.5403030000000015
 20
0.994551
 30
0.0
 10
37.5798139999999989
 20
1.010356
 30
0.0
 10
37.6114279999999965
 20
1.0419639999999999
 30
0.0
  0
SPLINE
  5
FE
  8
Beaker
 62
7
420
16777215
370
-1
  6
ByLayer
100
AcDbEntity
100
AcDbSpline
 70
8
 71
3
 72
8
 73
4
 74
0
 40
0.0
 40
0.0
 40
0.0
 40
0.0
 40
1.0
 40
1.0
 40
1.0
 40
1.0
 10
37.6114279999999965
 20
1.0419639999999999
 30
0.0
 10
37.6483009999999965
 20
1.07884
 30
0.0
 10
37.6667380000000023
 20
1.120987
 30
0.0
 10
37.6667440000000013
 20
1.1684000000000001
 30
0.0
  0
LWPOLYLINE
  5
FF
  8
Beaker
 62
7
420
16777215
370
-1
  6
ByLayer
100
AcDbEntity
100
AcDbPolyline
 90
4
 70
0
 10
34.8851620000000011
 20
4.7244000000000002
 10
37.6667440000000013
 20
4.7244000000000002
 10
37.6667440000000013
 20
6.225822
 10
38.5201840000000004
 20
6.225822
  0
SPLINE
  5
100
  8
Beaker
 62
7
420
16777215
370
-1
  6
ByLayer
100
AcDbEntity
100
AcDbSpline
 70
8
 71
3
 72
8
 73
4
 74
0
 40
0.0
 40
0.0
 40
0.0
 40
0.0
 40
1.0
 40
1.0
 40
1.0
 40
1.0
 10
37.6667440000000013
 20
3.697111
 30
0.0
 10
37.6667380000000023
 20
3.7445219999999999
 30
0.0
 10
37.6482859999999988
 20
3.784033
 30
0.0
 10
37.6114279999999965
 20
3.8156439999999998
 30
0.0
  0
SPLINE
  5
101
  8
Beaker
 62
7
420
16777215
370
-1
  6
ByLayer
100
AcDbEntity
100
AcDbSpline
 70
8
 71
3
 72
8
 73
4
 74
0
 40
0.0
 40
0.0
 40
0.0
 40
0.0
 40
1.0
 40
1.0
 40
1.0
 40
1.0
 10
37.6114279999999965
 20
3.8156439999999998
 30
0.0
 10
37.5798139999999989
 20
3.8525170000000002
 30
0.0
 10
37.5403030000000015
 20
3.8709570000000002
 30
0.0
 10
37.4928949999999972
 20
3.8709600000000002
 30
0.0
  0
LWPOLYLINE
  5
102
  8
Beaker
 62
7
420
16777215
370
-1
  6
ByLayer
100
AcDbEntity
100
AcDbPolyline
 90
2
 70
0
 10
37.6667440000000013
 20
1.1684000000000001
 10
37.6667440000000013
 20
3.697111
  0
SPLINE
  5
103
  8
Beaker
 62
7
420
16777215
370
-1
  6
ByLayer
100
AcDbEntity
100
AcDbSpline
 70
8
 71
3
 72
8
 73
4
 74
0
 40
0.0
 40
0.0
 40
0.0
 40
0.0
 40
1.0
 40
1.0
 40
1.0
 40
1.0
 10
34.8851620000000011
 20
3.8709600000000002
 30
0.0
 10
34.8377449999999982
 20
3.8709570000000002
 30
0.0
 10
34.7956009999999978
 20
3.8525309999999999
 30
0.0
 10
34.7587260000000029
 20
3.8156439999999998
 30
0.0
  0
SPLINE
  5
104
  8
Beaker
 62
7
420
16777215
370
-1
  6
ByLayer
100
AcDbEntity
100
AcDbSpline
 70
8
 71
3
 72
8
 73
4
 74
0
 40
0.0
 40
0.0
 40
0.0
 40
0.0
 40
1.0
 40
1.0
 40
1.0
 40
1.0
 10
34.7587260000000029
 20
3.8156439999999998
 30
0.0
 10
34.7271140000000003
 20
3.784033
 30
0.0
 10
34.7113099999999974
 20
3.7445219999999999
 30
0.0
 10
34.711312999999997
 20
3.697111
 30
0.0
  0
LWPOLYLINE
  5
105
  8
Beaker
 62
7
420
16777215
370
-1
  6
ByLayer
100
AcDbEntity
100
AcDbPolyline
 90
2
 70
0
 10
37.4928949999999972
 20
3.8709600000000002
 10
34.8851620000000011
 20
3.8709600000000002
  0
SPLINE
  5
106
  8
Beaker
 62
7
420
16777215
370
-1
  6
ByLayer
100
AcDbEntity
100
AcDbSpline
 70
8
 71
3
 72
8
 73
4
 74
0
 40
0.0
 40
0.0
 40
0.0
 40
0.0
 40
1.0
 40
1.0
 40
1.0
 40
1.0
 10
34.711312999999997
 20
1.1684000000000001
 30
0.0
 10
34.7113099999999974
 20
1.120987
 30
0.0
 10
34.7271169999999998
 20
1.07884
 30
0.0
 10
34.7587260000000029
 20
1.0419639999999999
 30
0.0
  0
SPLINE
  5
107
  8
Beaker
 62
7
420
16777215
370
-1
  6
ByLayer
100
AcDbEntity
100
AcDbSpline
 70
8
 71
3
 72
8
 73
4
 74
0
 40
0.0
 40
0.0
 40
0.0
 40
0.0
 40
1.0
 40
1.0
 40
1.0
 40
1.0
 10
34.7587260000000029
 20
1.0419639999999999
 30
0.0
 10
34.7956009999999978
 20
1.010356
 30
0.0
 10
34.8377449999999982
 20
0.994551
 30
0.0
 10
34.8851620000000011
 20
0.994551
 30
0.0
  0
LWPOLYLINE
  5
108
  8
Beaker
 62
7
420
16777215
370
-1
  6
ByLayer
100
AcDbEntity
100
AcDbPolyline
 90
2
 70
0
 10
34.711312999999997
 20
3.697111
 10
34.711312999999997
 20
1.1684000000000001
  0
LWPOLYLINE
  5
109
  8
Beaker
 62
7
420
16777215
370
-1
  6
ByLayer
100
AcDbEntity
100
AcDbPolyline
 90
2
 70
0
 10
34.8851620000000011
 20
0.994551
 10
37.4928949999999972
 20
0.994551
  0
SPLINE
  5
10A
  8
Beaker
 62
7
420
16777215
370
-1
  6
ByLayer
100
AcDbEntity
100
AcDbSpline
 70
8
 71
3
 72
8
 73
4
 74
0
 40
0.0
 40
0.0
 40
0.0
 40
0.0
 40
1.0
 40
1.0
 40
1.0
 40
1.0
 10
51.4429080000000027
 20
4.7244000000000002
 30
0.0
 10
51.5851449999999971
 20
4.7243940000000002
 30
0.0
 10
51.7168500000000009
 20
4.6980399999999998
 30
0.0
 10
51.8380190000000027
 20
4.645378
 30
0.0
  0
SPLINE
  5
10B
  8
Beaker
 62
7
420
16777215
370
-1
  6
ByLayer
100
AcDbEntity
100
AcDbSpline
 70
8
 71
3
 72
8
 73
4
 74
0
 40
0.0
 40
0.0
 40
0.0
 40
0.0
 40
1.0
 40
1.0
 40
1.0
 40
1.0
 10
51.8380190000000027
 20
4.645378
 30
0.0
 10
51.9644520000000014
 20
4.5926929999999997
 30
0.0
 10
52.0750829999999993
 20
4.5189370000000002
 30
0.0
 10
52.1699119999999965
 20
4.4241159999999997
 30
0.0
  0
SPLINE
  5
10C
  8
Beaker
 62
7
420
16777215
370
-1
  6
ByLayer
100
AcDbEntity
100
AcDbSpline
 70
8
 71
3
 72
8
 73
4
 74
0
 40
0.0
 40
0.0
 40
0.0
 40
0.0
 40
1.0
 40
1.0
 40
1.0
 40
1.0
 10
52.1699119999999965
 20
4.4241159999999997
 30
0.0
 10
52.2647359999999992
 20
4.3292859999999997
 30
0.0
 10
52.3384890000000027
 20
4.218655
 30
0.0
 10
52.3911749999999969
 20
4.0922219999999996
 30
0.0
  0
SPLINE
  5
10D
  8
Beaker
 62
7
420
16777215
370
-1
  6
ByLayer
100
AcDbEntity
100
AcDbSpline
 70
8
 71
3
 72
8
 73
4
 74
0
 40
0.0
 40
0.0
 40
0.0
 40
0.0
 40
1.0
 40
1.0
 40
1.0
 40
1.0
 10
52.3911749999999969
 20
4.0922219999999996
 30
0.0
 10
52.4438510000000022
 20
3.97105
 30
0.0
 10
52.4701939999999993
 20
3.8393480000000002
 30
0.0
 10
52.4701969999999989
 20
3.697111
 30
0.0
  0
LWPOLYLINE
  5
10E
  8
Beaker
 62
7
420
16777215
370
-1
  6
ByLayer
100
AcDbEntity
100
AcDbPolyline
 90
7
 70
0
 10
41.6892199999999988
 20
5.8386129999999996
 10
42.5426599999999979
 20
5.8386129999999996
 10
42.5426599999999979
 20
0.994551
 10
47.3788199999999975
 20
0.994551
 10
47.3788199999999975
 20
0.141111
 10
41.6892199999999988
 20
0.141111
 10
41.6892199999999988
 20
5.8386129999999996
  0
SPLINE
  5
10F
  8
Beaker
 62
7
420
16777215
370
-1
  6
ByLayer
100
AcDbEntity
100
AcDbSpline
 70
8
 71
3
 72
8
 73
4
 74
0
 40
0.0
 40
0.0
 40
0.0
 40
0.0
 40
1.0
 40
1.0
 40
1.0
 40
1.0
 10
48.8351749999999996
 20
0.141111
 30
0.0
 10
48.6929349999999985
 20
0.141111
 30
0.0
 10
48.5585969999999989
 20
0.167442
 30
0.0
 10
48.4321610000000007
 20
0.220133
 30
0.0
  0
SPLINE
  5
110
  8
Beaker
 62
7
420
16777215
370
-1
  6
ByLayer
100
AcDbEntity
100
AcDbSpline
 70
8
 71
3
 72
8
 73
4
 74
0
 40
0.0
 40
0.0
 40
0.0
 40
0.0
 40
1.0
 40
1.0
 40
1.0
 40
1.0
 10
48.4321610000000007
 20
0.220133
 30
0.0
 10
48.3109949999999984
 20
0.272816
 30
0.0
 10
48.2029970000000034
 20
0.346569
 30
0.0
 10
48.1081700000000012
 20
0.441396
 30
0.0
  0
SPLINE
  5
111
  8
Beaker
 62
7
420
16777215
370
-1
  6
ByLayer
100
AcDbEntity
100
AcDbSpline
 70
8
 71
3
 72
8
 73
4
 74
0
 40
0.0
 40
0.0
 40
0.0
 40
0.0
 40
1.0
 40
1.0
 40
1.0
 40
1.0
 10
48.1081700000000012
 20
0.441396
 30
0.0
 10
48.013342999999999
 20
0.536222
 30
0.0
 10
47.9395900000000026
 20
0.644217
 30
0.0
 10
47.8869079999999983
 20
0.765387
 30
0.0
  0
SPLINE
  5
112
  8
Beaker
 62
7
420
16777215
370
-1
  6
ByLayer
100
AcDbEntity
100
AcDbSpline
 70
8
 71
3
 72
8
 73
4
 74
0
 40
0.0
 40
0.0
 40
0.0
 40
0.0
 40
1.0
 40
1.0
 40
1.0
 40
1.0
 10
47.8869079999999983
 20
0.765387
 30
0.0
 10
47.8342280000000031
 20
0.891822
 30
0.0
 10
47.8078860000000034
 20
1.02616
 30
0.0
 10
47.8078860000000034
 20
1.1684000000000001
 30
0.0
  0
LWPOLYLINE
  5
113
  8
Beaker
 62
7
420
16777215
370
-1
  6
ByLayer
100
AcDbEntity
100
AcDbPolyline
 90
3
 70
0
 10
52.4701969999999989
 20
3.697111
 10
52.4701969999999989
 20
0.141111
 10
48.8351749999999996
 20
0.141111
  0
SPLINE
  5
114
  8
Beaker
 62
7
420
16777215
370
-1
  6
ByLayer
100
AcDbEntity
100
AcDbSpline
 70
8
 71
3
 72
8
 73
4
 74
0
 40
0.0
 40
0.0
 40
0.0
 40
0.0
 40
1.0
 40
1.0
 40
1.0
 40
1.0
 10
51.6167569999999998
 20
3.697111
 30
0.0
 10
51.6167540000000002
 20
3.7445219999999999
 30
0.0
 10
51.5983280000000022
 20
3.784033
 30
0.0
 10
51.5614410000000021
 20
3.8156439999999998
 30
0.0
  0
SPLINE
  5
115
  8
Beaker
 62
7
420
16777215
370
-1
  6
ByLayer
100
AcDbEntity
100
AcDbSpline
 70
8
 71
3
 72
8
 73
4
 74
0
 40
0.0
 40
0.0
 40
0.0
 40
0.0
 40
1.0
 40
1.0
 40
1.0
 40
1.0
 10
51.5614410000000021
 20
3.8156439999999998
 30
0.0
 10
51.5298289999999994
 20
3.8525170000000002
 30
0.0
 10
51.490318000000002
 20
3.8709570000000002
 30
0.0
 10
51.4429080000000027
 20
3.8709600000000002
 30
0.0
  0
LWPOLYLINE
  5
116
  8
Beaker
 62
7
420
16777215
370
-1
  6
ByLayer
100
AcDbEntity
100
AcDbPolyline
 90
4
 70
0
 10
47.8078860000000034
 20
1.1684000000000001
 10
47.8078860000000034
 20
2.8594759999999999
 10
51.6167569999999998
 20
2.8594759999999999
 10
51.6167569999999998
 20
3.697111
  0
LWPOLYLINE
  5
117
  8
Beaker
 62
7
420
16777215
370
-1
  6
ByLayer
100
AcDbEntity
100
AcDbPolyline
 90
4
 70
0
 10
51.4429080000000027
 20
3.8709600000000002
 10
47.8078860000000034
 20
3.8709600000000002
 10
47.8078860000000034
 20
4.7244000000000002
 10
51.4429080000000027
 20
4.7244000000000002
  0
SPLINE
  5
118
  8
Beaker
 62
7
420
16777215
370
-1
  6
ByLayer
100
AcDbEntity
100
AcDbSpline
 70
8
 71
3
 72
8
 73
4
 74
0
 40
0.0
 40
0.0
 40
0.0
 40
0.0
 40
1.0
 40
1.0
 40
1.0
 40
1.0
 10
48.6613260000000025
 20
1.1684000000000001
 30
0.0
 10
48.6613260000000025
 20
1.120987
 30
0.0
 10
48.6771299999999982
 20
1.07884
 30
0.0
 10
48.7087390000000013
 20
1.0419639999999999
 30
0.0
  0
SPLINE
  5
119
  8
Beaker
 62
7
420
16777215
370
-1
  6
ByLayer
100
AcDbEntity
100
AcDbSpline
 70
8
 71
3
 72
8
 73
4
 74
0
 40
0.0
 40
0.0
 40
0.0
 40
0.0
 40
1.0
 40
1.0
 40
1.0
 40
1.0
 10
48.7087390000000013
 20
1.0419639999999999
 30
0.0
 10
48.7456170000000029
 20
1.010356
 30
0.0
 10
48.7877610000000033
 20
0.994551
 30
0.0
 10
48.8351749999999996
 20
0.994551
 30
0.0
  0
LWPOLYLINE
  5
11A
  8
Beaker
 62
7
420
16777215
370
-1
  6
ByLayer
100
AcDbEntity
100
AcDbPolyline
 90
3
 70
0
 10
51.6167569999999998
 20
2.0060359999999999
 10
48.6613260000000025
 20
2.0060359999999999
 10
48.6613260000000025
 20
1.1684000000000001
  0
SPLINE
  5
11B
  8
Beaker
 62
7
420
16777215
370
-1
  6
ByLayer
100
AcDbEntity
100
AcDbSpline
 70
8
 71
3
 72
8
 73
4
 74
0
 40
0.0
 40
0.0
 40
0.0
 40
0.0
 40
1.0
 40
1.0
 40
1.0
 40
1.0
 10
56.7988870000000006
 20
4.7244000000000002
 30
0.0
 10
56.941122
 20
4.7243940000000002
 30
0.0
 10
57.0728259999999992
 20
4.6980399999999998
 30
0.0
 10
57.1939980000000006
 20
4.645378
 30
0.0
  0
SPLINE
  5
11C
  8
Beaker
 62
7
420
16777215
370
-1
  6
ByLayer
100
AcDbEntity
100
AcDbSpline
 70
8
 71
3
 72
8
 73
4
 74
0
 40
0.0
 40
0.0
 40
0.0
 40
0.0
 40
1.0
 40
1.0
 40
1.0
 40
1.0
 10
57.1939980000000006
 20
4.645378
 30
0.0
 10
57.3204279999999997
 20
4.5926929999999997
 30
0.0
 10
57.4310589999999976
 20
4.5189370000000002
 30
0.0
 10
57.5258919999999989
 20
4.4241159999999997
 30
0.0
  0
SPLINE
  5
11D
  8
Beaker
 62
7
420
16777215
370
-1
  6
ByLayer
100
AcDbEntity
100
AcDbSpline
 70
8
 71
3
 72
8
 73
4
 74
0
 40
0.0
 40
0.0
 40
0.0
 40
0.0
 40
1.0
 40
1.0
 40
1.0
 40
1.0
 10
57.5258919999999989
 20
4.4241159999999997
 30
0.0
 10
57.6207130000000021
 20
4.3292859999999997
 30
0.0
 10
57.6944659999999985
 20
4.218655
 30
0.0
 10
57.7471540000000019
 20
4.0922219999999996
 30
0.0
  0
SPLINE
  5
11E
  8
Beaker
 62
7
420
16777215
370
-1
  6
ByLayer
100
AcDbEntity
100
AcDbSpline
 70
8
 71
3
 72
8
 73
4
 74
0
 40
0.0
 40
0.0
 40
0.0
 40
0.0
 40
1.0
 40
1.0
 40
1.0
 40
1.0
 10
57.7471540000000019
 20
4.0922219999999996
 30
0.0
 10
57.7998309999999975
 20
3.97105
 30
0.0
 10
57.8261710000000022
 20
3.8393480000000002
 30
0.0
 10
57.8261759999999967
 20
3.697111
 30
0.0
  0
LWPOLYLINE
  5
11F
  8
Beaker
 62
7
420
16777215
370
-1
  6
ByLayer
100
AcDbEntity
100
AcDbPolyline
 90
3
 70
0
 10
48.8351749999999996
 20
0.994551
 10
51.6167569999999998
 20
0.994551
 10
51.6167569999999998
 20
2.0060359999999999
  0
SPLINE
  5
120
  8
Beaker
 62
7
420
16777215
370
-1
  6
ByLayer
100
AcDbEntity
100
AcDbSpline
 70
8
 71
3
 72
8
 73
4
 74
0
 40
0.0
 40
0.0
 40
0.0
 40
0.0
 40
1.0
 40
1.0
 40
1.0
 40
1.0
 10
57.8261759999999967
 20
1.1684000000000001
 30
0.0
 10
57.8261710000000022
 20
1.02616
 30
0.0
 10
57.7998169999999973
 20
0.891822
 30
0.0
 10
57.7471540000000019
 20
0.765387
 30
0.0
  0
SPLINE
  5
121
  8
Beaker
 62
7
420
16777215
370
-1
  6
ByLayer
100
AcDbEntity
100
AcDbSpline
 70
8
 71
3
 72
8
 73
4
 74
0
 40
0.0
 40
0.0
 40
0.0
 40
0.0
 40
1.0
 40
1.0
 40
1.0
 40
1.0
 10
57.7471540000000019
 20
0.765387
 30
0.0
 10
57.6944659999999985
 20
0.644217
 30
0.0
 10
57.6207130000000021
 20
0.536222
 30
0.0
 10
57.5258919999999989
 20
0.441396
 30
0.0
  0
SPLINE
  5
122
  8
Beaker
 62
7
420
16777215
370
-1
  6
ByLayer
100
AcDbEntity
100
AcDbSpline
 70
8
 71
3
 72
8
 73
4
 74
0
 40
0.0
 40
0.0
 40
0.0
 40
0.0
 40
1.0
 40
1.0
 40
1.0
 40
1.0
 10
57.5258919999999989
 20
0.441396
 30
0.0
 10
57.4310589999999976
 20
0.346569
 30
0.0
 10
57.3204279999999997
 20
0.272816
 30
0.0
 10
57.1939980000000006
 20
0.220133
 30
0.0
  0
SPLINE
  5
123
  8
Beaker
 62
7
420
16777215
370
-1
  6
ByLayer
100
AcDbEntity
100
AcDbSpline
 70
8
 71
3
 72
8
 73
4
 74
0
 40
0.0
 40
0.0
 40
0.0
 40
0.0
 40
1.0
 40
1.0
 40
1.0
 40
1.0
 10
57.1939980000000006
 20
0.220133
 30
0.0
 10
57.0728259999999992
 20
0.167451
 30
0.0
 10
56.941122
 20
0.141111
 30
0.0
 10
56.7988870000000006
 20
0.141111
 30
0.0
  0
LWPOLYLINE
  5
124
  8
Beaker
 62
7
420
16777215
370
-1
  6
ByLayer
100
AcDbEntity
100
AcDbPolyline
 90
2
 70
0
 10
57.8261759999999967
 20
3.697111
 10
57.8261759999999967
 20
1.1684000000000001
  0
SPLINE
  5
125
  8
Beaker
 62
7
420
16777215
370
-1
  6
ByLayer
100
AcDbEntity
100
AcDbSpline
 70
8
 71
3
 72
8
 73
4
 74
0
 40
0.0
 40
0.0
 40
0.0
 40
0.0
 40
1.0
 40
1.0
 40
1.0
 40
1.0
 10
56.9727359999999976
 20
3.697111
 30
0.0
 10
56.9727310000000031
 20
3.7445219999999999
 30
0.0
 10
56.9542789999999997
 20
3.784033
 30
0.0
 10
56.9174209999999974
 20
3.8156439999999998
 30
0.0
  0
SPLINE
  5
126
  8
Beaker
 62
7
420
16777215
370
-1
  6
ByLayer
100
AcDbEntity
100
AcDbSpline
 70
8
 71
3
 72
8
 73
4
 74
0
 40
0.0
 40
0.0
 40
0.0
 40
0.0
 40
1.0
 40
1.0
 40
1.0
 40
1.0
 10
56.9174209999999974
 20
3.8156439999999998
 30
0.0
 10
56.8858060000000023
 20
3.8525170000000002
 30
0.0
 10
56.8462949999999978
 20
3.8709570000000002
 30
0.0
 10
56.7988870000000006
 20
3.8709600000000002
 30
0.0
  0
LWPOLYLINE
  5
127
  8
Beaker
 62
7
420
16777215
370
-1
  6
ByLayer
100
AcDbEntity
100
AcDbPolyline
 90
6
 70
0
 10
56.7988870000000006
 20
0.141111
 10
53.1638650000000013
 20
0.141111
 10
53.1638650000000013
 20
6.225822
 10
54.0173050000000003
 20
6.225822
 10
54.0173050000000003
 20
4.7244000000000002
 10
56.7988870000000006
 20
4.7244000000000002
  0
SPLINE
  5
128
  8
Beaker
 62
7
420
16777215
370
-1
  6
ByLayer
100
AcDbEntity
100
AcDbSpline
 70
8
 71
3
 72
8
 73
4
 74
0
 40
0.0
 40
0.0
 40
0.0
 40
0.0
 40
1.0
 40
1.0
 40
1.0
 40
1.0
 10
54.1911539999999974
 20
3.8709600000000002
 30
0.0
 10
54.143737999999999
 20
3.8709570000000002
 30
0.0
 10
54.1015939999999986
 20
3.8525309999999999
 30
0.0
 10
54.0647179999999992
 20
3.8156439999999998
 30
0.0
  0
SPLINE
  5
129
  8
Beaker
 62
7
420
16777215
370
-1
  6
ByLayer
100
AcDbEntity
100
AcDbSpline
 70
8
 71
3
 72
8
 73
4
 74
0
 40
0.0
 40
0.0
 40
0.0
 40
0.0
 40
1.0
 40
1.0
 40
1.0
 40
1.0
 10
54.0647179999999992
 20
3.8156439999999998
 30
0.0
 10
54.0331070000000011
 20
3.784033
 30
0.0
 10
54.0173020000000008
 20
3.7445219999999999
 30
0.0
 10
54.0173050000000003
 20
3.697111
 30
0.0
  0
LWPOLYLINE
  5
12A
  8
Beaker
 62
7
420
16777215
370
-1
  6
ByLayer
100
AcDbEntity
100
AcDbPolyline
 90
2
 70
0
 10
56.7988870000000006
 20
3.8709600000000002
 10
54.1911539999999974
 20
3.8709600000000002
  0
SPLINE
  5
12B
  8
Beaker
 62
7
420
16777215
370
-1
  6
ByLayer
100
AcDbEntity
100
AcDbSpline
 70
8
 71
3
 72
8
 73
4
 74
0
 40
0.0
 40
0.0
 40
0.0
 40
0.0
 40
1.0
 40
1.0
 40
1.0
 40
1.0
 10
54.0173050000000003
 20
1.1684000000000001
 30
0.0
 10
54.0173020000000008
 20
1.120987
 30
0.0
 10
54.0331100000000006
 20
1.07884
 30
0.0
 10
54.0647179999999992
 20
1.0419639999999999
 30
0.0
  0
SPLINE
  5
12C
  8
Beaker
 62
7
420
16777215
370
-1
  6
ByLayer
100
AcDbEntity
100
AcDbSpline
 70
8
 71
3
 72
8
 73
4
 74
0
 40
0.0
 40
0.0
 40
0.0
 40
0.0
 40
1.0
 40
1.0
 40
1.0
 40
1.0
 10
54.0647179999999992
 20
1.0419639999999999
 30
0.0
 10
54.1015939999999986
 20
1.010356
 30
0.0
 10
54.143737999999999
 20
0.994551
 30
0.0
 10
54.1911539999999974
 20
0.994551
 30
0.0
  0
LWPOLYLINE
  5
12D
  8
Beaker
 62
7
420
16777215
370
-1
  6
ByLayer
100
AcDbEntity
100
AcDbPolyline
 90
2
 70
0
 10
54.0173050000000003
 20
3.697111
 10
54.0173050000000003
 20
1.1684000000000001
  0
SPLINE
  5
12E
  8
Beaker
 62
7
420
16777215
370
-1
  6
ByLayer
100
AcDbEntity
100
AcDbSpline
 70
8
 71
3
 72
8
 73
4
 74
0
 40
0.0
 40
0.0
 40
0.0
 40
0.0
 40
1.0
 40
1.0
 40
1.0
 40
1.0
 10
56.7988870000000006
 20
0.994551
 30
0.0
 10
56.8462949999999978
 20
0.994551
 30
0.0
 10
56.8858060000000023
 20
1.010356
 30
0.0
 10
56.9174209999999974
 20
1.0419639999999999
 30
0.0
  0
SPLINE
  5
12F
  8
Beaker
 62
7
420
16777215
370
-1
  6
ByLayer
100
AcDbEntity
100
AcDbSpline
 70
8
 71
3
 72
8
 73
4
 74
0
 40
0.0
 40
0.0
 40
0.0
 40
0.0
 40
1.0
 40
1.0
 40
1.0
 40
1.0
 10
56.9174209999999974
 20
1.0419639999999999
 30
0.0
 10
56.9542929999999998
 20
1.07884
 30
0.0
 10
56.9727310000000031
 20
1.120987
 30
0.0
 10
56.9727359999999976
 20
1.1684000000000001
 30
0.0
  0
LWPOLYLINE
  5
130
  8
Beaker
 62
7
420
16777215
370
-1
  6
ByLayer
100
AcDbEntity
100
AcDbPolyline
 90
2
 70
0
 10
54.1911539999999974
 20
0.994551
 10
56.7988870000000006
 20
0.994551
  0
LWPOLYLINE
  5
131
  8
Beaker
 62
7
420
16777215
370
-1
  6
ByLayer
100
AcDbEntity
100
AcDbPolyline
 90
2
 70
0
 10
56.9727359999999976
 20
1.1684000000000001
 10
56.9727359999999976
 20
3.697111
  0
SPLINE
  5
132
  8
Beaker
 62
7
420
16777215
370
-1
  6
ByLayer
100
AcDbEntity
100
AcDbSpline
 70
8
 71
3
 72
8
 73
4
 74
0
 40
0.0
 40
0.0
 40
0.0
 40
0.0
 40
1.0
 40
1.0
 40
1.0
 40
1.0
 10
62.188327000000001
 20
3.697111
 30
0.0
 10
62.188321000000002
 20
3.7445219999999999
 30
0.0
 10
62.1698980000000034
 20
3.784033
 30
0.0
 10
62.1330120000000008
 20
3.8156439999999998
 30
0.0
  0
SPLINE
  5
133
  8
Beaker
 62
7
420
16777215
370
-1
  6
ByLayer
100
AcDbEntity
100
AcDbSpline
 70
8
 71
3
 72
8
 73
4
 74
0
 40
0.0
 40
0.0
 40
0.0
 40
0.0
 40
1.0
 40
1.0
 40
1.0
 40
1.0
 10
62.1330120000000008
 20
3.8156439999999998
 30
0.0
 10
62.1013969999999986
 20
3.8525170000000002
 30
0.0
 10
62.0618860000000012
 20
3.8709570000000002
 30
0.0
 10
62.0144779999999969
 20
3.8709600000000002
 30
0.0
  0
LWPOLYLINE
  5
134
  8
Beaker
 62
7
420
16777215
370
-1
  6
ByLayer
100
AcDbEntity
100
AcDbPolyline
 90
3
 70
0
 10
63.0417670000000001
 20
3.5232619999999999
 10
62.188327000000001
 20
3.5232619999999999
 10
62.188327000000001
 20
3.697111
  0
SPLINE
  5
135
  8
Beaker
 62
7
420
16777215
370
-1
  6
ByLayer
100
AcDbEntity
100
AcDbSpline
 70
8
 71
3
 72
8
 73
4
 74
0
 40
0.0
 40
0.0
 40
0.0
 40
0.0
 40
1.0
 40
1.0
 40
1.0
 40
1.0
 10
59.4067450000000008
 20
3.8709600000000002
 30
0.0
 10
59.3593290000000025
 20
3.8709570000000002
 30
0.0
 10
59.3171839999999975
 20
3.8525309999999999
 30
0.0
 10
59.2803090000000026
 20
3.8156439999999998
 30
0.0
  0
SPLINE
  5
136
  8
Beaker
 62
7
420
16777215
370
-1
  6
ByLayer
100
AcDbEntity
100
AcDbSpline
 70
8
 71
3
 72
8
 73
4
 74
0
 40
0.0
 40
0.0
 40
0.0
 40
0.0
 40
1.0
 40
1.0
 40
1.0
 40
1.0
 10
59.2803090000000026
 20
3.8156439999999998
 30
0.0
 10
59.2486979999999974
 20
3.784033
 30
0.0
 10
59.2328929999999971
 20
3.7445219999999999
 30
0.0
 10
59.2328959999999967
 20
3.697111
 30
0.0
  0
LWPOLYLINE
  5
137
  8
Beaker
 62
7
420
16777215
370
-1
  6
ByLayer
100
AcDbEntity
100
AcDbPolyline
 90
2
 70
0
 10
62.0144779999999969
 20
3.8709600000000002
 10
59.4067450000000008
 20
3.8709600000000002
  0
SPLINE
  5
138
  8
Beaker
 62
7
420
16777215
370
-1
  6
ByLayer
100
AcDbEntity
100
AcDbSpline
 70
8
 71
3
 72
8
 73
4
 74
0
 40
0.0
 40
0.0
 40
0.0
 40
0.0
 40
1.0
 40
1.0
 40
1.0
 40
1.0
 10
59.2328959999999967
 20
3.0333239999999999
 30
0.0
 10
59.2328929999999971
 20
2.9859079999999998
 30
0.0
 10
59.2486999999999995
 20
2.9437639999999998
 30
0.0
 10
59.2803090000000026
 20
2.9068890000000001
 30
0.0
  0
SPLINE
  5
139
  8
Beaker
 62
7
420
16777215
370
-1
  6
ByLayer
100
AcDbEntity
100
AcDbSpline
 70
8
 71
3
 72
8
 73
4
 74
0
 40
0.0
 40
0.0
 40
0.0
 40
0.0
 40
1.0
 40
1.0
 40
1.0
 40
1.0
 10
59.2803090000000026
 20
2.9068890000000001
 30
0.0
 10
59.3171839999999975
 20
2.8752770000000001
 30
0.0
 10
59.3593290000000025
 20
2.8594729999999999
 30
0.0
 10
59.4067450000000008
 20
2.8594759999999999
 30
0.0
  0
LWPOLYLINE
  5
13A
  8
Beaker
 62
7
420
16777215
370
-1
  6
ByLayer
100
AcDbEntity
100
AcDbPolyline
 90
2
 70
0
 10
59.2328959999999967
 20
3.697111
 10
59.2328959999999967
 20
3.0333239999999999
  0
SPLINE
  5
13B
  8
Beaker
 62
7
420
16777215
370
-1
  6
ByLayer
100
AcDbEntity
100
AcDbSpline
 70
8
 71
3
 72
8
 73
4
 74
0
 40
0.0
 40
0.0
 40
0.0
 40
0.0
 40
1.0
 40
1.0
 40
1.0
 40
1.0
 10
62.0144779999999969
 20
2.8594759999999999
 30
0.0
 10
62.1567130000000034
 20
2.8594729999999999
 30
0.0
 10
62.2884170000000026
 20
2.8331439999999999
 30
0.0
 10
62.4095889999999969
 20
2.7804530000000001
 30
0.0
  0
SPLINE
  5
13C
  8
Beaker
 62
7
420
16777215
370
-1
  6
ByLayer
100
AcDbEntity
100
AcDbSpline
 70
8
 71
3
 72
8
 73
4
 74
0
 40
0.0
 40
0.0
 40
0.0
 40
0.0
 40
1.0
 40
1.0
 40
1.0
 40
1.0
 10
62.4095889999999969
 20
2.7804530000000001
 30
0.0
 10
62.5360190000000031
 20
2.7277680000000002
 30
0.0
 10
62.6466500000000011
 20
2.6540149999999998
 30
0.0
 10
62.7414830000000023
 20
2.5591910000000002
 30
0.0
  0
SPLINE
  5
13D
  8
Beaker
 62
7
420
16777215
370
-1
  6
ByLayer
100
AcDbEntity
100
AcDbSpline
 70
8
 71
3
 72
8
 73
4
 74
0
 40
0.0
 40
0.0
 40
0.0
 40
0.0
 40
1.0
 40
1.0
 40
1.0
 40
1.0
 10
62.7414830000000023
 20
2.5591910000000002
 30
0.0
 10
62.8363039999999984
 20
2.4643619999999999
 30
0.0
 10
62.9100570000000019
 20
2.3537309999999998
 30
0.0
 10
62.9627449999999982
 20
2.2272979999999998
 30
0.0
  0
SPLINE
  5
13E
  8
Beaker
 62
7
420
16777215
370
-1
  6
ByLayer
100
AcDbEntity
100
AcDbSpline
 70
8
 71
3
 72
8
 73
4
 74
0
 40
0.0
 40
0.0
 40
0.0
 40
0.0
 40
1.0
 40
1.0
 40
1.0
 40
1.0
 10
62.9627449999999982
 20
2.2272979999999998
 30
0.0
 10
63.0154220000000009
 20
2.106128
 30
0.0
 10
63.041761000000001
 20
1.974424
 30
0.0
 10
63.0417670000000001
 20
1.832187
 30
0.0
  0
LWPOLYLINE
  5
13F
  8
Beaker
 62
7
420
16777215
370
-1
  6
ByLayer
100
AcDbEntity
100
AcDbPolyline
 90
2
 70
0
 10
59.4067450000000008
 20
2.8594759999999999
 10
62.0144779999999969
 20
2.8594759999999999
  0
SPLINE
  5
140
  8
Beaker
 62
7
420
16777215
370
-1
  6
ByLayer
100
AcDbEntity
100
AcDbSpline
 70
8
 71
3
 72
8
 73
4
 74
0
 40
0.0
 40
0.0
 40
0.0
 40
0.0
 40
1.0
 40
1.0
 40
1.0
 40
1.0
 10
63.0417670000000001
 20
1.1684000000000001
 30
0.0
 10
63.041761000000001
 20
1.02616
 30
0.0
 10
63.0154360000000011
 20
0.891822
 30
0.0
 10
62.9627449999999982
 20
0.765387
 30
0.0
  0
SPLINE
  5
141
  8
Beaker
 62
7
420
16777215
370
-1
  6
ByLayer
100
AcDbEntity
100
AcDbSpline
 70
8
 71
3
 72
8
 73
4
 74
0
 40
0.0
 40
0.0
 40
0.0
 40
0.0
 40
1.0
 40
1.0
 40
1.0
 40
1.0
 10
62.9627449999999982
 20
0.765387
 30
0.0
 10
62.9100570000000019
 20
0.644217
 30
0.0
 10
62.8363039999999984
 20
0.536222
 30
0.0
 10
62.7414830000000023
 20
0.441396
 30
0.0
  0
SPLINE
  5
142
  8
Beaker
 62
7
420
16777215
370
-1
  6
ByLayer
100
AcDbEntity
100
AcDbSpline
 70
8
 71
3
 72
8
 73
4
 74
0
 40
0.0
 40
0.0
 40
0.0
 40
0.0
 40
1.0
 40
1.0
 40
1.0
 40
1.0
 10
62.7414830000000023
 20
0.441396
 30
0.0
 10
62.6466500000000011
 20
0.346569
 30
0.0
 10
62.5360190000000031
 20
0.272816
 30
0.0
 10
62.4095889999999969
 20
0.220133
 30
0.0
  0
SPLINE
  5
143
  8
Beaker
 62
7
420
16777215
370
-1
  6
ByLayer
100
AcDbEntity
100
AcDbSpline
 70
8
 71
3
 72
8
 73
4
 74
0
 40
0.0
 40
0.0
 40
0.0
 40
0.0
 40
1.0
 40
1.0
 40
1.0
 40
1.0
 10
62.4095889999999969
 20
0.220133
 30
0.0
 10
62.2884170000000026
 20
0.167451
 30
0.0
 10
62.1567130000000034
 20
0.141111
 30
0.0
 10
62.0144779999999969
 20
0.141111
 30
0.0
  0
LWPOLYLINE
  5
144
  8
Beaker
 62
7
420
16777215
370
-1
  6
ByLayer
100
AcDbEntity
100
AcDbPolyline
 90
2
 70
0
 10
63.0417670000000001
 20
1.832187
 10
63.0417670000000001
 20
1.1684000000000001
  0
SPLINE
  5
145
  8
Beaker
 62
7
420
16777215
370
-1
  6
ByLayer
100
AcDbEntity
100
AcDbSpline
 70
8
 71
3
 72
8
 73
4
 74
0
 40
0.0
 40
0.0
 40
0.0
 40
0.0
 40
1.0
 40
1.0
 40
1.0
 40
1.0
 10
59.4067450000000008
 20
0.141111
 30
0.0
 10
59.2645020000000002
 20
0.141111
 30
0.0
 10
59.1301640000000006
 20
0.167442
 30
0.0
 10
59.0037319999999994
 20
0.220133
 30
0.0
  0
SPLINE
  5
146
  8
Beaker
 62
7
420
16777215
370
-1
  6
ByLayer
100
AcDbEntity
100
AcDbSpline
 70
8
 71
3
 72
8
 73
4
 74
0
 40
0.0
 40
0.0
 40
0.0
 40
0.0
 40
1.0
 40
1.0
 40
1.0
 40
1.0
 10
59.0037319999999994
 20
0.220133
 30
0.0
 10
58.8825620000000001
 20
0.272816
 30
0.0
 10
58.774563999999998
 20
0.346569
 30
0.0
 10
58.6797400000000025
 20
0.441396
 30
0.0
  0
SPLINE
  5
147
  8
Beaker
 62
7
420
16777215
370
-1
  6
ByLayer
100
AcDbEntity
100
AcDbSpline
 70
8
 71
3
 72
8
 73
4
 74
0
 40
0.0
 40
0.0
 40
0.0
 40
0.0
 40
1.0
 40
1.0
 40
1.0
 40
1.0
 10
58.6797400000000025
 20
0.441396
 30
0.0
 10
58.5849109999999982
 20
0.536222
 30
0.0
 10
58.5111580000000018
 20
0.644217
 30
0.0
 10
58.4584779999999995
 20
0.765387
 30
0.0
  0
SPLINE
  5
148
  8
Beaker
 62
7
420
16777215
370
-1
  6
ByLayer
100
AcDbEntity
100
AcDbSpline
 70
8
 71
3
 72
8
 73
4
 74
0
 40
0.0
 40
0.0
 40
0.0
 40
0.0
 40
1.0
 40
1.0
 40
1.0
 40
1.0
 10
58.4584779999999995
 20
0.765387
 30
0.0
 10
58.4057960000000023
 20
0.891822
 30
0.0
 10
58.3794559999999976
 20
1.02616
 30
0.0
 10
58.3794559999999976
 20
1.1684000000000001
 30
0.0
  0
LWPOLYLINE
  5
149
  8
Beaker
 62
7
420
16777215
370
-1
  6
ByLayer
100
AcDbEntity
100
AcDbPolyline
 90
2
 70
0
 10
62.0144779999999969
 20
0.141111
 10
59.4067450000000008
 20
0.141111
  0
SPLINE
  5
14A
  8
Beaker
 62
7
420
16777215
370
-1
  6
ByLayer
100
AcDbEntity
100
AcDbSpline
 70
8
 71
3
 72
8
 73
4
 74
0
 40
0.0
 40
0.0
 40
0.0
 40
0.0
 40
1.0
 40
1.0
 40
1.0
 40
1.0
 10
59.2328959999999967
 20
1.1684000000000001
 30
0.0
 10
59.2328929999999971
 20
1.120987
 30
0.0
 10
59.2486999999999995
 20
1.07884
 30
0.0
 10
59.2803090000000026
 20
1.0419639999999999
 30
0.0
  0
SPLINE
  5
14B
  8
Beaker
 62
7
420
16777215
370
-1
  6
ByLayer
100
AcDbEntity
100
AcDbSpline
 70
8
 71
3
 72
8
 73
4
 74
0
 40
0.0
 40
0.0
 40
0.0
 40
0.0
 40
1.0
 40
1.0
 40
1.0
 40
1.0
 10
59.2803090000000026
 20
1.0419639999999999
 30
0.0
 10
59.3171839999999975
 20
1.010356
 30
0.0
 10
59.3593290000000025
 20
0.994551
 30
0.0
 10
59.4067450000000008
 20
0.994551
 30
0.0
  0
LWPOLYLINE
  5
14C
  8
Beaker
 62
7
420
16777215
370
-1
  6
ByLayer
100
AcDbEntity
100
AcDbPolyline
 90
4
 70
0
 10
58.3794559999999976
 20
1.1684000000000001
 10
58.3794559999999976
 20
1.342249
 10
59.2328959999999967
 20
1.342249
 10
59.2328959999999967
 20
1.1684000000000001
  0
SPLINE
  5
14D
  8
Beaker
 62
7
420
16777215
370
-1
  6
ByLayer
100
AcDbEntity
100
AcDbSpline
 70
8
 71
3
 72
8
 73
4
 74
0
 40
0.0
 40
0.0
 40
0.0
 40
0.0
 40
1.0
 40
1.0
 40
1.0
 40
1.0
 10
62.0144779999999969
 20
0.994551
 30
0.0
 10
62.0618860000000012
 20
0.994551
 30
0.0
 10
62.1013969999999986
 20
1.010356
 30
0.0
 10
62.1330120000000008
 20
1.0419639999999999
 30
0.0
  0
SPLINE
  5
14E
  8
Beaker
 62
7
420
16777215
370
-1
  6
ByLayer
100
AcDbEntity
100
AcDbSpline
 70
8
 71
3
 72
8
 73
4
 74
0
 40
0.0
 40
0.0
 40
0.0
 40
0.0
 40
1.0
 40
1.0
 40
1.0
 40
1.0
 10
62.1330120000000008
 20
1.0419639999999999
 30
0.0
 10
62.1698840000000033
 20
1.07884
 30
0.0
 10
62.188321000000002
 20
1.120987
 30
0.0
 10
62.188327000000001
 20
1.1684000000000001
 30
0.0
  0
LWPOLYLINE
  5
14F
  8
Beaker
 62
7
420
16777215
370
-1
  6
ByLayer
100
AcDbEntity
100
AcDbPolyline
 90
2
 70
0
 10
59.4067450000000008
 20
0.994551
 10
62.0144779999999969
 20
0.994551
  0
SPLINE
  5
150
  8
Beaker
 62
7
420
16777215
370
-1
  6
ByLayer
100
AcDbEntity
100
AcDbSpline
 70
8
 71
3
 72
8
 73
4
 74
0
 40
0.0
 40
0.0
 40
0.0
 40
0.0
 40
1.0
 40
1.0
 40
1.0
 40
1.0
 10
62.188327000000001
 20
1.832187
 30
0.0
 10
62.188321000000002
 20
1.879597
 30
0.0
 10
62.1698980000000034
 20
1.919108
 30
0.0
 10
62.1330120000000008
 20
1.95072
 30
0.0
  0
SPLINE
  5
151
  8
Beaker
 62
7
420
16777215
370
-1
  6
ByLayer
100
AcDbEntity
100
AcDbSpline
 70
8
 71
3
 72
8
 73
4
 74
0
 40
0.0
 40
0.0
 40
0.0
 40
0.0
 40
1.0
 40
1.0
 40
1.0
 40
1.0
 10
62.1330120000000008
 20
1.95072
 30
0.0
 10
62.1013969999999986
 20
1.987595
 30
0.0
 10
62.0618860000000012
 20
2.006033
 30
0.0
 10
62.0144779999999969
 20
2.0060359999999999
 30
0.0
  0
LWPOLYLINE
  5
152
  8
Beaker
 62
7
420
16777215
370
-1
  6
ByLayer
100
AcDbEntity
100
AcDbPolyline
 90
2
 70
0
 10
62.188327000000001
 20
1.1684000000000001
 10
62.188327000000001
 20
1.832187
  0
SPLINE
  5
153
  8
Beaker
 62
7
420
16777215
370
-1
  6
ByLayer
100
AcDbEntity
100
AcDbSpline
 70
8
 71
3
 72
8
 73
4
 74
0
 40
0.0
 40
0.0
 40
0.0
 40
0.0
 40
1.0
 40
1.0
 40
1.0
 40
1.0
 10
59.4067450000000008
 20
2.0060359999999999
 30
0.0
 10
59.2645020000000002
 20
2.006033
 30
0.0
 10
59.1301640000000006
 20
2.0323669999999998
 30
0.0
 10
59.0037319999999994
 20
2.0850580000000001
 30
0.0
  0
SPLINE
  5
154
  8
Beaker
 62
7
420
16777215
370
-1
  6
ByLayer
100
AcDbEntity
100
AcDbSpline
 70
8
 71
3
 72
8
 73
4
 74
0
 40
0.0
 40
0.0
 40
0.0
 40
0.0
 40
1.0
 40
1.0
 40
1.0
 40
1.0
 10
59.0037319999999994
 20
2.0850580000000001
 30
0.0
 10
58.8825620000000001
 20
2.137737
 30
0.0
 10
58.774563999999998
 20
2.2114910000000001
 30
0.0
 10
58.6797400000000025
 20
2.3063199999999999
 30
0.0
  0
SPLINE
  5
155
  8
Beaker
 62
7
420
16777215
370
-1
  6
ByLayer
100
AcDbEntity
100
AcDbSpline
 70
8
 71
3
 72
8
 73
4
 74
0
 40
0.0
 40
0.0
 40
0.0
 40
0.0
 40
1.0
 40
1.0
 40
1.0
 40
1.0
 10
58.6797400000000025
 20
2.3063199999999999
 30
0.0
 10
58.5849109999999982
 20
2.4011439999999999
 30
0.0
 10
58.5111580000000018
 20
2.5091420000000002
 30
0.0
 10
58.4584779999999995
 20
2.6303109999999998
 30
0.0
  0
SPLINE
  5
156
  8
Beaker
 62
7
420
16777215
370
-1
  6
ByLayer
100
AcDbEntity
100
AcDbSpline
 70
8
 71
3
 72
8
 73
4
 74
0
 40
0.0
 40
0.0
 40
0.0
 40
0.0
 40
1.0
 40
1.0
 40
1.0
 40
1.0
 10
58.4584779999999995
 20
2.6303109999999998
 30
0.0
 10
58.4057960000000023
 20
2.7567439999999999
 30
0.0
 10
58.3794559999999976
 20
2.8910819999999999
 30
0.0
 10
58.3794559999999976
 20
3.0333239999999999
 30
0.0
  0
LWPOLYLINE
  5
157
  8
Beaker
 62
7
420
16777215
370
-1
  6
ByLayer
100
AcDbEntity
100
AcDbPolyline
 90
2
 70
0
 10
62.0144779999999969
 20
2.0060359999999999
 10
59.4067450000000008
 20
2.0060359999999999
  0
SPLINE
  5
158
  8
Beaker
 62
7
420
16777215
370
-1
  6
ByLayer
100
AcDbEntity
100
AcDbSpline
 70
8
 71
3
 72
8
 73
4
 74
0
 40
0.0
 40
0.0
 40
0.0
 40
0.0
 40
1.0
 40
1.0
 40
1.0
 40
1.0
 10
58.3794559999999976
 20
3.697111
 30
0.0
 10
58.3794559999999976
 20
3.8393480000000002
 30
0.0
 10
58.4057869999999966
 20
3.97105
 30
0.0
 10
58.4584779999999995
 20
4.0922219999999996
 30
0.0
  0
SPLINE
  5
159
  8
Beaker
 62
7
420
16777215
370
-1
  6
ByLayer
100
AcDbEntity
100
AcDbSpline
 70
8
 71
3
 72
8
 73
4
 74
0
 40
0.0
 40
0.0
 40
0.0
 40
0.0
 40
1.0
 40
1.0
 40
1.0
 40
1.0
 10
58.4584779999999995
 20
4.0922219999999996
 30
0.0
 10
58.5111580000000018
 20
4.218655
 30
0.0
 10
58.5849109999999982
 20
4.3292859999999997
 30
0.0
 10
58.6797400000000025
 20
4.4241159999999997
 30
0.0
  0
SPLINE
  5
15A
  8
Beaker
 62
7
420
16777215
370
-1
  6
ByLayer
100
AcDbEntity
100
AcDbSpline
 70
8
 71
3
 72
8
 73
4
 74
0
 40
0.0
 40
0.0
 40
0.0
 40
0.0
 40
1.0
 40
1.0
 40
1.0
 40
1.0
 10
58.6797400000000025
 20
4.4241159999999997
 30
0.0
 10
58.774563999999998
 20
4.5189370000000002
 30
0.0
 10
58.8825620000000001
 20
4.5926929999999997
 30
0.0
 10
59.0037319999999994
 20
4.645378
 30
0.0
  0
SPLINE
  5
15B
  8
Beaker
 62
7
420
16777215
370
-1
  6
ByLayer
100
AcDbEntity
100
AcDbSpline
 70
8
 71
3
 72
8
 73
4
 74
0
 40
0.0
 40
0.0
 40
0.0
 40
0.0
 40
1.0
 40
1.0
 40
1.0
 40
1.0
 10
59.0037319999999994
 20
4.645378
 30
0.0
 10
59.1301640000000006
 20
4.6980550000000001
 30
0.0
 10
59.2645020000000002
 20
4.7243940000000002
 30
0.0
 10
59.4067450000000008
 20
4.7244000000000002
 30
0.0
  0
LWPOLYLINE
  5
15C
  8
Beaker
 62
7
420
16777215
370
-1
  6
ByLayer
100
AcDbEntity
100
AcDbPolyline
 90
2
 70
0
 10
58.3794559999999976
 20
3.0333239999999999
 10
58.3794559999999976
 20
3.697111
  0
SPLINE
  5
15D
  8
Beaker
 62
7
420
16777215
370
-1
  6
ByLayer
100
AcDbEntity
100
AcDbSpline
 70
8
 71
3
 72
8
 73
4
 74
0
 40
0.0
 40
0.0
 40
0.0
 40
0.0
 40
1.0
 40
1.0
 40
1.0
 40
1.0
 10
62.0144779999999969
 20
4.7244000000000002
 30
0.0
 10
62.1567130000000034
 20
4.7243940000000002
 30
0.0
 10
62.2884170000000026
 20
4.6980399999999998
 30
0.0
 10
62.4095889999999969
 20
4.645378
 30
0.0
  0
SPLINE
  5
15E
  8
Beaker
 62
7
420
16777215
370
-1
  6
ByLayer
100
AcDbEntity
100
AcDbSpline
 70
8
 71
3
 72
8
 73
4
 74
0
 40
0.0
 40
0.0
 40
0.0
 40
0.0
 40
1.0
 40
1.0
 40
1.0
 40
1.0
 10
62.4095889999999969
 20
4.645378
 30
0.0
 10
62.5360190000000031
 20
4.5926929999999997
 30
0.0
 10
62.6466500000000011
 20
4.5189370000000002
 30
0.0
 10
62.7414830000000023
 20
4.4241159999999997
 30
0.0
  0
SPLINE
  5
15F
  8
Beaker
 62
7
420
16777215
370
-1
  6
ByLayer
100
AcDbEntity
100
AcDbSpline
 70
8
 71
3
 72
8
 73
4
 74
0
 40
0.0
 40
0.0
 40
0.0
 40
0.0
 40
1.0
 40
1.0
 40
1.0
 40
1.0
 10
62.7414830000000023
 20
4.4241159999999997
 30
0.0
 10
62.8363039999999984
 20
4.3292859999999997
 30
0.0
 10
62.9100570000000019
 20
4.218655
 30
0.0
 10
62.9627449999999982
 20
4.0922219999999996
 30
0.0
  0
SPLINE
  5
160
  8
Beaker
 62
7
420
16777215
370
-1
  6
ByLayer
100
AcDbEntity
100
AcDbSpline
 70
8
 71
3
 72
8
 73
4
 74
0
 40
0.0
 40
0.0
 40
0.0
 40
0.0
 40
1.0
 40
1.0
 40
1.0
 40
1.0
 10
62.9627449999999982
 20
4.0922219999999996
 30
0.0
 10
63.0154220000000009
 20
3.97105
 30
0.0
 10
63.041761000000001
 20
3.8393480000000002
 30
0.0
 10
63.0417670000000001
 20
3.697111
 30
0.0
  0
LWPOLYLINE
  5
161
  8
Beaker
 62
7
420
16777215
370
-1
  6
ByLayer
100
AcDbEntity
100
AcDbPolyline
 90
2
 70
0
 10
59.4067450000000008
 20
4.7244000000000002
 10
62.0144779999999969
 20
4.7244000000000002
  0
LWPOLYLINE
  5
162
  8
Beaker
 62
7
420
16777215
370
-1
  6
ByLayer
100
AcDbEntity
100
AcDbPolyline
 90
2
 70
0
 10
63.0417670000000001
 20
3.697111
 10
63.0417670000000001
 20
3.5232619999999999
  0
ENDSEC
  0
SECTION
  2
OBJECTS
  0
DICTIONARY
  5
C
100
AcDbDictionary
280
0
281
1
  3
ACAD_GROUP
350
D
  3
ACAD_LAYOUT
350
1A
  3
ACAD_MLINESTYLE
350
17
  3
ACAD_PLOTSETTINGS
350
19
  3
ACAD_PLOTSTYLENAME
350
E
  3
AcDbVariableDictionary
350
163
  0
DICTIONARY
  5
D
100
AcDbDictionary
280
0
281
1
  0
ACDBDICTIONARYWDFLT
  5
E
100
AcDbDictionary
281
1
  3
Normal
350
F
100
AcDbDictionaryWithDefault
340
F
  0
ACDBPLACEHOLDER
  5
F
  0
DICTIONARY
  5
17
100
AcDbDictionary
280
0
281
1
  3
Standard
350
18
  0
MLINESTYLE
  5
18
100
AcDbMlineStyle
  2
STANDARD
 70
0
  3

 62
256
 51
90.0
 52
90.0
 71
2
 49
0.5
 62
256
  6
BYLAYER
 49
-0.5
 62
256
  6
BYLAYER
  0
DICTIONARY
  5
19
100
AcDbDictionary
280
0
281
1
  0
DICTIONARY
  5
1A
100
AcDbDictionary
281
1
  3
Layout1
350
1E
  3
Layout2
350
26
  3
Model
350
22
  0
LAYOUT
  5
1E
100
AcDbPlotSettings
  1

  2
C:\Program Files\AutoCAD 2002\plotters\DWF ePlot (optimized for plotting).pc3
  4

  6

 40
0.0
 41
0.0
 42
0.0
 43
0.0
 44
0.0
 45
0.0
 46
0.0
 47
0.0
 48
0.0
 49
0.0
140
0.0
141
0.0
142
1.0
143
1.0
 70
688
 72
0
 73
0
 74
5
  7

 75
16
147
1.0
148
0.0
149
0.0
100
AcDbLayout
  1
Layout1
 70
1
 71
1
 10
0.0
 20
0.0
 11
420.0
 21
297.0
 12
0.0
 22
0.0
 32
0.0
 14
100000000000000000000.0
 24
100000000000000000000.0
 34
100000000000000000000.0
 15
-100000000000000000000.0
 25
-100000000000000000000.0
 35
-100000000000000000000.0
146
0.0
 13
0.0
 23
0.0
 33
0.0
 16
1.0
 26
0.0
 36
0.0
 17
0.0
 27
1.0
 37
0.0
 76
0
330
1B
  0
LAYOUT
  5
22
100
AcDbPlotSettings
  1

  2
C:\Program Files\AutoCAD 2002\plotters\DWF ePlot (optimized for plotting).pc3
  4

  6

 40
0.0
 41
0.0
 42
0.0
 43
0.0
 44
0.0
 45
0.0
 46
0.0
 47
0.0
 48
0.0
 49
0.0
140
0.0
141
0.0
142
1.0
143
1.0
 70
1712
 72
0
 73
0
 74
0
  7

 75
0
147
1.0
148
0.0
149
0.0
100
AcDbLayout
  1
Model
 70
1
 71
0
 10
0.0
 20
0.0
 11
12.0
 21
9.0
 12
0.0
 22
0.0
 32
0.0
 14
0.0
 24
0.0
 34
0.0
 15
0.0
 25
0.0
 35
0.0
146
0.0
 13
0.0
 23
0.0
 33
0.0
 16
1.0
 26
0.0
 36
0.0
 17
0.0
 27
1.0
 37
0.0
 76
0
330
1F
  0
LAYOUT
  5
26
100
AcDbPlotSettings
  1

  2
C:\Program Files\AutoCAD 2002\plotters\DWF ePlot (optimized for plotting).pc3
  4

  6

 40
0.0
 41
0.0
 42
0.0
 43
0.0
 44
0.0
 45
0.0
 46
0.0
 47
0.0
 48
0.0
 49
0.0
140
0.0
141
0.0
142
1.0
143
1.0
 70
688
 72
0
 73
0
 74
5
  7

 75
16
147
1.0
148
0.0
149
0.0
100
AcDbLayout
  1
Layout2
 70
1
 71
2
 10
0.0
 20
0.0
 11
12.0
 21
9.0
 12
0.0
 22
0.0
 32
0.0
 14
0.0
 24
0.0
 34
0.0
 15
0.0
 25
0.0
 35
0.0
146
0.0
 13
0.0
 23
0.0
 33
0.0
 16
1.0
 26
0.0
 36
0.0
 17
0.0
 27
1.0
 37
0.0
 76
0
330
23
  0
DICTIONARY
  5
163
100
AcDbDictionary
281
1
  3
DIMASSOC
350
165
  3
HIDETEXT
350
164
  0
DICTIONARYVAR
  5
164
100
DictionaryVariables
280
0
  1
2
  0
DICTIONARYVAR
  5
165
100
DictionaryVariables
280
0
  1
1
  0
ENDSEC
  0
EOF
