999
DXF created by Inkscape
  0
SECTION
  2
HEADER
  9
$ACADVER
  1
AC1014
  9
$HANDSEED
  5
FFFF
  9
$MEASUREMENT
 70
     1
  0
ENDSEC
  0
SECTION
  2
TABLES
  0
TABLE
  2
VPORT
  5
8
330
0
100
AcDbSymbolTable
 70
     4
  0
VPORT
  5
2E
330
8
100
AcDbSymbolTableRecord
100
AcDbViewportTableRecord
  2
*ACTIVE
 70
     0
 10
0.0
 20
0.0
 11
1.0
 21
1.0
 12
210.0
 22
148.5
 13
0.0
 23
0.0
 14
10.0
 24
10.0
 15
10.0
 25
10.0
 16
0.0
 26
0.0
 36
1.0
 17
0.0
 27
0.0
 37
0.0
 40
341.0
 41
1.24
 42
50.0
 43
0.0
 44
0.0
 50
0.0
 51
0.0
 71
     0
 72
   100
 73
     1
 74
     3
 75
     0
 76
     0
 77
     0
 78
     0
  0
ENDTAB
  0
TABLE
  2
LTYPE
  5
5
330
0
100
AcDbSymbolTable
 70
     1
  0
LTYPE
  5
14
330
5
100
AcDbSymbolTableRecord
100
AcDbLinetypeTableRecord
  2
BYBLOCK
 70
     0
  3

 72
    65
 73
     0
 40
0.0
  0
LTYPE
  5
15
330
5
100
AcDbSymbolTableRecord
100
AcDbLinetypeTableRecord
  2
BYLAYER
 70
     0
  3

 72
    65
 73
     0
 40
0.0
  0
LTYPE
  5
16
330
5
100
AcDbSymbolTableRecord
100
AcDbLinetypeTableRecord
  2
CONTINUOUS
 70
     0
  3
Solid line
 72
    65
 73
     0
 40
0.0
  0
ENDTAB
  0
TABLE
  2
LAYER
  5
2
100
AcDbSymbolTable
 70
3
  0
LAYER
  5
50
100
AcDbSymbolTableRecord
100
AcDbLayerTableRecord
  2
0
 70
0
  6
CONTINUOUS
  0
LAYER
  5
51
100
AcDbSymbolTableRecord
100
AcDbLayerTableRecord
  2
Logo
 70
0
  6
CONTINUOUS
  0
LAYER
  5
52
100
AcDbSymbolTableRecord
100
AcDbLayerTableRecord
  2
Beaker
 70
0
  6
CONTINUOUS
  0
ENDTAB
  0
TABLE
  2
STYLE
  5
3
330
0
100
AcDbSymbolTable
 70
     1
  0
STYLE
  5
11
330
3
100
AcDbSymbolTableRecord
100
AcDbTextStyleTableRecord
  2
STANDARD
 70
     0
 40
0.0
 41
1.0
 50
0.0
 71
     0
 42
2.5
  3
txt
  4

  0
ENDTAB
  0
TABLE
  2
VIEW
  5
6
330
0
100
AcDbSymbolTable
 70
     0
  0
ENDTAB
  0
TABLE
  2
UCS
  5
7
330
0
100
AcDbSymbolTable
 70
     0
  0
ENDTAB
  0
TABLE
  2
APPID
  5
9
330
0
100
AcDbSymbolTable
 70
     2
  0
APPID
  5
12
330
9
100
AcDbSymbolTableRecord
100
AcDbRegAppTableRecord
  2
ACAD
 70
     0
  0
ENDTAB
  0
TABLE
  2
DIMSTYLE
  5
A
330
0
100
AcDbSymbolTable
 70
     1
  0
DIMSTYLE
105
27
330
A
100
AcDbSymbolTableRecord
100
AcDbDimStyleTableRecord
  2
ISO-25
 70
     0
  3

  4

  5

  6

  7

 40
1.0
 41
2.5
 42
0.625
 43
3.75
 44
1.25
 45
0.0
 46
0.0
 47
0.0
 48
0.0
140
2.5
141
2.5
142
0.0
143
0.03937007874016
144
1.0
145
0.0
146
1.0
147
0.625
 71
     0
 72
     0
 73
     0
 74
     0
 75
     0
 76
     0
 77
     1
 78
     8
170
     0
171
     3
172
     1
173
     0
174
     0
175
     0
176
     0
177
     0
178
     0
270
     2
271
     2
272
     2
273
     2
274
     3
340
11
275
     0
280
     0
281
     0
282
     0
283
     0
284
     8
285
     0
286
     0
287
     3
288
     0
  0
ENDTAB
  0
TABLE
  2
BLOCK_RECORD
  5
1
330
0
100
AcDbSymbolTable
 70
     1
  0
BLOCK_RECORD
  5
1F
330
1
100
AcDbSymbolTableRecord
100
AcDbBlockTableRecord
  2
*MODEL_SPACE
  0
BLOCK_RECORD
  5
1B
330
1
100
AcDbSymbolTableRecord
100
AcDbBlockTableRecord
  2
*PAPER_SPACE
  0
ENDTAB
  0
ENDSEC
  0
SECTION
  2
BLOCKS
  0
BLOCK
  5
20
330
1F
100
AcDbEntity
  8
0
100
AcDbBlockBegin
  2
*MODEL_SPACE
 70
     0
 10
0.0
 20
0.0
 30
0.0
  3
*MODEL_SPACE
  1

  0
ENDBLK
  5
21
330
1F
100
AcDbEntity
  8
0
100
AcDbBlockEnd
  0
BLOCK
  5
1C
330
1B
100
AcDbEntity
 67
     1
  8
0
100
AcDbBlockBegin
  2
*PAPER_SPACE
  1

  0
ENDBLK
  5
1D
330
1B
100
AcDbEntity
 67
     1
  8
0
100
AcDbBlockEnd
  0
ENDSEC
  0
SECTION
  2
ENTITIES
  0
SPLINE
  5
100
100
AcDbEntity
  8
0
 62
7
100
AcDbSpline
 70
8
 71
3
 72
8
 73
4
 74
0
 40
0
 40
0
 40
0
 40
0
 40
1
 40
1
 40
1
 40
1
 10
27.777012
 20
63.129583
 30
0.0
 10
27.012755
 20
63.129583
 30
0.0
 10
26.392360
 20
62.509188
 30
0.0
 10
26.392360
 20
61.744931
 30
0.0
  0
SPLINE
  5
101
100
AcDbEntity
  8
0
 62
7
100
AcDbSpline
 70
8
 71
3
 72
8
 73
4
 74
0
 40
0
 40
0
 40
0
 40
0
 40
1
 40
1
 40
1
 40
1
 10
26.392360
 20
61.744931
 30
0.0
 10
26.392360
 20
61.494599
 30
0.0
 10
26.461292
 20
61.259367
 30
0.0
 10
26.577568
 20
61.057014
 30
0.0
  0
SPLINE
  5
102
100
AcDbEntity
  8
0
 62
7
100
AcDbSpline
 70
8
 71
3
 72
8
 73
4
 74
0
 40
0
 40
0
 40
0
 40
0
 40
1
 40
1
 40
1
 40
1
 10
18.102082
 20
59.839931
 30
0.0
 10
18.235573
 20
59.797033
 30
0.0
 10
18.377531
 20
59.769375
 30
0.0
 10
18.525415
 20
59.769375
 30
0.0
  0
SPLINE
  5
103
100
AcDbEntity
  8
0
 62
7
100
AcDbSpline
 70
8
 71
3
 72
8
 73
4
 74
0
 40
0
 40
0
 40
0
 40
0
 40
1
 40
1
 40
1
 40
1
 10
18.525415
 20
59.769375
 30
0.0
 10
19.289673
 20
59.769375
 30
0.0
 10
19.901249
 20
60.390052
 30
0.0
 10
19.901249
 20
61.154028
 30
0.0
  0
SPLINE
  5
104
100
AcDbEntity
  8
0
 62
7
100
AcDbSpline
 70
8
 71
3
 72
8
 73
4
 74
0
 40
0
 40
0
 40
0
 40
0
 40
1
 40
1
 40
1
 40
1
 10
19.901249
 20
61.154028
 30
0.0
 10
19.901249
 20
61.918286
 30
0.0
 10
19.289673
 20
62.538681
 30
0.0
 10
18.525415
 20
62.538681
 30
0.0
  0
SPLINE
  5
105
100
AcDbEntity
  8
0
 62
7
100
AcDbSpline
 70
8
 71
3
 72
8
 73
4
 74
0
 40
0
 40
0
 40
0
 40
0
 40
1
 40
1
 40
1
 40
1
 10
18.525415
 20
62.538681
 30
0.0
 10
17.761157
 20
62.538681
 30
0.0
 10
17.140762
 20
61.918286
 30
0.0
 10
17.140762
 20
61.154028
 30
0.0
  0
SPLINE
  5
106
100
AcDbEntity
  8
0
 62
7
100
AcDbSpline
 70
8
 71
3
 72
8
 73
4
 74
0
 40
0
 40
0
 40
0
 40
0
 40
1
 40
1
 40
1
 40
1
 10
17.140762
 20
61.154028
 30
0.0
 10
17.140762
 20
60.794477
 30
0.0
 10
17.277711
 20
60.474084
 30
0.0
 10
17.502360
 20
60.227986
 30
0.0
  0
LWPOLYLINE
  5
107
100
AcDbEntity
  8
0
 62
7
100
AcDbPolyline
 90
8
 70
0
 10
26.577568
 20
61.057014
 30
0.0
 10
21.188887
 20
55.597778
 30
0.0
 10
21.188887
 20
46.213889
 30
0.0
 10
27.247846
 20
39.114236
 30
0.0
 10
26.833332
 20
38.470417
 30
0.0
 10
19.186874
 20
44.203056
 30
0.0
 10
15.906040
 20
55.668333
 30
0.0
 10
18.102082
 20
59.839931
 30
0.0
  0
SPLINE
  5
108
100
AcDbEntity
  8
0
 62
7
100
AcDbSpline
 70
8
 71
3
 72
8
 73
4
 74
0
 40
0
 40
0
 40
0
 40
0
 40
1
 40
1
 40
1
 40
1
 10
13.709984
 20
22.727708
 30
0.0
 10
13.197751
 20
22.524791
 30
0.0
 10
12.828040
 20
22.024834
 30
0.0
 10
12.828040
 20
21.440069
 30
0.0
  0
SPLINE
  5
109
100
AcDbEntity
  8
0
 62
7
100
AcDbSpline
 70
8
 71
3
 72
8
 73
4
 74
0
 40
0
 40
0
 40
0
 40
0
 40
1
 40
1
 40
1
 40
1
 10
12.828040
 20
21.440069
 30
0.0
 10
12.828040
 20
20.676094
 30
0.0
 10
13.448435
 20
20.055417
 30
0.0
 10
14.212693
 20
20.055417
 30
0.0
  0
SPLINE
  5
10a
100
AcDbEntity
  8
0
 62
7
100
AcDbSpline
 70
8
 71
3
 72
8
 73
4
 74
0
 40
0
 40
0
 40
0
 40
0
 40
1
 40
1
 40
1
 40
1
 10
14.212693
 20
20.055417
 30
0.0
 10
14.976951
 20
20.055417
 30
0.0
 10
15.597346
 20
20.676094
 30
0.0
 10
15.597346
 20
21.440069
 30
0.0
  0
SPLINE
  5
10b
100
AcDbEntity
  8
0
 62
7
100
AcDbSpline
 70
8
 71
3
 72
8
 73
4
 74
0
 40
0
 40
0
 40
0
 40
0
 40
1
 40
1
 40
1
 40
1
 10
15.597346
 20
21.440069
 30
0.0
 10
15.597346
 20
22.180903
 30
0.0
 10
15.014204
 20
22.778932
 30
0.0
 10
14.283248
 20
22.815903
 30
0.0
  0
LWPOLYLINE
  5
10c
100
AcDbEntity
  8
0
 62
7
100
AcDbPolyline
 90
9
 70
0
 10
17.502360
 20
60.227986
 30
0.0
 10
14.353818
 20
56.065208
 30
0.0
 10
17.193679
 20
43.382847
 30
0.0
 10
25.466318
 20
36.327292
 30
0.0
 10
25.404582
 20
36.239097
 30
0.0
 10
18.578332
 20
36.953472
 30
0.0
 10
12.025485
 20
29.315833
 30
0.0
 10
12.051929
 20
28.795486
 30
0.0
 10
13.709984
 20
22.727708
 30
0.0
  0
SPLINE
  5
10d
100
AcDbEntity
  8
0
 62
7
100
AcDbSpline
 70
8
 71
3
 72
8
 73
4
 74
0
 40
0
 40
0
 40
0
 40
0
 40
1
 40
1
 40
1
 40
1
 10
22.670554
 20
13.017500
 30
0.0
 10
22.539321
 20
12.806116
 30
0.0
 10
22.458887
 20
12.561570
 30
0.0
 10
22.458887
 20
12.294306
 30
0.0
  0
SPLINE
  5
10e
100
AcDbEntity
  8
0
 62
7
100
AcDbSpline
 70
8
 71
3
 72
8
 73
4
 74
0
 40
0
 40
0
 40
0
 40
0
 40
1
 40
1
 40
1
 40
1
 10
22.458887
 20
12.294306
 30
0.0
 10
22.458887
 20
11.530330
 30
0.0
 10
23.079000
 20
10.909653
 30
0.0
 10
23.843540
 20
10.909653
 30
0.0
  0
SPLINE
  5
10f
100
AcDbEntity
  8
0
 62
7
100
AcDbSpline
 70
8
 71
3
 72
8
 73
4
 74
0
 40
0
 40
0
 40
0
 40
0
 40
1
 40
1
 40
1
 40
1
 10
23.843540
 20
10.909653
 30
0.0
 10
24.607516
 20
10.909653
 30
0.0
 10
25.228193
 20
11.530330
 30
0.0
 10
25.228193
 20
12.294306
 30
0.0
  0
SPLINE
  5
110
100
AcDbEntity
  8
0
 62
7
100
AcDbSpline
 70
8
 71
3
 72
8
 73
4
 74
0
 40
0
 40
0
 40
0
 40
0
 40
1
 40
1
 40
1
 40
1
 10
25.228193
 20
12.294306
 30
0.0
 10
25.228193
 20
13.058846
 30
0.0
 10
24.607516
 20
13.670139
 30
0.0
 10
23.843540
 20
13.670139
 30
0.0
  0
SPLINE
  5
111
100
AcDbEntity
  8
0
 62
7
100
AcDbSpline
 70
8
 71
3
 72
8
 73
4
 74
0
 40
0
 40
0
 40
0
 40
0
 40
1
 40
1
 40
1
 40
1
 10
23.843540
 20
13.670139
 30
0.0
 10
23.598289
 20
13.670139
 30
0.0
 10
23.372511
 20
13.605228
 30
0.0
 10
23.173262
 20
13.493750
 30
0.0
  0
LWPOLYLINE
  5
112
100
AcDbEntity
  8
0
 62
7
100
AcDbPolyline
 90
8
 70
0
 10
14.283248
 20
22.815903
 30
0.0
 10
13.577693
 20
28.724931
 30
0.0
 10
19.125123
 20
34.916181
 30
0.0
 10
24.337415
 20
33.972500
 30
0.0
 10
24.240401
 20
33.478611
 30
0.0
 10
17.537623
 20
28.522083
 30
0.0
 10
18.798818
 20
17.074444
 30
0.0
 10
22.670554
 20
13.017500
 30
0.0
  0
SPLINE
  5
113
100
AcDbEntity
  8
0
 62
7
100
AcDbSpline
 70
8
 71
3
 72
8
 73
4
 74
0
 40
0
 40
0
 40
0
 40
0
 40
1
 40
1
 40
1
 40
1
 10
49.543403
 20
22.815903
 30
0.0
 10
48.812165
 20
22.778932
 30
0.0
 10
48.229306
 20
22.180903
 30
0.0
 10
48.229306
 20
21.440069
 30
0.0
  0
SPLINE
  5
114
100
AcDbEntity
  8
0
 62
7
100
AcDbSpline
 70
8
 71
3
 72
8
 73
4
 74
0
 40
0
 40
0
 40
0
 40
0
 40
1
 40
1
 40
1
 40
1
 10
48.229306
 20
21.440069
 30
0.0
 10
48.229306
 20
20.676094
 30
0.0
 10
48.849983
 20
20.055417
 30
0.0
 10
49.613958
 20
20.055417
 30
0.0
  0
SPLINE
  5
115
100
AcDbEntity
  8
0
 62
7
100
AcDbSpline
 70
8
 71
3
 72
8
 73
4
 74
0
 40
0
 40
0
 40
0
 40
0
 40
1
 40
1
 40
1
 40
1
 10
49.613958
 20
20.055417
 30
0.0
 10
50.378216
 20
20.055417
 30
0.0
 10
50.989792
 20
20.676094
 30
0.0
 10
50.989792
 20
21.440069
 30
0.0
  0
SPLINE
  5
116
100
AcDbEntity
  8
0
 62
7
100
AcDbSpline
 70
8
 71
3
 72
8
 73
4
 74
0
 40
0
 40
0
 40
0
 40
0
 40
1
 40
1
 40
1
 40
1
 10
50.989792
 20
21.440069
 30
0.0
 10
50.989792
 20
22.024552
 30
0.0
 10
50.628618
 20
22.524791
 30
0.0
 10
50.116667
 20
22.727708
 30
0.0
  0
LWPOLYLINE
  5
117
100
AcDbEntity
  8
0
 62
7
100
AcDbPolyline
 90
13
 70
0
 10
23.173262
 20
13.493750
 30
0.0
 10
20.262846
 20
17.718264
 30
0.0
 10
19.716040
 20
27.631319
 30
0.0
 10
23.305554
 20
28.619097
 30
0.0
 10
27.406596
 20
20.425833
 30
0.0
 10
31.913333
 20
18.432639
 30
0.0
 10
36.411250
 20
20.425833
 30
0.0
 10
40.512292
 20
28.619097
 30
0.0
 10
39.577431
 20
33.487431
 30
0.0
 10
39.480417
 20
33.972500
 30
0.0
 10
44.701528
 20
34.916181
 30
0.0
 10
50.248958
 20
28.724931
 30
0.0
 10
49.543403
 20
22.815903
 30
0.0
  0
SPLINE
  5
118
100
AcDbEntity
  8
0
 62
7
100
AcDbSpline
 70
8
 71
3
 72
8
 73
4
 74
0
 40
0
 40
0
 40
0
 40
0
 40
1
 40
1
 40
1
 40
1
 10
46.324291
 20
60.227986
 30
0.0
 10
46.548940
 20
60.474084
 30
0.0
 10
46.685889
 20
60.794477
 30
0.0
 10
46.685889
 20
61.154028
 30
0.0
  0
SPLINE
  5
119
100
AcDbEntity
  8
0
 62
7
100
AcDbSpline
 70
8
 71
3
 72
8
 73
4
 74
0
 40
0
 40
0
 40
0
 40
0
 40
1
 40
1
 40
1
 40
1
 10
46.685889
 20
61.154028
 30
0.0
 10
46.685889
 20
61.918286
 30
0.0
 10
46.065776
 20
62.538681
 30
0.0
 10
45.301236
 20
62.538681
 30
0.0
  0
SPLINE
  5
11a
100
AcDbEntity
  8
0
 62
7
100
AcDbSpline
 70
8
 71
3
 72
8
 73
4
 74
0
 40
0
 40
0
 40
0
 40
0
 40
1
 40
1
 40
1
 40
1
 10
45.301236
 20
62.538681
 30
0.0
 10
44.537543
 20
62.538681
 30
0.0
 10
43.925403
 20
61.918286
 30
0.0
 10
43.925403
 20
61.154028
 30
0.0
  0
SPLINE
  5
11b
100
AcDbEntity
  8
0
 62
7
100
AcDbSpline
 70
8
 71
3
 72
8
 73
4
 74
0
 40
0
 40
0
 40
0
 40
0
 40
1
 40
1
 40
1
 40
1
 10
43.925403
 20
61.154028
 30
0.0
 10
43.925403
 20
60.389770
 30
0.0
 10
44.537543
 20
59.769375
 30
0.0
 10
45.301236
 20
59.769375
 30
0.0
  0
SPLINE
  5
11c
100
AcDbEntity
  8
0
 62
7
100
AcDbSpline
 70
8
 71
3
 72
8
 73
4
 74
0
 40
0
 40
0
 40
0
 40
0
 40
1
 40
1
 40
1
 40
1
 10
45.301236
 20
59.769375
 30
0.0
 10
45.449120
 20
59.769375
 30
0.0
 10
45.590514
 20
59.797033
 30
0.0
 10
45.724569
 20
59.839931
 30
0.0
  0
LWPOLYLINE
  5
11d
100
AcDbEntity
  8
0
 62
7
100
AcDbPolyline
 90
9
 70
0
 10
50.116667
 20
22.727708
 30
0.0
 10
51.774722
 20
28.795486
 30
0.0
 10
51.801166
 20
29.315833
 30
0.0
 10
45.248319
 20
36.953472
 30
0.0
 10
38.413250
 20
36.239097
 30
0.0
 10
38.360333
 20
36.327292
 30
0.0
 10
46.632972
 20
43.382847
 30
0.0
 10
49.472833
 20
56.065208
 30
0.0
 10
46.324291
 20
60.227986
 30
0.0
  0
SPLINE
  5
11e
100
AcDbEntity
  8
0
 62
7
100
AcDbSpline
 70
8
 71
3
 72
8
 73
4
 74
0
 40
0
 40
0
 40
0
 40
0
 40
1
 40
1
 40
1
 40
1
 10
36.578805
 20
39.114236
 30
0.0
 10
35.757045
 20
40.382255
 30
0.0
 10
36.083347
 20
39.894228
 30
0.0
 10
36.578805
 20
39.114236
 30
0.0
  0
SPLINE
  5
11f
100
AcDbEntity
  8
0
 62
7
100
AcDbSpline
 70
8
 71
3
 72
8
 73
4
 74
0
 40
0
 40
0
 40
0
 40
0
 40
1
 40
1
 40
1
 40
1
 10
37.249097
 20
61.057014
 30
0.0
 10
37.365373
 20
61.259367
 30
0.0
 10
37.434306
 20
61.494882
 30
0.0
 10
37.434306
 20
61.744931
 30
0.0
  0
SPLINE
  5
120
100
AcDbEntity
  8
0
 62
7
100
AcDbSpline
 70
8
 71
3
 72
8
 73
4
 74
0
 40
0
 40
0
 40
0
 40
0
 40
1
 40
1
 40
1
 40
1
 10
37.434306
 20
61.744931
 30
0.0
 10
37.434306
 20
62.509188
 30
0.0
 10
36.814193
 20
63.129583
 30
0.0
 10
36.049653
 20
63.129583
 30
0.0
  0
SPLINE
  5
121
100
AcDbEntity
  8
0
 62
7
100
AcDbSpline
 70
8
 71
3
 72
8
 73
4
 74
0
 40
0
 40
0
 40
0
 40
0
 40
1
 40
1
 40
1
 40
1
 10
36.049653
 20
63.129583
 30
0.0
 10
35.285959
 20
63.129583
 30
0.0
 10
34.673819
 20
62.509188
 30
0.0
 10
34.673819
 20
61.744931
 30
0.0
  0
SPLINE
  5
122
100
AcDbEntity
  8
0
 62
7
100
AcDbSpline
 70
8
 71
3
 72
8
 73
4
 74
0
 40
0
 40
0
 40
0
 40
0
 40
1
 40
1
 40
1
 40
1
 10
34.673819
 20
61.744931
 30
0.0
 10
34.673819
 20
60.980673
 30
0.0
 10
35.285959
 20
60.360278
 30
0.0
 10
36.049653
 20
60.360278
 30
0.0
  0
SPLINE
  5
123
100
AcDbEntity
  8
0
 62
7
100
AcDbSpline
 70
8
 71
3
 72
8
 73
4
 74
0
 40
0
 40
0
 40
0
 40
0
 40
1
 40
1
 40
1
 40
1
 10
36.049653
 20
60.360278
 30
0.0
 10
36.272326
 20
60.360278
 30
0.0
 10
36.480465
 20
60.416793
 30
0.0
 10
36.667014
 20
60.510208
 30
0.0
  0
LWPOLYLINE
  5
124
100
AcDbEntity
  8
0
 62
7
100
AcDbPolyline
 90
8
 70
0
 10
45.724569
 20
59.839931
 30
0.0
 10
47.920611
 20
55.668333
 30
0.0
 10
44.639778
 20
44.203056
 30
0.0
 10
36.984500
 20
38.470417
 30
0.0
 10
36.578805
 20
39.114236
 30
0.0
 10
42.637778
 20
46.213889
 30
0.0
 10
42.637778
 20
55.597778
 30
0.0
 10
37.249097
 20
61.057014
 30
0.0
  0
SPLINE
  5
125
100
AcDbEntity
  8
0
 62
7
100
AcDbSpline
 70
8
 71
3
 72
8
 73
4
 74
0
 40
0
 40
0
 40
0
 40
0
 40
1
 40
1
 40
1
 40
1
 10
27.159651
 20
60.510208
 30
0.0
 10
27.345918
 20
60.416793
 30
0.0
 10
27.554339
 20
60.360278
 30
0.0
 10
27.777012
 20
60.360278
 30
0.0
  0
SPLINE
  5
126
100
AcDbEntity
  8
0
 62
7
100
AcDbSpline
 70
8
 71
3
 72
8
 73
4
 74
0
 40
0
 40
0
 40
0
 40
0
 40
1
 40
1
 40
1
 40
1
 10
27.777012
 20
60.360278
 30
0.0
 10
28.540989
 20
60.360278
 30
0.0
 10
29.152847
 20
60.980955
 30
0.0
 10
29.152847
 20
61.744931
 30
0.0
  0
SPLINE
  5
127
100
AcDbEntity
  8
0
 62
7
100
AcDbSpline
 70
8
 71
3
 72
8
 73
4
 74
0
 40
0
 40
0
 40
0
 40
0
 40
1
 40
1
 40
1
 40
1
 10
29.152847
 20
61.744931
 30
0.0
 10
29.152847
 20
62.509188
 30
0.0
 10
28.540989
 20
63.129583
 30
0.0
 10
27.777012
 20
63.129583
 30
0.0
  0
LWPOLYLINE
  5
128
100
AcDbEntity
  8
0
 62
7
100
AcDbPolyline
 90
11
 70
0
 10
36.667014
 20
60.510208
 30
0.0
 10
40.521111
 20
55.139167
 30
0.0
 10
40.062500
 20
46.416736
 30
0.0
 10
36.808125
 20
42.924236
 30
0.0
 10
35.255903
 20
45.799375
 30
0.0
 10
35.247097
 20
45.852292
 30
0.0
 10
28.597236
 20
45.852292
 30
0.0
 10
27.018554
 20
42.915417
 30
0.0
 10
23.764165
 20
46.416736
 30
0.0
 10
23.305554
 20
55.139167
 30
0.0
 10
27.159651
 20
60.510208
 30
0.0
  0
LWPOLYLINE
  5
129
100
AcDbEntity
  8
0
 62
7
100
AcDbPolyline
 90
2
 70
0
 10
27.777012
 20
63.129583
 30
0.0
 10
27.777012
 20
63.129583
 30
0.0
  0
SPLINE
  5
12a
100
AcDbEntity
  8
0
 62
7
100
AcDbSpline
 70
8
 71
3
 72
8
 73
4
 74
0
 40
0
 40
0
 40
0
 40
0
 40
1
 40
1
 40
1
 40
1
 10
40.653403
 20
13.493750
 30
0.0
 10
40.453872
 20
13.605228
 30
0.0
 10
40.227812
 20
13.670139
 30
0.0
 10
39.983125
 20
13.670139
 30
0.0
  0
SPLINE
  5
12b
100
AcDbEntity
  8
0
 62
7
100
AcDbSpline
 70
8
 71
3
 72
8
 73
4
 74
0
 40
0
 40
0
 40
0
 40
0
 40
1
 40
1
 40
1
 40
1
 10
39.983125
 20
13.670139
 30
0.0
 10
39.218585
 20
13.670139
 30
0.0
 10
38.598472
 20
13.058846
 30
0.0
 10
38.598472
 20
12.294306
 30
0.0
  0
SPLINE
  5
12c
100
AcDbEntity
  8
0
 62
7
100
AcDbSpline
 70
8
 71
3
 72
8
 73
4
 74
0
 40
0
 40
0
 40
0
 40
0
 40
1
 40
1
 40
1
 40
1
 10
38.598472
 20
12.294306
 30
0.0
 10
38.598472
 20
11.530330
 30
0.0
 10
39.218585
 20
10.909653
 30
0.0
 10
39.983125
 20
10.909653
 30
0.0
  0
SPLINE
  5
12d
100
AcDbEntity
  8
0
 62
7
100
AcDbSpline
 70
8
 71
3
 72
8
 73
4
 74
0
 40
0
 40
0
 40
0
 40
0
 40
1
 40
1
 40
1
 40
1
 10
39.983125
 20
10.909653
 30
0.0
 10
40.747383
 20
10.909653
 30
0.0
 10
41.358958
 20
11.530330
 30
0.0
 10
41.358958
 20
12.294306
 30
0.0
  0
SPLINE
  5
12e
100
AcDbEntity
  8
0
 62
7
100
AcDbSpline
 70
8
 71
3
 72
8
 73
4
 74
0
 40
0
 40
0
 40
0
 40
0
 40
1
 40
1
 40
1
 40
1
 10
41.358958
 20
12.294306
 30
0.0
 10
41.358958
 20
12.561570
 30
0.0
 10
41.287627
 20
12.806116
 30
0.0
 10
41.156111
 20
13.017500
 30
0.0
  0
LWPOLYLINE
  5
12f
100
AcDbEntity
  8
0
 62
7
100
AcDbPolyline
 90
5
 70
0
 10
39.577431
 20
33.487431
 30
0.0
 10
40.462316
 20
28.619097
 30
0.0
 10
44.110625
 20
27.631319
 30
0.0
 10
43.563819
 20
17.718264
 30
0.0
 10
40.653403
 20
13.493750
 30
0.0
  0
SPLINE
  5
130
100
AcDbEntity
  8
0
 62
7
100
AcDbSpline
 70
8
 71
3
 72
8
 73
4
 74
0
 40
0
 40
0
 40
0
 40
0
 40
1
 40
1
 40
1
 40
1
 10
27.768193
 20
62.538681
 30
0.0
 10
28.208177
 20
62.538681
 30
0.0
 10
28.570764
 20
62.184915
 30
0.0
 10
28.570764
 20
61.744931
 30
0.0
  0
SPLINE
  5
131
100
AcDbEntity
  8
0
 62
7
100
AcDbSpline
 70
8
 71
3
 72
8
 73
4
 74
0
 40
0
 40
0
 40
0
 40
0
 40
1
 40
1
 40
1
 40
1
 10
28.570764
 20
61.744931
 30
0.0
 10
28.570764
 20
61.304946
 30
0.0
 10
28.207895
 20
60.942361
 30
0.0
 10
27.768193
 20
60.942361
 30
0.0
  0
SPLINE
  5
132
100
AcDbEntity
  8
0
 62
7
100
AcDbSpline
 70
8
 71
3
 72
8
 73
4
 74
0
 40
0
 40
0
 40
0
 40
0
 40
1
 40
1
 40
1
 40
1
 10
27.768193
 20
60.942361
 30
0.0
 10
27.327926
 20
60.942361
 30
0.0
 10
26.974443
 20
61.305228
 30
0.0
 10
26.974443
 20
61.744931
 30
0.0
  0
SPLINE
  5
133
100
AcDbEntity
  8
0
 62
7
100
AcDbSpline
 70
8
 71
3
 72
8
 73
4
 74
0
 40
0
 40
0
 40
0
 40
0
 40
1
 40
1
 40
1
 40
1
 10
26.974443
 20
61.744931
 30
0.0
 10
26.974443
 20
62.185197
 30
0.0
 10
27.328209
 20
62.538681
 30
0.0
 10
27.768193
 20
62.538681
 30
0.0
  0
LWPOLYLINE
  5
134
100
AcDbEntity
  8
0
 62
7
100
AcDbPolyline
 90
4
 70
0
 10
41.156111
 20
13.017500
 30
0.0
 10
45.027847
 20
17.074444
 30
0.0
 10
46.289028
 20
28.522083
 30
0.0
 10
39.577431
 20
33.487431
 30
0.0
  0
SPLINE
  5
135
100
AcDbEntity
  8
0
 62
7
100
AcDbSpline
 70
8
 71
3
 72
8
 73
4
 74
0
 40
0
 40
0
 40
0
 40
0
 40
1
 40
1
 40
1
 40
1
 10
36.049653
 20
62.538681
 30
0.0
 10
36.490202
 20
62.538681
 30
0.0
 10
36.852222
 20
62.184915
 30
0.0
 10
36.852222
 20
61.744931
 30
0.0
  0
SPLINE
  5
136
100
AcDbEntity
  8
0
 62
7
100
AcDbSpline
 70
8
 71
3
 72
8
 73
4
 74
0
 40
0
 40
0
 40
0
 40
0
 40
1
 40
1
 40
1
 40
1
 10
36.852222
 20
61.744931
 30
0.0
 10
36.852222
 20
61.304946
 30
0.0
 10
36.489919
 20
60.942361
 30
0.0
 10
36.049653
 20
60.942361
 30
0.0
  0
SPLINE
  5
137
100
AcDbEntity
  8
0
 62
7
100
AcDbSpline
 70
8
 71
3
 72
8
 73
4
 74
0
 40
0
 40
0
 40
0
 40
0
 40
1
 40
1
 40
1
 40
1
 10
36.049653
 20
60.942361
 30
0.0
 10
35.609951
 20
60.942361
 30
0.0
 10
35.255903
 20
61.305228
 30
0.0
 10
35.255903
 20
61.744931
 30
0.0
  0
SPLINE
  5
138
100
AcDbEntity
  8
0
 62
7
100
AcDbSpline
 70
8
 71
3
 72
8
 73
4
 74
0
 40
0
 40
0
 40
0
 40
0
 40
1
 40
1
 40
1
 40
1
 10
35.255903
 20
61.744931
 30
0.0
 10
35.255903
 20
62.185197
 30
0.0
 10
35.609951
 20
62.538681
 30
0.0
 10
36.049653
 20
62.538681
 30
0.0
  0
LWPOLYLINE
  5
139
100
AcDbEntity
  8
0
 62
7
100
AcDbPolyline
 90
2
 70
0
 10
27.768193
 20
62.538681
 30
0.0
 10
27.768193
 20
62.538681
 30
0.0
  0
SPLINE
  5
13a
100
AcDbEntity
  8
0
 62
7
100
AcDbSpline
 70
8
 71
3
 72
8
 73
4
 74
0
 40
0
 40
0
 40
0
 40
0
 40
1
 40
1
 40
1
 40
1
 10
18.525415
 20
61.947778
 30
0.0
 10
18.965117
 20
61.947778
 30
0.0
 10
19.319165
 20
61.594012
 30
0.0
 10
19.319165
 20
61.154028
 30
0.0
  0
SPLINE
  5
13b
100
AcDbEntity
  8
0
 62
7
100
AcDbSpline
 70
8
 71
3
 72
8
 73
4
 74
0
 40
0
 40
0
 40
0
 40
0
 40
1
 40
1
 40
1
 40
1
 10
19.319165
 20
61.154028
 30
0.0
 10
19.319165
 20
60.714043
 30
0.0
 10
18.965117
 20
60.360278
 30
0.0
 10
18.525415
 20
60.360278
 30
0.0
  0
SPLINE
  5
13c
100
AcDbEntity
  8
0
 62
7
100
AcDbSpline
 70
8
 71
3
 72
8
 73
4
 74
0
 40
0
 40
0
 40
0
 40
0
 40
1
 40
1
 40
1
 40
1
 10
18.525415
 20
60.360278
 30
0.0
 10
18.085431
 20
60.360278
 30
0.0
 10
17.722846
 20
60.714326
 30
0.0
 10
17.722846
 20
61.154028
 30
0.0
  0
SPLINE
  5
13d
100
AcDbEntity
  8
0
 62
7
100
AcDbSpline
 70
8
 71
3
 72
8
 73
4
 74
0
 40
0
 40
0
 40
0
 40
0
 40
1
 40
1
 40
1
 40
1
 10
17.722846
 20
61.154028
 30
0.0
 10
17.723128
 20
61.594294
 30
0.0
 10
18.085431
 20
61.947778
 30
0.0
 10
18.525415
 20
61.947778
 30
0.0
  0
LWPOLYLINE
  5
13e
100
AcDbEntity
  8
0
 62
7
100
AcDbPolyline
 90
2
 70
0
 10
36.049653
 20
62.538681
 30
0.0
 10
36.049653
 20
62.538681
 30
0.0
  0
SPLINE
  5
13f
100
AcDbEntity
  8
0
 62
7
100
AcDbSpline
 70
8
 71
3
 72
8
 73
4
 74
0
 40
0
 40
0
 40
0
 40
0
 40
1
 40
1
 40
1
 40
1
 10
45.301250
 20
61.947778
 30
0.0
 10
45.741799
 20
61.947778
 30
0.0
 10
46.103819
 20
61.594012
 30
0.0
 10
46.103819
 20
61.154028
 30
0.0
  0
SPLINE
  5
140
100
AcDbEntity
  8
0
 62
7
100
AcDbSpline
 70
8
 71
3
 72
8
 73
4
 74
0
 40
0
 40
0
 40
0
 40
0
 40
1
 40
1
 40
1
 40
1
 10
46.103819
 20
61.154028
 30
0.0
 10
46.103819
 20
60.714043
 30
0.0
 10
45.741517
 20
60.360278
 30
0.0
 10
45.301250
 20
60.360278
 30
0.0
  0
SPLINE
  5
141
100
AcDbEntity
  8
0
 62
7
100
AcDbSpline
 70
8
 71
3
 72
8
 73
4
 74
0
 40
0
 40
0
 40
0
 40
0
 40
1
 40
1
 40
1
 40
1
 10
45.301250
 20
60.360278
 30
0.0
 10
44.861548
 20
60.360278
 30
0.0
 10
44.507500
 20
60.714326
 30
0.0
 10
44.507500
 20
61.154028
 30
0.0
  0
SPLINE
  5
142
100
AcDbEntity
  8
0
 62
7
100
AcDbSpline
 70
8
 71
3
 72
8
 73
4
 74
0
 40
0
 40
0
 40
0
 40
0
 40
1
 40
1
 40
1
 40
1
 10
44.507500
 20
61.154028
 30
0.0
 10
44.507500
 20
61.594012
 30
0.0
 10
44.861548
 20
61.947778
 30
0.0
 10
45.301250
 20
61.947778
 30
0.0
  0
LWPOLYLINE
  5
143
100
AcDbEntity
  8
0
 62
7
100
AcDbPolyline
 90
2
 70
0
 10
18.525415
 20
61.947778
 30
0.0
 10
18.525415
 20
61.947778
 30
0.0
  0
LWPOLYLINE
  5
144
100
AcDbEntity
  8
0
 62
7
100
AcDbPolyline
 90
2
 70
0
 10
45.301250
 20
61.947778
 30
0.0
 10
45.301250
 20
61.947778
 30
0.0
  0
SPLINE
  5
145
100
AcDbEntity
  8
0
 62
7
100
AcDbSpline
 70
8
 71
3
 72
8
 73
4
 74
0
 40
0
 40
0
 40
0
 40
0
 40
1
 40
1
 40
1
 40
1
 10
14.212707
 20
22.233819
 30
0.0
 10
14.652409
 20
22.233819
 30
0.0
 10
15.015276
 20
21.880054
 30
0.0
 10
15.015276
 20
21.440069
 30
0.0
  0
SPLINE
  5
146
100
AcDbEntity
  8
0
 62
7
100
AcDbSpline
 70
8
 71
3
 72
8
 73
4
 74
0
 40
0
 40
0
 40
0
 40
0
 40
1
 40
1
 40
1
 40
1
 10
15.015276
 20
21.440069
 30
0.0
 10
15.015276
 20
21.000367
 30
0.0
 10
14.652691
 20
20.646319
 30
0.0
 10
14.212707
 20
20.646319
 30
0.0
  0
SPLINE
  5
147
100
AcDbEntity
  8
0
 62
7
100
AcDbSpline
 70
8
 71
3
 72
8
 73
4
 74
0
 40
0
 40
0
 40
0
 40
0
 40
1
 40
1
 40
1
 40
1
 10
14.212707
 20
20.646319
 30
0.0
 10
13.772722
 20
20.646319
 30
0.0
 10
13.418957
 20
21.000649
 30
0.0
 10
13.418957
 20
21.440069
 30
0.0
  0
SPLINE
  5
148
100
AcDbEntity
  8
0
 62
7
100
AcDbSpline
 70
8
 71
3
 72
8
 73
4
 74
0
 40
0
 40
0
 40
0
 40
0
 40
1
 40
1
 40
1
 40
1
 10
13.418957
 20
21.440069
 30
0.0
 10
13.418957
 20
21.880336
 30
0.0
 10
13.773005
 20
22.233819
 30
0.0
 10
14.212707
 20
22.233819
 30
0.0
  0
LWPOLYLINE
  5
149
100
AcDbEntity
  8
0
 62
7
100
AcDbPolyline
 90
15
 70
0
 10
30.175903
 20
37.226875
 30
0.0
 10
30.572778
 20
37.226875
 30
0.0
 10
33.253889
 20
37.226875
 30
0.0
 10
33.650764
 20
37.226875
 30
0.0
 10
33.650764
 20
36.538958
 30
0.0
 10
33.253889
 20
36.538958
 30
0.0
 10
33.262694
 20
34.245903
 30
0.0
 10
36.420055
 20
26.114375
 30
0.0
 10
35.608666
 20
24.341667
 30
0.0
 10
28.217971
 20
24.341667
 30
0.0
 10
27.406582
 20
26.114375
 30
0.0
 10
30.563944
 20
34.245903
 30
0.0
 10
30.563944
 20
36.538958
 30
0.0
 10
30.175889
 20
36.538958
 30
0.0
 10
30.175903
 20
37.226875
 30
0.0
  0
SPLINE
  5
14a
100
AcDbEntity
  8
0
 62
7
100
AcDbSpline
 70
8
 71
3
 72
8
 73
4
 74
0
 40
0
 40
0
 40
0
 40
0
 40
1
 40
1
 40
1
 40
1
 10
49.613958
 20
22.233819
 30
0.0
 10
50.054225
 20
22.233819
 30
0.0
 10
50.407708
 20
21.880054
 30
0.0
 10
50.407708
 20
21.440069
 30
0.0
  0
SPLINE
  5
14b
100
AcDbEntity
  8
0
 62
7
100
AcDbSpline
 70
8
 71
3
 72
8
 73
4
 74
0
 40
0
 40
0
 40
0
 40
0
 40
1
 40
1
 40
1
 40
1
 10
50.407708
 20
21.440069
 30
0.0
 10
50.407708
 20
21.000367
 30
0.0
 10
50.053943
 20
20.646319
 30
0.0
 10
49.613958
 20
20.646319
 30
0.0
  0
SPLINE
  5
14c
100
AcDbEntity
  8
0
 62
7
100
AcDbSpline
 70
8
 71
3
 72
8
 73
4
 74
0
 40
0
 40
0
 40
0
 40
0
 40
1
 40
1
 40
1
 40
1
 10
49.613958
 20
20.646319
 30
0.0
 10
49.173974
 20
20.646319
 30
0.0
 10
48.811389
 20
21.000649
 30
0.0
 10
48.811389
 20
21.440069
 30
0.0
  0
SPLINE
  5
14d
100
AcDbEntity
  8
0
 62
7
100
AcDbSpline
 70
8
 71
3
 72
8
 73
4
 74
0
 40
0
 40
0
 40
0
 40
0
 40
1
 40
1
 40
1
 40
1
 10
48.811389
 20
21.440069
 30
0.0
 10
48.811389
 20
21.880336
 30
0.0
 10
49.174256
 20
22.233819
 30
0.0
 10
49.613958
 20
22.233819
 30
0.0
  0
LWPOLYLINE
  5
14e
100
AcDbEntity
  8
0
 62
7
100
AcDbPolyline
 90
2
 70
0
 10
14.212707
 20
22.233819
 30
0.0
 10
14.212707
 20
22.233819
 30
0.0
  0
SPLINE
  5
14f
100
AcDbEntity
  8
0
 62
7
100
AcDbSpline
 70
8
 71
3
 72
8
 73
4
 74
0
 40
0
 40
0
 40
0
 40
0
 40
1
 40
1
 40
1
 40
1
 10
23.843540
 20
13.088056
 30
0.0
 10
24.283242
 20
13.088056
 30
0.0
 10
24.646110
 20
12.734290
 30
0.0
 10
24.646110
 20
12.294306
 30
0.0
  0
SPLINE
  5
150
100
AcDbEntity
  8
0
 62
7
100
AcDbSpline
 70
8
 71
3
 72
8
 73
4
 74
0
 40
0
 40
0
 40
0
 40
0
 40
1
 40
1
 40
1
 40
1
 10
24.646110
 20
12.294306
 30
0.0
 10
24.646110
 20
11.854603
 30
0.0
 10
24.283242
 20
11.491736
 30
0.0
 10
23.843540
 20
11.491736
 30
0.0
  0
SPLINE
  5
151
100
AcDbEntity
  8
0
 62
7
100
AcDbSpline
 70
8
 71
3
 72
8
 73
4
 74
0
 40
0
 40
0
 40
0
 40
0
 40
1
 40
1
 40
1
 40
1
 10
23.843540
 20
11.491736
 30
0.0
 10
23.403274
 20
11.491736
 30
0.0
 10
23.049790
 20
11.854886
 30
0.0
 10
23.049790
 20
12.294306
 30
0.0
  0
SPLINE
  5
152
100
AcDbEntity
  8
0
 62
7
100
AcDbSpline
 70
8
 71
3
 72
8
 73
4
 74
0
 40
0
 40
0
 40
0
 40
0
 40
1
 40
1
 40
1
 40
1
 10
23.049790
 20
12.294306
 30
0.0
 10
23.049790
 20
12.734572
 30
0.0
 10
23.403274
 20
13.088056
 30
0.0
 10
23.843540
 20
13.088056
 30
0.0
  0
LWPOLYLINE
  5
153
100
AcDbEntity
  8
0
 62
7
100
AcDbPolyline
 90
2
 70
0
 10
49.613958
 20
22.233819
 30
0.0
 10
49.613958
 20
22.233819
 30
0.0
  0
SPLINE
  5
154
100
AcDbEntity
  8
0
 62
7
100
AcDbSpline
 70
8
 71
3
 72
8
 73
4
 74
0
 40
0
 40
0
 40
0
 40
0
 40
1
 40
1
 40
1
 40
1
 10
39.983125
 20
13.088056
 30
0.0
 10
40.422827
 20
13.088056
 30
0.0
 10
40.776875
 20
12.734290
 30
0.0
 10
40.776875
 20
12.294306
 30
0.0
  0
SPLINE
  5
155
100
AcDbEntity
  8
0
 62
7
100
AcDbSpline
 70
8
 71
3
 72
8
 73
4
 74
0
 40
0
 40
0
 40
0
 40
0
 40
1
 40
1
 40
1
 40
1
 10
40.776875
 20
12.294306
 30
0.0
 10
40.776875
 20
11.854603
 30
0.0
 10
40.423109
 20
11.491736
 30
0.0
 10
39.983125
 20
11.491736
 30
0.0
  0
SPLINE
  5
156
100
AcDbEntity
  8
0
 62
7
100
AcDbSpline
 70
8
 71
3
 72
8
 73
4
 74
0
 40
0
 40
0
 40
0
 40
0
 40
1
 40
1
 40
1
 40
1
 10
39.983125
 20
11.491736
 30
0.0
 10
39.543141
 20
11.491736
 30
0.0
 10
39.180556
 20
11.854886
 30
0.0
 10
39.180556
 20
12.294306
 30
0.0
  0
SPLINE
  5
157
100
AcDbEntity
  8
0
 62
7
100
AcDbSpline
 70
8
 71
3
 72
8
 73
4
 74
0
 40
0
 40
0
 40
0
 40
0
 40
1
 40
1
 40
1
 40
1
 10
39.180556
 20
12.294306
 30
0.0
 10
39.180556
 20
12.734572
 30
0.0
 10
39.543423
 20
13.088056
 30
0.0
 10
39.983125
 20
13.088056
 30
0.0
  0
LWPOLYLINE
  5
158
100
AcDbEntity
  8
0
 62
7
100
AcDbPolyline
 90
2
 70
0
 10
23.843540
 20
13.088056
 30
0.0
 10
23.843540
 20
13.088056
 30
0.0
  0
SPLINE
  5
159
100
AcDbEntity
  8
Beaker
 62
7
100
AcDbSpline
 70
8
 71
3
 72
8
 73
4
 74
0
 40
0
 40
0
 40
0
 40
0
 40
1
 40
1
 40
1
 40
1
 10
4.965372
 20
5.830711
 30
0.0
 10
5.107606
 20
5.830705
 30
0.0
 10
5.239310
 20
5.804380
 30
0.0
 10
5.360483
 20
5.751689
 30
0.0
  0
SPLINE
  5
15a
100
AcDbEntity
  8
Beaker
 62
7
100
AcDbSpline
 70
8
 71
3
 72
8
 73
4
 74
0
 40
0
 40
0
 40
0
 40
0
 40
1
 40
1
 40
1
 40
1
 10
5.360483
 20
5.751689
 30
0.0
 10
5.486913
 20
5.699001
 30
0.0
 10
5.597544
 20
5.625248
 30
0.0
 10
5.692376
 20
5.530427
 30
0.0
  0
SPLINE
  5
15b
100
AcDbEntity
  8
Beaker
 62
7
100
AcDbSpline
 70
8
 71
3
 72
8
 73
4
 74
0
 40
0
 40
0
 40
0
 40
0
 40
1
 40
1
 40
1
 40
1
 10
5.692376
 20
5.530427
 30
0.0
 10
5.787197
 20
5.435594
 30
0.0
 10
5.860951
 20
5.324963
 30
0.0
 10
5.913638
 20
5.198533
 30
0.0
  0
SPLINE
  5
15c
100
AcDbEntity
  8
Beaker
 62
7
100
AcDbSpline
 70
8
 71
3
 72
8
 73
4
 74
0
 40
0
 40
0
 40
0
 40
0
 40
1
 40
1
 40
1
 40
1
 10
5.913638
 20
5.198533
 30
0.0
 10
5.966314
 20
5.077361
 30
0.0
 10
5.992654
 20
4.945657
 30
0.0
 10
5.992661
 20
4.803422
 30
0.0
  0
LWPOLYLINE
  5
15d
100
AcDbEntity
  8
0
 62
7
100
AcDbPolyline
 90
2
 70
0
 10
39.983125
 20
13.088056
 30
0.0
 10
39.983125
 20
13.088056
 30
0.0
  0
SPLINE
  5
15e
100
AcDbEntity
  8
Beaker
 62
7
100
AcDbSpline
 70
8
 71
3
 72
8
 73
4
 74
0
 40
0
 40
0
 40
0
 40
0
 40
1
 40
1
 40
1
 40
1
 10
0.303061
 20
4.803422
 30
0.0
 10
0.303060
 20
4.945657
 30
0.0
 10
0.329401
 20
5.077361
 30
0.0
 10
0.382083
 20
5.198533
 30
0.0
  0
SPLINE
  5
15f
100
AcDbEntity
  8
Beaker
 62
7
100
AcDbSpline
 70
8
 71
3
 72
8
 73
4
 74
0
 40
0
 40
0
 40
0
 40
0
 40
1
 40
1
 40
1
 40
1
 10
0.382083
 20
5.198533
 30
0.0
 10
0.434764
 20
5.324963
 30
0.0
 10
0.508518
 20
5.435594
 30
0.0
 10
0.603345
 20
5.530427
 30
0.0
  0
SPLINE
  5
160
100
AcDbEntity
  8
Beaker
 62
7
100
AcDbSpline
 70
8
 71
3
 72
8
 73
4
 74
0
 40
0
 40
0
 40
0
 40
0
 40
1
 40
1
 40
1
 40
1
 10
0.603345
 20
5.530427
 30
0.0
 10
0.698171
 20
5.625248
 30
0.0
 10
0.806168
 20
5.699001
 30
0.0
 10
0.927336
 20
5.751689
 30
0.0
  0
SPLINE
  5
161
100
AcDbEntity
  8
Beaker
 62
7
100
AcDbSpline
 70
8
 71
3
 72
8
 73
4
 74
0
 40
0
 40
0
 40
0
 40
0
 40
1
 40
1
 40
1
 40
1
 10
0.927336
 20
5.751689
 30
0.0
 10
1.053770
 20
5.804366
 30
0.0
 10
1.188108
 20
5.830705
 30
0.0
 10
1.330349
 20
5.830711
 30
0.0
  0
LWPOLYLINE
  5
162
100
AcDbEntity
  8
Beaker
 62
7
100
AcDbPolyline
 90
8
 70
0
 10
5.992661
 20
4.803422
 30
0.0
 10
5.992661
 20
0.141111
 30
0.0
 10
5.139221
 20
0.141111
 30
0.0
 10
5.139221
 20
2.132471
 30
0.0
 10
1.156501
 20
2.132471
 30
0.0
 10
1.156501
 20
0.141111
 30
0.0
 10
0.303061
 20
0.141111
 30
0.0
 10
0.303061
 20
4.803422
 30
0.0
  0
LWPOLYLINE
  5
163
100
AcDbEntity
  8
Beaker
 62
7
100
AcDbPolyline
 90
2
 70
0
 10
1.330349
 20
5.830711
 30
0.0
 10
4.965372
 20
5.830711
 30
0.0
  0
SPLINE
  5
164
100
AcDbEntity
  8
Beaker
 62
7
100
AcDbSpline
 70
8
 71
3
 72
8
 73
4
 74
0
 40
0
 40
0
 40
0
 40
0
 40
1
 40
1
 40
1
 40
1
 10
5.139221
 20
4.803422
 30
0.0
 10
5.139215
 20
4.850830
 30
0.0
 10
5.120777
 20
4.890341
 30
0.0
 10
5.083905
 20
4.921956
 30
0.0
  0
SPLINE
  5
165
100
AcDbEntity
  8
Beaker
 62
7
100
AcDbSpline
 70
8
 71
3
 72
8
 73
4
 74
0
 40
0
 40
0
 40
0
 40
0
 40
1
 40
1
 40
1
 40
1
 10
5.083905
 20
4.921956
 30
0.0
 10
5.052291
 20
4.958828
 30
0.0
 10
5.012780
 20
4.977265
 30
0.0
 10
4.965372
 20
4.977271
 30
0.0
  0
LWPOLYLINE
  5
166
100
AcDbEntity
  8
Beaker
 62
7
100
AcDbPolyline
 90
2
 70
0
 10
5.139221
 20
2.985911
 30
0.0
 10
5.139221
 20
4.803422
 30
0.0
  0
SPLINE
  5
167
100
AcDbEntity
  8
Beaker
 62
7
100
AcDbSpline
 70
8
 71
3
 72
8
 73
4
 74
0
 40
0
 40
0
 40
0
 40
0
 40
1
 40
1
 40
1
 40
1
 10
1.330349
 20
4.977271
 30
0.0
 10
1.282935
 20
4.977265
 30
0.0
 10
1.240790
 20
4.958842
 30
0.0
 10
1.203914
 20
4.921956
 30
0.0
  0
SPLINE
  5
168
100
AcDbEntity
  8
Beaker
 62
7
100
AcDbSpline
 70
8
 71
3
 72
8
 73
4
 74
0
 40
0
 40
0
 40
0
 40
0
 40
1
 40
1
 40
1
 40
1
 10
1.203914
 20
4.921956
 30
0.0
 10
1.172304
 20
4.890341
 30
0.0
 10
1.156499
 20
4.850830
 30
0.0
 10
1.156501
 20
4.803422
 30
0.0
  0
LWPOLYLINE
  5
169
100
AcDbEntity
  8
Beaker
 62
7
100
AcDbPolyline
 90
2
 70
0
 10
4.965372
 20
4.977271
 30
0.0
 10
1.330349
 20
4.977271
 30
0.0
  0
LWPOLYLINE
  5
16a
100
AcDbEntity
  8
Beaker
 62
7
100
AcDbPolyline
 90
3
 70
0
 10
1.156501
 20
4.803422
 30
0.0
 10
1.156501
 20
2.985911
 30
0.0
 10
5.139221
 20
2.985911
 30
0.0
  0
SPLINE
  5
16b
100
AcDbEntity
  8
Beaker
 62
7
100
AcDbSpline
 70
8
 71
3
 72
8
 73
4
 74
0
 40
0
 40
0
 40
0
 40
0
 40
1
 40
1
 40
1
 40
1
 10
7.888700
 20
3.870960
 30
0.0
 10
7.841285
 20
3.870957
 30
0.0
 10
7.799140
 20
3.852531
 30
0.0
 10
7.762265
 20
3.815644
 30
0.0
  0
SPLINE
  5
16c
100
AcDbEntity
  8
Beaker
 62
7
100
AcDbSpline
 70
8
 71
3
 72
8
 73
4
 74
0
 40
0
 40
0
 40
0
 40
0
 40
1
 40
1
 40
1
 40
1
 10
7.762265
 20
3.815644
 30
0.0
 10
7.730654
 20
3.784033
 30
0.0
 10
7.714850
 20
3.744522
 30
0.0
 10
7.714851
 20
3.697111
 30
0.0
  0
LWPOLYLINE
  5
16d
100
AcDbEntity
  8
Beaker
 62
7
100
AcDbPolyline
 90
3
 70
0
 10
10.449020
 20
4.724400
 30
0.0
 10
10.449020
 20
3.870960
 30
0.0
 10
7.888700
 20
3.870960
 30
0.0
  0
SPLINE
  5
16e
100
AcDbEntity
  8
Beaker
 62
7
100
AcDbSpline
 70
8
 71
3
 72
8
 73
4
 74
0
 40
0
 40
0
 40
0
 40
0
 40
1
 40
1
 40
1
 40
1
 10
6.861411
 20
3.697111
 30
0.0
 10
6.861411
 20
3.839348
 30
0.0
 10
6.887751
 20
3.971050
 30
0.0
 10
6.940433
 20
4.092222
 30
0.0
  0
SPLINE
  5
16f
100
AcDbEntity
  8
Beaker
 62
7
100
AcDbSpline
 70
8
 71
3
 72
8
 73
4
 74
0
 40
0
 40
0
 40
0
 40
0
 40
1
 40
1
 40
1
 40
1
 10
6.940433
 20
4.092222
 30
0.0
 10
6.993114
 20
4.218655
 30
0.0
 10
7.066868
 20
4.329286
 30
0.0
 10
7.161696
 20
4.424116
 30
0.0
  0
SPLINE
  5
170
100
AcDbEntity
  8
Beaker
 62
7
100
AcDbSpline
 70
8
 71
3
 72
8
 73
4
 74
0
 40
0
 40
0
 40
0
 40
0
 40
1
 40
1
 40
1
 40
1
 10
7.161696
 20
4.424116
 30
0.0
 10
7.256521
 20
4.518937
 30
0.0
 10
7.364518
 20
4.592693
 30
0.0
 10
7.485687
 20
4.645378
 30
0.0
  0
SPLINE
  5
171
100
AcDbEntity
  8
Beaker
 62
7
100
AcDbSpline
 70
8
 71
3
 72
8
 73
4
 74
0
 40
0
 40
0
 40
0
 40
0
 40
1
 40
1
 40
1
 40
1
 10
7.485687
 20
4.645378
 30
0.0
 10
7.612121
 20
4.698055
 30
0.0
 10
7.746459
 20
4.724394
 30
0.0
 10
7.888700
 20
4.724400
 30
0.0
  0
LWPOLYLINE
  5
172
100
AcDbEntity
  8
Beaker
 62
7
100
AcDbPolyline
 90
5
 70
0
 10
7.714851
 20
3.697111
 30
0.0
 10
7.714851
 20
0.141111
 30
0.0
 10
6.861411
 20
0.141111
 30
0.0
 10
6.861411
 20
1.168400
 30
0.0
 10
6.861411
 20
3.697111
 30
0.0
  0
SPLINE
  5
173
100
AcDbEntity
  8
Beaker
 62
7
100
AcDbSpline
 70
8
 71
3
 72
8
 73
4
 74
0
 40
0
 40
0
 40
0
 40
0
 40
1
 40
1
 40
1
 40
1
 10
14.586451
 20
4.724400
 30
0.0
 10
14.728686
 20
4.724394
 30
0.0
 10
14.860390
 20
4.698040
 30
0.0
 10
14.981562
 20
4.645378
 30
0.0
  0
SPLINE
  5
174
100
AcDbEntity
  8
Beaker
 62
7
100
AcDbSpline
 70
8
 71
3
 72
8
 73
4
 74
0
 40
0
 40
0
 40
0
 40
0
 40
1
 40
1
 40
1
 40
1
 10
14.981562
 20
4.645378
 30
0.0
 10
15.107993
 20
4.592693
 30
0.0
 10
15.218624
 20
4.518937
 30
0.0
 10
15.313455
 20
4.424116
 30
0.0
  0
SPLINE
  5
175
100
AcDbEntity
  8
Beaker
 62
7
100
AcDbSpline
 70
8
 71
3
 72
8
 73
4
 74
0
 40
0
 40
0
 40
0
 40
0
 40
1
 40
1
 40
1
 40
1
 10
15.313455
 20
4.424116
 30
0.0
 10
15.408277
 20
4.329286
 30
0.0
 10
15.482031
 20
4.218655
 30
0.0
 10
15.534717
 20
4.092222
 30
0.0
  0
SPLINE
  5
176
100
AcDbEntity
  8
Beaker
 62
7
100
AcDbSpline
 70
8
 71
3
 72
8
 73
4
 74
0
 40
0
 40
0
 40
0
 40
0
 40
1
 40
1
 40
1
 40
1
 10
15.534717
 20
4.092222
 30
0.0
 10
15.587394
 20
3.971050
 30
0.0
 10
15.613734
 20
3.839348
 30
0.0
 10
15.613740
 20
3.697111
 30
0.0
  0
LWPOLYLINE
  5
177
100
AcDbEntity
  8
Beaker
 62
7
100
AcDbPolyline
 90
2
 70
0
 10
7.888700
 20
4.724400
 30
0.0
 10
10.449020
 20
4.724400
 30
0.0
  0
SPLINE
  5
178
100
AcDbEntity
  8
Beaker
 62
7
100
AcDbSpline
 70
8
 71
3
 72
8
 73
4
 74
0
 40
0
 40
0
 40
0
 40
0
 40
1
 40
1
 40
1
 40
1
 10
11.978717
 20
0.141111
 30
0.0
 10
11.836476
 20
0.141111
 30
0.0
 10
11.702138
 20
0.167442
 30
0.0
 10
11.575704
 20
0.220133
 30
0.0
  0
SPLINE
  5
179
100
AcDbEntity
  8
Beaker
 62
7
100
AcDbSpline
 70
8
 71
3
 72
8
 73
4
 74
0
 40
0
 40
0
 40
0
 40
0
 40
1
 40
1
 40
1
 40
1
 10
11.575704
 20
0.220133
 30
0.0
 10
11.454536
 20
0.272816
 30
0.0
 10
11.346539
 20
0.346569
 30
0.0
 10
11.251713
 20
0.441396
 30
0.0
  0
SPLINE
  5
17a
100
AcDbEntity
  8
Beaker
 62
7
100
AcDbSpline
 70
8
 71
3
 72
8
 73
4
 74
0
 40
0
 40
0
 40
0
 40
0
 40
1
 40
1
 40
1
 40
1
 10
11.251713
 20
0.441396
 30
0.0
 10
11.156886
 20
0.536222
 30
0.0
 10
11.083132
 20
0.644217
 30
0.0
 10
11.030451
 20
0.765387
 30
0.0
  0
SPLINE
  5
17b
100
AcDbEntity
  8
Beaker
 62
7
100
AcDbSpline
 70
8
 71
3
 72
8
 73
4
 74
0
 40
0
 40
0
 40
0
 40
0
 40
1
 40
1
 40
1
 40
1
 10
11.030451
 20
0.765387
 30
0.0
 10
10.977769
 20
0.891822
 30
0.0
 10
10.951428
 20
1.026160
 30
0.0
 10
10.951428
 20
1.168400
 30
0.0
  0
LWPOLYLINE
  5
17c
100
AcDbEntity
  8
Beaker
 62
7
100
AcDbPolyline
 90
3
 70
0
 10
15.613740
 20
3.697111
 30
0.0
 10
15.613740
 20
0.141111
 30
0.0
 10
11.978717
 20
0.141111
 30
0.0
  0
SPLINE
  5
17d
100
AcDbEntity
  8
Beaker
 62
7
100
AcDbSpline
 70
8
 71
3
 72
8
 73
4
 74
0
 40
0
 40
0
 40
0
 40
0
 40
1
 40
1
 40
1
 40
1
 10
14.760300
 20
3.697111
 30
0.0
 10
14.760295
 20
3.744522
 30
0.0
 10
14.741856
 20
3.784033
 30
0.0
 10
14.704984
 20
3.815644
 30
0.0
  0
SPLINE
  5
17e
100
AcDbEntity
  8
Beaker
 62
7
100
AcDbSpline
 70
8
 71
3
 72
8
 73
4
 74
0
 40
0
 40
0
 40
0
 40
0
 40
1
 40
1
 40
1
 40
1
 10
14.704984
 20
3.815644
 30
0.0
 10
14.673371
 20
3.852517
 30
0.0
 10
14.633860
 20
3.870957
 30
0.0
 10
14.586451
 20
3.870960
 30
0.0
  0
LWPOLYLINE
  5
17f
100
AcDbEntity
  8
Beaker
 62
7
100
AcDbPolyline
 90
4
 70
0
 10
10.951428
 20
1.168400
 30
0.0
 10
10.951428
 20
2.859476
 30
0.0
 10
14.760300
 20
2.859476
 30
0.0
 10
14.760300
 20
3.697111
 30
0.0
  0
LWPOLYLINE
  5
180
100
AcDbEntity
  8
Beaker
 62
7
100
AcDbPolyline
 90
4
 70
0
 10
14.586451
 20
3.870960
 30
0.0
 10
10.951428
 20
3.870960
 30
0.0
 10
10.951428
 20
4.724400
 30
0.0
 10
14.586451
 20
4.724400
 30
0.0
  0
SPLINE
  5
181
100
AcDbEntity
  8
Beaker
 62
7
100
AcDbSpline
 70
8
 71
3
 72
8
 73
4
 74
0
 40
0
 40
0
 40
0
 40
0
 40
1
 40
1
 40
1
 40
1
 10
11.804868
 20
1.168400
 30
0.0
 10
11.804867
 20
1.120987
 30
0.0
 10
11.820673
 20
1.078840
 30
0.0
 10
11.852282
 20
1.041964
 30
0.0
  0
SPLINE
  5
182
100
AcDbEntity
  8
Beaker
 62
7
100
AcDbSpline
 70
8
 71
3
 72
8
 73
4
 74
0
 40
0
 40
0
 40
0
 40
0
 40
1
 40
1
 40
1
 40
1
 10
11.852282
 20
1.041964
 30
0.0
 10
11.889157
 20
1.010356
 30
0.0
 10
11.931303
 20
0.994551
 30
0.0
 10
11.978717
 20
0.994551
 30
0.0
  0
LWPOLYLINE
  5
183
100
AcDbEntity
  8
Beaker
 62
7
100
AcDbPolyline
 90
3
 70
0
 10
14.760300
 20
2.006036
 30
0.0
 10
11.804868
 20
2.006036
 30
0.0
 10
11.804868
 20
1.168400
 30
0.0
  0
LWPOLYLINE
  5
184
100
AcDbEntity
  8
Beaker
 62
7
100
AcDbPolyline
 90
3
 70
0
 10
11.978717
 20
0.994551
 30
0.0
 10
14.760300
 20
0.994551
 30
0.0
 10
14.760300
 20
2.006036
 30
0.0
  0
SPLINE
  5
185
100
AcDbEntity
  8
Beaker
 62
7
100
AcDbSpline
 70
8
 71
3
 72
8
 73
4
 74
0
 40
0
 40
0
 40
0
 40
0
 40
1
 40
1
 40
1
 40
1
 10
17.326423
 20
0.141111
 30
0.0
 10
17.184181
 20
0.141111
 30
0.0
 10
17.049844
 20
0.167442
 30
0.0
 10
16.923410
 20
0.220133
 30
0.0
  0
SPLINE
  5
186
100
AcDbEntity
  8
Beaker
 62
7
100
AcDbSpline
 70
8
 71
3
 72
8
 73
4
 74
0
 40
0
 40
0
 40
0
 40
0
 40
1
 40
1
 40
1
 40
1
 10
16.923410
 20
0.220133
 30
0.0
 10
16.802241
 20
0.272816
 30
0.0
 10
16.694244
 20
0.346569
 30
0.0
 10
16.599418
 20
0.441396
 30
0.0
  0
SPLINE
  5
187
100
AcDbEntity
  8
Beaker
 62
7
100
AcDbSpline
 70
8
 71
3
 72
8
 73
4
 74
0
 40
0
 40
0
 40
0
 40
0
 40
1
 40
1
 40
1
 40
1
 10
16.599418
 20
0.441396
 30
0.0
 10
16.504591
 20
0.536222
 30
0.0
 10
16.430837
 20
0.644217
 30
0.0
 10
16.378156
 20
0.765387
 30
0.0
  0
SPLINE
  5
188
100
AcDbEntity
  8
Beaker
 62
7
100
AcDbSpline
 70
8
 71
3
 72
8
 73
4
 74
0
 40
0
 40
0
 40
0
 40
0
 40
1
 40
1
 40
1
 40
1
 10
16.378156
 20
0.765387
 30
0.0
 10
16.325474
 20
0.891822
 30
0.0
 10
16.299133
 20
1.026160
 30
0.0
 10
16.299134
 20
1.168400
 30
0.0
  0
LWPOLYLINE
  5
189
100
AcDbEntity
  8
Beaker
 62
7
100
AcDbPolyline
 90
3
 70
0
 10
20.961445
 20
0.994551
 30
0.0
 10
20.961445
 20
0.141111
 30
0.0
 10
17.326423
 20
0.141111
 30
0.0
  0
SPLINE
  5
18a
100
AcDbEntity
  8
Beaker
 62
7
100
AcDbSpline
 70
8
 71
3
 72
8
 73
4
 74
0
 40
0
 40
0
 40
0
 40
0
 40
1
 40
1
 40
1
 40
1
 10
16.299134
 20
3.697111
 30
0.0
 10
16.299133
 20
3.839348
 30
0.0
 10
16.325474
 20
3.971050
 30
0.0
 10
16.378156
 20
4.092222
 30
0.0
  0
SPLINE
  5
18b
100
AcDbEntity
  8
Beaker
 62
7
100
AcDbSpline
 70
8
 71
3
 72
8
 73
4
 74
0
 40
0
 40
0
 40
0
 40
0
 40
1
 40
1
 40
1
 40
1
 10
16.378156
 20
4.092222
 30
0.0
 10
16.430837
 20
4.218655
 30
0.0
 10
16.504591
 20
4.329286
 30
0.0
 10
16.599418
 20
4.424116
 30
0.0
  0
SPLINE
  5
18c
100
AcDbEntity
  8
Beaker
 62
7
100
AcDbSpline
 70
8
 71
3
 72
8
 73
4
 74
0
 40
0
 40
0
 40
0
 40
0
 40
1
 40
1
 40
1
 40
1
 10
16.599418
 20
4.424116
 30
0.0
 10
16.694244
 20
4.518937
 30
0.0
 10
16.802241
 20
4.592693
 30
0.0
 10
16.923410
 20
4.645378
 30
0.0
  0
SPLINE
  5
18d
100
AcDbEntity
  8
Beaker
 62
7
100
AcDbSpline
 70
8
 71
3
 72
8
 73
4
 74
0
 40
0
 40
0
 40
0
 40
0
 40
1
 40
1
 40
1
 40
1
 10
16.923410
 20
4.645378
 30
0.0
 10
17.049844
 20
4.698055
 30
0.0
 10
17.184181
 20
4.724394
 30
0.0
 10
17.326423
 20
4.724400
 30
0.0
  0
LWPOLYLINE
  5
18e
100
AcDbEntity
  8
Beaker
 62
7
100
AcDbPolyline
 90
2
 70
0
 10
16.299134
 20
1.168400
 30
0.0
 10
16.299134
 20
3.697111
 30
0.0
  0
SPLINE
  5
18f
100
AcDbEntity
  8
Beaker
 62
7
100
AcDbSpline
 70
8
 71
3
 72
8
 73
4
 74
0
 40
0
 40
0
 40
0
 40
0
 40
1
 40
1
 40
1
 40
1
 10
17.326423
 20
3.870960
 30
0.0
 10
17.279008
 20
3.870957
 30
0.0
 10
17.236863
 20
3.852531
 30
0.0
 10
17.199987
 20
3.815644
 30
0.0
  0
SPLINE
  5
190
100
AcDbEntity
  8
Beaker
 62
7
100
AcDbSpline
 70
8
 71
3
 72
8
 73
4
 74
0
 40
0
 40
0
 40
0
 40
0
 40
1
 40
1
 40
1
 40
1
 10
17.199987
 20
3.815644
 30
0.0
 10
17.168377
 20
3.784033
 30
0.0
 10
17.152573
 20
3.744522
 30
0.0
 10
17.152574
 20
3.697111
 30
0.0
  0
LWPOLYLINE
  5
191
100
AcDbEntity
  8
Beaker
 62
7
100
AcDbPolyline
 90
4
 70
0
 10
17.326423
 20
4.724400
 30
0.0
 10
20.945641
 20
4.724400
 30
0.0
 10
20.945641
 20
3.870960
 30
0.0
 10
17.326423
 20
3.870960
 30
0.0
  0
SPLINE
  5
192
100
AcDbEntity
  8
Beaker
 62
7
100
AcDbSpline
 70
8
 71
3
 72
8
 73
4
 74
0
 40
0
 40
0
 40
0
 40
0
 40
1
 40
1
 40
1
 40
1
 10
17.152574
 20
1.168400
 30
0.0
 10
17.152573
 20
1.120987
 30
0.0
 10
17.168378
 20
1.078840
 30
0.0
 10
17.199987
 20
1.041964
 30
0.0
  0
SPLINE
  5
193
100
AcDbEntity
  8
Beaker
 62
7
100
AcDbSpline
 70
8
 71
3
 72
8
 73
4
 74
0
 40
0
 40
0
 40
0
 40
0
 40
1
 40
1
 40
1
 40
1
 10
17.199987
 20
1.041964
 30
0.0
 10
17.236863
 20
1.010356
 30
0.0
 10
17.279008
 20
0.994551
 30
0.0
 10
17.326423
 20
0.994551
 30
0.0
  0
LWPOLYLINE
  5
194
100
AcDbEntity
  8
Beaker
 62
7
100
AcDbPolyline
 90
2
 70
0
 10
17.152574
 20
3.697111
 30
0.0
 10
17.152574
 20
1.168400
 30
0.0
  0
SPLINE
  5
195
100
AcDbEntity
  8
Beaker
 62
7
100
AcDbSpline
 70
8
 71
3
 72
8
 73
4
 74
0
 40
0
 40
0
 40
0
 40
0
 40
1
 40
1
 40
1
 40
1
 10
25.328905
 20
4.724400
 30
0.0
 10
25.471140
 20
4.724394
 30
0.0
 10
25.602844
 20
4.698040
 30
0.0
 10
25.724016
 20
4.645378
 30
0.0
  0
SPLINE
  5
196
100
AcDbEntity
  8
Beaker
 62
7
100
AcDbSpline
 70
8
 71
3
 72
8
 73
4
 74
0
 40
0
 40
0
 40
0
 40
0
 40
1
 40
1
 40
1
 40
1
 10
25.724016
 20
4.645378
 30
0.0
 10
25.850446
 20
4.592693
 30
0.0
 10
25.958444
 20
4.518937
 30
0.0
 10
26.048007
 20
4.424116
 30
0.0
  0
SPLINE
  5
197
100
AcDbEntity
  8
Beaker
 62
7
100
AcDbSpline
 70
8
 71
3
 72
8
 73
4
 74
0
 40
0
 40
0
 40
0
 40
0
 40
1
 40
1
 40
1
 40
1
 10
26.048007
 20
4.424116
 30
0.0
 10
26.142828
 20
4.329286
 30
0.0
 10
26.216583
 20
4.218655
 30
0.0
 10
26.269269
 20
4.092222
 30
0.0
  0
SPLINE
  5
198
100
AcDbEntity
  8
Beaker
 62
7
100
AcDbSpline
 70
8
 71
3
 72
8
 73
4
 74
0
 40
0
 40
0
 40
0
 40
0
 40
1
 40
1
 40
1
 40
1
 10
26.269269
 20
4.092222
 30
0.0
 10
26.327213
 20
3.971050
 30
0.0
 10
26.356188
 20
3.839348
 30
0.0
 10
26.356193
 20
3.697111
 30
0.0
  0
LWPOLYLINE
  5
199
100
AcDbEntity
  8
Beaker
 62
7
100
AcDbPolyline
 90
2
 70
0
 10
17.326423
 20
0.994551
 30
0.0
 10
20.961445
 20
0.994551
 30
0.0
  0
SPLINE
  5
19a
100
AcDbEntity
  8
Beaker
 62
7
100
AcDbSpline
 70
8
 71
3
 72
8
 73
4
 74
0
 40
0
 40
0
 40
0
 40
0
 40
1
 40
1
 40
1
 40
1
 10
25.502753
 20
3.697111
 30
0.0
 10
25.502749
 20
3.744522
 30
0.0
 10
25.484310
 20
3.784033
 30
0.0
 10
25.447438
 20
3.815644
 30
0.0
  0
SPLINE
  5
19b
100
AcDbEntity
  8
Beaker
 62
7
100
AcDbSpline
 70
8
 71
3
 72
8
 73
4
 74
0
 40
0
 40
0
 40
0
 40
0
 40
1
 40
1
 40
1
 40
1
 10
25.447438
 20
3.815644
 30
0.0
 10
25.415825
 20
3.852517
 30
0.0
 10
25.376314
 20
3.870957
 30
0.0
 10
25.328905
 20
3.870960
 30
0.0
  0
LWPOLYLINE
  5
19c
100
AcDbEntity
  8
Beaker
 62
7
100
AcDbPolyline
 90
4
 70
0
 10
26.356193
 20
3.697111
 30
0.0
 10
26.356193
 20
0.141111
 30
0.0
 10
25.502753
 20
0.141111
 30
0.0
 10
25.502753
 20
3.697111
 30
0.0
  0
SPLINE
  5
19d
100
AcDbEntity
  8
Beaker
 62
7
100
AcDbSpline
 70
8
 71
3
 72
8
 73
4
 74
0
 40
0
 40
0
 40
0
 40
0
 40
1
 40
1
 40
1
 40
1
 10
22.721171
 20
3.870960
 30
0.0
 10
22.673756
 20
3.870957
 30
0.0
 10
22.631611
 20
3.852531
 30
0.0
 10
22.594736
 20
3.815644
 30
0.0
  0
SPLINE
  5
19e
100
AcDbEntity
  8
Beaker
 62
7
100
AcDbSpline
 70
8
 71
3
 72
8
 73
4
 74
0
 40
0
 40
0
 40
0
 40
0
 40
1
 40
1
 40
1
 40
1
 10
22.594736
 20
3.815644
 30
0.0
 10
22.563125
 20
3.784033
 30
0.0
 10
22.547321
 20
3.744522
 30
0.0
 10
22.547322
 20
3.697111
 30
0.0
  0
LWPOLYLINE
  5
19f
100
AcDbEntity
  8
Beaker
 62
7
100
AcDbPolyline
 90
2
 70
0
 10
25.328905
 20
3.870960
 30
0.0
 10
22.721171
 20
3.870960
 30
0.0
  0
SPLINE
  5
1a0
100
AcDbEntity
  8
Beaker
 62
7
100
AcDbSpline
 70
8
 71
3
 72
8
 73
4
 74
0
 40
0
 40
0
 40
0
 40
0
 40
1
 40
1
 40
1
 40
1
 10
30.591907
 20
4.724400
 30
0.0
 10
30.734144
 20
4.724394
 30
0.0
 10
30.865849
 20
4.698040
 30
0.0
 10
30.987018
 20
4.645378
 30
0.0
  0
SPLINE
  5
1a1
100
AcDbEntity
  8
Beaker
 62
7
100
AcDbSpline
 70
8
 71
3
 72
8
 73
4
 74
0
 40
0
 40
0
 40
0
 40
0
 40
1
 40
1
 40
1
 40
1
 10
30.987018
 20
4.645378
 30
0.0
 10
31.113451
 20
4.592693
 30
0.0
 10
31.224082
 20
4.518937
 30
0.0
 10
31.318911
 20
4.424116
 30
0.0
  0
SPLINE
  5
1a2
100
AcDbEntity
  8
Beaker
 62
7
100
AcDbSpline
 70
8
 71
3
 72
8
 73
4
 74
0
 40
0
 40
0
 40
0
 40
0
 40
1
 40
1
 40
1
 40
1
 10
31.318911
 20
4.424116
 30
0.0
 10
31.413735
 20
4.329286
 30
0.0
 10
31.487488
 20
4.218655
 30
0.0
 10
31.540173
 20
4.092222
 30
0.0
  0
SPLINE
  5
1a3
100
AcDbEntity
  8
Beaker
 62
7
100
AcDbSpline
 70
8
 71
3
 72
8
 73
4
 74
0
 40
0
 40
0
 40
0
 40
0
 40
1
 40
1
 40
1
 40
1
 10
31.540173
 20
4.092222
 30
0.0
 10
31.592850
 20
3.971050
 30
0.0
 10
31.619193
 20
3.839348
 30
0.0
 10
31.619196
 20
3.697111
 30
0.0
  0
LWPOLYLINE
  5
1a4
100
AcDbEntity
  8
Beaker
 62
7
100
AcDbPolyline
 90
7
 70
0
 10
22.547322
 20
3.697111
 30
0.0
 10
22.547322
 20
0.141111
 30
0.0
 10
21.693882
 20
0.141111
 30
0.0
 10
21.693882
 20
6.225822
 30
0.0
 10
22.547322
 20
6.225822
 30
0.0
 10
22.547322
 20
4.724400
 30
0.0
 10
25.328905
 20
4.724400
 30
0.0
  0
SPLINE
  5
1a5
100
AcDbEntity
  8
Beaker
 62
7
100
AcDbSpline
 70
8
 71
3
 72
8
 73
4
 74
0
 40
0
 40
0
 40
0
 40
0
 40
1
 40
1
 40
1
 40
1
 10
30.765756
 20
3.697111
 30
0.0
 10
30.765753
 20
3.744522
 30
0.0
 10
30.747327
 20
3.784033
 30
0.0
 10
30.710440
 20
3.815644
 30
0.0
  0
SPLINE
  5
1a6
100
AcDbEntity
  8
Beaker
 62
7
100
AcDbSpline
 70
8
 71
3
 72
8
 73
4
 74
0
 40
0
 40
0
 40
0
 40
0
 40
1
 40
1
 40
1
 40
1
 10
30.710440
 20
3.815644
 30
0.0
 10
30.678828
 20
3.852517
 30
0.0
 10
30.639317
 20
3.870957
 30
0.0
 10
30.591907
 20
3.870960
 30
0.0
  0
LWPOLYLINE
  5
1a7
100
AcDbEntity
  8
Beaker
 62
7
100
AcDbPolyline
 90
4
 70
0
 10
31.619196
 20
3.697111
 30
0.0
 10
31.619196
 20
0.141111
 30
0.0
 10
30.765756
 20
0.141111
 30
0.0
 10
30.765756
 20
3.697111
 30
0.0
  0
SPLINE
  5
1a8
100
AcDbEntity
  8
Beaker
 62
7
100
AcDbSpline
 70
8
 71
3
 72
8
 73
4
 74
0
 40
0
 40
0
 40
0
 40
0
 40
1
 40
1
 40
1
 40
1
 10
27.984175
 20
3.870960
 30
0.0
 10
27.936760
 20
3.870957
 30
0.0
 10
27.894615
 20
3.852531
 30
0.0
 10
27.857739
 20
3.815644
 30
0.0
  0
SPLINE
  5
1a9
100
AcDbEntity
  8
Beaker
 62
7
100
AcDbSpline
 70
8
 71
3
 72
8
 73
4
 74
0
 40
0
 40
0
 40
0
 40
0
 40
1
 40
1
 40
1
 40
1
 10
27.857739
 20
3.815644
 30
0.0
 10
27.826129
 20
3.784033
 30
0.0
 10
27.810325
 20
3.744522
 30
0.0
 10
27.810326
 20
3.697111
 30
0.0
  0
LWPOLYLINE
  5
1aa
100
AcDbEntity
  8
Beaker
 62
7
100
AcDbPolyline
 90
2
 70
0
 10
30.591907
 20
3.870960
 30
0.0
 10
27.984175
 20
3.870960
 30
0.0
  0
LWPOLYLINE
  5
1ab
100
AcDbEntity
  8
Beaker
 62
7
100
AcDbPolyline
 90
5
 70
0
 10
27.810326
 20
3.697111
 30
0.0
 10
27.810326
 20
0.141111
 30
0.0
 10
26.956886
 20
0.141111
 30
0.0
 10
26.956886
 20
4.724400
 30
0.0
 10
30.591907
 20
4.724400
 30
0.0
  0
LWPOLYLINE
  5
1ac
100
AcDbEntity
  8
Beaker
 62
7
100
AcDbPolyline
 90
5
 70
0
 10
32.435594
 20
4.724400
 30
0.0
 10
33.289034
 20
4.724400
 30
0.0
 10
33.289034
 20
0.141111
 30
0.0
 10
32.435594
 20
0.141111
 30
0.0
 10
32.435594
 20
4.724400
 30
0.0
  0
LWPOLYLINE
  5
1ad
100
AcDbEntity
  8
Beaker
 62
7
100
AcDbPolyline
 90
5
 70
0
 10
33.289034
 20
6.225822
 30
0.0
 10
33.289034
 20
5.372382
 30
0.0
 10
32.435594
 20
5.372382
 30
0.0
 10
32.435594
 20
6.225822
 30
0.0
 10
33.289034
 20
6.225822
 30
0.0
  0
SPLINE
  5
1ae
100
AcDbEntity
  8
Beaker
 62
7
100
AcDbSpline
 70
8
 71
3
 72
8
 73
4
 74
0
 40
0
 40
0
 40
0
 40
0
 40
1
 40
1
 40
1
 40
1
 10
34.885162
 20
0.141111
 30
0.0
 10
34.742919
 20
0.141111
 30
0.0
 10
34.608581
 20
0.167442
 30
0.0
 10
34.482148
 20
0.220133
 30
0.0
  0
SPLINE
  5
1af
100
AcDbEntity
  8
Beaker
 62
7
100
AcDbSpline
 70
8
 71
3
 72
8
 73
4
 74
0
 40
0
 40
0
 40
0
 40
0
 40
1
 40
1
 40
1
 40
1
 10
34.482148
 20
0.220133
 30
0.0
 10
34.360979
 20
0.272816
 30
0.0
 10
34.252981
 20
0.346569
 30
0.0
 10
34.158157
 20
0.441396
 30
0.0
  0
SPLINE
  5
1b0
100
AcDbEntity
  8
Beaker
 62
7
100
AcDbSpline
 70
8
 71
3
 72
8
 73
4
 74
0
 40
0
 40
0
 40
0
 40
0
 40
1
 40
1
 40
1
 40
1
 10
34.158157
 20
0.441396
 30
0.0
 10
34.063330
 20
0.536222
 30
0.0
 10
33.989574
 20
0.644217
 30
0.0
 10
33.936895
 20
0.765387
 30
0.0
  0
SPLINE
  5
1b1
100
AcDbEntity
  8
Beaker
 62
7
100
AcDbSpline
 70
8
 71
3
 72
8
 73
4
 74
0
 40
0
 40
0
 40
0
 40
0
 40
1
 40
1
 40
1
 40
1
 10
33.936895
 20
0.765387
 30
0.0
 10
33.884212
 20
0.891822
 30
0.0
 10
33.857873
 20
1.026160
 30
0.0
 10
33.857873
 20
1.168400
 30
0.0
  0
LWPOLYLINE
  5
1b2
100
AcDbEntity
  8
Beaker
 62
7
100
AcDbPolyline
 90
3
 70
0
 10
38.520184
 20
6.225822
 30
0.0
 10
38.520184
 20
0.141111
 30
0.0
 10
34.885162
 20
0.141111
 30
0.0
  0
SPLINE
  5
1b3
100
AcDbEntity
  8
Beaker
 62
7
100
AcDbSpline
 70
8
 71
3
 72
8
 73
4
 74
0
 40
0
 40
0
 40
0
 40
0
 40
1
 40
1
 40
1
 40
1
 10
33.857873
 20
3.697111
 30
0.0
 10
33.857873
 20
3.839348
 30
0.0
 10
33.884204
 20
3.971050
 30
0.0
 10
33.936895
 20
4.092222
 30
0.0
  0
SPLINE
  5
1b4
100
AcDbEntity
  8
Beaker
 62
7
100
AcDbSpline
 70
8
 71
3
 72
8
 73
4
 74
0
 40
0
 40
0
 40
0
 40
0
 40
1
 40
1
 40
1
 40
1
 10
33.936895
 20
4.092222
 30
0.0
 10
33.989574
 20
4.218655
 30
0.0
 10
34.063330
 20
4.329286
 30
0.0
 10
34.158157
 20
4.424116
 30
0.0
  0
SPLINE
  5
1b5
100
AcDbEntity
  8
Beaker
 62
7
100
AcDbSpline
 70
8
 71
3
 72
8
 73
4
 74
0
 40
0
 40
0
 40
0
 40
0
 40
1
 40
1
 40
1
 40
1
 10
34.158157
 20
4.424116
 30
0.0
 10
34.252981
 20
4.518937
 30
0.0
 10
34.360979
 20
4.592693
 30
0.0
 10
34.482148
 20
4.645378
 30
0.0
  0
SPLINE
  5
1b6
100
AcDbEntity
  8
Beaker
 62
7
100
AcDbSpline
 70
8
 71
3
 72
8
 73
4
 74
0
 40
0
 40
0
 40
0
 40
0
 40
1
 40
1
 40
1
 40
1
 10
34.482148
 20
4.645378
 30
0.0
 10
34.608581
 20
4.698055
 30
0.0
 10
34.742919
 20
4.724394
 30
0.0
 10
34.885162
 20
4.724400
 30
0.0
  0
LWPOLYLINE
  5
1b7
100
AcDbEntity
  8
Beaker
 62
7
100
AcDbPolyline
 90
2
 70
0
 10
33.857873
 20
1.168400
 30
0.0
 10
33.857873
 20
3.697111
 30
0.0
  0
SPLINE
  5
1b8
100
AcDbEntity
  8
Beaker
 62
7
100
AcDbSpline
 70
8
 71
3
 72
8
 73
4
 74
0
 40
0
 40
0
 40
0
 40
0
 40
1
 40
1
 40
1
 40
1
 10
37.492895
 20
0.994551
 30
0.0
 10
37.540303
 20
0.994551
 30
0.0
 10
37.579814
 20
1.010356
 30
0.0
 10
37.611428
 20
1.041964
 30
0.0
  0
SPLINE
  5
1b9
100
AcDbEntity
  8
Beaker
 62
7
100
AcDbSpline
 70
8
 71
3
 72
8
 73
4
 74
0
 40
0
 40
0
 40
0
 40
0
 40
1
 40
1
 40
1
 40
1
 10
37.611428
 20
1.041964
 30
0.0
 10
37.648301
 20
1.078840
 30
0.0
 10
37.666738
 20
1.120987
 30
0.0
 10
37.666744
 20
1.168400
 30
0.0
  0
LWPOLYLINE
  5
1ba
100
AcDbEntity
  8
Beaker
 62
7
100
AcDbPolyline
 90
4
 70
0
 10
34.885162
 20
4.724400
 30
0.0
 10
37.666744
 20
4.724400
 30
0.0
 10
37.666744
 20
6.225822
 30
0.0
 10
38.520184
 20
6.225822
 30
0.0
  0
SPLINE
  5
1bb
100
AcDbEntity
  8
Beaker
 62
7
100
AcDbSpline
 70
8
 71
3
 72
8
 73
4
 74
0
 40
0
 40
0
 40
0
 40
0
 40
1
 40
1
 40
1
 40
1
 10
37.666744
 20
3.697111
 30
0.0
 10
37.666738
 20
3.744522
 30
0.0
 10
37.648286
 20
3.784033
 30
0.0
 10
37.611428
 20
3.815644
 30
0.0
  0
SPLINE
  5
1bc
100
AcDbEntity
  8
Beaker
 62
7
100
AcDbSpline
 70
8
 71
3
 72
8
 73
4
 74
0
 40
0
 40
0
 40
0
 40
0
 40
1
 40
1
 40
1
 40
1
 10
37.611428
 20
3.815644
 30
0.0
 10
37.579814
 20
3.852517
 30
0.0
 10
37.540303
 20
3.870957
 30
0.0
 10
37.492895
 20
3.870960
 30
0.0
  0
LWPOLYLINE
  5
1bd
100
AcDbEntity
  8
Beaker
 62
7
100
AcDbPolyline
 90
2
 70
0
 10
37.666744
 20
1.168400
 30
0.0
 10
37.666744
 20
3.697111
 30
0.0
  0
SPLINE
  5
1be
100
AcDbEntity
  8
Beaker
 62
7
100
AcDbSpline
 70
8
 71
3
 72
8
 73
4
 74
0
 40
0
 40
0
 40
0
 40
0
 40
1
 40
1
 40
1
 40
1
 10
34.885162
 20
3.870960
 30
0.0
 10
34.837745
 20
3.870957
 30
0.0
 10
34.795601
 20
3.852531
 30
0.0
 10
34.758726
 20
3.815644
 30
0.0
  0
SPLINE
  5
1bf
100
AcDbEntity
  8
Beaker
 62
7
100
AcDbSpline
 70
8
 71
3
 72
8
 73
4
 74
0
 40
0
 40
0
 40
0
 40
0
 40
1
 40
1
 40
1
 40
1
 10
34.758726
 20
3.815644
 30
0.0
 10
34.727114
 20
3.784033
 30
0.0
 10
34.711310
 20
3.744522
 30
0.0
 10
34.711313
 20
3.697111
 30
0.0
  0
LWPOLYLINE
  5
1c0
100
AcDbEntity
  8
Beaker
 62
7
100
AcDbPolyline
 90
2
 70
0
 10
37.492895
 20
3.870960
 30
0.0
 10
34.885162
 20
3.870960
 30
0.0
  0
SPLINE
  5
1c1
100
AcDbEntity
  8
Beaker
 62
7
100
AcDbSpline
 70
8
 71
3
 72
8
 73
4
 74
0
 40
0
 40
0
 40
0
 40
0
 40
1
 40
1
 40
1
 40
1
 10
34.711313
 20
1.168400
 30
0.0
 10
34.711310
 20
1.120987
 30
0.0
 10
34.727117
 20
1.078840
 30
0.0
 10
34.758726
 20
1.041964
 30
0.0
  0
SPLINE
  5
1c2
100
AcDbEntity
  8
Beaker
 62
7
100
AcDbSpline
 70
8
 71
3
 72
8
 73
4
 74
0
 40
0
 40
0
 40
0
 40
0
 40
1
 40
1
 40
1
 40
1
 10
34.758726
 20
1.041964
 30
0.0
 10
34.795601
 20
1.010356
 30
0.0
 10
34.837745
 20
0.994551
 30
0.0
 10
34.885162
 20
0.994551
 30
0.0
  0
LWPOLYLINE
  5
1c3
100
AcDbEntity
  8
Beaker
 62
7
100
AcDbPolyline
 90
2
 70
0
 10
34.711313
 20
3.697111
 30
0.0
 10
34.711313
 20
1.168400
 30
0.0
  0
LWPOLYLINE
  5
1c4
100
AcDbEntity
  8
Beaker
 62
7
100
AcDbPolyline
 90
2
 70
0
 10
34.885162
 20
0.994551
 30
0.0
 10
37.492895
 20
0.994551
 30
0.0
  0
SPLINE
  5
1c5
100
AcDbEntity
  8
Beaker
 62
7
100
AcDbSpline
 70
8
 71
3
 72
8
 73
4
 74
0
 40
0
 40
0
 40
0
 40
0
 40
1
 40
1
 40
1
 40
1
 10
51.442908
 20
4.724400
 30
0.0
 10
51.585145
 20
4.724394
 30
0.0
 10
51.716850
 20
4.698040
 30
0.0
 10
51.838019
 20
4.645378
 30
0.0
  0
SPLINE
  5
1c6
100
AcDbEntity
  8
Beaker
 62
7
100
AcDbSpline
 70
8
 71
3
 72
8
 73
4
 74
0
 40
0
 40
0
 40
0
 40
0
 40
1
 40
1
 40
1
 40
1
 10
51.838019
 20
4.645378
 30
0.0
 10
51.964452
 20
4.592693
 30
0.0
 10
52.075083
 20
4.518937
 30
0.0
 10
52.169912
 20
4.424116
 30
0.0
  0
SPLINE
  5
1c7
100
AcDbEntity
  8
Beaker
 62
7
100
AcDbSpline
 70
8
 71
3
 72
8
 73
4
 74
0
 40
0
 40
0
 40
0
 40
0
 40
1
 40
1
 40
1
 40
1
 10
52.169912
 20
4.424116
 30
0.0
 10
52.264736
 20
4.329286
 30
0.0
 10
52.338489
 20
4.218655
 30
0.0
 10
52.391175
 20
4.092222
 30
0.0
  0
SPLINE
  5
1c8
100
AcDbEntity
  8
Beaker
 62
7
100
AcDbSpline
 70
8
 71
3
 72
8
 73
4
 74
0
 40
0
 40
0
 40
0
 40
0
 40
1
 40
1
 40
1
 40
1
 10
52.391175
 20
4.092222
 30
0.0
 10
52.443851
 20
3.971050
 30
0.0
 10
52.470194
 20
3.839348
 30
0.0
 10
52.470197
 20
3.697111
 30
0.0
  0
LWPOLYLINE
  5
1c9
100
AcDbEntity
  8
Beaker
 62
7
100
AcDbPolyline
 90
7
 70
0
 10
41.689220
 20
5.838613
 30
0.0
 10
42.542660
 20
5.838613
 30
0.0
 10
42.542660
 20
0.994551
 30
0.0
 10
47.378820
 20
0.994551
 30
0.0
 10
47.378820
 20
0.141111
 30
0.0
 10
41.689220
 20
0.141111
 30
0.0
 10
41.689220
 20
5.838613
 30
0.0
  0
SPLINE
  5
1ca
100
AcDbEntity
  8
Beaker
 62
7
100
AcDbSpline
 70
8
 71
3
 72
8
 73
4
 74
0
 40
0
 40
0
 40
0
 40
0
 40
1
 40
1
 40
1
 40
1
 10
48.835175
 20
0.141111
 30
0.0
 10
48.692935
 20
0.141111
 30
0.0
 10
48.558597
 20
0.167442
 30
0.0
 10
48.432161
 20
0.220133
 30
0.0
  0
SPLINE
  5
1cb
100
AcDbEntity
  8
Beaker
 62
7
100
AcDbSpline
 70
8
 71
3
 72
8
 73
4
 74
0
 40
0
 40
0
 40
0
 40
0
 40
1
 40
1
 40
1
 40
1
 10
48.432161
 20
0.220133
 30
0.0
 10
48.310995
 20
0.272816
 30
0.0
 10
48.202997
 20
0.346569
 30
0.0
 10
48.108170
 20
0.441396
 30
0.0
  0
SPLINE
  5
1cc
100
AcDbEntity
  8
Beaker
 62
7
100
AcDbSpline
 70
8
 71
3
 72
8
 73
4
 74
0
 40
0
 40
0
 40
0
 40
0
 40
1
 40
1
 40
1
 40
1
 10
48.108170
 20
0.441396
 30
0.0
 10
48.013343
 20
0.536222
 30
0.0
 10
47.939590
 20
0.644217
 30
0.0
 10
47.886908
 20
0.765387
 30
0.0
  0
SPLINE
  5
1cd
100
AcDbEntity
  8
Beaker
 62
7
100
AcDbSpline
 70
8
 71
3
 72
8
 73
4
 74
0
 40
0
 40
0
 40
0
 40
0
 40
1
 40
1
 40
1
 40
1
 10
47.886908
 20
0.765387
 30
0.0
 10
47.834228
 20
0.891822
 30
0.0
 10
47.807886
 20
1.026160
 30
0.0
 10
47.807886
 20
1.168400
 30
0.0
  0
LWPOLYLINE
  5
1ce
100
AcDbEntity
  8
Beaker
 62
7
100
AcDbPolyline
 90
3
 70
0
 10
52.470197
 20
3.697111
 30
0.0
 10
52.470197
 20
0.141111
 30
0.0
 10
48.835175
 20
0.141111
 30
0.0
  0
SPLINE
  5
1cf
100
AcDbEntity
  8
Beaker
 62
7
100
AcDbSpline
 70
8
 71
3
 72
8
 73
4
 74
0
 40
0
 40
0
 40
0
 40
0
 40
1
 40
1
 40
1
 40
1
 10
51.616757
 20
3.697111
 30
0.0
 10
51.616754
 20
3.744522
 30
0.0
 10
51.598328
 20
3.784033
 30
0.0
 10
51.561441
 20
3.815644
 30
0.0
  0
SPLINE
  5
1d0
100
AcDbEntity
  8
Beaker
 62
7
100
AcDbSpline
 70
8
 71
3
 72
8
 73
4
 74
0
 40
0
 40
0
 40
0
 40
0
 40
1
 40
1
 40
1
 40
1
 10
51.561441
 20
3.815644
 30
0.0
 10
51.529829
 20
3.852517
 30
0.0
 10
51.490318
 20
3.870957
 30
0.0
 10
51.442908
 20
3.870960
 30
0.0
  0
LWPOLYLINE
  5
1d1
100
AcDbEntity
  8
Beaker
 62
7
100
AcDbPolyline
 90
4
 70
0
 10
47.807886
 20
1.168400
 30
0.0
 10
47.807886
 20
2.859476
 30
0.0
 10
51.616757
 20
2.859476
 30
0.0
 10
51.616757
 20
3.697111
 30
0.0
  0
LWPOLYLINE
  5
1d2
100
AcDbEntity
  8
Beaker
 62
7
100
AcDbPolyline
 90
4
 70
0
 10
51.442908
 20
3.870960
 30
0.0
 10
47.807886
 20
3.870960
 30
0.0
 10
47.807886
 20
4.724400
 30
0.0
 10
51.442908
 20
4.724400
 30
0.0
  0
SPLINE
  5
1d3
100
AcDbEntity
  8
Beaker
 62
7
100
AcDbSpline
 70
8
 71
3
 72
8
 73
4
 74
0
 40
0
 40
0
 40
0
 40
0
 40
1
 40
1
 40
1
 40
1
 10
48.661326
 20
1.168400
 30
0.0
 10
48.661326
 20
1.120987
 30
0.0
 10
48.677130
 20
1.078840
 30
0.0
 10
48.708739
 20
1.041964
 30
0.0
  0
SPLINE
  5
1d4
100
AcDbEntity
  8
Beaker
 62
7
100
AcDbSpline
 70
8
 71
3
 72
8
 73
4
 74
0
 40
0
 40
0
 40
0
 40
0
 40
1
 40
1
 40
1
 40
1
 10
48.708739
 20
1.041964
 30
0.0
 10
48.745617
 20
1.010356
 30
0.0
 10
48.787761
 20
0.994551
 30
0.0
 10
48.835175
 20
0.994551
 30
0.0
  0
LWPOLYLINE
  5
1d5
100
AcDbEntity
  8
Beaker
 62
7
100
AcDbPolyline
 90
3
 70
0
 10
51.616757
 20
2.006036
 30
0.0
 10
48.661326
 20
2.006036
 30
0.0
 10
48.661326
 20
1.168400
 30
0.0
  0
SPLINE
  5
1d6
100
AcDbEntity
  8
Beaker
 62
7
100
AcDbSpline
 70
8
 71
3
 72
8
 73
4
 74
0
 40
0
 40
0
 40
0
 40
0
 40
1
 40
1
 40
1
 40
1
 10
56.798887
 20
4.724400
 30
0.0
 10
56.941122
 20
4.724394
 30
0.0
 10
57.072826
 20
4.698040
 30
0.0
 10
57.193998
 20
4.645378
 30
0.0
  0
SPLINE
  5
1d7
100
AcDbEntity
  8
Beaker
 62
7
100
AcDbSpline
 70
8
 71
3
 72
8
 73
4
 74
0
 40
0
 40
0
 40
0
 40
0
 40
1
 40
1
 40
1
 40
1
 10
57.193998
 20
4.645378
 30
0.0
 10
57.320428
 20
4.592693
 30
0.0
 10
57.431059
 20
4.518937
 30
0.0
 10
57.525892
 20
4.424116
 30
0.0
  0
SPLINE
  5
1d8
100
AcDbEntity
  8
Beaker
 62
7
100
AcDbSpline
 70
8
 71
3
 72
8
 73
4
 74
0
 40
0
 40
0
 40
0
 40
0
 40
1
 40
1
 40
1
 40
1
 10
57.525892
 20
4.424116
 30
0.0
 10
57.620713
 20
4.329286
 30
0.0
 10
57.694466
 20
4.218655
 30
0.0
 10
57.747154
 20
4.092222
 30
0.0
  0
SPLINE
  5
1d9
100
AcDbEntity
  8
Beaker
 62
7
100
AcDbSpline
 70
8
 71
3
 72
8
 73
4
 74
0
 40
0
 40
0
 40
0
 40
0
 40
1
 40
1
 40
1
 40
1
 10
57.747154
 20
4.092222
 30
0.0
 10
57.799831
 20
3.971050
 30
0.0
 10
57.826171
 20
3.839348
 30
0.0
 10
57.826176
 20
3.697111
 30
0.0
  0
LWPOLYLINE
  5
1da
100
AcDbEntity
  8
Beaker
 62
7
100
AcDbPolyline
 90
3
 70
0
 10
48.835175
 20
0.994551
 30
0.0
 10
51.616757
 20
0.994551
 30
0.0
 10
51.616757
 20
2.006036
 30
0.0
  0
SPLINE
  5
1db
100
AcDbEntity
  8
Beaker
 62
7
100
AcDbSpline
 70
8
 71
3
 72
8
 73
4
 74
0
 40
0
 40
0
 40
0
 40
0
 40
1
 40
1
 40
1
 40
1
 10
57.826176
 20
1.168400
 30
0.0
 10
57.826171
 20
1.026160
 30
0.0
 10
57.799817
 20
0.891822
 30
0.0
 10
57.747154
 20
0.765387
 30
0.0
  0
SPLINE
  5
1dc
100
AcDbEntity
  8
Beaker
 62
7
100
AcDbSpline
 70
8
 71
3
 72
8
 73
4
 74
0
 40
0
 40
0
 40
0
 40
0
 40
1
 40
1
 40
1
 40
1
 10
57.747154
 20
0.765387
 30
0.0
 10
57.694466
 20
0.644217
 30
0.0
 10
57.620713
 20
0.536222
 30
0.0
 10
57.525892
 20
0.441396
 30
0.0
  0
SPLINE
  5
1dd
100
AcDbEntity
  8
Beaker
 62
7
100
AcDbSpline
 70
8
 71
3
 72
8
 73
4
 74
0
 40
0
 40
0
 40
0
 40
0
 40
1
 40
1
 40
1
 40
1
 10
57.525892
 20
0.441396
 30
0.0
 10
57.431059
 20
0.346569
 30
0.0
 10
57.320428
 20
0.272816
 30
0.0
 10
57.193998
 20
0.220133
 30
0.0
  0
SPLINE
  5
1de
100
AcDbEntity
  8
Beaker
 62
7
100
AcDbSpline
 70
8
 71
3
 72
8
 73
4
 74
0
 40
0
 40
0
 40
0
 40
0
 40
1
 40
1
 40
1
 40
1
 10
57.193998
 20
0.220133
 30
0.0
 10
57.072826
 20
0.167451
 30
0.0
 10
56.941122
 20
0.141111
 30
0.0
 10
56.798887
 20
0.141111
 30
0.0
  0
LWPOLYLINE
  5
1df
100
AcDbEntity
  8
Beaker
 62
7
100
AcDbPolyline
 90
2
 70
0
 10
57.826176
 20
3.697111
 30
0.0
 10
57.826176
 20
1.168400
 30
0.0
  0
SPLINE
  5
1e0
100
AcDbEntity
  8
Beaker
 62
7
100
AcDbSpline
 70
8
 71
3
 72
8
 73
4
 74
0
 40
0
 40
0
 40
0
 40
0
 40
1
 40
1
 40
1
 40
1
 10
56.972736
 20
3.697111
 30
0.0
 10
56.972731
 20
3.744522
 30
0.0
 10
56.954279
 20
3.784033
 30
0.0
 10
56.917421
 20
3.815644
 30
0.0
  0
SPLINE
  5
1e1
100
AcDbEntity
  8
Beaker
 62
7
100
AcDbSpline
 70
8
 71
3
 72
8
 73
4
 74
0
 40
0
 40
0
 40
0
 40
0
 40
1
 40
1
 40
1
 40
1
 10
56.917421
 20
3.815644
 30
0.0
 10
56.885806
 20
3.852517
 30
0.0
 10
56.846295
 20
3.870957
 30
0.0
 10
56.798887
 20
3.870960
 30
0.0
  0
LWPOLYLINE
  5
1e2
100
AcDbEntity
  8
Beaker
 62
7
100
AcDbPolyline
 90
6
 70
0
 10
56.798887
 20
0.141111
 30
0.0
 10
53.163865
 20
0.141111
 30
0.0
 10
53.163865
 20
6.225822
 30
0.0
 10
54.017305
 20
6.225822
 30
0.0
 10
54.017305
 20
4.724400
 30
0.0
 10
56.798887
 20
4.724400
 30
0.0
  0
SPLINE
  5
1e3
100
AcDbEntity
  8
Beaker
 62
7
100
AcDbSpline
 70
8
 71
3
 72
8
 73
4
 74
0
 40
0
 40
0
 40
0
 40
0
 40
1
 40
1
 40
1
 40
1
 10
54.191154
 20
3.870960
 30
0.0
 10
54.143738
 20
3.870957
 30
0.0
 10
54.101594
 20
3.852531
 30
0.0
 10
54.064718
 20
3.815644
 30
0.0
  0
SPLINE
  5
1e4
100
AcDbEntity
  8
Beaker
 62
7
100
AcDbSpline
 70
8
 71
3
 72
8
 73
4
 74
0
 40
0
 40
0
 40
0
 40
0
 40
1
 40
1
 40
1
 40
1
 10
54.064718
 20
3.815644
 30
0.0
 10
54.033107
 20
3.784033
 30
0.0
 10
54.017302
 20
3.744522
 30
0.0
 10
54.017305
 20
3.697111
 30
0.0
  0
LWPOLYLINE
  5
1e5
100
AcDbEntity
  8
Beaker
 62
7
100
AcDbPolyline
 90
2
 70
0
 10
56.798887
 20
3.870960
 30
0.0
 10
54.191154
 20
3.870960
 30
0.0
  0
SPLINE
  5
1e6
100
AcDbEntity
  8
Beaker
 62
7
100
AcDbSpline
 70
8
 71
3
 72
8
 73
4
 74
0
 40
0
 40
0
 40
0
 40
0
 40
1
 40
1
 40
1
 40
1
 10
54.017305
 20
1.168400
 30
0.0
 10
54.017302
 20
1.120987
 30
0.0
 10
54.033110
 20
1.078840
 30
0.0
 10
54.064718
 20
1.041964
 30
0.0
  0
SPLINE
  5
1e7
100
AcDbEntity
  8
Beaker
 62
7
100
AcDbSpline
 70
8
 71
3
 72
8
 73
4
 74
0
 40
0
 40
0
 40
0
 40
0
 40
1
 40
1
 40
1
 40
1
 10
54.064718
 20
1.041964
 30
0.0
 10
54.101594
 20
1.010356
 30
0.0
 10
54.143738
 20
0.994551
 30
0.0
 10
54.191154
 20
0.994551
 30
0.0
  0
LWPOLYLINE
  5
1e8
100
AcDbEntity
  8
Beaker
 62
7
100
AcDbPolyline
 90
2
 70
0
 10
54.017305
 20
3.697111
 30
0.0
 10
54.017305
 20
1.168400
 30
0.0
  0
SPLINE
  5
1e9
100
AcDbEntity
  8
Beaker
 62
7
100
AcDbSpline
 70
8
 71
3
 72
8
 73
4
 74
0
 40
0
 40
0
 40
0
 40
0
 40
1
 40
1
 40
1
 40
1
 10
56.798887
 20
0.994551
 30
0.0
 10
56.846295
 20
0.994551
 30
0.0
 10
56.885806
 20
1.010356
 30
0.0
 10
56.917421
 20
1.041964
 30
0.0
  0
SPLINE
  5
1ea
100
AcDbEntity
  8
Beaker
 62
7
100
AcDbSpline
 70
8
 71
3
 72
8
 73
4
 74
0
 40
0
 40
0
 40
0
 40
0
 40
1
 40
1
 40
1
 40
1
 10
56.917421
 20
1.041964
 30
0.0
 10
56.954293
 20
1.078840
 30
0.0
 10
56.972731
 20
1.120987
 30
0.0
 10
56.972736
 20
1.168400
 30
0.0
  0
LWPOLYLINE
  5
1eb
100
AcDbEntity
  8
Beaker
 62
7
100
AcDbPolyline
 90
2
 70
0
 10
54.191154
 20
0.994551
 30
0.0
 10
56.798887
 20
0.994551
 30
0.0
  0
LWPOLYLINE
  5
1ec
100
AcDbEntity
  8
Beaker
 62
7
100
AcDbPolyline
 90
2
 70
0
 10
56.972736
 20
1.168400
 30
0.0
 10
56.972736
 20
3.697111
 30
0.0
  0
SPLINE
  5
1ed
100
AcDbEntity
  8
Beaker
 62
7
100
AcDbSpline
 70
8
 71
3
 72
8
 73
4
 74
0
 40
0
 40
0
 40
0
 40
0
 40
1
 40
1
 40
1
 40
1
 10
62.188327
 20
3.697111
 30
0.0
 10
62.188321
 20
3.744522
 30
0.0
 10
62.169898
 20
3.784033
 30
0.0
 10
62.133012
 20
3.815644
 30
0.0
  0
SPLINE
  5
1ee
100
AcDbEntity
  8
Beaker
 62
7
100
AcDbSpline
 70
8
 71
3
 72
8
 73
4
 74
0
 40
0
 40
0
 40
0
 40
0
 40
1
 40
1
 40
1
 40
1
 10
62.133012
 20
3.815644
 30
0.0
 10
62.101397
 20
3.852517
 30
0.0
 10
62.061886
 20
3.870957
 30
0.0
 10
62.014478
 20
3.870960
 30
0.0
  0
LWPOLYLINE
  5
1ef
100
AcDbEntity
  8
Beaker
 62
7
100
AcDbPolyline
 90
3
 70
0
 10
63.041767
 20
3.523262
 30
0.0
 10
62.188327
 20
3.523262
 30
0.0
 10
62.188327
 20
3.697111
 30
0.0
  0
SPLINE
  5
1f0
100
AcDbEntity
  8
Beaker
 62
7
100
AcDbSpline
 70
8
 71
3
 72
8
 73
4
 74
0
 40
0
 40
0
 40
0
 40
0
 40
1
 40
1
 40
1
 40
1
 10
59.406745
 20
3.870960
 30
0.0
 10
59.359329
 20
3.870957
 30
0.0
 10
59.317184
 20
3.852531
 30
0.0
 10
59.280309
 20
3.815644
 30
0.0
  0
SPLINE
  5
1f1
100
AcDbEntity
  8
Beaker
 62
7
100
AcDbSpline
 70
8
 71
3
 72
8
 73
4
 74
0
 40
0
 40
0
 40
0
 40
0
 40
1
 40
1
 40
1
 40
1
 10
59.280309
 20
3.815644
 30
0.0
 10
59.248698
 20
3.784033
 30
0.0
 10
59.232893
 20
3.744522
 30
0.0
 10
59.232896
 20
3.697111
 30
0.0
  0
LWPOLYLINE
  5
1f2
100
AcDbEntity
  8
Beaker
 62
7
100
AcDbPolyline
 90
2
 70
0
 10
62.014478
 20
3.870960
 30
0.0
 10
59.406745
 20
3.870960
 30
0.0
  0
SPLINE
  5
1f3
100
AcDbEntity
  8
Beaker
 62
7
100
AcDbSpline
 70
8
 71
3
 72
8
 73
4
 74
0
 40
0
 40
0
 40
0
 40
0
 40
1
 40
1
 40
1
 40
1
 10
59.232896
 20
3.033324
 30
0.0
 10
59.232893
 20
2.985908
 30
0.0
 10
59.248700
 20
2.943764
 30
0.0
 10
59.280309
 20
2.906889
 30
0.0
  0
SPLINE
  5
1f4
100
AcDbEntity
  8
Beaker
 62
7
100
AcDbSpline
 70
8
 71
3
 72
8
 73
4
 74
0
 40
0
 40
0
 40
0
 40
0
 40
1
 40
1
 40
1
 40
1
 10
59.280309
 20
2.906889
 30
0.0
 10
59.317184
 20
2.875277
 30
0.0
 10
59.359329
 20
2.859473
 30
0.0
 10
59.406745
 20
2.859476
 30
0.0
  0
LWPOLYLINE
  5
1f5
100
AcDbEntity
  8
Beaker
 62
7
100
AcDbPolyline
 90
2
 70
0
 10
59.232896
 20
3.697111
 30
0.0
 10
59.232896
 20
3.033324
 30
0.0
  0
SPLINE
  5
1f6
100
AcDbEntity
  8
Beaker
 62
7
100
AcDbSpline
 70
8
 71
3
 72
8
 73
4
 74
0
 40
0
 40
0
 40
0
 40
0
 40
1
 40
1
 40
1
 40
1
 10
62.014478
 20
2.859476
 30
0.0
 10
62.156713
 20
2.859473
 30
0.0
 10
62.288417
 20
2.833144
 30
0.0
 10
62.409589
 20
2.780453
 30
0.0
  0
SPLINE
  5
1f7
100
AcDbEntity
  8
Beaker
 62
7
100
AcDbSpline
 70
8
 71
3
 72
8
 73
4
 74
0
 40
0
 40
0
 40
0
 40
0
 40
1
 40
1
 40
1
 40
1
 10
62.409589
 20
2.780453
 30
0.0
 10
62.536019
 20
2.727768
 30
0.0
 10
62.646650
 20
2.654015
 30
0.0
 10
62.741483
 20
2.559191
 30
0.0
  0
SPLINE
  5
1f8
100
AcDbEntity
  8
Beaker
 62
7
100
AcDbSpline
 70
8
 71
3
 72
8
 73
4
 74
0
 40
0
 40
0
 40
0
 40
0
 40
1
 40
1
 40
1
 40
1
 10
62.741483
 20
2.559191
 30
0.0
 10
62.836304
 20
2.464362
 30
0.0
 10
62.910057
 20
2.353731
 30
0.0
 10
62.962745
 20
2.227298
 30
0.0
  0
SPLINE
  5
1f9
100
AcDbEntity
  8
Beaker
 62
7
100
AcDbSpline
 70
8
 71
3
 72
8
 73
4
 74
0
 40
0
 40
0
 40
0
 40
0
 40
1
 40
1
 40
1
 40
1
 10
62.962745
 20
2.227298
 30
0.0
 10
63.015422
 20
2.106128
 30
0.0
 10
63.041761
 20
1.974424
 30
0.0
 10
63.041767
 20
1.832187
 30
0.0
  0
LWPOLYLINE
  5
1fa
100
AcDbEntity
  8
Beaker
 62
7
100
AcDbPolyline
 90
2
 70
0
 10
59.406745
 20
2.859476
 30
0.0
 10
62.014478
 20
2.859476
 30
0.0
  0
SPLINE
  5
1fb
100
AcDbEntity
  8
Beaker
 62
7
100
AcDbSpline
 70
8
 71
3
 72
8
 73
4
 74
0
 40
0
 40
0
 40
0
 40
0
 40
1
 40
1
 40
1
 40
1
 10
63.041767
 20
1.168400
 30
0.0
 10
63.041761
 20
1.026160
 30
0.0
 10
63.015436
 20
0.891822
 30
0.0
 10
62.962745
 20
0.765387
 30
0.0
  0
SPLINE
  5
1fc
100
AcDbEntity
  8
Beaker
 62
7
100
AcDbSpline
 70
8
 71
3
 72
8
 73
4
 74
0
 40
0
 40
0
 40
0
 40
0
 40
1
 40
1
 40
1
 40
1
 10
62.962745
 20
0.765387
 30
0.0
 10
62.910057
 20
0.644217
 30
0.0
 10
62.836304
 20
0.536222
 30
0.0
 10
62.741483
 20
0.441396
 30
0.0
  0
SPLINE
  5
1fd
100
AcDbEntity
  8
Beaker
 62
7
100
AcDbSpline
 70
8
 71
3
 72
8
 73
4
 74
0
 40
0
 40
0
 40
0
 40
0
 40
1
 40
1
 40
1
 40
1
 10
62.741483
 20
0.441396
 30
0.0
 10
62.646650
 20
0.346569
 30
0.0
 10
62.536019
 20
0.272816
 30
0.0
 10
62.409589
 20
0.220133
 30
0.0
  0
SPLINE
  5
1fe
100
AcDbEntity
  8
Beaker
 62
7
100
AcDbSpline
 70
8
 71
3
 72
8
 73
4
 74
0
 40
0
 40
0
 40
0
 40
0
 40
1
 40
1
 40
1
 40
1
 10
62.409589
 20
0.220133
 30
0.0
 10
62.288417
 20
0.167451
 30
0.0
 10
62.156713
 20
0.141111
 30
0.0
 10
62.014478
 20
0.141111
 30
0.0
  0
LWPOLYLINE
  5
1ff
100
AcDbEntity
  8
Beaker
 62
7
100
AcDbPolyline
 90
2
 70
0
 10
63.041767
 20
1.832187
 30
0.0
 10
63.041767
 20
1.168400
 30
0.0
  0
SPLINE
  5
200
100
AcDbEntity
  8
Beaker
 62
7
100
AcDbSpline
 70
8
 71
3
 72
8
 73
4
 74
0
 40
0
 40
0
 40
0
 40
0
 40
1
 40
1
 40
1
 40
1
 10
59.406745
 20
0.141111
 30
0.0
 10
59.264502
 20
0.141111
 30
0.0
 10
59.130164
 20
0.167442
 30
0.0
 10
59.003732
 20
0.220133
 30
0.0
  0
SPLINE
  5
201
100
AcDbEntity
  8
Beaker
 62
7
100
AcDbSpline
 70
8
 71
3
 72
8
 73
4
 74
0
 40
0
 40
0
 40
0
 40
0
 40
1
 40
1
 40
1
 40
1
 10
59.003732
 20
0.220133
 30
0.0
 10
58.882562
 20
0.272816
 30
0.0
 10
58.774564
 20
0.346569
 30
0.0
 10
58.679740
 20
0.441396
 30
0.0
  0
SPLINE
  5
202
100
AcDbEntity
  8
Beaker
 62
7
100
AcDbSpline
 70
8
 71
3
 72
8
 73
4
 74
0
 40
0
 40
0
 40
0
 40
0
 40
1
 40
1
 40
1
 40
1
 10
58.679740
 20
0.441396
 30
0.0
 10
58.584911
 20
0.536222
 30
0.0
 10
58.511158
 20
0.644217
 30
0.0
 10
58.458478
 20
0.765387
 30
0.0
  0
SPLINE
  5
203
100
AcDbEntity
  8
Beaker
 62
7
100
AcDbSpline
 70
8
 71
3
 72
8
 73
4
 74
0
 40
0
 40
0
 40
0
 40
0
 40
1
 40
1
 40
1
 40
1
 10
58.458478
 20
0.765387
 30
0.0
 10
58.405796
 20
0.891822
 30
0.0
 10
58.379456
 20
1.026160
 30
0.0
 10
58.379456
 20
1.168400
 30
0.0
  0
LWPOLYLINE
  5
204
100
AcDbEntity
  8
Beaker
 62
7
100
AcDbPolyline
 90
2
 70
0
 10
62.014478
 20
0.141111
 30
0.0
 10
59.406745
 20
0.141111
 30
0.0
  0
SPLINE
  5
205
100
AcDbEntity
  8
Beaker
 62
7
100
AcDbSpline
 70
8
 71
3
 72
8
 73
4
 74
0
 40
0
 40
0
 40
0
 40
0
 40
1
 40
1
 40
1
 40
1
 10
59.232896
 20
1.168400
 30
0.0
 10
59.232893
 20
1.120987
 30
0.0
 10
59.248700
 20
1.078840
 30
0.0
 10
59.280309
 20
1.041964
 30
0.0
  0
SPLINE
  5
206
100
AcDbEntity
  8
Beaker
 62
7
100
AcDbSpline
 70
8
 71
3
 72
8
 73
4
 74
0
 40
0
 40
0
 40
0
 40
0
 40
1
 40
1
 40
1
 40
1
 10
59.280309
 20
1.041964
 30
0.0
 10
59.317184
 20
1.010356
 30
0.0
 10
59.359329
 20
0.994551
 30
0.0
 10
59.406745
 20
0.994551
 30
0.0
  0
LWPOLYLINE
  5
207
100
AcDbEntity
  8
Beaker
 62
7
100
AcDbPolyline
 90
4
 70
0
 10
58.379456
 20
1.168400
 30
0.0
 10
58.379456
 20
1.342249
 30
0.0
 10
59.232896
 20
1.342249
 30
0.0
 10
59.232896
 20
1.168400
 30
0.0
  0
SPLINE
  5
208
100
AcDbEntity
  8
Beaker
 62
7
100
AcDbSpline
 70
8
 71
3
 72
8
 73
4
 74
0
 40
0
 40
0
 40
0
 40
0
 40
1
 40
1
 40
1
 40
1
 10
62.014478
 20
0.994551
 30
0.0
 10
62.061886
 20
0.994551
 30
0.0
 10
62.101397
 20
1.010356
 30
0.0
 10
62.133012
 20
1.041964
 30
0.0
  0
SPLINE
  5
209
100
AcDbEntity
  8
Beaker
 62
7
100
AcDbSpline
 70
8
 71
3
 72
8
 73
4
 74
0
 40
0
 40
0
 40
0
 40
0
 40
1
 40
1
 40
1
 40
1
 10
62.133012
 20
1.041964
 30
0.0
 10
62.169884
 20
1.078840
 30
0.0
 10
62.188321
 20
1.120987
 30
0.0
 10
62.188327
 20
1.168400
 30
0.0
  0
LWPOLYLINE
  5
20a
100
AcDbEntity
  8
Beaker
 62
7
100
AcDbPolyline
 90
2
 70
0
 10
59.406745
 20
0.994551
 30
0.0
 10
62.014478
 20
0.994551
 30
0.0
  0
SPLINE
  5
20b
100
AcDbEntity
  8
Beaker
 62
7
100
AcDbSpline
 70
8
 71
3
 72
8
 73
4
 74
0
 40
0
 40
0
 40
0
 40
0
 40
1
 40
1
 40
1
 40
1
 10
62.188327
 20
1.832187
 30
0.0
 10
62.188321
 20
1.879597
 30
0.0
 10
62.169898
 20
1.919108
 30
0.0
 10
62.133012
 20
1.950720
 30
0.0
  0
SPLINE
  5
20c
100
AcDbEntity
  8
Beaker
 62
7
100
AcDbSpline
 70
8
 71
3
 72
8
 73
4
 74
0
 40
0
 40
0
 40
0
 40
0
 40
1
 40
1
 40
1
 40
1
 10
62.133012
 20
1.950720
 30
0.0
 10
62.101397
 20
1.987595
 30
0.0
 10
62.061886
 20
2.006033
 30
0.0
 10
62.014478
 20
2.006036
 30
0.0
  0
LWPOLYLINE
  5
20d
100
AcDbEntity
  8
Beaker
 62
7
100
AcDbPolyline
 90
2
 70
0
 10
62.188327
 20
1.168400
 30
0.0
 10
62.188327
 20
1.832187
 30
0.0
  0
SPLINE
  5
20e
100
AcDbEntity
  8
Beaker
 62
7
100
AcDbSpline
 70
8
 71
3
 72
8
 73
4
 74
0
 40
0
 40
0
 40
0
 40
0
 40
1
 40
1
 40
1
 40
1
 10
59.406745
 20
2.006036
 30
0.0
 10
59.264502
 20
2.006033
 30
0.0
 10
59.130164
 20
2.032367
 30
0.0
 10
59.003732
 20
2.085058
 30
0.0
  0
SPLINE
  5
20f
100
AcDbEntity
  8
Beaker
 62
7
100
AcDbSpline
 70
8
 71
3
 72
8
 73
4
 74
0
 40
0
 40
0
 40
0
 40
0
 40
1
 40
1
 40
1
 40
1
 10
59.003732
 20
2.085058
 30
0.0
 10
58.882562
 20
2.137737
 30
0.0
 10
58.774564
 20
2.211491
 30
0.0
 10
58.679740
 20
2.306320
 30
0.0
  0
SPLINE
  5
210
100
AcDbEntity
  8
Beaker
 62
7
100
AcDbSpline
 70
8
 71
3
 72
8
 73
4
 74
0
 40
0
 40
0
 40
0
 40
0
 40
1
 40
1
 40
1
 40
1
 10
58.679740
 20
2.306320
 30
0.0
 10
58.584911
 20
2.401144
 30
0.0
 10
58.511158
 20
2.509142
 30
0.0
 10
58.458478
 20
2.630311
 30
0.0
  0
SPLINE
  5
211
100
AcDbEntity
  8
Beaker
 62
7
100
AcDbSpline
 70
8
 71
3
 72
8
 73
4
 74
0
 40
0
 40
0
 40
0
 40
0
 40
1
 40
1
 40
1
 40
1
 10
58.458478
 20
2.630311
 30
0.0
 10
58.405796
 20
2.756744
 30
0.0
 10
58.379456
 20
2.891082
 30
0.0
 10
58.379456
 20
3.033324
 30
0.0
  0
LWPOLYLINE
  5
212
100
AcDbEntity
  8
Beaker
 62
7
100
AcDbPolyline
 90
2
 70
0
 10
62.014478
 20
2.006036
 30
0.0
 10
59.406745
 20
2.006036
 30
0.0
  0
SPLINE
  5
213
100
AcDbEntity
  8
Beaker
 62
7
100
AcDbSpline
 70
8
 71
3
 72
8
 73
4
 74
0
 40
0
 40
0
 40
0
 40
0
 40
1
 40
1
 40
1
 40
1
 10
58.379456
 20
3.697111
 30
0.0
 10
58.379456
 20
3.839348
 30
0.0
 10
58.405787
 20
3.971050
 30
0.0
 10
58.458478
 20
4.092222
 30
0.0
  0
SPLINE
  5
214
100
AcDbEntity
  8
Beaker
 62
7
100
AcDbSpline
 70
8
 71
3
 72
8
 73
4
 74
0
 40
0
 40
0
 40
0
 40
0
 40
1
 40
1
 40
1
 40
1
 10
58.458478
 20
4.092222
 30
0.0
 10
58.511158
 20
4.218655
 30
0.0
 10
58.584911
 20
4.329286
 30
0.0
 10
58.679740
 20
4.424116
 30
0.0
  0
SPLINE
  5
215
100
AcDbEntity
  8
Beaker
 62
7
100
AcDbSpline
 70
8
 71
3
 72
8
 73
4
 74
0
 40
0
 40
0
 40
0
 40
0
 40
1
 40
1
 40
1
 40
1
 10
58.679740
 20
4.424116
 30
0.0
 10
58.774564
 20
4.518937
 30
0.0
 10
58.882562
 20
4.592693
 30
0.0
 10
59.003732
 20
4.645378
 30
0.0
  0
SPLINE
  5
216
100
AcDbEntity
  8
Beaker
 62
7
100
AcDbSpline
 70
8
 71
3
 72
8
 73
4
 74
0
 40
0
 40
0
 40
0
 40
0
 40
1
 40
1
 40
1
 40
1
 10
59.003732
 20
4.645378
 30
0.0
 10
59.130164
 20
4.698055
 30
0.0
 10
59.264502
 20
4.724394
 30
0.0
 10
59.406745
 20
4.724400
 30
0.0
  0
LWPOLYLINE
  5
217
100
AcDbEntity
  8
Beaker
 62
7
100
AcDbPolyline
 90
2
 70
0
 10
58.379456
 20
3.033324
 30
0.0
 10
58.379456
 20
3.697111
 30
0.0
  0
SPLINE
  5
218
100
AcDbEntity
  8
Beaker
 62
7
100
AcDbSpline
 70
8
 71
3
 72
8
 73
4
 74
0
 40
0
 40
0
 40
0
 40
0
 40
1
 40
1
 40
1
 40
1
 10
62.014478
 20
4.724400
 30
0.0
 10
62.156713
 20
4.724394
 30
0.0
 10
62.288417
 20
4.698040
 30
0.0
 10
62.409589
 20
4.645378
 30
0.0
  0
SPLINE
  5
219
100
AcDbEntity
  8
Beaker
 62
7
100
AcDbSpline
 70
8
 71
3
 72
8
 73
4
 74
0
 40
0
 40
0
 40
0
 40
0
 40
1
 40
1
 40
1
 40
1
 10
62.409589
 20
4.645378
 30
0.0
 10
62.536019
 20
4.592693
 30
0.0
 10
62.646650
 20
4.518937
 30
0.0
 10
62.741483
 20
4.424116
 30
0.0
  0
SPLINE
  5
21a
100
AcDbEntity
  8
Beaker
 62
7
100
AcDbSpline
 70
8
 71
3
 72
8
 73
4
 74
0
 40
0
 40
0
 40
0
 40
0
 40
1
 40
1
 40
1
 40
1
 10
62.741483
 20
4.424116
 30
0.0
 10
62.836304
 20
4.329286
 30
0.0
 10
62.910057
 20
4.218655
 30
0.0
 10
62.962745
 20
4.092222
 30
0.0
  0
SPLINE
  5
21b
100
AcDbEntity
  8
Beaker
 62
7
100
AcDbSpline
 70
8
 71
3
 72
8
 73
4
 74
0
 40
0
 40
0
 40
0
 40
0
 40
1
 40
1
 40
1
 40
1
 10
62.962745
 20
4.092222
 30
0.0
 10
63.015422
 20
3.971050
 30
0.0
 10
63.041761
 20
3.839348
 30
0.0
 10
63.041767
 20
3.697111
 30
0.0
  0
LWPOLYLINE
  5
21c
100
AcDbEntity
  8
Beaker
 62
7
100
AcDbPolyline
 90
2
 70
0
 10
59.406745
 20
4.724400
 30
0.0
 10
62.014478
 20
4.724400
 30
0.0
  0
LWPOLYLINE
  5
21d
100
AcDbEntity
  8
Beaker
 62
7
100
AcDbPolyline
 90
2
 70
0
 10
63.041767
 20
3.697111
 30
0.0
 10
63.041767
 20
3.523262
 30
0.0
  0
ENDSEC
  0
SECTION
  2
OBJECTS
  0
DICTIONARY
  5
C
330
0
100
AcDbDictionary
  3
ACAD_GROUP
350
D
  3
ACAD_MLINESTYLE
350
17
  0
DICTIONARY
  5
D
330
C
100
AcDbDictionary
  0
DICTIONARY
  5
1A
330
C
100
AcDbDictionary
  0
DICTIONARY
  5
17
330
C
100
AcDbDictionary
  3
STANDARD
350
18
  0
DICTIONARY
  5
19
330
C
100
AcDbDictionary
  0
ENDSEC
  0
EOF
