<?xml version="1.0" encoding="UTF-8" standalone="no"?>
<!-- Generator: Adobe Illustrator 15.0.0, SVG Export Plug-In . SVG Version: 6.00 Build 0)  -->

<svg
   xmlns:dc="http://purl.org/dc/elements/1.1/"
   xmlns:cc="http://creativecommons.org/ns#"
   xmlns:rdf="http://www.w3.org/1999/02/22-rdf-syntax-ns#"
   xmlns:svg="http://www.w3.org/2000/svg"
   xmlns="http://www.w3.org/2000/svg"
   xmlns:sodipodi="http://sodipodi.sourceforge.net/DTD/sodipodi-0.dtd"
   xmlns:inkscape="http://www.inkscape.org/namespaces/inkscape"
   version="1.1"
   id="Layer_1"
   x="0px"
   y="0px"
   width="199.00497"
   height="199.00497"
   viewBox="0 0 199.00497 199.00497"
   enable-background="new 0 0 600 370"
   xml:space="preserve"
   inkscape:version="0.91 r13725"
   sodipodi:docname="Arachnid Labs Avatar.svg"><metadata
     id="metadata47"><rdf:RDF><cc:Work
         rdf:about=""><dc:format>image/svg+xml</dc:format><dc:type
           rdf:resource="http://purl.org/dc/dcmitype/StillImage" /><dc:title /></cc:Work></rdf:RDF></metadata><defs
     id="defs45" /><sodipodi:namedview
     pagecolor="#ffffff"
     bordercolor="#666666"
     borderopacity="1"
     objecttolerance="10"
     gridtolerance="10"
     guidetolerance="10"
     inkscape:pageopacity="0"
     inkscape:pageshadow="2"
     inkscape:window-width="1440"
     inkscape:window-height="851"
     id="namedview43"
     showgrid="false"
     inkscape:zoom="3.261225"
     inkscape:cx="99.502487"
     inkscape:cy="99.502487"
     inkscape:window-x="0"
     inkscape:window-y="0"
     inkscape:window-maximized="1"
     inkscape:current-layer="Layer_1"
     fit-margin-top="0"
     fit-margin-left="0"
     fit-margin-right="0"
     fit-margin-bottom="0" /><g
     id="g3765"
     transform="translate(29.03376,6.9868627)"
     inkscape:export-filename="C:\Users\nickjohnson\Google Drive\projects\arachnidlabs.github.com\resources\Arachnid Labs Avatar.png"
     inkscape:export-xdpi="150"
     inkscape:export-ydpi="150"><path
       d="M 84.845703 6.9863281 C 82.137703 6.9863281 79.939453 9.1845781 79.939453 11.892578 C 79.939453 12.779578 80.183703 13.613078 80.595703 14.330078 L 61.501953 33.673828 L 61.501953 66.923828 L 82.970703 92.080078 L 81.501953 94.361328 L 54.408203 74.048828 L 42.783203 33.423828 L 50.564453 18.642578 C 51.037453 18.794578 51.540453 18.892578 52.064453 18.892578 C 54.772453 18.892578 56.939453 16.693328 56.939453 13.986328 C 56.939453 11.278328 54.772453 9.0800781 52.064453 9.0800781 C 49.356453 9.0800781 47.158203 11.278328 47.158203 13.986328 C 47.158203 15.260328 47.643453 16.395578 48.439453 17.267578 L 37.283203 32.017578 L 47.345703 76.955078 L 76.658203 101.95508 L 76.439453 102.26758 L 52.251953 99.736328 L 29.033203 126.79883 L 29.126953 128.64258 L 35.001953 150.14258 C 33.186953 150.86158 31.876953 152.63308 31.876953 154.70508 C 31.876953 157.41208 34.075203 159.61133 36.783203 159.61133 C 39.491203 159.61133 41.689453 157.41208 41.689453 154.70508 C 41.689453 152.08008 39.623203 149.96108 37.033203 149.83008 L 34.533203 128.89258 L 54.189453 106.95508 L 72.658203 110.29883 L 72.314453 112.04883 L 48.564453 129.61133 L 53.033203 170.17383 L 66.751953 184.54883 C 66.286953 185.29783 66.001953 186.16433 66.001953 187.11133 C 66.001953 189.81833 68.199203 192.01758 70.908203 192.01758 C 73.615203 192.01758 75.814453 189.81833 75.814453 187.11133 C 75.814453 184.40233 73.615203 182.23633 70.908203 182.23633 C 70.039203 182.23633 69.239203 182.46633 68.533203 182.86133 L 58.220703 167.89258 L 56.283203 132.76758 L 69.001953 129.26758 L 83.533203 158.29883 L 99.501953 165.36133 L 115.43945 158.29883 L 129.94922 129.30859 L 142.7207 132.76758 L 140.7832 167.89258 L 130.4707 182.86133 C 129.7637 182.46633 128.9627 182.23633 128.0957 182.23633 C 125.3867 182.23633 123.18945 184.40233 123.18945 187.11133 C 123.18945 189.81833 125.3867 192.01758 128.0957 192.01758 C 130.8037 192.01758 132.9707 189.81833 132.9707 187.11133 C 132.9707 186.16433 132.71795 185.29783 132.25195 184.54883 L 145.9707 170.17383 L 150.43945 129.61133 L 126.6582 112.01758 L 126.31445 110.29883 L 144.81445 106.95508 L 164.4707 128.89258 L 161.9707 149.83008 C 159.3797 149.96108 157.31445 152.08008 157.31445 154.70508 C 157.31445 157.41208 159.5137 159.61133 162.2207 159.61133 C 164.9287 159.61133 167.0957 157.41208 167.0957 154.70508 C 167.0957 152.63408 165.81595 150.86158 164.00195 150.14258 L 169.87695 128.64258 L 169.9707 126.79883 L 146.75195 99.736328 L 122.5332 102.26758 L 122.3457 101.95508 L 151.6582 76.955078 L 161.7207 32.017578 L 150.56445 17.267578 C 151.36045 16.395578 151.8457 15.260328 151.8457 13.986328 C 151.8457 11.278328 149.64845 9.0800781 146.93945 9.0800781 C 144.23345 9.0800781 142.06445 11.278328 142.06445 13.986328 C 142.06445 16.694328 144.23345 18.892578 146.93945 18.892578 C 147.46345 18.892578 147.96445 18.794578 148.43945 18.642578 L 156.2207 33.423828 L 144.5957 74.048828 L 117.4707 94.361328 L 116.0332 92.080078 L 137.50195 66.923828 L 137.50195 33.673828 L 118.4082 14.330078 C 118.8202 13.613078 119.06445 12.778578 119.06445 11.892578 C 119.06445 9.1845781 116.8672 6.9863281 114.1582 6.9863281 C 111.4522 6.9863281 109.2832 9.1845781 109.2832 11.892578 C 109.2832 14.600578 111.4522 16.798828 114.1582 16.798828 C 114.9472 16.798828 115.6847 16.598578 116.3457 16.267578 L 130.00195 35.298828 L 128.37695 66.205078 L 116.8457 78.580078 L 111.3457 68.392578 L 111.31445 68.205078 L 87.751953 68.205078 L 82.158203 78.611328 L 70.626953 66.205078 L 69.001953 35.298828 L 82.658203 16.267578 C 83.318203 16.598578 84.056703 16.798828 84.845703 16.798828 C 87.552708 16.798828 89.720703 14.599578 89.720703 11.892578 C 89.720703 9.1845781 87.552708 6.9863281 84.845703 6.9863281 z M 84.814453 9.0800781 C 86.373453 9.0800781 87.658203 10.333578 87.658203 11.892578 C 87.658203 13.451578 86.372453 14.736328 84.814453 14.736328 C 83.254453 14.736328 82.001953 13.450578 82.001953 11.892578 C 82.001953 10.332578 83.255453 9.0800781 84.814453 9.0800781 z M 114.1582 9.0800781 C 115.7192 9.0800781 117.00195 10.333578 117.00195 11.892578 C 117.00195 13.451578 115.7182 14.736328 114.1582 14.736328 C 112.6002 14.736328 111.3457 13.450578 111.3457 11.892578 C 111.3457 10.332578 112.6002 9.0800781 114.1582 9.0800781 z M 52.064453 11.173828 C 53.622453 11.173828 54.876953 12.427328 54.876953 13.986328 C 54.876953 15.545328 53.622453 16.798828 52.064453 16.798828 C 50.505453 16.798828 49.220703 15.544328 49.220703 13.986328 C 49.221703 12.426328 50.505453 11.173828 52.064453 11.173828 z M 146.93945 11.173828 C 148.50045 11.173828 149.7832 12.427328 149.7832 13.986328 C 149.7832 15.545328 148.49945 16.798828 146.93945 16.798828 C 145.38145 16.798828 144.12695 15.544328 144.12695 13.986328 C 144.12695 12.427328 145.38145 11.173828 146.93945 11.173828 z M 93.345703 98.767578 L 94.751953 98.767578 L 104.25195 98.767578 L 105.6582 98.767578 L 105.6582 101.20508 L 104.25195 101.20508 L 104.2832 109.33008 L 115.4707 138.14258 L 112.5957 144.42383 L 86.408203 144.42383 L 83.533203 138.14258 L 94.720703 109.33008 L 94.720703 101.20508 L 93.345703 101.20508 L 93.345703 98.767578 z M 36.783203 151.89258 C 38.341203 151.89258 39.626953 153.14608 39.626953 154.70508 C 39.626953 156.26308 38.342203 157.51758 36.783203 157.51758 C 35.224203 157.51758 33.970703 156.26208 33.970703 154.70508 C 33.970703 153.14508 35.225203 151.89258 36.783203 151.89258 z M 162.2207 151.89258 C 163.7807 151.89258 165.0332 153.14608 165.0332 154.70508 C 165.0332 156.26308 163.7797 157.51758 162.2207 157.51758 C 160.6617 157.51758 159.37695 156.26208 159.37695 154.70508 C 159.37695 153.14508 160.6627 151.89258 162.2207 151.89258 z M 70.908203 184.29883 C 72.466203 184.29883 73.751953 185.55233 73.751953 187.11133 C 73.751953 188.66933 72.466203 189.95508 70.908203 189.95508 C 69.348203 189.95508 68.095703 188.66833 68.095703 187.11133 C 68.095703 185.55133 69.348203 184.29883 70.908203 184.29883 z M 128.0957 184.29883 C 129.6537 184.29883 130.9082 185.55233 130.9082 187.11133 C 130.9082 188.66933 129.6547 189.95508 128.0957 189.95508 C 126.5367 189.95508 125.25195 188.66833 125.25195 187.11133 C 125.25195 185.55133 126.5377 184.29883 128.0957 184.29883 z "
       transform="translate(-29.03376,-6.9868627)"
       id="path5" /><polygon
       transform="translate(-229.53125,-73.8125)"
       style="fill:#83969c;fill-opacity:1"
       inkscape:export-ydpi="150"
       inkscape:export-xdpi="150"
       inkscape:export-filename="C:\Users\nickjohnson\Downloads\arachnid labs.png"
       points="289.656,208.326 310.326,208.326 312.28,204.087 308.071,192.721 291.911,192.721 287.702,204.087 "
       id="polygon13" /></g><g
     inkscape:groupmode="layer"
     id="layer3"
     inkscape:label="Logo"
     style="display:inline"
     transform="translate(-229.78001,-59.590017)" /><g
     inkscape:groupmode="layer"
     id="layer4"
     inkscape:label="Beaker"
     style="display:inline"
     transform="translate(-229.78001,-59.590017)" /></svg>